<svg xmlns="http://www.w3.org/2000/svg" width="1800" height="2400" viewBox="0 0 1800 2400">
<defs>
      <filter id="card-shadow" x="-20%" y="-25%" width="140%" height="160%">
        <feDropShadow dx="0" dy="3" stdDeviation="4" flood-color="#12271e" flood-opacity="0.10"/>
      </filter>
      <marker id="arrow-sequence" markerWidth="17" markerHeight="13" refX="15" refY="6.5" orient="auto" markerUnits="userSpaceOnUse">
    <path d="M1,1 L16,6.5 L1,12 Z" fill="#53675d" stroke="#ffffff" stroke-width="1.3" stroke-linejoin="round"/>
  </marker>
      <marker id="arrow-message" markerWidth="17" markerHeight="13" refX="15" refY="6.5" orient="auto" markerUnits="userSpaceOnUse">
    <path d="M1,1 L16,6.5 L1,12 Z" fill="#0f8a65" stroke="#ffffff" stroke-width="1.3" stroke-linejoin="round"/>
  </marker>
      <marker id="arrow-loop" markerWidth="17" markerHeight="13" refX="15" refY="6.5" orient="auto" markerUnits="userSpaceOnUse">
    <path d="M1,1 L16,6.5 L1,12 Z" fill="#3478db" stroke="#ffffff" stroke-width="1.3" stroke-linejoin="round"/>
  </marker>
      <style>
        text { font-family: -apple-system, "Segoe UI", "Helvetica Neue", Arial, "Apple SD Gothic Neo", "Noto Sans CJK KR", "Noto Sans KR", sans-serif; }
        .mono { font-family: "SFMono-Regular", "Menlo", monospace; }
      </style>
    </defs>
<rect width="1800" height="2400" fill="#ffffff"/>
<rect x="0" y="0" width="1800" height="240" fill="#07150f"/>
<rect x="0" y="0" width="1800" height="9" fill="#18a87b"/>

    <text x="1760" y="45" text-anchor="end" font-size="15" font-weight="700" fill="#8fa299">노드 14 · 레인 4 · 게이트 5</text>
    <text x="40" y="132" font-size="34" font-weight="850" fill="#ffffff">에콰도르 환경정규화·건축허가 — SUIA·키토 대규모 건축허가(LMU-20) 사례</text>
    <text x="40" y="174" font-size="19" font-weight="520" fill="#b7c7bf">GAD 건축 licence와 SUIA의 certificate·registro·licencia 환경경로를 영향·입지별로 연결한다.</text>
    
  
<rect x="38" y="260" width="1724" height="1940" rx="10" fill="#ffffff" stroke="#b8c7bf" stroke-width="2"/>
<rect x="38" y="260" width="190" height="100" rx="10" fill="#eaf2ee"/>
<text x="58" y="299" font-size="17" font-weight="800" fill="#17231d">단계 ↓</text>
<text x="58" y="332" font-size="15" font-weight="650" fill="#68776f">행위자 묶음 →</text>
<rect x="38" y="360" width="1724" height="299.6" fill="#84baa9"/>
<rect x="38" y="360" width="190" height="299.6" fill="#087452"/>
<text x="58" y="392" class="mono" font-size="16" font-weight="800" fill="#ffffff">P1</text>
<text x="58" y="425" font-size="19" font-weight="800" fill="#ffffff"><tspan x="58" dy="0">SUIA 분류</tspan></text>
<rect x="38" y="659.6" width="1724" height="413.6" fill="#f5f8f6"/>
<rect x="38" y="659.6" width="190" height="413.6" fill="#eef3f0"/>
<text x="58" y="691.6" class="mono" font-size="16" font-weight="800" fill="#53645b">P2</text>
<text x="58" y="724.6" font-size="19" font-weight="800" fill="#53645b"><tspan x="58" dy="0">환경심사·보완</tspan></text>
<rect x="38" y="1073.2" width="1724" height="413.6" fill="#84baa9"/>
<rect x="38" y="1073.2" width="190" height="413.6" fill="#087452"/>
<text x="58" y="1105.2" class="mono" font-size="16" font-weight="800" fill="#ffffff">P3</text>
<text x="58" y="1138.2" font-size="19" font-weight="800" fill="#ffffff"><tspan x="58" dy="0">환경결정</tspan></text>
<rect x="38" y="1486.8" width="1724" height="299.6" fill="#84baa9"/>
<rect x="38" y="1486.8" width="190" height="299.6" fill="#087452"/>
<text x="58" y="1518.8" class="mono" font-size="16" font-weight="800" fill="#ffffff">P4</text>
<text x="58" y="1551.8" font-size="19" font-weight="800" fill="#ffffff"><tspan x="58" dy="0">대규모 건축허가</tspan><tspan x="58" dy="22">도서·접수</tspan></text>
<rect x="38" y="1786.4" width="1724" height="413.6" fill="#84baa9"/>
<rect x="38" y="1786.4" width="190" height="413.6" fill="#087452"/>
<text x="58" y="1818.4" class="mono" font-size="16" font-weight="800" fill="#ffffff">P5</text>
<text x="58" y="1851.4" font-size="19" font-weight="800" fill="#ffffff"><tspan x="58" dy="0">건축허가 결정</tspan></text>
<rect x="228" y="260" width="383.5" height="100" fill="#f7faf8"/>
<rect x="228" y="260" width="383.5" height="7" fill="#0f9f72"/>
<text x="248" y="299" font-size="20" font-weight="800" fill="#17231d">건축주·신청인</text>
<text x="248" y="329" font-size="13.5" font-weight="600" fill="#68776f"><tspan x="248" dy="0">건축주·신청인</tspan></text>
<rect x="611.5" y="260" width="383.5" height="100" fill="#f7faf8"/>
<rect x="611.5" y="260" width="383.5" height="7" fill="#3b82f6"/>
<text x="631.5" y="299" font-size="20" font-weight="800" fill="#17231d">현지 설계</text>
<text x="631.5" y="329" font-size="13.5" font-weight="600" fill="#68776f"><tspan x="631.5" dy="0">현지 설계·시공 전문가</tspan></text>
<rect x="995" y="260" width="383.5" height="100" fill="#f7faf8"/>
<rect x="995" y="260" width="383.5" height="7" fill="#c78116"/>
<text x="1015" y="299" font-size="20" font-weight="800" fill="#17231d">도시계획</text>
<text x="1015" y="329" font-size="13.5" font-weight="600" fill="#68776f"><tspan x="1015" dy="0">도시계획·건축 허가기관</tspan></text>
<rect x="1378.5" y="260" width="383.5" height="100" fill="#f7faf8"/>
<rect x="1378.5" y="260" width="383.5" height="7" fill="#0891b2"/>
<text x="1398.5" y="299" font-size="20" font-weight="800" fill="#17231d">환경</text>
<text x="1398.5" y="329" font-size="13.5" font-weight="600" fill="#68776f"><tspan x="1398.5" dy="0">환경·소방·검사기관</tspan></text>
<line x1="228" y1="260" x2="228" y2="2200" stroke="#d3dcd7" stroke-width="1.5"/>
<line x1="611.5" y1="260" x2="611.5" y2="2200" stroke="#d3dcd7" stroke-width="1.5"/>
<line x1="995" y1="260" x2="995" y2="2200" stroke="#d3dcd7" stroke-width="1.5"/>
<line x1="1378.5" y1="260" x2="1378.5" y2="2200" stroke="#d3dcd7" stroke-width="1.5"/>
<line x1="1762" y1="260" x2="1762" y2="2200" stroke="#d3dcd7" stroke-width="1.5"/>
<line x1="38" y1="360" x2="1762" y2="360" stroke="#b8c7bf" stroke-width="2"/>
<line x1="38" y1="360" x2="1762" y2="360" stroke="#c8d3cd" stroke-width="1.5"/>
<line x1="38" y1="659.6" x2="1762" y2="659.6" stroke="#c8d3cd" stroke-width="1.5"/>
<line x1="38" y1="1073.2" x2="1762" y2="1073.2" stroke="#c8d3cd" stroke-width="1.5"/>
<line x1="38" y1="1486.8" x2="1762" y2="1486.8" stroke="#c8d3cd" stroke-width="1.5"/>
<line x1="38" y1="1786.4" x2="1762" y2="1786.4" stroke="#c8d3cd" stroke-width="1.5"/>
<line x1="38" y1="2200" x2="1762" y2="2200" stroke="#b8c7bf" stroke-width="2"/>
<path d="M 554.8 509.8 H 1407.3 V 490.3 H 1427.3" fill="none" stroke="#ffffff" stroke-width="7.4"  stroke-linecap="round" stroke-linejoin="round" opacity="0.94"/>
<path d="M 554.8 509.8 H 1407.3 V 490.3 H 1427.3" fill="none" stroke="#53675d" stroke-width="3.4"  marker-end="url(#arrow-sequence)" stroke-linecap="round" stroke-linejoin="round" opacity="0.96"/>
<path d="M 1576.3 554.8 V 599.6 H 1736 V 1150 H 1558.3 V 1170" fill="none" stroke="#ffffff" stroke-width="7.4" stroke-dasharray="11 8" stroke-linecap="round" stroke-linejoin="round" opacity="0.94"/>
<path d="M 1576.3 554.8 V 599.6 H 1736 V 1150 H 1558.3 V 1170" fill="none" stroke="#0f8a65" stroke-width="3.4" stroke-dasharray="11 8" marker-end="url(#arrow-message)" stroke-linecap="round" stroke-linejoin="round" opacity="0.96"/>
<path d="M 1548.3 554.8 V 631.6 H 403.8 V 756.4" fill="none" stroke="#ffffff" stroke-width="7.4" stroke-dasharray="11 8" stroke-linecap="round" stroke-linejoin="round" opacity="0.94"/>
<path d="M 1548.3 554.8 V 631.6 H 403.8 V 756.4" fill="none" stroke="#0f8a65" stroke-width="3.4" stroke-dasharray="11 8" marker-end="url(#arrow-message)" stroke-linecap="round" stroke-linejoin="round" opacity="0.96"/>
<path d="M 554.8 815.9 H 1407.3 V 818.4 H 1427.3" fill="none" stroke="#ffffff" stroke-width="7.4"  stroke-linecap="round" stroke-linejoin="round" opacity="0.94"/>
<path d="M 554.8 815.9 H 1407.3 V 818.4 H 1427.3" fill="none" stroke="#53675d" stroke-width="3.4"  marker-end="url(#arrow-sequence)" stroke-linecap="round" stroke-linejoin="round" opacity="0.96"/>
<path d="M 1588.3 854.4 V 870.4 H 1572.3 V 870.4" fill="none" stroke="#ffffff" stroke-width="7.4"  stroke-linecap="round" stroke-linejoin="round" opacity="0.94"/>
<path d="M 1588.3 854.4 V 870.4 H 1572.3 V 870.4" fill="none" stroke="#53675d" stroke-width="3.4"  marker-end="url(#arrow-sequence)" stroke-linecap="round" stroke-linejoin="round" opacity="0.96"/>
<path d="M 1435.3 792.4 H 595.8 V 934.9 H 562.8" fill="none" stroke="#ffffff" stroke-width="7.4" stroke-dasharray="11 8" stroke-linecap="round" stroke-linejoin="round" opacity="0.94"/>
<path d="M 1435.3 792.4 H 595.8 V 934.9 H 562.8" fill="none" stroke="#0f8a65" stroke-width="3.4" stroke-dasharray="11 8" marker-end="url(#arrow-message)" stroke-linecap="round" stroke-linejoin="round" opacity="0.96"/>
<path d="M 554.8 921.9 H 1381.3 V 810.4 H 1427.3" fill="none" stroke="#ffffff" stroke-width="8" stroke-dasharray="10 8" stroke-linecap="round" stroke-linejoin="round" opacity="0.94"/>
<path d="M 554.8 921.9 H 1381.3 V 810.4 H 1427.3" fill="none" stroke="#3478db" stroke-width="4" stroke-dasharray="10 8" marker-end="url(#arrow-loop)" stroke-linecap="round" stroke-linejoin="round" opacity="0.96"/>
<path d="M 1580.3 968.4 V 1013.2 H 1731 V 1339.5 H 1713.3" fill="none" stroke="#ffffff" stroke-width="7.4"  stroke-linecap="round" stroke-linejoin="round" opacity="0.94"/>
<path d="M 1580.3 968.4 V 1013.2 H 1731 V 1339.5 H 1713.3" fill="none" stroke="#53675d" stroke-width="3.4"  marker-end="url(#arrow-sequence)" stroke-linecap="round" stroke-linejoin="round" opacity="0.96"/>
<path d="M 1592.3 554.8 V 615.6 H 633.5 V 1563.6 H 815.3 V 1583.6" fill="none" stroke="#ffffff" stroke-width="7.4" stroke-dasharray="11 8" stroke-linecap="round" stroke-linejoin="round" opacity="0.94"/>
<path d="M 1592.3 554.8 V 615.6 H 633.5 V 1563.6 H 815.3 V 1583.6" fill="none" stroke="#0f8a65" stroke-width="3.4" stroke-dasharray="11 8" marker-end="url(#arrow-message)" stroke-linecap="round" stroke-linejoin="round" opacity="0.96"/>
<path d="M 938.3 1657.1 H 1368.3 V 1650.6 H 1427.3" fill="none" stroke="#ffffff" stroke-width="7.4" stroke-dasharray="11 8" stroke-linecap="round" stroke-linejoin="round" opacity="0.94"/>
<path d="M 938.3 1657.1 H 1368.3 V 1650.6 H 1427.3" fill="none" stroke="#0f8a65" stroke-width="3.4" stroke-dasharray="11 8" marker-end="url(#arrow-message)" stroke-linecap="round" stroke-linejoin="round" opacity="0.96"/>
<path d="M 668.3 1623.6 H 582.8 V 1623.6 H 562.8" fill="none" stroke="#ffffff" stroke-width="7.4"  stroke-linecap="round" stroke-linejoin="round" opacity="0.94"/>
<path d="M 668.3 1623.6 H 582.8 V 1623.6 H 562.8" fill="none" stroke="#53675d" stroke-width="3.4"  marker-end="url(#arrow-sequence)" stroke-linecap="round" stroke-linejoin="round" opacity="0.96"/>
<path d="M 1572.3 1681.6 V 1740.4 H 439.8 V 1689.6" fill="none" stroke="#ffffff" stroke-width="7.4" stroke-dasharray="11 8" stroke-linecap="round" stroke-linejoin="round" opacity="0.94"/>
<path d="M 1572.3 1681.6 V 1740.4 H 439.8 V 1689.6" fill="none" stroke="#0f8a65" stroke-width="3.4" stroke-dasharray="11 8" marker-end="url(#arrow-message)" stroke-linecap="round" stroke-linejoin="round" opacity="0.96"/>
<path d="M 407.8 1681.6 V 1758.4 H 1150.8 V 1883.2" fill="none" stroke="#ffffff" stroke-width="7.4"  stroke-linecap="round" stroke-linejoin="round" opacity="0.94"/>
<path d="M 407.8 1681.6 V 1758.4 H 1150.8 V 1883.2" fill="none" stroke="#53675d" stroke-width="3.4"  marker-end="url(#arrow-sequence)" stroke-linecap="round" stroke-linejoin="round" opacity="0.96"/>
<path d="M 1222.8 1981.2 V 1997.2 H 1174.8 V 1997.2" fill="none" stroke="#ffffff" stroke-width="7.4"  stroke-linecap="round" stroke-linejoin="round" opacity="0.94"/>
<path d="M 1222.8 1981.2 V 1997.2 H 1174.8 V 1997.2" fill="none" stroke="#53675d" stroke-width="3.4"  marker-end="url(#arrow-sequence)" stroke-linecap="round" stroke-linejoin="round" opacity="0.96"/>
<path d="M 1051.8 1929.7 H 582.8 V 2002.2 H 562.8" fill="none" stroke="#ffffff" stroke-width="7.4" stroke-dasharray="11 8" stroke-linecap="round" stroke-linejoin="round" opacity="0.94"/>
<path d="M 1051.8 1929.7 H 582.8 V 2002.2 H 562.8" fill="none" stroke="#0f8a65" stroke-width="3.4" stroke-dasharray="11 8" marker-end="url(#arrow-message)" stroke-linecap="round" stroke-linejoin="round" opacity="0.96"/>
<path d="M 554.8 1989.2 H 1010.8 V 1947.7 H 1043.8" fill="none" stroke="#ffffff" stroke-width="8" stroke-dasharray="10 8" stroke-linecap="round" stroke-linejoin="round" opacity="0.94"/>
<path d="M 554.8 1989.2 H 1010.8 V 1947.7 H 1043.8" fill="none" stroke="#3478db" stroke-width="4" stroke-dasharray="10 8" marker-end="url(#arrow-loop)" stroke-linecap="round" stroke-linejoin="round" opacity="0.96"/>
<rect x="936.5" y="468.1" width="117" height="30" rx="6" fill="#ffffff" stroke="#53675d" stroke-width="1.4"/>
<text x="995" y="488.1" text-anchor="middle" font-size="14" font-weight="750" fill="#53675d">좌표·교차증명</text>
<rect x="1607.5" y="715.8" width="117" height="30" rx="6" fill="#ffffff" stroke="#0f8a65" stroke-width="1.4"/>
<text x="1666" y="735.8" text-anchor="middle" font-size="14" font-weight="750" fill="#0f8a65">비유의·저영향</text>
<rect x="928" y="599.6" width="96" height="30" rx="6" fill="#ffffff" stroke="#0f8a65" stroke-width="1.4"/>
<text x="976" y="619.6" text-anchor="middle" font-size="14" font-weight="750" fill="#0f8a65">중·고영향</text>
<rect x="916.6" y="785.2" width="156.9" height="30" rx="6" fill="#ffffff" stroke="#53675d" stroke-width="1.4"/>
<text x="995" y="805.2" text-anchor="middle" font-size="14" font-weight="750" fill="#53675d">환경영향평가서 접수</text>
<rect x="1620.8" y="995.4" width="128.9" height="30" rx="6" fill="#ffffff" stroke="#53675d" stroke-width="1.4"/>
<text x="1685.3" y="1015.4" text-anchor="middle" font-size="14" font-weight="750" fill="#53675d">유리한 기술의견</text>
<rect x="928.1" y="831.7" width="133.8" height="30" rx="6" fill="#ffffff" stroke="#0f8a65" stroke-width="1.4"/>
<text x="995" y="851.7" text-anchor="middle" font-size="14" font-weight="750" fill="#0f8a65">관찰사항 통지 시</text>
<rect x="893.1" y="870.2" width="203.8" height="30" rx="6" fill="#ffffff" stroke="#3478db" stroke-width="1.4"/>
<text x="995" y="890.2" text-anchor="middle" font-size="14" font-weight="750" fill="#3478db">수정 환경영향평가서 재검토</text>
<rect x="1607.6" y="1053.2" width="96" height="30" rx="6" fill="#ffffff" stroke="#53675d" stroke-width="1.4"/>
<text x="1655.6" y="1073.2" text-anchor="middle" font-size="14" font-weight="750" fill="#53675d">참여결과</text>
<rect x="536.2" y="1074.6" width="194.7" height="30" rx="6" fill="#ffffff" stroke="#0f8a65" stroke-width="1.4"/>
<text x="633.5" y="1094.6" text-anchor="middle" font-size="14" font-weight="750" fill="#0f8a65">병렬 대규모 건축허가 도서</text>
<rect x="1119.9" y="1621.9" width="133.8" height="30" rx="6" fill="#ffffff" stroke="#0f8a65" stroke-width="1.4"/>
<text x="1186.8" y="1641.9" text-anchor="middle" font-size="14" font-weight="750" fill="#0f8a65">해당 시 소방승인</text>
<rect x="563.5" y="1591.6" width="96" height="30" rx="6" fill="#ffffff" stroke="#53675d" stroke-width="1.4"/>
<text x="611.5" y="1611.6" text-anchor="middle" font-size="14" font-weight="750" fill="#53675d">적합증명</text>
<rect x="948.6" y="1708.4" width="114.9" height="30" rx="6" fill="#ffffff" stroke="#0f8a65" stroke-width="1.4"/>
<text x="1006" y="1728.4" text-anchor="middle" font-size="14" font-weight="750" fill="#0f8a65">소방도면 승인</text>
<rect x="698.4" y="1726.4" width="161.8" height="30" rx="6" fill="#ffffff" stroke="#53675d" stroke-width="1.4"/>
<text x="779.3" y="1746.4" text-anchor="middle" font-size="14" font-weight="750" fill="#53675d">대규모 건축허가 접수</text>
<rect x="1393.8" y="1978.2" width="96" height="30" rx="6" fill="#ffffff" stroke="#53675d" stroke-width="1.4"/>
<text x="1441.8" y="1998.2" text-anchor="middle" font-size="14" font-weight="750" fill="#53675d">완비</text>
<rect x="750.4" y="1934" width="105.8" height="30" rx="6" fill="#ffffff" stroke="#0f8a65" stroke-width="1.4"/>
<text x="803.3" y="1954" text-anchor="middle" font-size="14" font-weight="750" fill="#0f8a65">미비 통지 시</text>
<rect x="738.8" y="1972.5" width="128.9" height="30" rx="6" fill="#ffffff" stroke="#3478db" stroke-width="1.4"/>
<text x="803.3" y="1992.5" text-anchor="middle" font-size="14" font-weight="750" fill="#3478db">보완자료 재심사</text>

    <g filter="url(#card-shadow)">
      <rect x="280.8" y="460.8" width="278" height="98" rx="11" fill="none" stroke="#7c3aed" stroke-width="2.2" stroke-dasharray="7 5"/>
      <rect x="284.8" y="464.8" width="270" height="90" rx="8" fill="#087452" stroke="#087452" stroke-width="2.3"/>
      <rect x="284.8" y="464.8" width="6" height="90" rx="3" fill="#087452"/>
      <text x="299.8" y="484.8" class="mono" font-size="12.5" font-weight="750" fill="#d8f4e8">B09</text>
      <text x="351.8" y="484.8" font-size="11.5" font-weight="800" fill="#7c3aed">조문 · RCOA 환경등록</text>
      <rect x="494.8" y="471.8" width="50" height="24" rx="5" fill="#ffffff" opacity="0.18"/>
      <text x="519.8" y="488.8" text-anchor="middle" font-size="12" font-weight="800" fill="#ffffff">핵심</text>
      <text x="299.8" y="521.8" font-size="15.5" font-weight="800" fill="#ffffff"><tspan x="299.8" dy="0">SUIA 사업등록·교차증명 생성</tspan></text>
      <text x="299.8" y="546.8" font-size="11" font-weight="650" fill="#d8f4e8">사업시행자가 SUIA에 사업·활동·정확한 좌…</text>
    </g>
  

    <g filter="url(#card-shadow)">
      <rect x="1431.3" y="460.8" width="278" height="98" rx="11" fill="none" stroke="#7c3aed" stroke-width="2.2" stroke-dasharray="7 5"/>
      <rect x="1435.3" y="464.8" width="270" height="90" rx="8" fill="#fff8e8" stroke="#d9901a" stroke-width="2.3"/>
      <rect x="1435.3" y="464.8" width="6" height="90" rx="3" fill="#d9901a"/>
      <text x="1450.3" y="484.8" class="mono" font-size="12.5" font-weight="750" fill="#a96008">B10</text>
      <text x="1502.3" y="484.8" font-size="11.5" font-weight="800" fill="#7c3aed">조문 · RCOA 승인유형</text>
      <rect x="1645.3" y="471.8" width="50" height="24" rx="5" fill="#d9901a" opacity="0.14"/>
      <text x="1670.3" y="488.8" text-anchor="middle" font-size="12" font-weight="800" fill="#7a4305">병목</text>
      <text x="1450.3" y="521.8" font-size="15.5" font-weight="800" fill="#7a4305"><tspan x="1450.3" dy="0">환경영향·승인유형 SUIA 분류</tspan></text>
      <text x="1450.3" y="546.8" font-size="11" font-weight="650" fill="#a96008">SUIA와 관할 환경당국이 활동·입지의 영향·…</text>
    </g>
  

    <g filter="url(#card-shadow)">
      <rect x="1431.3" y="1174" width="278" height="98" rx="11" fill="none" stroke="#7c3aed" stroke-width="2.2" stroke-dasharray="7 5"/>
      <rect x="1435.3" y="1178" width="270" height="90" rx="8" fill="#ffffff" stroke="#b9c7bf" stroke-width="2.3"/>
      <rect x="1435.3" y="1178" width="6" height="90" rx="3" fill="#b9c7bf"/>
      <text x="1450.3" y="1198" class="mono" font-size="12.5" font-weight="750" fill="#627169">B11</text>
      <text x="1502.3" y="1198" font-size="11.5" font-weight="800" fill="#7c3aed">조문 · RCOA certificate·registro</text>
      <rect x="1645.3" y="1185" width="50" height="24" rx="5" fill="#b9c7bf" opacity="0.14"/>
      <text x="1670.3" y="1202" text-anchor="middle" font-size="12" font-weight="800" fill="#17231d">후속</text>
      <text x="1450.3" y="1225" font-size="15.5" font-weight="800" fill="#17231d"><tspan x="1450.3" dy="0">비유의·저영향 환경증명·환경등록</tspan><tspan x="1450.3" dy="18">발급</tspan></text>
      <text x="1450.3" y="1260" font-size="11" font-weight="650" fill="#627169">비유의 영향이면 SUIA가 환경증명과 적용 가…</text>
    </g>
  

    <g filter="url(#card-shadow)">
      <rect x="280.8" y="760.4" width="278" height="98" rx="11" fill="none" stroke="#7c3aed" stroke-width="2.2" stroke-dasharray="7 5"/>
      <rect x="284.8" y="764.4" width="270" height="90" rx="8" fill="#ffffff" stroke="#b9c7bf" stroke-width="2.3"/>
      <rect x="284.8" y="764.4" width="6" height="90" rx="3" fill="#b9c7bf"/>
      <text x="299.8" y="784.4" class="mono" font-size="12.5" font-weight="750" fill="#627169">B12</text>
      <text x="351.8" y="784.4" font-size="11.5" font-weight="800" fill="#7c3aed">조문 · RCOA 환경 licence</text>
      <rect x="494.8" y="771.4" width="50" height="24" rx="5" fill="#b9c7bf" opacity="0.14"/>
      <text x="519.8" y="788.4" text-anchor="middle" font-size="12" font-weight="800" fill="#17231d">후속</text>
      <text x="299.8" y="811.4" font-size="15.5" font-weight="800" fill="#17231d"><tspan x="299.8" dy="0">중·고영향</tspan><tspan x="299.8" dy="18">환경영향평가서(EIA)·환경허…</tspan></text>
      <text x="299.8" y="846.4" font-size="11" font-weight="650" fill="#627169">중·고영향으로 분류되면 시행자가 자격 있는…</text>
    </g>
  

    <g filter="url(#card-shadow)">
      <rect x="1431.3" y="760.4" width="278" height="98" rx="11" fill="none" stroke="#7c3aed" stroke-width="2.2" stroke-dasharray="7 5"/>
      <rect x="1435.3" y="764.4" width="270" height="90" rx="8" fill="#fff8e8" stroke="#d9901a" stroke-width="2.3"/>
      <rect x="1435.3" y="764.4" width="6" height="90" rx="3" fill="#d9901a"/>
      <text x="1450.3" y="784.4" class="mono" font-size="12.5" font-weight="750" fill="#a96008">B13</text>
      <text x="1502.3" y="784.4" font-size="11.5" font-weight="800" fill="#7c3aed">조문 · RCOA EIA 검토</text>
      <rect x="1645.3" y="771.4" width="50" height="24" rx="5" fill="#d9901a" opacity="0.14"/>
      <text x="1670.3" y="788.4" text-anchor="middle" font-size="12" font-weight="800" fill="#7a4305">병목</text>
      <text x="1450.3" y="811.4" font-size="15.5" font-weight="800" fill="#7a4305"><tspan x="1450.3" dy="0">환경영향평가서 1차</tspan><tspan x="1450.3" dy="18">기술검토·관찰사항 통지</tspan></text>
      <text x="1450.3" y="846.4" font-size="11" font-weight="650" fill="#a96008">관할 환경당국이 환경영향평가서의 법정요건·…</text>
    </g>
  

    <g filter="url(#card-shadow)">
      <rect x="280.8" y="874.4" width="278" height="98" rx="11" fill="none" stroke="#7c3aed" stroke-width="2.2" stroke-dasharray="7 5"/>
      <rect x="284.8" y="878.4" width="270" height="90" rx="8" fill="#ffffff" stroke="#b9c7bf" stroke-width="2.3"/>
      <rect x="284.8" y="878.4" width="6" height="90" rx="3" fill="#b9c7bf"/>
      <text x="299.8" y="898.4" class="mono" font-size="12.5" font-weight="750" fill="#627169">B14</text>
      <text x="351.8" y="898.4" font-size="11.5" font-weight="800" fill="#7c3aed">조문 · RCOA EIA 보완</text>
      <rect x="494.8" y="885.4" width="50" height="24" rx="5" fill="#b9c7bf" opacity="0.14"/>
      <text x="519.8" y="902.4" text-anchor="middle" font-size="12" font-weight="800" fill="#17231d">후속</text>
      <text x="299.8" y="925.4" font-size="15.5" font-weight="800" fill="#17231d"><tspan x="299.8" dy="0">환경영향평가서 관찰사항</tspan><tspan x="299.8" dy="18">보완·재검토</tspan></text>
      <text x="299.8" y="960.4" font-size="11" font-weight="650" fill="#627169">시행자가 원칙적으로 15일 안에 관찰사항을…</text>
    </g>
  

    <g filter="url(#card-shadow)">
      <rect x="1431.3" y="874.4" width="278" height="98" rx="11" fill="none" stroke="#7c3aed" stroke-width="2.2" stroke-dasharray="7 5"/>
      <rect x="1435.3" y="878.4" width="270" height="90" rx="8" fill="#ffffff" stroke="#b9c7bf" stroke-width="2.3"/>
      <rect x="1435.3" y="878.4" width="6" height="90" rx="3" fill="#b9c7bf"/>
      <text x="1450.3" y="898.4" class="mono" font-size="12.5" font-weight="750" fill="#627169">B15</text>
      <text x="1502.3" y="898.4" font-size="11.5" font-weight="800" fill="#7c3aed">조문 · RCOA 환경참여·licence</text>
      <rect x="1645.3" y="885.4" width="50" height="24" rx="5" fill="#b9c7bf" opacity="0.14"/>
      <text x="1670.3" y="902.4" text-anchor="middle" font-size="12" font-weight="800" fill="#17231d">후속</text>
      <text x="1450.3" y="935.4" font-size="15.5" font-weight="800" fill="#17231d"><tspan x="1450.3" dy="0">환경참여·최종 기술의견</tspan></text>
      <text x="1450.3" y="960.4" font-size="11" font-weight="650" fill="#627169">유리한 1차 기술의견 뒤 관할기관이 법정 환경…</text>
    </g>
  

    <g filter="url(#card-shadow)">
      <rect x="1431.3" y="1288" width="278" height="98" rx="11" fill="none" stroke="#7c3aed" stroke-width="2.2" stroke-dasharray="7 5"/>
      <rect x="1435.3" y="1292" width="270" height="90" rx="8" fill="#087452" stroke="#087452" stroke-width="2.3"/>
      <rect x="1435.3" y="1292" width="6" height="90" rx="3" fill="#087452"/>
      <text x="1450.3" y="1312" class="mono" font-size="12.5" font-weight="750" fill="#d8f4e8">B16</text>
      <text x="1502.3" y="1312" font-size="11.5" font-weight="800" fill="#7c3aed">조문 · RCOA 환경 licence 결정</text>
      <rect x="1645.3" y="1299" width="50" height="24" rx="5" fill="#ffffff" opacity="0.18"/>
      <text x="1670.3" y="1316" text-anchor="middle" font-size="12" font-weight="800" fill="#ffffff">핵심</text>
      <text x="1450.3" y="1349" font-size="15.5" font-weight="800" fill="#ffffff"><tspan x="1450.3" dy="0">환경허가 공식결정</tspan></text>
      <text x="1450.3" y="1374" font-size="11" font-weight="650" fill="#d8f4e8">관할 환경당국이 최종 기술의견과 참여결과를…</text>
    </g>
  

    <g filter="url(#card-shadow)">
      <rect x="664.3" y="1587.6" width="278" height="98" rx="11" fill="none" stroke="#7c3aed" stroke-width="2.2" stroke-dasharray="7 5"/>
      <rect x="668.3" y="1591.6" width="270" height="90" rx="8" fill="#087452" stroke="#087452" stroke-width="2.3"/>
      <rect x="668.3" y="1591.6" width="6" height="90" rx="3" fill="#087452"/>
      <text x="683.3" y="1611.6" class="mono" font-size="12.5" font-weight="750" fill="#d8f4e8">B17</text>
      <text x="735.3" y="1611.6" font-size="11.5" font-weight="800" fill="#7c3aed">조문 · Quito LMU-20 필수요건</text>
      <rect x="878.3" y="1598.6" width="50" height="24" rx="5" fill="#ffffff" opacity="0.18"/>
      <text x="903.3" y="1615.6" text-anchor="middle" font-size="12" font-weight="800" fill="#ffffff">핵심</text>
      <text x="683.3" y="1638.6" font-size="15.5" font-weight="800" fill="#ffffff"><tspan x="683.3" dy="0">협력기관 건축·구조·설비</tspan><tspan x="683.3" dy="18">적합증명</tspan></text>
      <text x="683.3" y="1673.6" font-size="11" font-weight="650" fill="#d8f4e8">키토의 인가 협력기관(Entidad Colaborado…</text>
    </g>
  

    <g filter="url(#card-shadow)">
      <rect x="1431.3" y="1587.6" width="278" height="98" rx="11" fill="none" stroke="#7c3aed" stroke-width="2.2" stroke-dasharray="7 5"/>
      <rect x="1435.3" y="1591.6" width="270" height="90" rx="8" fill="#ffffff" stroke="#b9c7bf" stroke-width="2.3"/>
      <rect x="1435.3" y="1591.6" width="6" height="90" rx="3" fill="#b9c7bf"/>
      <text x="1450.3" y="1611.6" class="mono" font-size="12.5" font-weight="750" fill="#627169">B18</text>
      <text x="1502.3" y="1611.6" font-size="11.5" font-weight="800" fill="#7c3aed">조문 · Quito LMU-20 특별요건</text>
      <rect x="1645.3" y="1598.6" width="50" height="24" rx="5" fill="#b9c7bf" opacity="0.14"/>
      <text x="1670.3" y="1615.6" text-anchor="middle" font-size="12" font-weight="800" fill="#17231d">후속</text>
      <text x="1450.3" y="1638.6" font-size="15.5" font-weight="800" fill="#17231d"><tspan x="1450.3" dy="0">소방도면 승인(Visto Bueno)</tspan><tspan x="1450.3" dy="18">확보</tspan></text>
      <text x="1450.3" y="1673.6" font-size="11" font-weight="650" fill="#627169">키토에서 공식 적용기준에 해당하는 프로젝트…</text>
    </g>
  

    <g filter="url(#card-shadow)">
      <rect x="280.8" y="1587.6" width="278" height="98" rx="11" fill="none" stroke="#7c3aed" stroke-width="2.2" stroke-dasharray="7 5"/>
      <rect x="284.8" y="1591.6" width="270" height="90" rx="8" fill="#ffffff" stroke="#b9c7bf" stroke-width="2.3"/>
      <rect x="284.8" y="1591.6" width="6" height="90" rx="3" fill="#b9c7bf"/>
      <text x="299.8" y="1611.6" class="mono" font-size="12.5" font-weight="750" fill="#627169">B19</text>
      <text x="351.8" y="1611.6" font-size="11.5" font-weight="800" fill="#7c3aed">조문 · Quito LMU-20 공식신청</text>
      <rect x="494.8" y="1598.6" width="50" height="24" rx="5" fill="#b9c7bf" opacity="0.14"/>
      <text x="519.8" y="1615.6" text-anchor="middle" font-size="12" font-weight="800" fill="#17231d">후속</text>
      <text x="299.8" y="1648.6" font-size="15.5" font-weight="800" fill="#17231d"><tspan x="299.8" dy="0">대규모 건축허가 온라인 신청</tspan></text>
      <text x="299.8" y="1673.6" font-size="11" font-weight="650" fill="#627169">소유자·대리인이 필지번호(predio), 구역행…</text>
    </g>
  

    <g filter="url(#card-shadow)">
      <rect x="1047.8" y="1887.2" width="278" height="98" rx="11" fill="none" stroke="#7c3aed" stroke-width="2.2" stroke-dasharray="7 5"/>
      <rect x="1051.8" y="1891.2" width="270" height="90" rx="8" fill="#fff8e8" stroke="#d9901a" stroke-width="2.3"/>
      <rect x="1051.8" y="1891.2" width="6" height="90" rx="3" fill="#d9901a"/>
      <text x="1066.8" y="1911.2" class="mono" font-size="12.5" font-weight="750" fill="#a96008">B20</text>
      <text x="1118.8" y="1911.2" font-size="11.5" font-weight="800" fill="#7c3aed">조문 · Quito LMU-20 공식절차</text>
      <rect x="1261.8" y="1898.2" width="50" height="24" rx="5" fill="#d9901a" opacity="0.14"/>
      <text x="1286.8" y="1915.2" text-anchor="middle" font-size="12" font-weight="800" fill="#7a4305">병목</text>
      <text x="1066.8" y="1948.2" font-size="15.5" font-weight="800" fill="#7a4305"><tspan x="1066.8" dy="0">대규모 건축허가 완비성·행정심사</tspan></text>
      <text x="1066.8" y="1973.2" font-size="11" font-weight="650" fill="#a96008">Quito 허가기관이 신청권한, 적합증명, 특별…</text>
    </g>
  

    <g filter="url(#card-shadow)">
      <rect x="280.8" y="1944.2" width="278" height="98" rx="11" fill="none" stroke="#7c3aed" stroke-width="2.2" stroke-dasharray="7 5"/>
      <rect x="284.8" y="1948.2" width="270" height="90" rx="8" fill="#ffffff" stroke="#b9c7bf" stroke-width="2.3"/>
      <rect x="284.8" y="1948.2" width="6" height="90" rx="3" fill="#b9c7bf"/>
      <text x="299.8" y="1968.2" class="mono" font-size="12.5" font-weight="750" fill="#627169">B21</text>
      <text x="351.8" y="1968.2" font-size="11.5" font-weight="800" fill="#7c3aed">조문 · 행정기본법전 보완</text>
      <rect x="494.8" y="1955.2" width="50" height="24" rx="5" fill="#b9c7bf" opacity="0.14"/>
      <text x="519.8" y="1972.2" text-anchor="middle" font-size="12" font-weight="800" fill="#17231d">후속</text>
      <text x="299.8" y="1995.2" font-size="15.5" font-weight="800" fill="#17231d"><tspan x="299.8" dy="0">대규모 건축허가 미비</tspan><tspan x="299.8" dy="18">보완·재제출</tspan></text>
      <text x="299.8" y="2030.2" font-size="11" font-weight="650" fill="#627169">신청인과 책임전문가가 COA 보완통지에 따라…</text>
    </g>
  

    <g filter="url(#card-shadow)">
      <rect x="1047.8" y="2001.2" width="278" height="98" rx="11" fill="none" stroke="#7c3aed" stroke-width="2.2" stroke-dasharray="7 5"/>
      <rect x="1051.8" y="2005.2" width="270" height="90" rx="8" fill="#087452" stroke="#087452" stroke-width="2.3"/>
      <rect x="1051.8" y="2005.2" width="6" height="90" rx="3" fill="#087452"/>
      <text x="1066.8" y="2025.2" class="mono" font-size="12.5" font-weight="750" fill="#d8f4e8">B22</text>
      <text x="1118.8" y="2025.2" font-size="11.5" font-weight="800" fill="#7c3aed">조문 · Quito LMU-20 결정</text>
      <rect x="1261.8" y="2012.2" width="50" height="24" rx="5" fill="#ffffff" opacity="0.18"/>
      <text x="1286.8" y="2029.2" text-anchor="middle" font-size="12" font-weight="800" fill="#ffffff">핵심</text>
      <text x="1066.8" y="2062.2" font-size="15.5" font-weight="800" fill="#ffffff"><tspan x="1066.8" dy="0">대규모 건축허가 결정</tspan></text>
      <text x="1066.8" y="2087.2" font-size="11" font-weight="650" fill="#d8f4e8">키토가 적합증명과 완비요건을 근거로 대규모…</text>
    </g>
  

    <text x="38" y="2245" font-size="16" font-weight="800" fill="#18251e">읽는 법</text>
    <rect x="118" y="2219" width="17" height="17" rx="4" fill="#35a77d"/><text x="144" y="2233" font-size="14.5" fill="#526159">선행</text>
<rect x="216" y="2219" width="17" height="17" rx="4" fill="#087452"/><text x="242" y="2233" font-size="14.5" fill="#526159">핵심</text>
<rect x="314" y="2219" width="17" height="17" rx="4" fill="#d9901a"/><text x="340" y="2233" font-size="14.5" fill="#526159">병목</text>
<rect x="412" y="2219" width="17" height="17" rx="4" fill="#3478db"/><text x="438" y="2233" font-size="14.5" fill="#526159">회귀</text>
    <rect x="500" y="2219" width="17" height="17" rx="4" fill="none" stroke="#7c3aed" stroke-width="2" stroke-dasharray="5 4"/>
    <text x="526" y="2233" font-size="14.5" fill="#526159">조문</text>
    <line x1="648" y1="2237" x2="700" y2="2237" stroke="#53675d" stroke-width="4" marker-end="url(#arrow-sequence)"/>
    <text x="720" y="2243" font-size="15" fill="#526159">절차 순서</text>
    <line x1="860" y1="2237" x2="912" y2="2237" stroke="#0f8a65" stroke-width="4" stroke-dasharray="10 8" marker-end="url(#arrow-message)"/>
    <text x="932" y="2243" font-size="15" fill="#526159">정보 전달</text>
    <line x1="1072" y1="2237" x2="1124" y2="2237" stroke="#3478db" stroke-width="4" stroke-dasharray="10 8" marker-end="url(#arrow-loop)"/>
    <text x="1144" y="2243" font-size="15" fill="#526159">보완 회귀</text>
    <text x="38" y="2291" font-size="15.5" font-weight="650" fill="#56655d">단계는 위→아래, 행위자 묶음은 좌→우로 읽습니다.</text>
    <text x="38" y="2321" font-size="14.5" fill="#68776f">원래 4개 행위자 레인을 4개 레이아웃 묶음으로 배치했으며, 14개 업무와 16개 연결 관계는 유지했습니다.</text>
    <text x="38" y="2361" font-size="13.5" fill="#7b8881">출처: 해당 제도의 법률·시행령·시행규칙 기반 모델 · 실제 사건의 진행 상태나 법률 자문을 의미하지 않습니다.</text>
    
  
</svg>