<svg xmlns="http://www.w3.org/2000/svg" width="1800" height="2400" viewBox="0 0 1800 2400">
<defs>
      <filter id="card-shadow" x="-20%" y="-25%" width="140%" height="160%">
        <feDropShadow dx="0" dy="3" stdDeviation="4" flood-color="#12271e" flood-opacity="0.10"/>
      </filter>
      <marker id="arrow-sequence" markerWidth="17" markerHeight="13" refX="15" refY="6.5" orient="auto" markerUnits="userSpaceOnUse">
    <path d="M1,1 L16,6.5 L1,12 Z" fill="#53675d" stroke="#ffffff" stroke-width="1.3" stroke-linejoin="round"/>
  </marker>
      <marker id="arrow-message" markerWidth="17" markerHeight="13" refX="15" refY="6.5" orient="auto" markerUnits="userSpaceOnUse">
    <path d="M1,1 L16,6.5 L1,12 Z" fill="#0f8a65" stroke="#ffffff" stroke-width="1.3" stroke-linejoin="round"/>
  </marker>
      <marker id="arrow-loop" markerWidth="17" markerHeight="13" refX="15" refY="6.5" orient="auto" markerUnits="userSpaceOnUse">
    <path d="M1,1 L16,6.5 L1,12 Z" fill="#3478db" stroke="#ffffff" stroke-width="1.3" stroke-linejoin="round"/>
  </marker>
      <style>
        text { font-family: -apple-system, "Segoe UI", "Helvetica Neue", Arial, "Apple SD Gothic Neo", "Noto Sans CJK KR", "Noto Sans KR", sans-serif; }
        .mono { font-family: "SFMono-Regular", "Menlo", monospace; }
      </style>
    </defs>
<rect width="1800" height="2400" fill="#ffffff"/>
<rect x="0" y="0" width="1800" height="240" fill="#07150f"/>
<rect x="0" y="0" width="1800" height="9" fill="#18a87b"/>

    <text x="1760" y="45" text-anchor="end" font-size="15" font-weight="700" fill="#8fa299">노드 15 · 레인 4 · 게이트 7</text>
    <text x="40" y="132" font-size="48" font-weight="850" fill="#ffffff">카메룬 NIE·간이/상세 EIES·건축허가</text>
    <text x="40" y="174" font-size="19" font-weight="520" fill="#b7c7bf">시장 건축허가와 MINEPDED의 NIE·간이/상세 EIES·CCE를 별도 Gate로 연결한다.</text>
    
  
<rect x="38" y="260" width="1724" height="1940" rx="10" fill="#ffffff" stroke="#b8c7bf" stroke-width="2"/>
<rect x="38" y="260" width="190" height="100" rx="10" fill="#eaf2ee"/>
<text x="58" y="299" font-size="17" font-weight="800" fill="#17231d">단계 ↓</text>
<text x="58" y="332" font-size="15" font-weight="650" fill="#68776f">행위자 묶음 →</text>
<rect x="38" y="360" width="1724" height="328" fill="#84baa9"/>
<rect x="38" y="360" width="190" height="328" fill="#087452"/>
<text x="58" y="392" class="mono" font-size="16" font-weight="800" fill="#ffffff">G0</text>
<text x="58" y="425" font-size="19" font-weight="800" fill="#ffffff"><tspan x="58" dy="0">환경경로·TdR</tspan></text>
<rect x="38" y="688" width="1724" height="328" fill="#84baa9"/>
<rect x="38" y="688" width="190" height="328" fill="#087452"/>
<text x="58" y="720" class="mono" font-size="16" font-weight="800" fill="#ffffff">G1</text>
<text x="58" y="753" font-size="19" font-weight="800" fill="#ffffff"><tspan x="58" dy="0">환경조사·협의</tspan></text>
<rect x="38" y="1016" width="1724" height="214" fill="#84baa9"/>
<rect x="38" y="1016" width="190" height="214" fill="#087452"/>
<text x="58" y="1048" class="mono" font-size="16" font-weight="800" fill="#ffffff">G2</text>
<text x="58" y="1081" font-size="19" font-weight="800" fill="#ffffff"><tspan x="58" dy="0">보고서</tspan><tspan x="58" dy="22">접수·현장검증</tspan></text>
<rect x="38" y="1230" width="1724" height="328" fill="#f5f8f6"/>
<rect x="38" y="1230" width="190" height="328" fill="#eef3f0"/>
<text x="58" y="1262" class="mono" font-size="16" font-weight="800" fill="#53645b">G3</text>
<text x="58" y="1295" font-size="19" font-weight="800" fill="#53645b"><tspan x="58" dy="0">완비·공개심사</tspan></text>
<rect x="38" y="1558" width="1724" height="214" fill="#84baa9"/>
<rect x="38" y="1558" width="190" height="214" fill="#087452"/>
<text x="58" y="1590" class="mono" font-size="16" font-weight="800" fill="#ffffff">G4</text>
<text x="58" y="1623" font-size="19" font-weight="800" fill="#ffffff"><tspan x="58" dy="0">환경결정</tspan></text>
<rect x="38" y="1772" width="1724" height="214" fill="#84baa9"/>
<rect x="38" y="1772" width="190" height="214" fill="#087452"/>
<text x="58" y="1804" class="mono" font-size="16" font-weight="800" fill="#ffffff">G5</text>
<text x="58" y="1837" font-size="19" font-weight="800" fill="#ffffff"><tspan x="58" dy="0">건축허가 심사</tspan></text>
<rect x="38" y="1986" width="1724" height="214" fill="#84baa9"/>
<rect x="38" y="1986" width="190" height="214" fill="#087452"/>
<text x="58" y="2018" class="mono" font-size="16" font-weight="800" fill="#ffffff">G6</text>
<text x="58" y="2051" font-size="19" font-weight="800" fill="#ffffff"><tspan x="58" dy="0">건축허가 결정</tspan></text>
<rect x="228" y="260" width="383.5" height="100" fill="#f7faf8"/>
<rect x="228" y="260" width="383.5" height="7" fill="#0f9f72"/>
<text x="248" y="299" font-size="20" font-weight="800" fill="#17231d">건축주·신청인</text>
<text x="248" y="329" font-size="13.5" font-weight="600" fill="#68776f"><tspan x="248" dy="0">건축주·신청인</tspan></text>
<rect x="611.5" y="260" width="383.5" height="100" fill="#f7faf8"/>
<rect x="611.5" y="260" width="383.5" height="7" fill="#3b82f6"/>
<text x="631.5" y="299" font-size="20" font-weight="800" fill="#17231d">현지 설계</text>
<text x="631.5" y="329" font-size="13.5" font-weight="600" fill="#68776f"><tspan x="631.5" dy="0">현지 설계·시공 전문가</tspan></text>
<rect x="995" y="260" width="383.5" height="100" fill="#f7faf8"/>
<rect x="995" y="260" width="383.5" height="7" fill="#c78116"/>
<text x="1015" y="299" font-size="20" font-weight="800" fill="#17231d">도시계획</text>
<text x="1015" y="329" font-size="13.5" font-weight="600" fill="#68776f"><tspan x="1015" dy="0">도시계획·건축 허가기관</tspan></text>
<rect x="1378.5" y="260" width="383.5" height="100" fill="#f7faf8"/>
<rect x="1378.5" y="260" width="383.5" height="7" fill="#0891b2"/>
<text x="1398.5" y="299" font-size="20" font-weight="800" fill="#17231d">환경</text>
<text x="1398.5" y="329" font-size="13.5" font-weight="600" fill="#68776f"><tspan x="1398.5" dy="0">환경·소방·검사기관</tspan></text>
<line x1="228" y1="260" x2="228" y2="2200" stroke="#d3dcd7" stroke-width="1.5"/>
<line x1="611.5" y1="260" x2="611.5" y2="2200" stroke="#d3dcd7" stroke-width="1.5"/>
<line x1="995" y1="260" x2="995" y2="2200" stroke="#d3dcd7" stroke-width="1.5"/>
<line x1="1378.5" y1="260" x2="1378.5" y2="2200" stroke="#d3dcd7" stroke-width="1.5"/>
<line x1="1762" y1="260" x2="1762" y2="2200" stroke="#d3dcd7" stroke-width="1.5"/>
<line x1="38" y1="360" x2="1762" y2="360" stroke="#b8c7bf" stroke-width="2"/>
<line x1="38" y1="360" x2="1762" y2="360" stroke="#c8d3cd" stroke-width="1.5"/>
<line x1="38" y1="688" x2="1762" y2="688" stroke="#c8d3cd" stroke-width="1.5"/>
<line x1="38" y1="1016" x2="1762" y2="1016" stroke="#c8d3cd" stroke-width="1.5"/>
<line x1="38" y1="1230" x2="1762" y2="1230" stroke="#c8d3cd" stroke-width="1.5"/>
<line x1="38" y1="1558" x2="1762" y2="1558" stroke="#c8d3cd" stroke-width="1.5"/>
<line x1="38" y1="1772" x2="1762" y2="1772" stroke="#c8d3cd" stroke-width="1.5"/>
<line x1="38" y1="1986" x2="1762" y2="1986" stroke="#c8d3cd" stroke-width="1.5"/>
<line x1="38" y1="2200" x2="1762" y2="2200" stroke="#b8c7bf" stroke-width="2"/>
<path d="M 419.8 512 V 528 H 409.8 V 528" fill="none" stroke="#ffffff" stroke-width="7.4"  stroke-linecap="round" stroke-linejoin="round" opacity="0.94"/>
<path d="M 419.8 512 V 528 H 409.8 V 528" fill="none" stroke="#53675d" stroke-width="3.4"  marker-end="url(#arrow-sequence)" stroke-linecap="round" stroke-linejoin="round" opacity="0.96"/>
<path d="M 554.8 590 H 1407.3 V 520 H 1427.3" fill="none" stroke="#ffffff" stroke-width="7.4"  stroke-linecap="round" stroke-linejoin="round" opacity="0.94"/>
<path d="M 554.8 590 H 1407.3 V 520 H 1427.3" fill="none" stroke="#53675d" stroke-width="3.4"  marker-end="url(#arrow-sequence)" stroke-linecap="round" stroke-linejoin="round" opacity="0.96"/>
<path d="M 1574.3 569 V 660 H 801.3 V 742" fill="none" stroke="#ffffff" stroke-width="7.4"  stroke-linecap="round" stroke-linejoin="round" opacity="0.94"/>
<path d="M 1574.3 569 V 660 H 801.3 V 742" fill="none" stroke="#53675d" stroke-width="3.4"  marker-end="url(#arrow-sequence)" stroke-linecap="round" stroke-linejoin="round" opacity="0.96"/>
<path d="M 787.3 840 V 856 H 813.3 V 856" fill="none" stroke="#ffffff" stroke-width="7.4"  stroke-linecap="round" stroke-linejoin="round" opacity="0.94"/>
<path d="M 787.3 840 V 856 H 813.3 V 856" fill="none" stroke="#53675d" stroke-width="3.4"  marker-end="url(#arrow-sequence)" stroke-linecap="round" stroke-linejoin="round" opacity="0.96"/>
<path d="M 793.3 954 V 1004 H 409.8 V 1070" fill="none" stroke="#ffffff" stroke-width="7.4"  stroke-linecap="round" stroke-linejoin="round" opacity="0.94"/>
<path d="M 793.3 954 V 1004 H 409.8 V 1070" fill="none" stroke="#53675d" stroke-width="3.4"  marker-end="url(#arrow-sequence)" stroke-linecap="round" stroke-linejoin="round" opacity="0.96"/>
<path d="M 554.8 1129.5 H 1407.3 V 1119 H 1427.3" fill="none" stroke="#ffffff" stroke-width="7.4"  stroke-linecap="round" stroke-linejoin="round" opacity="0.94"/>
<path d="M 554.8 1129.5 H 1407.3 V 1119 H 1427.3" fill="none" stroke="#53675d" stroke-width="3.4"  marker-end="url(#arrow-sequence)" stroke-linecap="round" stroke-linejoin="round" opacity="0.96"/>
<path d="M 1568.3 1168 V 1202 H 1580.3 V 1284" fill="none" stroke="#ffffff" stroke-width="7.4"  stroke-linecap="round" stroke-linejoin="round" opacity="0.94"/>
<path d="M 1568.3 1168 V 1202 H 1580.3 V 1284" fill="none" stroke="#53675d" stroke-width="3.4"  marker-end="url(#arrow-sequence)" stroke-linecap="round" stroke-linejoin="round" opacity="0.96"/>
<path d="M 1606.3 1382 V 1398 H 1548.3 V 1398" fill="none" stroke="#ffffff" stroke-width="7.4"  stroke-linecap="round" stroke-linejoin="round" opacity="0.94"/>
<path d="M 1606.3 1382 V 1398 H 1548.3 V 1398" fill="none" stroke="#53675d" stroke-width="3.4"  marker-end="url(#arrow-sequence)" stroke-linecap="round" stroke-linejoin="round" opacity="0.96"/>
<path d="M 1435.3 1317.5 H 966.3 V 1400.5 H 946.3" fill="none" stroke="#ffffff" stroke-width="7.4" stroke-dasharray="11 8" stroke-linecap="round" stroke-linejoin="round" opacity="0.94"/>
<path d="M 1435.3 1317.5 H 966.3 V 1400.5 H 946.3" fill="none" stroke="#0f8a65" stroke-width="3.4" stroke-dasharray="11 8" marker-end="url(#arrow-message)" stroke-linecap="round" stroke-linejoin="round" opacity="0.96"/>
<path d="M 938.3 1390 H 1394.3 V 1333 H 1427.3" fill="none" stroke="#ffffff" stroke-width="8" stroke-dasharray="10 8" stroke-linecap="round" stroke-linejoin="round" opacity="0.94"/>
<path d="M 938.3 1390 H 1394.3 V 1333 H 1427.3" fill="none" stroke="#3478db" stroke-width="4" stroke-dasharray="10 8" marker-end="url(#arrow-loop)" stroke-linecap="round" stroke-linejoin="round" opacity="0.96"/>
<path d="M 1574.3 1496 V 1514 H 1586.3 V 1612" fill="none" stroke="#ffffff" stroke-width="7.4"  stroke-linecap="round" stroke-linejoin="round" opacity="0.94"/>
<path d="M 1574.3 1496 V 1514 H 1586.3 V 1612" fill="none" stroke="#53675d" stroke-width="3.4"  marker-end="url(#arrow-sequence)" stroke-linecap="round" stroke-linejoin="round" opacity="0.96"/>
<path d="M 1560.3 1710 V 1760 H 423.8 V 1826" fill="none" stroke="#ffffff" stroke-width="7.4"  stroke-linecap="round" stroke-linejoin="round" opacity="0.94"/>
<path d="M 1560.3 1710 V 1760 H 423.8 V 1826" fill="none" stroke="#53675d" stroke-width="3.4"  marker-end="url(#arrow-sequence)" stroke-linecap="round" stroke-linejoin="round" opacity="0.96"/>
<path d="M 409.8 1924 V 1972 H 1156.8 V 1932" fill="none" stroke="#ffffff" stroke-width="7.4"  stroke-linecap="round" stroke-linejoin="round" opacity="0.94"/>
<path d="M 409.8 1924 V 1972 H 1156.8 V 1932" fill="none" stroke="#53675d" stroke-width="3.4"  marker-end="url(#arrow-sequence)" stroke-linecap="round" stroke-linejoin="round" opacity="0.96"/>
<path d="M 1192.8 1924 V 1926 H 1174.8 V 2040" fill="none" stroke="#ffffff" stroke-width="7.4"  stroke-linecap="round" stroke-linejoin="round" opacity="0.94"/>
<path d="M 1192.8 1924 V 1926 H 1174.8 V 2040" fill="none" stroke="#53675d" stroke-width="3.4"  marker-end="url(#arrow-sequence)" stroke-linecap="round" stroke-linejoin="round" opacity="0.96"/>
<path d="M 1051.8 1875 H 979.3 V 1890.5 H 946.3" fill="none" stroke="#ffffff" stroke-width="7.4" stroke-dasharray="11 8" stroke-linecap="round" stroke-linejoin="round" opacity="0.94"/>
<path d="M 1051.8 1875 H 979.3 V 1890.5 H 946.3" fill="none" stroke="#0f8a65" stroke-width="3.4" stroke-dasharray="11 8" marker-end="url(#arrow-message)" stroke-linecap="round" stroke-linejoin="round" opacity="0.96"/>
<path d="M 938.3 1877.5 H 997.8 V 1893 H 1043.8" fill="none" stroke="#ffffff" stroke-width="8" stroke-dasharray="10 8" stroke-linecap="round" stroke-linejoin="round" opacity="0.94"/>
<path d="M 938.3 1877.5 H 997.8 V 1893 H 1043.8" fill="none" stroke="#3478db" stroke-width="4" stroke-dasharray="10 8" marker-end="url(#arrow-loop)" stroke-linecap="round" stroke-linejoin="round" opacity="0.96"/>
<rect x="626.8" y="509" width="96" height="30" rx="6" fill="#ffffff" stroke="#53675d" stroke-width="1.4"/>
<text x="674.8" y="529" text-anchor="middle" font-size="14" font-weight="750" fill="#53675d">환경경로</text>
<rect x="947" y="523" width="96" height="30" rx="6" fill="#ffffff" stroke="#53675d" stroke-width="1.4"/>
<text x="995" y="543" text-anchor="middle" font-size="14" font-weight="750" fill="#53675d">TdR 접수</text>
<rect x="1139.8" y="628" width="96" height="30" rx="6" fill="#ffffff" stroke="#53675d" stroke-width="1.4"/>
<text x="1187.8" y="648" text-anchor="middle" font-size="14" font-weight="750" fill="#53675d">승인 TdR</text>
<rect x="1010.3" y="837" width="96" height="30" rx="6" fill="#ffffff" stroke="#53675d" stroke-width="1.4"/>
<text x="1058.3" y="857" text-anchor="middle" font-size="14" font-weight="750" fill="#53675d">환경조사</text>
<rect x="553.5" y="972" width="96" height="30" rx="6" fill="#ffffff" stroke="#53675d" stroke-width="1.4"/>
<text x="601.5" y="992" text-anchor="middle" font-size="14" font-weight="750" fill="#53675d">협의완료</text>
<rect x="944.6" y="1092.3" width="100.9" height="30" rx="6" fill="#ffffff" stroke="#53675d" stroke-width="1.4"/>
<text x="995" y="1112.3" text-anchor="middle" font-size="14" font-weight="750" fill="#53675d">보고서 접수</text>
<rect x="1526.3" y="1206" width="96" height="30" rx="6" fill="#ffffff" stroke="#53675d" stroke-width="1.4"/>
<text x="1574.3" y="1226" text-anchor="middle" font-size="14" font-weight="750" fill="#53675d">현장검증</text>
<rect x="1637.3" y="1235" width="96" height="30" rx="6" fill="#ffffff" stroke="#53675d" stroke-width="1.4"/>
<text x="1685.3" y="1255" text-anchor="middle" font-size="14" font-weight="750" fill="#53675d">완비</text>
<rect x="1124.1" y="1327" width="125.4" height="30" rx="6" fill="#ffffff" stroke="#0f8a65" stroke-width="1.4"/>
<text x="1186.8" y="1347" text-anchor="middle" font-size="14" font-weight="750" fill="#0f8a65">Observations</text>
<rect x="1138.8" y="1365.5" width="96" height="30" rx="6" fill="#ffffff" stroke="#3478db" stroke-width="1.4"/>
<text x="1186.8" y="1385.5" text-anchor="middle" font-size="14" font-weight="750" fill="#3478db">환경 재심</text>
<rect x="1517.1" y="1518" width="126.4" height="30" rx="6" fill="#ffffff" stroke="#53675d" stroke-width="1.4"/>
<text x="1580.3" y="1538" text-anchor="middle" font-size="14" font-weight="750" fill="#53675d">CIE·NIE 의견</text>
<rect x="944" y="1728" width="96" height="30" rx="6" fill="#ffffff" stroke="#53675d" stroke-width="1.4"/>
<text x="992" y="1748" text-anchor="middle" font-size="14" font-weight="750" fill="#53675d">환경증명</text>
<rect x="735.3" y="1940" width="96" height="30" rx="6" fill="#ffffff" stroke="#53675d" stroke-width="1.4"/>
<text x="783.3" y="1960" text-anchor="middle" font-size="14" font-weight="750" fill="#53675d">허가접수</text>
<rect x="1135.8" y="1966" width="96" height="30" rx="6" fill="#ffffff" stroke="#53675d" stroke-width="1.4"/>
<text x="1183.8" y="1986" text-anchor="middle" font-size="14" font-weight="750" fill="#53675d">기술적합</text>
<rect x="947" y="1850.8" width="96" height="30" rx="6" fill="#ffffff" stroke="#0f8a65" stroke-width="1.4"/>
<text x="995" y="1870.8" text-anchor="middle" font-size="14" font-weight="750" fill="#0f8a65">설계보완</text>
<rect x="947" y="1889.3" width="96" height="30" rx="6" fill="#ffffff" stroke="#3478db" stroke-width="1.4"/>
<text x="995" y="1909.3" text-anchor="middle" font-size="14" font-weight="750" fill="#3478db">허가 재심</text>

    <g filter="url(#card-shadow)">
      <rect x="280.8" y="418" width="278" height="98" rx="11" fill="none" stroke="#7c3aed" stroke-width="2.2" stroke-dasharray="7 5"/>
      <rect x="284.8" y="422" width="270" height="90" rx="8" fill="#087452" stroke="#087452" stroke-width="2.3"/>
      <rect x="284.8" y="422" width="6" height="90" rx="3" fill="#087452"/>
      <text x="299.8" y="442" class="mono" font-size="12.5" font-weight="750" fill="#d8f4e8">B10</text>
      <text x="351.8" y="442" font-size="11.5" font-weight="800" fill="#7c3aed">조문 · 환경평가 유형</text>
      <rect x="494.8" y="429" width="50" height="24" rx="5" fill="#ffffff" opacity="0.18"/>
      <text x="519.8" y="446" text-anchor="middle" font-size="12" font-weight="800" fill="#ffffff">핵심</text>
      <text x="299.8" y="479" font-size="15.5" font-weight="800" fill="#ffffff"><tspan x="299.8" dy="0">NIE·간이·상세 EIES 경로 확인</tspan></text>
      <text x="299.8" y="504" font-size="11" font-weight="650" fill="#d8f4e8">사업유형·규모·입지를 법정 목록과 commune…</text>
    </g>
  

    <g filter="url(#card-shadow)">
      <rect x="280.8" y="532" width="278" height="98" rx="11" fill="none" stroke="#7c3aed" stroke-width="2.2" stroke-dasharray="7 5"/>
      <rect x="284.8" y="536" width="270" height="90" rx="8" fill="#087452" stroke="#087452" stroke-width="2.3"/>
      <rect x="284.8" y="536" width="6" height="90" rx="3" fill="#087452"/>
      <text x="299.8" y="556" class="mono" font-size="12.5" font-weight="750" fill="#d8f4e8">B11</text>
      <text x="351.8" y="556" font-size="11.5" font-weight="800" fill="#7c3aed">조문 · TdR 신청·접수</text>
      <rect x="494.8" y="543" width="50" height="24" rx="5" fill="#ffffff" opacity="0.18"/>
      <text x="519.8" y="560" text-anchor="middle" font-size="12" font-weight="800" fill="#ffffff">핵심</text>
      <text x="299.8" y="593" font-size="15.5" font-weight="800" fill="#ffffff"><tspan x="299.8" dy="0">TdR·사업설명·수수료 제출</tspan></text>
      <text x="299.8" y="618" font-size="11" font-weight="650" fill="#d8f4e8">EIES는 competent administration와 M…</text>
    </g>
  

    <g filter="url(#card-shadow)">
      <rect x="1431.3" y="475" width="278" height="98" rx="11" fill="none" stroke="#7c3aed" stroke-width="2.2" stroke-dasharray="7 5"/>
      <rect x="1435.3" y="479" width="270" height="90" rx="8" fill="#fff8e8" stroke="#d9901a" stroke-width="2.3"/>
      <rect x="1435.3" y="479" width="6" height="90" rx="3" fill="#d9901a"/>
      <text x="1450.3" y="499" class="mono" font-size="12.5" font-weight="750" fill="#a96008">B12</text>
      <text x="1502.3" y="499" font-size="11.5" font-weight="800" fill="#7c3aed">조문 · TdR 심사·묵시승인</text>
      <rect x="1645.3" y="486" width="50" height="24" rx="5" fill="#d9901a" opacity="0.14"/>
      <text x="1670.3" y="503" text-anchor="middle" font-size="12" font-weight="800" fill="#7a4305">병목</text>
      <text x="1450.3" y="536" font-size="15.5" font-weight="800" fill="#7a4305"><tspan x="1450.3" dy="0">TdR 심사·Cahier des charges</tspan></text>
      <text x="1450.3" y="561" font-size="11" font-weight="650" fill="#a96008">MINEPDED 또는 département 환경책임자…</text>
    </g>
  

    <g filter="url(#card-shadow)">
      <rect x="664.3" y="746" width="278" height="98" rx="11" fill="none" stroke="#7c3aed" stroke-width="2.2" stroke-dasharray="7 5"/>
      <rect x="668.3" y="750" width="270" height="90" rx="8" fill="#087452" stroke="#087452" stroke-width="2.3"/>
      <rect x="668.3" y="750" width="6" height="90" rx="3" fill="#087452"/>
      <text x="683.3" y="770" class="mono" font-size="12.5" font-weight="750" fill="#d8f4e8">B13</text>
      <text x="735.3" y="770" font-size="11.5" font-weight="800" fill="#7c3aed">조문 · 공인 사무소</text>
      <rect x="878.3" y="757" width="50" height="24" rx="5" fill="#ffffff" opacity="0.18"/>
      <text x="903.3" y="774" text-anchor="middle" font-size="12" font-weight="800" fill="#ffffff">핵심</text>
      <text x="683.3" y="797" font-size="15.5" font-weight="800" fill="#ffffff"><tspan x="683.3" dy="0">공인 평가사무소 EIES·NIE</tspan><tspan x="683.3" dy="18">작성</tspan></text>
      <text x="683.3" y="832" font-size="11" font-weight="650" fill="#d8f4e8">EIES는 MINEPDED 공인 bureau d&apos;étu…</text>
    </g>
  

    <g filter="url(#card-shadow)">
      <rect x="664.3" y="860" width="278" height="98" rx="11" fill="none" stroke="#7c3aed" stroke-width="2.2" stroke-dasharray="7 5"/>
      <rect x="668.3" y="864" width="270" height="90" rx="8" fill="#087452" stroke="#087452" stroke-width="2.3"/>
      <rect x="668.3" y="864" width="6" height="90" rx="3" fill="#087452"/>
      <text x="683.3" y="884" class="mono" font-size="12.5" font-weight="750" fill="#d8f4e8">B14</text>
      <text x="735.3" y="884" font-size="11.5" font-weight="800" fill="#7c3aed">조문 · 주민협의</text>
      <rect x="878.3" y="871" width="50" height="24" rx="5" fill="#ffffff" opacity="0.18"/>
      <text x="903.3" y="888" text-anchor="middle" font-size="12" font-weight="800" fill="#ffffff">핵심</text>
      <text x="683.3" y="921" font-size="15.5" font-weight="800" fill="#ffffff"><tspan x="683.3" dy="0">주민협의·회의록 반영</tspan></text>
      <text x="683.3" y="946" font-size="11" font-weight="650" fill="#d8f4e8">EIES 과정에서 사전 승인된 일정에 따라 영…</text>
    </g>
  

    <g filter="url(#card-shadow)">
      <rect x="280.8" y="1074" width="278" height="98" rx="11" fill="none" stroke="#7c3aed" stroke-width="2.2" stroke-dasharray="7 5"/>
      <rect x="284.8" y="1078" width="270" height="90" rx="8" fill="#087452" stroke="#087452" stroke-width="2.3"/>
      <rect x="284.8" y="1078" width="6" height="90" rx="3" fill="#087452"/>
      <text x="299.8" y="1098" class="mono" font-size="12.5" font-weight="750" fill="#d8f4e8">B15</text>
      <text x="351.8" y="1098" font-size="11.5" font-weight="800" fill="#7c3aed">조문 · 보고서 제출</text>
      <rect x="494.8" y="1085" width="50" height="24" rx="5" fill="#ffffff" opacity="0.18"/>
      <text x="519.8" y="1102" text-anchor="middle" font-size="12" font-weight="800" fill="#ffffff">핵심</text>
      <text x="299.8" y="1135" font-size="15.5" font-weight="800" fill="#ffffff"><tspan x="299.8" dy="0">EIES·NIE 보고서 공식제출</tspan></text>
      <text x="299.8" y="1160" font-size="11" font-weight="650" fill="#d8f4e8">EIES는 competent administration 2부…</text>
    </g>
  

    <g filter="url(#card-shadow)">
      <rect x="1431.3" y="1074" width="278" height="98" rx="11" fill="none" stroke="#7c3aed" stroke-width="2.2" stroke-dasharray="7 5"/>
      <rect x="1435.3" y="1078" width="270" height="90" rx="8" fill="#fff8e8" stroke="#d9901a" stroke-width="2.3"/>
      <rect x="1435.3" y="1078" width="6" height="90" rx="3" fill="#d9901a"/>
      <text x="1450.3" y="1098" class="mono" font-size="12.5" font-weight="750" fill="#a96008">B16</text>
      <text x="1502.3" y="1098" font-size="11.5" font-weight="800" fill="#7c3aed">조문 · 공동 현장평가</text>
      <rect x="1645.3" y="1085" width="50" height="24" rx="5" fill="#d9901a" opacity="0.14"/>
      <text x="1670.3" y="1102" text-anchor="middle" font-size="12" font-weight="800" fill="#7a4305">병목</text>
      <text x="1450.3" y="1135" font-size="15.5" font-weight="800" fill="#7a4305"><tspan x="1450.3" dy="0">공동 현장검증·평가보고</tspan></text>
      <text x="1450.3" y="1160" font-size="11" font-weight="650" fill="#a96008">competent administration와 환경기관의…</text>
    </g>
  

    <g filter="url(#card-shadow)">
      <rect x="1431.3" y="1288" width="278" height="98" rx="11" fill="none" stroke="#7c3aed" stroke-width="2.2" stroke-dasharray="7 5"/>
      <rect x="1435.3" y="1292" width="270" height="90" rx="8" fill="#fff8e8" stroke="#d9901a" stroke-width="2.3"/>
      <rect x="1435.3" y="1292" width="6" height="90" rx="3" fill="#d9901a"/>
      <text x="1450.3" y="1312" class="mono" font-size="12.5" font-weight="750" fill="#a96008">B17</text>
      <text x="1502.3" y="1312" font-size="11.5" font-weight="800" fill="#7c3aed">조문 · EIES 완비성 판단</text>
      <rect x="1645.3" y="1299" width="50" height="24" rx="5" fill="#d9901a" opacity="0.14"/>
      <text x="1670.3" y="1316" text-anchor="middle" font-size="12" font-weight="800" fill="#7a4305">병목</text>
      <text x="1450.3" y="1349" font-size="15.5" font-weight="800" fill="#7a4305"><tspan x="1450.3" dy="0">20일 완비성 판단</tspan></text>
      <text x="1450.3" y="1374" font-size="11" font-weight="650" fill="#a96008">MINEPDED가 접수 후 20일 안에 EIES를…</text>
    </g>
  

    <g filter="url(#card-shadow)">
      <rect x="664.3" y="1345" width="278" height="98" rx="11" fill="none" stroke="#7c3aed" stroke-width="2.2" stroke-dasharray="7 5"/>
      <rect x="668.3" y="1349" width="270" height="90" rx="8" fill="#ffffff" stroke="#b9c7bf" stroke-width="2.3"/>
      <rect x="668.3" y="1349" width="6" height="90" rx="3" fill="#b9c7bf"/>
      <text x="683.3" y="1369" class="mono" font-size="12.5" font-weight="750" fill="#627169">B18</text>
      <text x="735.3" y="1369" font-size="11.5" font-weight="800" fill="#7c3aed">조문 · 완비성 보완</text>
      <rect x="878.3" y="1356" width="50" height="24" rx="5" fill="#b9c7bf" opacity="0.14"/>
      <text x="903.3" y="1373" text-anchor="middle" font-size="12" font-weight="800" fill="#17231d">후속</text>
      <text x="683.3" y="1406" font-size="15.5" font-weight="800" fill="#17231d"><tspan x="683.3" dy="0">환경보고서 보완·재심</tspan></text>
      <text x="683.3" y="1431" font-size="11" font-weight="650" fill="#627169">MINEPDED observations에 따라 조사·대…</text>
    </g>
  

    <g filter="url(#card-shadow)">
      <rect x="1431.3" y="1402" width="278" height="98" rx="11" fill="none" stroke="#7c3aed" stroke-width="2.2" stroke-dasharray="7 5"/>
      <rect x="1435.3" y="1406" width="270" height="90" rx="8" fill="#fff8e8" stroke="#d9901a" stroke-width="2.3"/>
      <rect x="1435.3" y="1406" width="6" height="90" rx="3" fill="#d9901a"/>
      <text x="1450.3" y="1426" class="mono" font-size="12.5" font-weight="750" fill="#a96008">B19</text>
      <text x="1502.3" y="1426" font-size="11.5" font-weight="800" fill="#7c3aed">조문 · 공개청문·CIE 의견</text>
      <rect x="1645.3" y="1413" width="50" height="24" rx="5" fill="#d9901a" opacity="0.14"/>
      <text x="1670.3" y="1430" text-anchor="middle" font-size="12" font-weight="800" fill="#7a4305">병목</text>
      <text x="1450.3" y="1463" font-size="15.5" font-weight="800" fill="#7a4305"><tspan x="1450.3" dy="0">공개청문·CIE 심의</tspan></text>
      <text x="1450.3" y="1488" font-size="11" font-weight="650" fill="#a96008">완비 EIES를 공개하고 ad hoc commission…</text>
    </g>
  

    <g filter="url(#card-shadow)">
      <rect x="1431.3" y="1616" width="278" height="98" rx="11" fill="none" stroke="#7c3aed" stroke-width="2.2" stroke-dasharray="7 5"/>
      <rect x="1435.3" y="1620" width="270" height="90" rx="8" fill="#087452" stroke="#087452" stroke-width="2.3"/>
      <rect x="1435.3" y="1620" width="6" height="90" rx="3" fill="#087452"/>
      <text x="1450.3" y="1640" class="mono" font-size="12.5" font-weight="750" fill="#d8f4e8">B20</text>
      <text x="1502.3" y="1640" font-size="11.5" font-weight="800" fill="#7c3aed">조문 · EIES 공식결정</text>
      <rect x="1645.3" y="1627" width="50" height="24" rx="5" fill="#ffffff" opacity="0.18"/>
      <text x="1670.3" y="1644" text-anchor="middle" font-size="12" font-weight="800" fill="#ffffff">핵심</text>
      <text x="1450.3" y="1677" font-size="15.5" font-weight="800" fill="#ffffff"><tspan x="1450.3" dy="0">환경적합증명 공식결정</tspan></text>
      <text x="1450.3" y="1702" font-size="11" font-weight="650" fill="#d8f4e8">EIES는 CIE 의견 후 환경장관이, NIE는 d…</text>
    </g>
  

    <g filter="url(#card-shadow)">
      <rect x="280.8" y="1830" width="278" height="98" rx="11" fill="none" stroke="#7c3aed" stroke-width="2.2" stroke-dasharray="7 5"/>
      <rect x="284.8" y="1834" width="270" height="90" rx="8" fill="#087452" stroke="#087452" stroke-width="2.3"/>
      <rect x="284.8" y="1834" width="6" height="90" rx="3" fill="#087452"/>
      <text x="299.8" y="1854" class="mono" font-size="12.5" font-weight="750" fill="#d8f4e8">B21</text>
      <text x="351.8" y="1854" font-size="11.5" font-weight="800" fill="#7c3aed">조문 · 건축허가 신청</text>
      <rect x="494.8" y="1841" width="50" height="24" rx="5" fill="#ffffff" opacity="0.18"/>
      <text x="519.8" y="1858" text-anchor="middle" font-size="12" font-weight="800" fill="#ffffff">핵심</text>
      <text x="299.8" y="1891" font-size="15.5" font-weight="800" fill="#ffffff"><tspan x="299.8" dy="0">환경증명 포함 건축허가 신청</tspan></text>
      <text x="299.8" y="1916" font-size="11" font-weight="650" fill="#d8f4e8">환경적합증명과 소유권·도시계획증명·건축사…</text>
    </g>
  

    <g filter="url(#card-shadow)">
      <rect x="1047.8" y="1830" width="278" height="98" rx="11" fill="none" stroke="#7c3aed" stroke-width="2.2" stroke-dasharray="7 5"/>
      <rect x="1051.8" y="1834" width="270" height="90" rx="8" fill="#fff8e8" stroke="#d9901a" stroke-width="2.3"/>
      <rect x="1051.8" y="1834" width="6" height="90" rx="3" fill="#d9901a"/>
      <text x="1066.8" y="1854" class="mono" font-size="12.5" font-weight="750" fill="#a96008">B22</text>
      <text x="1118.8" y="1854" font-size="11.5" font-weight="800" fill="#7c3aed">조문 · 허가 적합성·심사기간</text>
      <rect x="1261.8" y="1841" width="50" height="24" rx="5" fill="#d9901a" opacity="0.14"/>
      <text x="1286.8" y="1858" text-anchor="middle" font-size="12" font-weight="800" fill="#7a4305">병목</text>
      <text x="1066.8" y="1891" font-size="15.5" font-weight="800" fill="#7a4305"><tspan x="1066.8" dy="0">도시계획·건축·환경조건 심사</tspan></text>
      <text x="1066.8" y="1916" font-size="11" font-weight="650" fill="#a96008">commune과 지방 기술서비스가 환경조건을 포…</text>
    </g>
  

    <g filter="url(#card-shadow)">
      <rect x="664.3" y="1830" width="278" height="98" rx="11" fill="none" stroke="#7c3aed" stroke-width="2.2" stroke-dasharray="7 5"/>
      <rect x="668.3" y="1834" width="270" height="90" rx="8" fill="#ffffff" stroke="#b9c7bf" stroke-width="2.3"/>
      <rect x="668.3" y="1834" width="6" height="90" rx="3" fill="#b9c7bf"/>
      <text x="683.3" y="1854" class="mono" font-size="12.5" font-weight="750" fill="#627169">B23</text>
      <text x="735.3" y="1854" font-size="11.5" font-weight="800" fill="#7c3aed">조문 · 허가 적합화</text>
      <rect x="878.3" y="1841" width="50" height="24" rx="5" fill="#b9c7bf" opacity="0.14"/>
      <text x="903.3" y="1858" text-anchor="middle" font-size="12" font-weight="800" fill="#17231d">후속</text>
      <text x="683.3" y="1891" font-size="15.5" font-weight="800" fill="#17231d"><tspan x="683.3" dy="0">허가도서 보완·재심</tspan></text>
      <text x="683.3" y="1916" font-size="11" font-weight="650" fill="#627169">도시계획·건축·환경조건 지적을 설계·기술도…</text>
    </g>
  

    <g filter="url(#card-shadow)">
      <rect x="1047.8" y="2044" width="278" height="98" rx="11" fill="none" stroke="#7c3aed" stroke-width="2.2" stroke-dasharray="7 5"/>
      <rect x="1051.8" y="2048" width="270" height="90" rx="8" fill="#087452" stroke="#087452" stroke-width="2.3"/>
      <rect x="1051.8" y="2048" width="6" height="90" rx="3" fill="#087452"/>
      <text x="1066.8" y="2068" class="mono" font-size="12.5" font-weight="750" fill="#d8f4e8">B24</text>
      <text x="1118.8" y="2068" font-size="11.5" font-weight="800" fill="#7c3aed">조문 · 45일 허가결정</text>
      <rect x="1261.8" y="2055" width="50" height="24" rx="5" fill="#ffffff" opacity="0.18"/>
      <text x="1286.8" y="2072" text-anchor="middle" font-size="12" font-weight="800" fill="#ffffff">핵심</text>
      <text x="1066.8" y="2105" font-size="15.5" font-weight="800" fill="#ffffff"><tspan x="1066.8" dy="0">건축허가 공식결정</tspan></text>
      <text x="1066.8" y="2130" font-size="11" font-weight="650" fill="#d8f4e8">Mayor가 45일 안에 건축허가를 명시 발급하…</text>
    </g>
  

    <text x="38" y="2245" font-size="16" font-weight="800" fill="#18251e">읽는 법</text>
    <rect x="118" y="2219" width="17" height="17" rx="4" fill="#35a77d"/><text x="144" y="2233" font-size="14.5" fill="#526159">선행</text>
<rect x="216" y="2219" width="17" height="17" rx="4" fill="#087452"/><text x="242" y="2233" font-size="14.5" fill="#526159">핵심</text>
<rect x="314" y="2219" width="17" height="17" rx="4" fill="#d9901a"/><text x="340" y="2233" font-size="14.5" fill="#526159">병목</text>
<rect x="412" y="2219" width="17" height="17" rx="4" fill="#3478db"/><text x="438" y="2233" font-size="14.5" fill="#526159">회귀</text>
    <rect x="500" y="2219" width="17" height="17" rx="4" fill="none" stroke="#7c3aed" stroke-width="2" stroke-dasharray="5 4"/>
    <text x="526" y="2233" font-size="14.5" fill="#526159">조문</text>
    <line x1="648" y1="2237" x2="700" y2="2237" stroke="#53675d" stroke-width="4" marker-end="url(#arrow-sequence)"/>
    <text x="720" y="2243" font-size="15" fill="#526159">절차 순서</text>
    <line x1="860" y1="2237" x2="912" y2="2237" stroke="#0f8a65" stroke-width="4" stroke-dasharray="10 8" marker-end="url(#arrow-message)"/>
    <text x="932" y="2243" font-size="15" fill="#526159">정보 전달</text>
    <line x1="1072" y1="2237" x2="1124" y2="2237" stroke="#3478db" stroke-width="4" stroke-dasharray="10 8" marker-end="url(#arrow-loop)"/>
    <text x="1144" y="2243" font-size="15" fill="#526159">보완 회귀</text>
    <text x="38" y="2291" font-size="15.5" font-weight="650" fill="#56655d">단계는 위→아래, 행위자 묶음은 좌→우로 읽습니다.</text>
    <text x="38" y="2321" font-size="14.5" fill="#68776f">원래 4개 행위자 레인을 4개 레이아웃 묶음으로 배치했으며, 15개 업무와 16개 연결 관계는 유지했습니다.</text>
    <text x="38" y="2361" font-size="13.5" fill="#7b8881">출처: 해당 제도의 법률·시행령·시행규칙 기반 모델 · 실제 사건의 진행 상태나 법률 자문을 의미하지 않습니다.</text>
    
  
</svg>