<svg xmlns="http://www.w3.org/2000/svg" width="1800" height="2400" viewBox="0 0 1800 2400">
<defs>
      <filter id="card-shadow" x="-20%" y="-25%" width="140%" height="160%">
        <feDropShadow dx="0" dy="3" stdDeviation="4" flood-color="#12271e" flood-opacity="0.10"/>
      </filter>
      <marker id="arrow-sequence" markerWidth="17" markerHeight="13" refX="15" refY="6.5" orient="auto" markerUnits="userSpaceOnUse">
    <path d="M1,1 L16,6.5 L1,12 Z" fill="#53675d" stroke="#ffffff" stroke-width="1.3" stroke-linejoin="round"/>
  </marker>
      <marker id="arrow-message" markerWidth="17" markerHeight="13" refX="15" refY="6.5" orient="auto" markerUnits="userSpaceOnUse">
    <path d="M1,1 L16,6.5 L1,12 Z" fill="#0f8a65" stroke="#ffffff" stroke-width="1.3" stroke-linejoin="round"/>
  </marker>
      <marker id="arrow-loop" markerWidth="17" markerHeight="13" refX="15" refY="6.5" orient="auto" markerUnits="userSpaceOnUse">
    <path d="M1,1 L16,6.5 L1,12 Z" fill="#3478db" stroke="#ffffff" stroke-width="1.3" stroke-linejoin="round"/>
  </marker>
      <style>
        text { font-family: -apple-system, "Segoe UI", "Helvetica Neue", Arial, "Apple SD Gothic Neo", "Noto Sans CJK KR", "Noto Sans KR", sans-serif; }
        .mono { font-family: "SFMono-Regular", "Menlo", monospace; }
      </style>
    </defs>
<rect width="1800" height="2400" fill="#ffffff"/>
<rect x="0" y="0" width="1800" height="240" fill="#07150f"/>
<rect x="0" y="0" width="1800" height="9" fill="#18a87b"/>

    <text x="1760" y="45" text-anchor="end" font-size="15" font-weight="700" fill="#8fa299">노드 14 · 레인 4 · 게이트 5</text>
    <text x="40" y="132" font-size="48" font-weight="850" fill="#ffffff">콜롬비아 건축허가·환경 licence 심사절차</text>
    <text x="40" y="174" font-size="19" font-weight="520" fill="#b7c7bf">curador/시의 urbanística licence와 법정대상 환경 licence·개별 환경허가를 정확히 선별한다.</text>
    
  
<rect x="38" y="260" width="1724" height="1940" rx="10" fill="#ffffff" stroke="#b8c7bf" stroke-width="2"/>
<rect x="38" y="260" width="190" height="100" rx="10" fill="#eaf2ee"/>
<text x="58" y="299" font-size="17" font-weight="800" fill="#17231d">단계 ↓</text>
<text x="58" y="332" font-size="15" font-weight="650" fill="#68776f">행위자 묶음 →</text>
<rect x="38" y="360" width="1724" height="276.8" fill="#84baa9"/>
<rect x="38" y="360" width="190" height="276.8" fill="#087452"/>
<text x="58" y="392" class="mono" font-size="16" font-weight="800" fill="#ffffff">P1</text>
<text x="58" y="425" font-size="19" font-weight="800" fill="#ffffff"><tspan x="58" dy="0">건축허가 접수</tspan></text>
<rect x="38" y="636.8" width="1724" height="390.8" fill="#f5f8f6"/>
<rect x="38" y="636.8" width="190" height="390.8" fill="#eef3f0"/>
<text x="58" y="668.8" class="mono" font-size="16" font-weight="800" fill="#53645b">P2</text>
<text x="58" y="701.8" font-size="19" font-weight="800" fill="#53645b"><tspan x="58" dy="0">공개·기술심사</tspan></text>
<rect x="38" y="1027.6" width="1724" height="390.8" fill="#84baa9"/>
<rect x="38" y="1027.6" width="190" height="390.8" fill="#087452"/>
<text x="58" y="1059.6" class="mono" font-size="16" font-weight="800" fill="#ffffff">P3</text>
<text x="58" y="1092.6" font-size="19" font-weight="800" fill="#ffffff"><tspan x="58" dy="0">건축보완·결정</tspan></text>
<rect x="38" y="1418.4" width="1724" height="390.8" fill="#f5f8f6"/>
<rect x="38" y="1418.4" width="190" height="390.8" fill="#eef3f0"/>
<text x="58" y="1450.4" class="mono" font-size="16" font-weight="800" fill="#53645b">P4</text>
<text x="58" y="1483.4" font-size="19" font-weight="800" fill="#53645b"><tspan x="58" dy="0">환경접수·평가</tspan></text>
<rect x="38" y="1809.2" width="1724" height="390.8" fill="#84baa9"/>
<rect x="38" y="1809.2" width="190" height="390.8" fill="#087452"/>
<text x="58" y="1841.2" class="mono" font-size="16" font-weight="800" fill="#ffffff">P5</text>
<text x="58" y="1874.2" font-size="19" font-weight="800" fill="#ffffff"><tspan x="58" dy="0">환경보완·결정</tspan></text>
<rect x="228" y="260" width="383.5" height="100" fill="#f7faf8"/>
<rect x="228" y="260" width="383.5" height="7" fill="#0f9f72"/>
<text x="248" y="299" font-size="20" font-weight="800" fill="#17231d">건축주·신청인</text>
<text x="248" y="329" font-size="13.5" font-weight="600" fill="#68776f"><tspan x="248" dy="0">건축주·신청인</tspan></text>
<rect x="611.5" y="260" width="383.5" height="100" fill="#f7faf8"/>
<rect x="611.5" y="260" width="383.5" height="7" fill="#3b82f6"/>
<text x="631.5" y="299" font-size="20" font-weight="800" fill="#17231d">현지 설계</text>
<text x="631.5" y="329" font-size="13.5" font-weight="600" fill="#68776f"><tspan x="631.5" dy="0">현지 설계·시공 전문가</tspan></text>
<rect x="995" y="260" width="383.5" height="100" fill="#f7faf8"/>
<rect x="995" y="260" width="383.5" height="7" fill="#c78116"/>
<text x="1015" y="299" font-size="20" font-weight="800" fill="#17231d">도시계획</text>
<text x="1015" y="329" font-size="13.5" font-weight="600" fill="#68776f"><tspan x="1015" dy="0">도시계획·건축 허가기관</tspan></text>
<rect x="1378.5" y="260" width="383.5" height="100" fill="#f7faf8"/>
<rect x="1378.5" y="260" width="383.5" height="7" fill="#0891b2"/>
<text x="1398.5" y="299" font-size="20" font-weight="800" fill="#17231d">환경</text>
<text x="1398.5" y="329" font-size="13.5" font-weight="600" fill="#68776f"><tspan x="1398.5" dy="0">환경·소방·검사기관</tspan></text>
<line x1="228" y1="260" x2="228" y2="2200" stroke="#d3dcd7" stroke-width="1.5"/>
<line x1="611.5" y1="260" x2="611.5" y2="2200" stroke="#d3dcd7" stroke-width="1.5"/>
<line x1="995" y1="260" x2="995" y2="2200" stroke="#d3dcd7" stroke-width="1.5"/>
<line x1="1378.5" y1="260" x2="1378.5" y2="2200" stroke="#d3dcd7" stroke-width="1.5"/>
<line x1="1762" y1="260" x2="1762" y2="2200" stroke="#d3dcd7" stroke-width="1.5"/>
<line x1="38" y1="360" x2="1762" y2="360" stroke="#b8c7bf" stroke-width="2"/>
<line x1="38" y1="360" x2="1762" y2="360" stroke="#c8d3cd" stroke-width="1.5"/>
<line x1="38" y1="636.8" x2="1762" y2="636.8" stroke="#c8d3cd" stroke-width="1.5"/>
<line x1="38" y1="1027.6" x2="1762" y2="1027.6" stroke="#c8d3cd" stroke-width="1.5"/>
<line x1="38" y1="1418.4" x2="1762" y2="1418.4" stroke="#c8d3cd" stroke-width="1.5"/>
<line x1="38" y1="1809.2" x2="1762" y2="1809.2" stroke="#c8d3cd" stroke-width="1.5"/>
<line x1="38" y1="2200" x2="1762" y2="2200" stroke="#b8c7bf" stroke-width="2"/>
<path d="M 668.3 491.9 H 582.8 V 491.9 H 562.8" fill="none" stroke="#ffffff" stroke-width="7.4"  stroke-linecap="round" stroke-linejoin="round" opacity="0.94"/>
<path d="M 668.3 491.9 H 582.8 V 491.9 H 562.8" fill="none" stroke="#53675d" stroke-width="3.4"  marker-end="url(#arrow-sequence)" stroke-linecap="round" stroke-linejoin="round" opacity="0.96"/>
<path d="M 441.8 543.4 V 592.8 H 1182.8 V 722.2" fill="none" stroke="#ffffff" stroke-width="7.4"  stroke-linecap="round" stroke-linejoin="round" opacity="0.94"/>
<path d="M 441.8 543.4 V 592.8 H 1182.8 V 722.2" fill="none" stroke="#53675d" stroke-width="3.4"  marker-end="url(#arrow-sequence)" stroke-linecap="round" stroke-linejoin="round" opacity="0.96"/>
<path d="M 1196.8 820.2 V 836.2 H 1182.8 V 836.2" fill="none" stroke="#ffffff" stroke-width="7.4"  stroke-linecap="round" stroke-linejoin="round" opacity="0.94"/>
<path d="M 1196.8 820.2 V 836.2 H 1182.8 V 836.2" fill="none" stroke="#53675d" stroke-width="3.4"  marker-end="url(#arrow-sequence)" stroke-linecap="round" stroke-linejoin="round" opacity="0.96"/>
<path d="M 1204.8 934.2 V 999.6 H 1347.5 V 1282.5 H 1329.8" fill="none" stroke="#ffffff" stroke-width="7.4"  stroke-linecap="round" stroke-linejoin="round" opacity="0.94"/>
<path d="M 1204.8 934.2 V 999.6 H 1347.5 V 1282.5 H 1329.8" fill="none" stroke="#53675d" stroke-width="3.4"  marker-end="url(#arrow-sequence)" stroke-linecap="round" stroke-linejoin="round" opacity="0.96"/>
<path d="M 1208.8 934.2 V 983.6 H 1208.8 V 1113" fill="none" stroke="#ffffff" stroke-width="7.4" stroke-dasharray="11 8" stroke-linecap="round" stroke-linejoin="round" opacity="0.94"/>
<path d="M 1208.8 934.2 V 983.6 H 1208.8 V 1113" fill="none" stroke="#0f8a65" stroke-width="3.4" stroke-dasharray="11 8" marker-end="url(#arrow-message)" stroke-linecap="round" stroke-linejoin="round" opacity="0.96"/>
<path d="M 1051.8 1159.5 H 582.8 V 1229.5 H 562.8" fill="none" stroke="#ffffff" stroke-width="7.4"  stroke-linecap="round" stroke-linejoin="round" opacity="0.94"/>
<path d="M 1051.8 1159.5 H 582.8 V 1229.5 H 562.8" fill="none" stroke="#53675d" stroke-width="3.4"  marker-end="url(#arrow-sequence)" stroke-linecap="round" stroke-linejoin="round" opacity="0.96"/>
<path d="M 284.8 1219 H 203 V 1007.6 H 1150.8 V 942.2" fill="none" stroke="#ffffff" stroke-width="8" stroke-dasharray="10 8" stroke-linecap="round" stroke-linejoin="round" opacity="0.94"/>
<path d="M 284.8 1219 H 203 V 1007.6 H 1150.8 V 942.2" fill="none" stroke="#3478db" stroke-width="4" stroke-dasharray="10 8" marker-end="url(#arrow-loop)" stroke-linecap="round" stroke-linejoin="round" opacity="0.96"/>
<path d="M 801.3 543.4 V 608.8 H 242 V 1483.8 H 417.8 V 1503.8" fill="none" stroke="#ffffff" stroke-width="7.4" stroke-dasharray="11 8" stroke-linecap="round" stroke-linejoin="round" opacity="0.94"/>
<path d="M 801.3 543.4 V 608.8 H 242 V 1483.8 H 417.8 V 1503.8" fill="none" stroke="#0f8a65" stroke-width="3.4" stroke-dasharray="11 8" marker-end="url(#arrow-message)" stroke-linecap="round" stroke-linejoin="round" opacity="0.96"/>
<path d="M 409.8 1601.8 V 1617.8" fill="none" stroke="#ffffff" stroke-width="7.4"  stroke-linecap="round" stroke-linejoin="round" opacity="0.94"/>
<path d="M 409.8 1601.8 V 1617.8" fill="none" stroke="#53675d" stroke-width="3.4"  marker-end="url(#arrow-sequence)" stroke-linecap="round" stroke-linejoin="round" opacity="0.96"/>
<path d="M 554.8 1679.8 H 1407.3 V 1555.3 H 1427.3" fill="none" stroke="#ffffff" stroke-width="7.4"  stroke-linecap="round" stroke-linejoin="round" opacity="0.94"/>
<path d="M 554.8 1679.8 H 1407.3 V 1555.3 H 1427.3" fill="none" stroke="#53675d" stroke-width="3.4"  marker-end="url(#arrow-sequence)" stroke-linecap="round" stroke-linejoin="round" opacity="0.96"/>
<path d="M 1580.3 1601.8 V 1617.8 H 1560.3 V 1617.8" fill="none" stroke="#ffffff" stroke-width="7.4"  stroke-linecap="round" stroke-linejoin="round" opacity="0.94"/>
<path d="M 1580.3 1601.8 V 1617.8 H 1560.3 V 1617.8" fill="none" stroke="#53675d" stroke-width="3.4"  marker-end="url(#arrow-sequence)" stroke-linecap="round" stroke-linejoin="round" opacity="0.96"/>
<path d="M 1612.3 1715.8 V 1765.2 H 1731 V 2064.1 H 1713.3" fill="none" stroke="#ffffff" stroke-width="7.4"  stroke-linecap="round" stroke-linejoin="round" opacity="0.94"/>
<path d="M 1612.3 1715.8 V 1765.2 H 1731 V 2064.1 H 1713.3" fill="none" stroke="#53675d" stroke-width="3.4"  marker-end="url(#arrow-sequence)" stroke-linecap="round" stroke-linejoin="round" opacity="0.96"/>
<path d="M 1556.3 1715.8 V 1749.2 H 1574.3 V 1894.6" fill="none" stroke="#ffffff" stroke-width="7.4" stroke-dasharray="11 8" stroke-linecap="round" stroke-linejoin="round" opacity="0.94"/>
<path d="M 1556.3 1715.8 V 1749.2 H 1574.3 V 1894.6" fill="none" stroke="#0f8a65" stroke-width="3.4" stroke-dasharray="11 8" marker-end="url(#arrow-message)" stroke-linecap="round" stroke-linejoin="round" opacity="0.96"/>
<path d="M 1435.3 1941.1 H 582.8 V 2011.1 H 562.8" fill="none" stroke="#ffffff" stroke-width="7.4"  stroke-linecap="round" stroke-linejoin="round" opacity="0.94"/>
<path d="M 1435.3 1941.1 H 582.8 V 2011.1 H 562.8" fill="none" stroke="#53675d" stroke-width="3.4"  marker-end="url(#arrow-sequence)" stroke-linecap="round" stroke-linejoin="round" opacity="0.96"/>
<path d="M 284.8 2000.6 H 190 V 1773.2 H 1522.3 V 1723.8" fill="none" stroke="#ffffff" stroke-width="8" stroke-dasharray="10 8" stroke-linecap="round" stroke-linejoin="round" opacity="0.94"/>
<path d="M 284.8 2000.6 H 190 V 1773.2 H 1522.3 V 1723.8" fill="none" stroke="#3478db" stroke-width="4" stroke-dasharray="10 8" marker-end="url(#arrow-loop)" stroke-linecap="round" stroke-linejoin="round" opacity="0.96"/>
<rect x="548.3" y="387.9" width="126.4" height="30" rx="6" fill="#ffffff" stroke="#53675d" stroke-width="1.4"/>
<text x="611.5" y="407.9" text-anchor="middle" font-size="14" font-weight="750" fill="#53675d">FUN·NSR 도서</text>
<rect x="764.3" y="560.8" width="96" height="30" rx="6" fill="#ffffff" stroke="#53675d" stroke-width="1.4"/>
<text x="812.3" y="580.8" text-anchor="middle" font-size="14" font-weight="750" fill="#53675d">정식접수</text>
<rect x="1393.8" y="817.2" width="96" height="30" rx="6" fill="#ffffff" stroke="#53675d" stroke-width="1.4"/>
<text x="1441.8" y="837.2" text-anchor="middle" font-size="14" font-weight="750" fill="#53675d">공개·의견</text>
<rect x="1218.7" y="967.6" width="114.9" height="30" rx="6" fill="#ffffff" stroke="#53675d" stroke-width="1.4"/>
<text x="1276.1" y="987.6" text-anchor="middle" font-size="14" font-weight="750" fill="#53675d">관찰사항 없음</text>
<rect x="1085.9" y="951.6" width="105.8" height="30" rx="6" fill="#ffffff" stroke="#0f8a65" stroke-width="1.4"/>
<text x="1138.8" y="971.6" text-anchor="middle" font-size="14" font-weight="750" fill="#0f8a65">수정 필요 시</text>
<rect x="755.3" y="1162.5" width="96" height="30" rx="6" fill="#ffffff" stroke="#53675d" stroke-width="1.4"/>
<text x="803.3" y="1182.5" text-anchor="middle" font-size="14" font-weight="750" fill="#53675d">통합 acta</text>
<rect x="208.6" y="1136.3" width="128.9" height="30" rx="6" fill="#ffffff" stroke="#3478db" stroke-width="1.4"/>
<text x="273" y="1156.3" text-anchor="middle" font-size="14" font-weight="750" fill="#3478db">수정도서 재심사</text>
<rect x="168.1" y="995.3" width="147.8" height="30" rx="6" fill="#ffffff" stroke="#0f8a65" stroke-width="1.4"/>
<text x="242" y="1015.3" text-anchor="middle" font-size="14" font-weight="750" fill="#0f8a65">병렬 환경대상 판정</text>
<rect x="607.4" y="1598.8" width="134.6" height="30" rx="6" fill="#ffffff" stroke="#53675d" stroke-width="1.4"/>
<text x="674.8" y="1618.8" text-anchor="middle" font-size="14" font-weight="750" fill="#53675d">licence 대상 시</text>
<rect x="947" y="1585.6" width="96" height="30" rx="6" fill="#ffffff" stroke="#53675d" stroke-width="1.4"/>
<text x="995" y="1605.6" text-anchor="middle" font-size="14" font-weight="750" fill="#53675d">VPD 완비</text>
<rect x="1637.3" y="1454.8" width="96" height="30" rx="6" fill="#ffffff" stroke="#53675d" stroke-width="1.4"/>
<text x="1685.3" y="1474.8" text-anchor="middle" font-size="14" font-weight="750" fill="#53675d">평가개시</text>
<rect x="1614.2" y="1733.2" width="114.9" height="30" rx="6" fill="#ffffff" stroke="#53675d" stroke-width="1.4"/>
<text x="1671.6" y="1753.2" text-anchor="middle" font-size="14" font-weight="750" fill="#53675d">추가정보 없음</text>
<rect x="1498.4" y="1789.2" width="133.8" height="30" rx="6" fill="#ffffff" stroke="#0f8a65" stroke-width="1.4"/>
<text x="1565.3" y="1809.2" text-anchor="middle" font-size="14" font-weight="750" fill="#0f8a65">추가정보 필요 시</text>
<rect x="947" y="1944.1" width="96" height="30" rx="6" fill="#ffffff" stroke="#53675d" stroke-width="1.4"/>
<text x="995" y="1964.1" text-anchor="middle" font-size="14" font-weight="750" fill="#53675d">acta 요구</text>
<rect x="262" y="1873.9" width="136" height="30" rx="6" fill="#ffffff" stroke="#3478db" stroke-width="1.4"/>
<text x="330" y="1893.9" text-anchor="middle" font-size="14" font-weight="750" fill="#3478db">보완 EIA 재평가</text>

    <g filter="url(#card-shadow)">
      <rect x="664.3" y="449.4" width="278" height="98" rx="11" fill="none" stroke="#7c3aed" stroke-width="2.2" stroke-dasharray="7 5"/>
      <rect x="668.3" y="453.4" width="270" height="90" rx="8" fill="#087452" stroke="#087452" stroke-width="2.3"/>
      <rect x="668.3" y="453.4" width="6" height="90" rx="3" fill="#087452"/>
      <text x="683.3" y="473.4" class="mono" font-size="12.5" font-weight="750" fill="#d8f4e8">B09</text>
      <text x="735.3" y="473.4" font-size="11.5" font-weight="800" fill="#7c3aed">조문 · Decree 1077 construction licence</text>
      <rect x="878.3" y="460.4" width="50" height="24" rx="5" fill="#ffffff" opacity="0.18"/>
      <text x="903.3" y="477.4" text-anchor="middle" font-size="12" font-weight="800" fill="#ffffff">핵심</text>
      <text x="683.3" y="500.4" font-size="15.5" font-weight="800" fill="#ffffff"><tspan x="683.3" dy="0">construction</tspan><tspan x="683.3" dy="18">licence·NSR-10 도서 작성</tspan></text>
      <text x="683.3" y="535.4" font-size="11" font-weight="650" fill="#d8f4e8">책임건축사·기술자가 공사유형에 맞는 licen…</text>
    </g>
  

    <g filter="url(#card-shadow)">
      <rect x="280.8" y="449.4" width="278" height="98" rx="11" fill="none" stroke="#7c3aed" stroke-width="2.2" stroke-dasharray="7 5"/>
      <rect x="284.8" y="453.4" width="270" height="90" rx="8" fill="#ffffff" stroke="#b9c7bf" stroke-width="2.3"/>
      <rect x="284.8" y="453.4" width="6" height="90" rx="3" fill="#b9c7bf"/>
      <text x="299.8" y="473.4" class="mono" font-size="12.5" font-weight="750" fill="#627169">B10</text>
      <text x="351.8" y="473.4" font-size="11.5" font-weight="800" fill="#7c3aed">조문 · Decree 1077 정식접수</text>
      <rect x="494.8" y="460.4" width="50" height="24" rx="5" fill="#b9c7bf" opacity="0.14"/>
      <text x="519.8" y="477.4" text-anchor="middle" font-size="12" font-weight="800" fill="#17231d">후속</text>
      <text x="299.8" y="500.4" font-size="15.5" font-weight="800" fill="#17231d"><tspan x="299.8" dy="0">construction licence 정식</tspan><tspan x="299.8" dy="18">접수</tspan></text>
      <text x="299.8" y="535.4" font-size="11" font-weight="650" fill="#627169">신청인이 FUN과 국가가 정한 완비서류를 cur…</text>
    </g>
  

    <g filter="url(#card-shadow)">
      <rect x="1047.8" y="726.2" width="278" height="98" rx="11" fill="none" stroke="#7c3aed" stroke-width="2.2" stroke-dasharray="7 5"/>
      <rect x="1051.8" y="730.2" width="270" height="90" rx="8" fill="#ffffff" stroke="#b9c7bf" stroke-width="2.3"/>
      <rect x="1051.8" y="730.2" width="6" height="90" rx="3" fill="#b9c7bf"/>
      <text x="1066.8" y="750.2" class="mono" font-size="12.5" font-weight="750" fill="#627169">B11</text>
      <text x="1118.8" y="750.2" font-size="11.5" font-weight="800" fill="#7c3aed">조문 · Decree 1077 공개절차</text>
      <rect x="1261.8" y="737.2" width="50" height="24" rx="5" fill="#b9c7bf" opacity="0.14"/>
      <text x="1286.8" y="754.2" text-anchor="middle" font-size="12" font-weight="800" fill="#17231d">후속</text>
      <text x="1066.8" y="787.2" font-size="15.5" font-weight="800" fill="#17231d"><tspan x="1066.8" dy="0">인접자 통지·제3자 의견접수</tspan></text>
      <text x="1066.8" y="812.2" font-size="11" font-weight="650" fill="#627169">허가기관이 인접자에게 신청을 통지하고, 해…</text>
    </g>
  

    <g filter="url(#card-shadow)">
      <rect x="1047.8" y="840.2" width="278" height="98" rx="11" fill="none" stroke="#7c3aed" stroke-width="2.2" stroke-dasharray="7 5"/>
      <rect x="1051.8" y="844.2" width="270" height="90" rx="8" fill="#fff8e8" stroke="#d9901a" stroke-width="2.3"/>
      <rect x="1051.8" y="844.2" width="6" height="90" rx="3" fill="#d9901a"/>
      <text x="1066.8" y="864.2" class="mono" font-size="12.5" font-weight="750" fill="#a96008">B12</text>
      <text x="1118.8" y="864.2" font-size="11.5" font-weight="800" fill="#7c3aed">조문 · Decree 1077 기술심사</text>
      <rect x="1261.8" y="851.2" width="50" height="24" rx="5" fill="#d9901a" opacity="0.14"/>
      <text x="1286.8" y="868.2" text-anchor="middle" font-size="12" font-weight="800" fill="#7a4305">병목</text>
      <text x="1066.8" y="901.2" font-size="15.5" font-weight="800" fill="#7a4305"><tspan x="1066.8" dy="0">도시·건축·구조·법률 기술심사</tspan></text>
      <text x="1066.8" y="926.2" font-size="11" font-weight="650" fill="#a96008">curador 또는 관할기관이 POT, 건축·구조·…</text>
    </g>
  

    <g filter="url(#card-shadow)">
      <rect x="1047.8" y="1117" width="278" height="98" rx="11" fill="none" stroke="#7c3aed" stroke-width="2.2" stroke-dasharray="7 5"/>
      <rect x="1051.8" y="1121" width="270" height="90" rx="8" fill="#ffffff" stroke="#b9c7bf" stroke-width="2.3"/>
      <rect x="1051.8" y="1121" width="6" height="90" rx="3" fill="#b9c7bf"/>
      <text x="1066.8" y="1141" class="mono" font-size="12.5" font-weight="750" fill="#627169">B13</text>
      <text x="1118.8" y="1141" font-size="11.5" font-weight="800" fill="#7c3aed">조문 · Decree 1077 관찰사항</text>
      <rect x="1261.8" y="1128" width="50" height="24" rx="5" fill="#b9c7bf" opacity="0.14"/>
      <text x="1286.8" y="1145" text-anchor="middle" font-size="12" font-weight="800" fill="#17231d">후속</text>
      <text x="1066.8" y="1168" font-size="15.5" font-weight="800" fill="#17231d"><tspan x="1066.8" dy="0">Acta de Observaciones y</tspan><tspan x="1066.8" dy="18">Correcciones</tspan></text>
      <text x="1066.8" y="1203" font-size="11" font-weight="650" fill="#627169">수정이 필요하면 허가기관이 한 번의 acta로…</text>
    </g>
  

    <g filter="url(#card-shadow)">
      <rect x="280.8" y="1174" width="278" height="98" rx="11" fill="none" stroke="#7c3aed" stroke-width="2.2" stroke-dasharray="7 5"/>
      <rect x="284.8" y="1178" width="270" height="90" rx="8" fill="#ffffff" stroke="#b9c7bf" stroke-width="2.3"/>
      <rect x="284.8" y="1178" width="6" height="90" rx="3" fill="#b9c7bf"/>
      <text x="299.8" y="1198" class="mono" font-size="12.5" font-weight="750" fill="#627169">B14</text>
      <text x="351.8" y="1198" font-size="11.5" font-weight="800" fill="#7c3aed">조문 · Decree 1077 보완기한</text>
      <rect x="494.8" y="1185" width="50" height="24" rx="5" fill="#b9c7bf" opacity="0.14"/>
      <text x="519.8" y="1202" text-anchor="middle" font-size="12" font-weight="800" fill="#17231d">후속</text>
      <text x="299.8" y="1235" font-size="15.5" font-weight="800" fill="#17231d"><tspan x="299.8" dy="0">보완답변·수정도서 재제출</tspan></text>
      <text x="299.8" y="1260" font-size="11" font-weight="650" fill="#627169">신청인과 설계자가 30영업일(허용 시 15일 연…</text>
    </g>
  

    <g filter="url(#card-shadow)">
      <rect x="1047.8" y="1231" width="278" height="98" rx="11" fill="none" stroke="#7c3aed" stroke-width="2.2" stroke-dasharray="7 5"/>
      <rect x="1051.8" y="1235" width="270" height="90" rx="8" fill="#087452" stroke="#087452" stroke-width="2.3"/>
      <rect x="1051.8" y="1235" width="6" height="90" rx="3" fill="#087452"/>
      <text x="1066.8" y="1255" class="mono" font-size="12.5" font-weight="750" fill="#d8f4e8">B15</text>
      <text x="1118.8" y="1255" font-size="11.5" font-weight="800" fill="#7c3aed">조문 · Decree 1077 결정기한</text>
      <rect x="1261.8" y="1242" width="50" height="24" rx="5" fill="#ffffff" opacity="0.18"/>
      <text x="1286.8" y="1259" text-anchor="middle" font-size="12" font-weight="800" fill="#ffffff">핵심</text>
      <text x="1066.8" y="1282" font-size="15.5" font-weight="800" fill="#ffffff"><tspan x="1066.8" dy="0">construction licence</tspan><tspan x="1066.8" dy="18">행정결정</tspan></text>
      <text x="1066.8" y="1317" font-size="11" font-weight="650" fill="#d8f4e8">허가기관이 45영업일 법정틀 안에서 viabili…</text>
    </g>
  

    <g filter="url(#card-shadow)">
      <rect x="280.8" y="1507.8" width="278" height="98" rx="11" fill="none" stroke="#7c3aed" stroke-width="2.2" stroke-dasharray="7 5"/>
      <rect x="284.8" y="1511.8" width="270" height="90" rx="8" fill="#fff8e8" stroke="#d9901a" stroke-width="2.3"/>
      <rect x="284.8" y="1511.8" width="6" height="90" rx="3" fill="#d9901a"/>
      <text x="299.8" y="1531.8" class="mono" font-size="12.5" font-weight="750" fill="#a96008">B16</text>
      <text x="351.8" y="1531.8" font-size="11.5" font-weight="800" fill="#7c3aed">조문 · Decree 1076 환경 licence 대상</text>
      <rect x="494.8" y="1518.8" width="50" height="24" rx="5" fill="#d9901a" opacity="0.14"/>
      <text x="519.8" y="1535.8" text-anchor="middle" font-size="12" font-weight="800" fill="#7a4305">병목</text>
      <text x="299.8" y="1558.8" font-size="15.5" font-weight="800" fill="#7a4305"><tspan x="299.8" dy="0">환경 licence 대상·DAA 필요</tspan><tspan x="299.8" dy="18">여부 판정</tspan></text>
      <text x="299.8" y="1593.8" font-size="11" font-weight="650" fill="#a96008">사업시행자가 Decree 1076 열거목록으로 li…</text>
    </g>
  

    <g filter="url(#card-shadow)">
      <rect x="280.8" y="1621.8" width="278" height="98" rx="11" fill="none" stroke="#7c3aed" stroke-width="2.2" stroke-dasharray="7 5"/>
      <rect x="284.8" y="1625.8" width="270" height="90" rx="8" fill="#ffffff" stroke="#b9c7bf" stroke-width="2.3"/>
      <rect x="284.8" y="1625.8" width="6" height="90" rx="3" fill="#b9c7bf"/>
      <text x="299.8" y="1645.8" class="mono" font-size="12.5" font-weight="750" fill="#627169">B17</text>
      <text x="351.8" y="1645.8" font-size="11.5" font-weight="800" fill="#7c3aed">조문 · Decree 1076 환경허가 신청</text>
      <rect x="494.8" y="1632.8" width="50" height="24" rx="5" fill="#b9c7bf" opacity="0.14"/>
      <text x="519.8" y="1649.8" text-anchor="middle" font-size="12" font-weight="800" fill="#17231d">후속</text>
      <text x="299.8" y="1682.8" font-size="15.5" font-weight="800" fill="#17231d"><tspan x="299.8" dy="0">EIA·신청서 VPD 사전검증 제출</tspan></text>
      <text x="299.8" y="1707.8" font-size="11" font-weight="650" fill="#627169">시행자가 적용 TOR에 따른 EIA, 신청서, 비…</text>
    </g>
  

    <g filter="url(#card-shadow)">
      <rect x="1431.3" y="1507.8" width="278" height="98" rx="11" fill="none" stroke="#7c3aed" stroke-width="2.2" stroke-dasharray="7 5"/>
      <rect x="1435.3" y="1511.8" width="270" height="90" rx="8" fill="#ffffff" stroke="#b9c7bf" stroke-width="2.3"/>
      <rect x="1435.3" y="1511.8" width="6" height="90" rx="3" fill="#b9c7bf"/>
      <text x="1450.3" y="1531.8" class="mono" font-size="12.5" font-weight="750" fill="#627169">B18</text>
      <text x="1502.3" y="1531.8" font-size="11.5" font-weight="800" fill="#7c3aed">조문 · Decree 1076 평가개시</text>
      <rect x="1645.3" y="1518.8" width="50" height="24" rx="5" fill="#b9c7bf" opacity="0.14"/>
      <text x="1670.3" y="1535.8" text-anchor="middle" font-size="12" font-weight="800" fill="#17231d">후속</text>
      <text x="1450.3" y="1568.8" font-size="15.5" font-weight="800" fill="#17231d"><tspan x="1450.3" dy="0">Auto de Inicio 발행·평가개시</tspan></text>
      <text x="1450.3" y="1593.8" font-size="11" font-weight="650" fill="#627169">VPD에서 완비로 확인되면 관할 환경기관이…</text>
    </g>
  

    <g filter="url(#card-shadow)">
      <rect x="1431.3" y="1621.8" width="278" height="98" rx="11" fill="none" stroke="#7c3aed" stroke-width="2.2" stroke-dasharray="7 5"/>
      <rect x="1435.3" y="1625.8" width="270" height="90" rx="8" fill="#fff8e8" stroke="#d9901a" stroke-width="2.3"/>
      <rect x="1435.3" y="1625.8" width="6" height="90" rx="3" fill="#d9901a"/>
      <text x="1450.3" y="1645.8" class="mono" font-size="12.5" font-weight="750" fill="#a96008">B19</text>
      <text x="1502.3" y="1645.8" font-size="11.5" font-weight="800" fill="#7c3aed">조문 · Decree 1076 EIA 평가</text>
      <rect x="1645.3" y="1632.8" width="50" height="24" rx="5" fill="#d9901a" opacity="0.14"/>
      <text x="1670.3" y="1649.8" text-anchor="middle" font-size="12" font-weight="800" fill="#7a4305">병목</text>
      <text x="1450.3" y="1682.8" font-size="15.5" font-weight="800" fill="#7a4305"><tspan x="1450.3" dy="0">EIA 문서·현장·관계기관 본심사</tspan></text>
      <text x="1450.3" y="1707.8" font-size="11" font-weight="650" fill="#a96008">관할기관이 EIA를 문서검토하고 현장방문·관…</text>
    </g>
  

    <g filter="url(#card-shadow)">
      <rect x="1431.3" y="1898.6" width="278" height="98" rx="11" fill="none" stroke="#7c3aed" stroke-width="2.2" stroke-dasharray="7 5"/>
      <rect x="1435.3" y="1902.6" width="270" height="90" rx="8" fill="#ffffff" stroke="#b9c7bf" stroke-width="2.3"/>
      <rect x="1435.3" y="1902.6" width="6" height="90" rx="3" fill="#b9c7bf"/>
      <text x="1450.3" y="1922.6" class="mono" font-size="12.5" font-weight="750" fill="#627169">B20</text>
      <text x="1502.3" y="1922.6" font-size="11.5" font-weight="800" fill="#7c3aed">조문 · Decree 1076 추가정보</text>
      <rect x="1645.3" y="1909.6" width="50" height="24" rx="5" fill="#b9c7bf" opacity="0.14"/>
      <text x="1670.3" y="1926.6" text-anchor="middle" font-size="12" font-weight="800" fill="#17231d">후속</text>
      <text x="1450.3" y="1959.6" font-size="15.5" font-weight="800" fill="#17231d"><tspan x="1450.3" dy="0">추가정보 회의·Acta 발행</tspan></text>
      <text x="1450.3" y="1984.6" font-size="11" font-weight="650" fill="#627169">평가에 추가자료가 필요하면 환경기관이 법정…</text>
    </g>
  

    <g filter="url(#card-shadow)">
      <rect x="280.8" y="1955.6" width="278" height="98" rx="11" fill="none" stroke="#7c3aed" stroke-width="2.2" stroke-dasharray="7 5"/>
      <rect x="284.8" y="1959.6" width="270" height="90" rx="8" fill="#ffffff" stroke="#b9c7bf" stroke-width="2.3"/>
      <rect x="284.8" y="1959.6" width="6" height="90" rx="3" fill="#b9c7bf"/>
      <text x="299.8" y="1979.6" class="mono" font-size="12.5" font-weight="750" fill="#627169">B21</text>
      <text x="351.8" y="1979.6" font-size="11.5" font-weight="800" fill="#7c3aed">조문 · Decree 1076 보완평가</text>
      <rect x="494.8" y="1966.6" width="50" height="24" rx="5" fill="#b9c7bf" opacity="0.14"/>
      <text x="519.8" y="1983.6" text-anchor="middle" font-size="12" font-weight="800" fill="#17231d">후속</text>
      <text x="299.8" y="2016.6" font-size="15.5" font-weight="800" fill="#17231d"><tspan x="299.8" dy="0">추가정보 제출·환경 재검토</tspan></text>
      <text x="299.8" y="2041.6" font-size="11" font-weight="650" fill="#627169">시행자가 acta에 맞춘 보완 EIA·응답표를 V…</text>
    </g>
  

    <g filter="url(#card-shadow)">
      <rect x="1431.3" y="2012.6" width="278" height="98" rx="11" fill="none" stroke="#7c3aed" stroke-width="2.2" stroke-dasharray="7 5"/>
      <rect x="1435.3" y="2016.6" width="270" height="90" rx="8" fill="#087452" stroke="#087452" stroke-width="2.3"/>
      <rect x="1435.3" y="2016.6" width="6" height="90" rx="3" fill="#087452"/>
      <text x="1450.3" y="2036.6" class="mono" font-size="12.5" font-weight="750" fill="#d8f4e8">B22</text>
      <text x="1502.3" y="2036.6" font-size="11.5" font-weight="800" fill="#7c3aed">조문 · Decree 1076 환경결정</text>
      <rect x="1645.3" y="2023.6" width="50" height="24" rx="5" fill="#ffffff" opacity="0.18"/>
      <text x="1670.3" y="2040.6" text-anchor="middle" font-size="12" font-weight="800" fill="#ffffff">핵심</text>
      <text x="1450.3" y="2073.6" font-size="15.5" font-weight="800" fill="#ffffff"><tspan x="1450.3" dy="0">환경 licence 행정결정·통지</tspan></text>
      <text x="1450.3" y="2098.6" font-size="11" font-weight="650" fill="#d8f4e8">관할 환경기관이 기술개념을 근거로 licenci…</text>
    </g>
  

    <text x="38" y="2245" font-size="16" font-weight="800" fill="#18251e">읽는 법</text>
    <rect x="118" y="2219" width="17" height="17" rx="4" fill="#35a77d"/><text x="144" y="2233" font-size="14.5" fill="#526159">선행</text>
<rect x="216" y="2219" width="17" height="17" rx="4" fill="#087452"/><text x="242" y="2233" font-size="14.5" fill="#526159">핵심</text>
<rect x="314" y="2219" width="17" height="17" rx="4" fill="#d9901a"/><text x="340" y="2233" font-size="14.5" fill="#526159">병목</text>
<rect x="412" y="2219" width="17" height="17" rx="4" fill="#3478db"/><text x="438" y="2233" font-size="14.5" fill="#526159">회귀</text>
    <rect x="500" y="2219" width="17" height="17" rx="4" fill="none" stroke="#7c3aed" stroke-width="2" stroke-dasharray="5 4"/>
    <text x="526" y="2233" font-size="14.5" fill="#526159">조문</text>
    <line x1="648" y1="2237" x2="700" y2="2237" stroke="#53675d" stroke-width="4" marker-end="url(#arrow-sequence)"/>
    <text x="720" y="2243" font-size="15" fill="#526159">절차 순서</text>
    <line x1="860" y1="2237" x2="912" y2="2237" stroke="#0f8a65" stroke-width="4" stroke-dasharray="10 8" marker-end="url(#arrow-message)"/>
    <text x="932" y="2243" font-size="15" fill="#526159">정보 전달</text>
    <line x1="1072" y1="2237" x2="1124" y2="2237" stroke="#3478db" stroke-width="4" stroke-dasharray="10 8" marker-end="url(#arrow-loop)"/>
    <text x="1144" y="2243" font-size="15" fill="#526159">보완 회귀</text>
    <text x="38" y="2291" font-size="15.5" font-weight="650" fill="#56655d">단계는 위→아래, 행위자 묶음은 좌→우로 읽습니다.</text>
    <text x="38" y="2321" font-size="14.5" fill="#68776f">원래 4개 행위자 레인을 4개 레이아웃 묶음으로 배치했으며, 14개 업무와 15개 연결 관계는 유지했습니다.</text>
    <text x="38" y="2361" font-size="13.5" fill="#7b8881">출처: 해당 제도의 법률·시행령·시행규칙 기반 모델 · 실제 사건의 진행 상태나 법률 자문을 의미하지 않습니다.</text>
    
  
</svg>