<svg xmlns="http://www.w3.org/2000/svg" width="1800" height="2400" viewBox="0 0 1800 2400">
<defs>
      <filter id="card-shadow" x="-20%" y="-25%" width="140%" height="160%">
        <feDropShadow dx="0" dy="3" stdDeviation="4" flood-color="#12271e" flood-opacity="0.10"/>
      </filter>
      <marker id="arrow-sequence" markerWidth="17" markerHeight="13" refX="15" refY="6.5" orient="auto" markerUnits="userSpaceOnUse">
    <path d="M1,1 L16,6.5 L1,12 Z" fill="#53675d" stroke="#ffffff" stroke-width="1.3" stroke-linejoin="round"/>
  </marker>
      <marker id="arrow-message" markerWidth="17" markerHeight="13" refX="15" refY="6.5" orient="auto" markerUnits="userSpaceOnUse">
    <path d="M1,1 L16,6.5 L1,12 Z" fill="#0f8a65" stroke="#ffffff" stroke-width="1.3" stroke-linejoin="round"/>
  </marker>
      <marker id="arrow-loop" markerWidth="17" markerHeight="13" refX="15" refY="6.5" orient="auto" markerUnits="userSpaceOnUse">
    <path d="M1,1 L16,6.5 L1,12 Z" fill="#3478db" stroke="#ffffff" stroke-width="1.3" stroke-linejoin="round"/>
  </marker>
      <style>
        text { font-family: -apple-system, "Segoe UI", "Helvetica Neue", Arial, "Apple SD Gothic Neo", "Noto Sans CJK KR", "Noto Sans KR", sans-serif; }
        .mono { font-family: "SFMono-Regular", "Menlo", monospace; }
      </style>
    </defs>
<rect width="1800" height="2400" fill="#ffffff"/>
<rect x="0" y="0" width="1800" height="240" fill="#07150f"/>
<rect x="0" y="0" width="1800" height="9" fill="#18a87b"/>

    <text x="1760" y="45" text-anchor="end" font-size="15" font-weight="700" fill="#8fa299">노드 10 · 레인 4 · 게이트 5</text>
    <text x="40" y="132" font-size="48" font-weight="850" fill="#ffffff">DR콩고 시공검사·Certificat de conformite</text>
    <text x="40" y="174" font-size="19" font-weight="520" fill="#b7c7bf">현지 자격기술자, GUPEC·관할기관의 단계검사와 적합성증명서를 사용개시 전 Gate로 관리한다.</text>
    
  
<rect x="38" y="260" width="1724" height="1940" rx="10" fill="#ffffff" stroke="#b8c7bf" stroke-width="2"/>
<rect x="38" y="260" width="190" height="100" rx="10" fill="#eaf2ee"/>
<text x="58" y="299" font-size="17" font-weight="800" fill="#17231d">단계 ↓</text>
<text x="58" y="332" font-size="15" font-weight="650" fill="#68776f">행위자 묶음 →</text>
<rect x="38" y="360" width="1724" height="345.2" fill="#84baa9"/>
<rect x="38" y="360" width="190" height="345.2" fill="#087452"/>
<text x="58" y="392" class="mono" font-size="16" font-weight="800" fill="#ffffff">S0</text>
<text x="58" y="425" font-size="19" font-weight="800" fill="#ffffff"><tspan x="58" dy="0">착공·보험</tspan></text>
<rect x="38" y="705.2" width="1724" height="459.2" fill="#f5f8f6"/>
<rect x="38" y="705.2" width="190" height="459.2" fill="#eef3f0"/>
<text x="58" y="737.2" class="mono" font-size="16" font-weight="800" fill="#53645b">S1</text>
<text x="58" y="770.2" font-size="19" font-weight="800" fill="#53645b"><tspan x="58" dy="0">단계검사</tspan></text>
<rect x="38" y="1164.4" width="1724" height="345.2" fill="#84baa9"/>
<rect x="38" y="1164.4" width="190" height="345.2" fill="#087452"/>
<text x="58" y="1196.4" class="mono" font-size="16" font-weight="800" fill="#ffffff">S2</text>
<text x="58" y="1229.4" font-size="19" font-weight="800" fill="#ffffff"><tspan x="58" dy="0">시정·완공통지</tspan></text>
<rect x="38" y="1509.6" width="1724" height="345.2" fill="#f5f8f6"/>
<rect x="38" y="1509.6" width="190" height="345.2" fill="#eef3f0"/>
<text x="58" y="1541.6" class="mono" font-size="16" font-weight="800" fill="#53645b">S3</text>
<text x="58" y="1574.6" font-size="19" font-weight="800" fill="#53645b"><tspan x="58" dy="0">최종검사</tspan></text>
<rect x="38" y="1854.8" width="1724" height="345.2" fill="#84baa9"/>
<rect x="38" y="1854.8" width="190" height="345.2" fill="#087452"/>
<text x="58" y="1886.8" class="mono" font-size="16" font-weight="800" fill="#ffffff">S4</text>
<text x="58" y="1919.8" font-size="19" font-weight="800" fill="#ffffff"><tspan x="58" dy="0">적합성증명</tspan></text>
<rect x="228" y="260" width="383.5" height="100" fill="#f7faf8"/>
<rect x="228" y="260" width="383.5" height="7" fill="#0f9f72"/>
<text x="248" y="299" font-size="20" font-weight="800" fill="#17231d">건축주·신청인</text>
<text x="248" y="329" font-size="13.5" font-weight="600" fill="#68776f"><tspan x="248" dy="0">건축주·신청인</tspan></text>
<rect x="611.5" y="260" width="383.5" height="100" fill="#f7faf8"/>
<rect x="611.5" y="260" width="383.5" height="7" fill="#3b82f6"/>
<text x="631.5" y="299" font-size="20" font-weight="800" fill="#17231d">현지 설계</text>
<text x="631.5" y="329" font-size="13.5" font-weight="600" fill="#68776f"><tspan x="631.5" dy="0">현지 설계·시공 전문가</tspan></text>
<rect x="995" y="260" width="383.5" height="100" fill="#f7faf8"/>
<rect x="995" y="260" width="383.5" height="7" fill="#c78116"/>
<text x="1015" y="299" font-size="20" font-weight="800" fill="#17231d">도시계획</text>
<text x="1015" y="329" font-size="13.5" font-weight="600" fill="#68776f"><tspan x="1015" dy="0">도시계획·건축 허가기관</tspan></text>
<rect x="1378.5" y="260" width="383.5" height="100" fill="#f7faf8"/>
<rect x="1378.5" y="260" width="383.5" height="7" fill="#0891b2"/>
<text x="1398.5" y="299" font-size="20" font-weight="800" fill="#17231d">환경</text>
<text x="1398.5" y="329" font-size="13.5" font-weight="600" fill="#68776f"><tspan x="1398.5" dy="0">환경·소방·검사기관</tspan></text>
<line x1="228" y1="260" x2="228" y2="2200" stroke="#d3dcd7" stroke-width="1.5"/>
<line x1="611.5" y1="260" x2="611.5" y2="2200" stroke="#d3dcd7" stroke-width="1.5"/>
<line x1="995" y1="260" x2="995" y2="2200" stroke="#d3dcd7" stroke-width="1.5"/>
<line x1="1378.5" y1="260" x2="1378.5" y2="2200" stroke="#d3dcd7" stroke-width="1.5"/>
<line x1="1762" y1="260" x2="1762" y2="2200" stroke="#d3dcd7" stroke-width="1.5"/>
<line x1="38" y1="360" x2="1762" y2="360" stroke="#b8c7bf" stroke-width="2"/>
<line x1="38" y1="360" x2="1762" y2="360" stroke="#c8d3cd" stroke-width="1.5"/>
<line x1="38" y1="705.2" x2="1762" y2="705.2" stroke="#c8d3cd" stroke-width="1.5"/>
<line x1="38" y1="1164.4" x2="1762" y2="1164.4" stroke="#c8d3cd" stroke-width="1.5"/>
<line x1="38" y1="1509.6" x2="1762" y2="1509.6" stroke="#c8d3cd" stroke-width="1.5"/>
<line x1="38" y1="1854.8" x2="1762" y2="1854.8" stroke="#c8d3cd" stroke-width="1.5"/>
<line x1="38" y1="2200" x2="1762" y2="2200" stroke="#b8c7bf" stroke-width="2"/>
<path d="M 554.8 532.6 H 640.3 V 526.1 H 660.3" fill="none" stroke="#ffffff" stroke-width="7.4"  stroke-linecap="round" stroke-linejoin="round" opacity="0.94"/>
<path d="M 554.8 532.6 H 640.3 V 526.1 H 660.3" fill="none" stroke="#53675d" stroke-width="3.4"  marker-end="url(#arrow-sequence)" stroke-linecap="round" stroke-linejoin="round" opacity="0.96"/>
<path d="M 801.3 577.6 V 677.2 H 1554.3 V 824.8" fill="none" stroke="#ffffff" stroke-width="7.4"  stroke-linecap="round" stroke-linejoin="round" opacity="0.94"/>
<path d="M 801.3 577.6 V 677.2 H 1554.3 V 824.8" fill="none" stroke="#53675d" stroke-width="3.4"  marker-end="url(#arrow-sequence)" stroke-linecap="round" stroke-linejoin="round" opacity="0.96"/>
<path d="M 1574.3 922.8 V 938.8 H 1596.3 V 938.8" fill="none" stroke="#ffffff" stroke-width="7.4"  stroke-linecap="round" stroke-linejoin="round" opacity="0.94"/>
<path d="M 1574.3 922.8 V 938.8 H 1596.3 V 938.8" fill="none" stroke="#53675d" stroke-width="3.4"  marker-end="url(#arrow-sequence)" stroke-linecap="round" stroke-linejoin="round" opacity="0.96"/>
<path d="M 1564.3 1036.8 V 1136.4 H 1206.8 V 1284" fill="none" stroke="#ffffff" stroke-width="7.4"  stroke-linecap="round" stroke-linejoin="round" opacity="0.94"/>
<path d="M 1564.3 1036.8 V 1136.4 H 1206.8 V 1284" fill="none" stroke="#53675d" stroke-width="3.4"  marker-end="url(#arrow-sequence)" stroke-linecap="round" stroke-linejoin="round" opacity="0.96"/>
<path d="M 1166.8 1382 V 1495.6 H 409.8 V 1390" fill="none" stroke="#ffffff" stroke-width="7.4"  stroke-linecap="round" stroke-linejoin="round" opacity="0.94"/>
<path d="M 1166.8 1382 V 1495.6 H 409.8 V 1390" fill="none" stroke="#53675d" stroke-width="3.4"  marker-end="url(#arrow-sequence)" stroke-linecap="round" stroke-linejoin="round" opacity="0.96"/>
<path d="M 1051.8 1342 H 992.3 V 1333 H 946.3" fill="none" stroke="#ffffff" stroke-width="7.4" stroke-dasharray="11 8" stroke-linecap="round" stroke-linejoin="round" opacity="0.94"/>
<path d="M 1051.8 1342 H 992.3 V 1333 H 946.3" fill="none" stroke="#0f8a65" stroke-width="3.4" stroke-dasharray="11 8" marker-end="url(#arrow-message)" stroke-linecap="round" stroke-linejoin="round" opacity="0.96"/>
<path d="M 801.3 1382 V 1472.6 H 203 V 1144.4 H 1544.3 V 1044.8" fill="none" stroke="#ffffff" stroke-width="8" stroke-dasharray="10 8" stroke-linecap="round" stroke-linejoin="round" opacity="0.94"/>
<path d="M 801.3 1382 V 1472.6 H 203 V 1144.4 H 1544.3 V 1044.8" fill="none" stroke="#3478db" stroke-width="4" stroke-dasharray="10 8" marker-end="url(#arrow-loop)" stroke-linecap="round" stroke-linejoin="round" opacity="0.96"/>
<path d="M 417.8 1382 V 1481.6 H 1534.3 V 1629.2" fill="none" stroke="#ffffff" stroke-width="7.4"  stroke-linecap="round" stroke-linejoin="round" opacity="0.94"/>
<path d="M 417.8 1382 V 1481.6 H 1534.3 V 1629.2" fill="none" stroke="#53675d" stroke-width="3.4"  marker-end="url(#arrow-sequence)" stroke-linecap="round" stroke-linejoin="round" opacity="0.96"/>
<path d="M 1612.3 1727.2 V 1810.8 H 1192.8 V 1974.4" fill="none" stroke="#ffffff" stroke-width="7.4"  stroke-linecap="round" stroke-linejoin="round" opacity="0.94"/>
<path d="M 1612.3 1727.2 V 1810.8 H 1192.8 V 1974.4" fill="none" stroke="#53675d" stroke-width="3.4"  marker-end="url(#arrow-sequence)" stroke-linecap="round" stroke-linejoin="round" opacity="0.96"/>
<path d="M 1435.3 1675.7 H 966.3 V 1691.2 H 946.3" fill="none" stroke="#ffffff" stroke-width="7.4" stroke-dasharray="11 8" stroke-linecap="round" stroke-linejoin="round" opacity="0.94"/>
<path d="M 1435.3 1675.7 H 966.3 V 1691.2 H 946.3" fill="none" stroke="#0f8a65" stroke-width="3.4" stroke-dasharray="11 8" marker-end="url(#arrow-message)" stroke-linecap="round" stroke-linejoin="round" opacity="0.96"/>
<path d="M 938.3 1678.2 H 1394.3 V 1693.7 H 1427.3" fill="none" stroke="#ffffff" stroke-width="8" stroke-dasharray="10 8" stroke-linecap="round" stroke-linejoin="round" opacity="0.94"/>
<path d="M 938.3 1678.2 H 1394.3 V 1693.7 H 1427.3" fill="none" stroke="#3478db" stroke-width="4" stroke-dasharray="10 8" marker-end="url(#arrow-loop)" stroke-linecap="round" stroke-linejoin="round" opacity="0.96"/>
<rect x="561.1" y="425.4" width="100.9" height="30" rx="6" fill="#ffffff" stroke="#53675d" stroke-width="1.4"/>
<text x="611.5" y="445.4" text-anchor="middle" font-size="14" font-weight="750" fill="#53675d">전문인 배치</text>
<rect x="1129.8" y="645.2" width="96" height="30" rx="6" fill="#ffffff" stroke="#53675d" stroke-width="1.4"/>
<text x="1177.8" y="665.2" text-anchor="middle" font-size="14" font-weight="750" fill="#53675d">착공검사</text>
<rect x="1637.3" y="775.8" width="96" height="30" rx="6" fill="#ffffff" stroke="#53675d" stroke-width="1.4"/>
<text x="1685.3" y="795.8" text-anchor="middle" font-size="14" font-weight="750" fill="#53675d">단계검사</text>
<rect x="1337.5" y="1104.4" width="96" height="30" rx="6" fill="#ffffff" stroke="#53675d" stroke-width="1.4"/>
<text x="1385.5" y="1124.4" text-anchor="middle" font-size="14" font-weight="750" fill="#53675d">적합판정</text>
<rect x="740.3" y="1463.6" width="96" height="30" rx="6" fill="#ffffff" stroke="#53675d" stroke-width="1.4"/>
<text x="788.3" y="1483.6" text-anchor="middle" font-size="14" font-weight="750" fill="#53675d">공사완료</text>
<rect x="947" y="1305.5" width="96" height="30" rx="6" fill="#ffffff" stroke="#0f8a65" stroke-width="1.4"/>
<text x="995" y="1325.5" text-anchor="middle" font-size="14" font-weight="750" fill="#0f8a65">시정통지</text>
<rect x="222.6" y="1225.7" width="100.9" height="30" rx="6" fill="#ffffff" stroke="#3478db" stroke-width="1.4"/>
<text x="273" y="1245.7" text-anchor="middle" font-size="14" font-weight="750" fill="#3478db">단계 재검사</text>
<rect x="928" y="1449.6" width="96" height="30" rx="6" fill="#ffffff" stroke="#53675d" stroke-width="1.4"/>
<text x="976" y="1469.6" text-anchor="middle" font-size="14" font-weight="750" fill="#53675d">최종검사</text>
<rect x="1354.5" y="1778.8" width="96" height="30" rx="6" fill="#ffffff" stroke="#53675d" stroke-width="1.4"/>
<text x="1402.5" y="1798.8" text-anchor="middle" font-size="14" font-weight="750" fill="#53675d">적합보고</text>
<rect x="1138.8" y="1651.5" width="96" height="30" rx="6" fill="#ffffff" stroke="#0f8a65" stroke-width="1.4"/>
<text x="1186.8" y="1671.5" text-anchor="middle" font-size="14" font-weight="750" fill="#0f8a65">준공보완</text>
<rect x="1136.3" y="1690" width="100.9" height="30" rx="6" fill="#ffffff" stroke="#3478db" stroke-width="1.4"/>
<text x="1186.8" y="1710" text-anchor="middle" font-size="14" font-weight="750" fill="#3478db">최종 재검사</text>

    <g filter="url(#card-shadow)">
      <rect x="280.8" y="483.6" width="278" height="98" rx="11" fill="none" stroke="#7c3aed" stroke-width="2.2" stroke-dasharray="7 5"/>
      <rect x="284.8" y="487.6" width="270" height="90" rx="8" fill="#087452" stroke="#087452" stroke-width="2.3"/>
      <rect x="284.8" y="487.6" width="6" height="90" rx="3" fill="#087452"/>
      <text x="299.8" y="507.6" class="mono" font-size="12.5" font-weight="750" fill="#d8f4e8">B23</text>
      <text x="351.8" y="507.6" font-size="11.5" font-weight="800" fill="#7c3aed">조문 · 법정 보험</text>
      <rect x="494.8" y="494.6" width="50" height="24" rx="5" fill="#ffffff" opacity="0.18"/>
      <text x="519.8" y="511.6" text-anchor="middle" font-size="12" font-weight="800" fill="#ffffff">핵심</text>
      <text x="299.8" y="544.6" font-size="15.5" font-weight="800" fill="#ffffff"><tspan x="299.8" dy="0">유효 허가·TRC·책임보험 확보</tspan></text>
      <text x="299.8" y="569.6" font-size="11" font-weight="650" fill="#d8f4e8">건축주와 공사 참여자가 유효 건축허가·승인…</text>
    </g>
  

    <g filter="url(#card-shadow)">
      <rect x="664.3" y="483.6" width="278" height="98" rx="11" fill="none" stroke="#7c3aed" stroke-width="2.2" stroke-dasharray="7 5"/>
      <rect x="668.3" y="487.6" width="270" height="90" rx="8" fill="#ffffff" stroke="#b9c7bf" stroke-width="2.3"/>
      <rect x="668.3" y="487.6" width="6" height="90" rx="3" fill="#b9c7bf"/>
      <text x="683.3" y="507.6" class="mono" font-size="12.5" font-weight="750" fill="#627169">B24</text>
      <text x="735.3" y="507.6" font-size="11.5" font-weight="800" fill="#7c3aed">조문 · 전문가·검사 제도</text>
      <rect x="878.3" y="494.6" width="50" height="24" rx="5" fill="#b9c7bf" opacity="0.14"/>
      <text x="903.3" y="511.6" text-anchor="middle" font-size="12" font-weight="800" fill="#17231d">후속</text>
      <text x="683.3" y="544.6" font-size="15.5" font-weight="800" fill="#17231d"><tspan x="683.3" dy="0">자격 설계·시공·검사인 배치</tspan></text>
      <text x="683.3" y="569.6" font-size="11" font-weight="650" fill="#627169">등록 건축사·토목기술자·시공자와 법정 자격…</text>
    </g>
  

    <g filter="url(#card-shadow)">
      <rect x="1431.3" y="828.8" width="278" height="98" rx="11" fill="none" stroke="#7c3aed" stroke-width="2.2" stroke-dasharray="7 5"/>
      <rect x="1435.3" y="832.8" width="270" height="90" rx="8" fill="#ffffff" stroke="#b9c7bf" stroke-width="2.3"/>
      <rect x="1435.3" y="832.8" width="6" height="90" rx="3" fill="#b9c7bf"/>
      <text x="1450.3" y="852.8" class="mono" font-size="12.5" font-weight="750" fill="#627169">B25</text>
      <text x="1502.3" y="852.8" font-size="11.5" font-weight="800" fill="#7c3aed">조문 · 기술방문·검사</text>
      <rect x="1645.3" y="839.8" width="50" height="24" rx="5" fill="#b9c7bf" opacity="0.14"/>
      <text x="1670.3" y="856.8" text-anchor="middle" font-size="12" font-weight="800" fill="#17231d">후속</text>
      <text x="1450.3" y="889.8" font-size="15.5" font-weight="800" fill="#17231d"><tspan x="1450.3" dy="0">착공·배치·기초 단계검사</tspan></text>
      <text x="1450.3" y="914.8" font-size="11" font-weight="650" fill="#627169">검사인과 GUPEC 관계서비스가 착공·건물배…</text>
    </g>
  

    <g filter="url(#card-shadow)">
      <rect x="1431.3" y="942.8" width="278" height="98" rx="11" fill="none" stroke="#7c3aed" stroke-width="2.2" stroke-dasharray="7 5"/>
      <rect x="1435.3" y="946.8" width="270" height="90" rx="8" fill="#fff8e8" stroke="#d9901a" stroke-width="2.3"/>
      <rect x="1435.3" y="946.8" width="6" height="90" rx="3" fill="#d9901a"/>
      <text x="1450.3" y="966.8" class="mono" font-size="12.5" font-weight="750" fill="#a96008">B26</text>
      <text x="1502.3" y="966.8" font-size="11.5" font-weight="800" fill="#7c3aed">조문 · 허가 기술도서 대조</text>
      <rect x="1645.3" y="953.8" width="50" height="24" rx="5" fill="#d9901a" opacity="0.14"/>
      <text x="1670.3" y="970.8" text-anchor="middle" font-size="12" font-weight="800" fill="#7a4305">병목</text>
      <text x="1450.3" y="1003.8" font-size="15.5" font-weight="800" fill="#7a4305"><tspan x="1450.3" dy="0">구조·설비·마감 단계검사</tspan></text>
      <text x="1450.3" y="1028.8" font-size="11" font-weight="650" fill="#a96008">구조·재료시험·급배수·전기·기계·방재·마감…</text>
    </g>
  

    <g filter="url(#card-shadow)">
      <rect x="1047.8" y="1288" width="278" height="98" rx="11" fill="none" stroke="#7c3aed" stroke-width="2.2" stroke-dasharray="7 5"/>
      <rect x="1051.8" y="1292" width="270" height="90" rx="8" fill="#087452" stroke="#087452" stroke-width="2.3"/>
      <rect x="1051.8" y="1292" width="6" height="90" rx="3" fill="#087452"/>
      <text x="1066.8" y="1312" class="mono" font-size="12.5" font-weight="750" fill="#d8f4e8">B27</text>
      <text x="1118.8" y="1312" font-size="11.5" font-weight="800" fill="#7c3aed">조문 · GUPEC 적합성 검증</text>
      <rect x="1261.8" y="1299" width="50" height="24" rx="5" fill="#ffffff" opacity="0.18"/>
      <text x="1286.8" y="1316" text-anchor="middle" font-size="12" font-weight="800" fill="#ffffff">핵심</text>
      <text x="1066.8" y="1349" font-size="15.5" font-weight="800" fill="#ffffff"><tspan x="1066.8" dy="0">공사계속·시정·중지 판정</tspan></text>
      <text x="1066.8" y="1374" font-size="11" font-weight="650" fill="#d8f4e8">관할 검사서비스가 검사결과에 따라 공사계속…</text>
    </g>
  

    <g filter="url(#card-shadow)">
      <rect x="664.3" y="1288" width="278" height="98" rx="11" fill="none" stroke="#7c3aed" stroke-width="2.2" stroke-dasharray="7 5"/>
      <rect x="668.3" y="1292" width="270" height="90" rx="8" fill="#ffffff" stroke="#b9c7bf" stroke-width="2.3"/>
      <rect x="668.3" y="1292" width="6" height="90" rx="3" fill="#b9c7bf"/>
      <text x="683.3" y="1312" class="mono" font-size="12.5" font-weight="750" fill="#627169">B28</text>
      <text x="735.3" y="1312" font-size="11.5" font-weight="800" fill="#7c3aed">조문 · 검사 적합성</text>
      <rect x="878.3" y="1299" width="50" height="24" rx="5" fill="#b9c7bf" opacity="0.14"/>
      <text x="903.3" y="1316" text-anchor="middle" font-size="12" font-weight="800" fill="#17231d">후속</text>
      <text x="683.3" y="1349" font-size="15.5" font-weight="800" fill="#17231d"><tspan x="683.3" dy="0">부적합 시정·재검사</tspan></text>
      <text x="683.3" y="1374" font-size="11" font-weight="650" fill="#627169">시공자가 부적합을 시정하고 수정도서·시험결…</text>
    </g>
  

    <g filter="url(#card-shadow)">
      <rect x="280.8" y="1288" width="278" height="98" rx="11" fill="none" stroke="#7c3aed" stroke-width="2.2" stroke-dasharray="7 5"/>
      <rect x="284.8" y="1292" width="270" height="90" rx="8" fill="#087452" stroke="#087452" stroke-width="2.3"/>
      <rect x="284.8" y="1292" width="6" height="90" rx="3" fill="#087452"/>
      <text x="299.8" y="1312" class="mono" font-size="12.5" font-weight="750" fill="#d8f4e8">B29</text>
      <text x="351.8" y="1312" font-size="11.5" font-weight="800" fill="#7c3aed">조문 · 완공 후 7일 통지</text>
      <rect x="494.8" y="1299" width="50" height="24" rx="5" fill="#ffffff" opacity="0.18"/>
      <text x="519.8" y="1316" text-anchor="middle" font-size="12" font-weight="800" fill="#ffffff">핵심</text>
      <text x="299.8" y="1339" font-size="15.5" font-weight="800" fill="#ffffff"><tspan x="299.8" dy="0">완공·골조완료 후 GUPEC</tspan><tspan x="299.8" dy="18">서면초청</tspan></text>
      <text x="299.8" y="1374" font-size="11" font-weight="650" fill="#d8f4e8">공사 또는 골조가 끝나면 신청인이 실제 완료…</text>
    </g>
  

    <g filter="url(#card-shadow)">
      <rect x="1431.3" y="1633.2" width="278" height="98" rx="11" fill="none" stroke="#7c3aed" stroke-width="2.2" stroke-dasharray="7 5"/>
      <rect x="1435.3" y="1637.2" width="270" height="90" rx="8" fill="#fff8e8" stroke="#d9901a" stroke-width="2.3"/>
      <rect x="1435.3" y="1637.2" width="6" height="90" rx="3" fill="#d9901a"/>
      <text x="1450.3" y="1657.2" class="mono" font-size="12.5" font-weight="750" fill="#a96008">B30</text>
      <text x="1502.3" y="1657.2" font-size="11.5" font-weight="800" fill="#7c3aed">조문 · GUPEC 최종확인</text>
      <rect x="1645.3" y="1644.2" width="50" height="24" rx="5" fill="#d9901a" opacity="0.14"/>
      <text x="1670.3" y="1661.2" text-anchor="middle" font-size="12" font-weight="800" fill="#7a4305">병목</text>
      <text x="1450.3" y="1694.2" font-size="15.5" font-weight="800" fill="#7a4305"><tspan x="1450.3" dy="0">최종 건축·설비 적합검사</tspan></text>
      <text x="1450.3" y="1719.2" font-size="11" font-weight="650" fill="#a96008">GUPEC가 현장을 방문해 건물이 허가서에 규…</text>
    </g>
  

    <g filter="url(#card-shadow)">
      <rect x="664.3" y="1633.2" width="278" height="98" rx="11" fill="none" stroke="#7c3aed" stroke-width="2.2" stroke-dasharray="7 5"/>
      <rect x="668.3" y="1637.2" width="270" height="90" rx="8" fill="#ffffff" stroke="#b9c7bf" stroke-width="2.3"/>
      <rect x="668.3" y="1637.2" width="6" height="90" rx="3" fill="#b9c7bf"/>
      <text x="683.3" y="1657.2" class="mono" font-size="12.5" font-weight="750" fill="#627169">B31</text>
      <text x="735.3" y="1657.2" font-size="11.5" font-weight="800" fill="#7c3aed">조문 · 허가규범 적합</text>
      <rect x="878.3" y="1644.2" width="50" height="24" rx="5" fill="#b9c7bf" opacity="0.14"/>
      <text x="903.3" y="1661.2" text-anchor="middle" font-size="12" font-weight="800" fill="#17231d">후속</text>
      <text x="683.3" y="1694.2" font-size="15.5" font-weight="800" fill="#17231d"><tspan x="683.3" dy="0">준공부적합 시정·재검사</tspan></text>
      <text x="683.3" y="1719.2" font-size="11" font-weight="650" fill="#627169">최종검사 지적을 승인도서에 맞게 시정하고 보…</text>
    </g>
  

    <g filter="url(#card-shadow)">
      <rect x="1047.8" y="1978.4" width="278" height="98" rx="11" fill="none" stroke="#7c3aed" stroke-width="2.2" stroke-dasharray="7 5"/>
      <rect x="1051.8" y="1982.4" width="270" height="90" rx="8" fill="#087452" stroke="#087452" stroke-width="2.3"/>
      <rect x="1051.8" y="1982.4" width="6" height="90" rx="3" fill="#087452"/>
      <text x="1066.8" y="2002.4" class="mono" font-size="12.5" font-weight="750" fill="#d8f4e8">B32</text>
      <text x="1118.8" y="2002.4" font-size="11.5" font-weight="800" fill="#7c3aed">조문 · GUPEC 적합성증명</text>
      <rect x="1261.8" y="1989.4" width="50" height="24" rx="5" fill="#ffffff" opacity="0.18"/>
      <text x="1286.8" y="2006.4" text-anchor="middle" font-size="12" font-weight="800" fill="#ffffff">핵심</text>
      <text x="1066.8" y="2029.4" font-size="15.5" font-weight="800" fill="#ffffff"><tspan x="1066.8" dy="0">Certificat de conformite</tspan><tspan x="1066.8" dy="18">발급</tspan></text>
      <text x="1066.8" y="2064.4" font-size="11" font-weight="650" fill="#d8f4e8">최종검사 보고가 적합하면 GUPEC가 건축허…</text>
    </g>
  

    <text x="38" y="2245" font-size="16" font-weight="800" fill="#18251e">읽는 법</text>
    <rect x="118" y="2219" width="17" height="17" rx="4" fill="#35a77d"/><text x="144" y="2233" font-size="14.5" fill="#526159">선행</text>
<rect x="216" y="2219" width="17" height="17" rx="4" fill="#087452"/><text x="242" y="2233" font-size="14.5" fill="#526159">핵심</text>
<rect x="314" y="2219" width="17" height="17" rx="4" fill="#d9901a"/><text x="340" y="2233" font-size="14.5" fill="#526159">병목</text>
<rect x="412" y="2219" width="17" height="17" rx="4" fill="#3478db"/><text x="438" y="2233" font-size="14.5" fill="#526159">회귀</text>
    <rect x="500" y="2219" width="17" height="17" rx="4" fill="none" stroke="#7c3aed" stroke-width="2" stroke-dasharray="5 4"/>
    <text x="526" y="2233" font-size="14.5" fill="#526159">조문</text>
    <line x1="648" y1="2237" x2="700" y2="2237" stroke="#53675d" stroke-width="4" marker-end="url(#arrow-sequence)"/>
    <text x="720" y="2243" font-size="15" fill="#526159">절차 순서</text>
    <line x1="860" y1="2237" x2="912" y2="2237" stroke="#0f8a65" stroke-width="4" stroke-dasharray="10 8" marker-end="url(#arrow-message)"/>
    <text x="932" y="2243" font-size="15" fill="#526159">정보 전달</text>
    <line x1="1072" y1="2237" x2="1124" y2="2237" stroke="#3478db" stroke-width="4" stroke-dasharray="10 8" marker-end="url(#arrow-loop)"/>
    <text x="1144" y="2243" font-size="15" fill="#526159">보완 회귀</text>
    <text x="38" y="2291" font-size="15.5" font-weight="650" fill="#56655d">단계는 위→아래, 행위자 묶음은 좌→우로 읽습니다.</text>
    <text x="38" y="2321" font-size="14.5" fill="#68776f">원래 4개 행위자 레인을 4개 레이아웃 묶음으로 배치했으며, 10개 업무와 11개 연결 관계는 유지했습니다.</text>
    <text x="38" y="2361" font-size="13.5" fill="#7b8881">출처: 해당 제도의 법률·시행령·시행규칙 기반 모델 · 실제 사건의 진행 상태나 법률 자문을 의미하지 않습니다.</text>
    
  
</svg>