<svg xmlns="http://www.w3.org/2000/svg" width="1800" height="2400" viewBox="0 0 1800 2400">
<defs>
      <filter id="card-shadow" x="-20%" y="-25%" width="140%" height="160%">
        <feDropShadow dx="0" dy="3" stdDeviation="4" flood-color="#12271e" flood-opacity="0.10"/>
      </filter>
      <marker id="arrow-sequence" markerWidth="17" markerHeight="13" refX="15" refY="6.5" orient="auto" markerUnits="userSpaceOnUse">
    <path d="M1,1 L16,6.5 L1,12 Z" fill="#53675d" stroke="#ffffff" stroke-width="1.3" stroke-linejoin="round"/>
  </marker>
      <marker id="arrow-message" markerWidth="17" markerHeight="13" refX="15" refY="6.5" orient="auto" markerUnits="userSpaceOnUse">
    <path d="M1,1 L16,6.5 L1,12 Z" fill="#0f8a65" stroke="#ffffff" stroke-width="1.3" stroke-linejoin="round"/>
  </marker>
      <marker id="arrow-loop" markerWidth="17" markerHeight="13" refX="15" refY="6.5" orient="auto" markerUnits="userSpaceOnUse">
    <path d="M1,1 L16,6.5 L1,12 Z" fill="#3478db" stroke="#ffffff" stroke-width="1.3" stroke-linejoin="round"/>
  </marker>
      <style>
        text { font-family: -apple-system, "Segoe UI", "Helvetica Neue", Arial, "Apple SD Gothic Neo", "Noto Sans CJK KR", "Noto Sans KR", sans-serif; }
        .mono { font-family: "SFMono-Regular", "Menlo", monospace; }
      </style>
    </defs>
<rect width="1800" height="2400" fill="#ffffff"/>
<rect x="0" y="0" width="1800" height="240" fill="#07150f"/>
<rect x="0" y="0" width="1800" height="9" fill="#18a87b"/>

    <text x="1760" y="45" text-anchor="end" font-size="15" font-weight="700" fill="#8fa299">노드 10 · 레인 4 · 게이트 4</text>
    <text x="40" y="132" font-size="48" font-weight="850" fill="#ffffff">케냐 NEMA 환경평가·카운티 개발허가 법정절차</text>
    <text x="40" y="174" font-size="19" font-weight="520" fill="#b7c7bf">카운티 개발·건축허가와 NEMA의 SPR·CPR·EIA Study·licence 경로를 선행순서대로 확정한다.</text>
    
  
<rect x="38" y="260" width="1724" height="1940" rx="10" fill="#ffffff" stroke="#b8c7bf" stroke-width="2"/>
<rect x="38" y="260" width="190" height="100" rx="10" fill="#eaf2ee"/>
<text x="58" y="299" font-size="17" font-weight="800" fill="#17231d">단계 ↓</text>
<text x="58" y="332" font-size="15" font-weight="650" fill="#68776f">행위자 묶음 →</text>
<rect x="38" y="360" width="1724" height="403" fill="#84baa9"/>
<rect x="38" y="360" width="190" height="403" fill="#087452"/>
<text x="58" y="392" class="mono" font-size="16" font-weight="800" fill="#ffffff">G0</text>
<text x="58" y="425" font-size="19" font-weight="800" fill="#ffffff"><tspan x="58" dy="0">환경신청·분류</tspan></text>
<rect x="38" y="763" width="1724" height="517" fill="#84baa9"/>
<rect x="38" y="763" width="190" height="517" fill="#087452"/>
<text x="58" y="795" class="mono" font-size="16" font-weight="800" fill="#ffffff">G1</text>
<text x="58" y="828" font-size="19" font-weight="800" fill="#ffffff"><tspan x="58" dy="0">EIA</tspan><tspan x="58" dy="22">Study·심사</tspan></text>
<rect x="38" y="1280" width="1724" height="517" fill="#84baa9"/>
<rect x="38" y="1280" width="190" height="517" fill="#087452"/>
<text x="58" y="1312" class="mono" font-size="16" font-weight="800" fill="#ffffff">G2</text>
<text x="58" y="1345" font-size="19" font-weight="800" fill="#ffffff"><tspan x="58" dy="0">카운티 신청·회람</tspan></text>
<rect x="38" y="1797" width="1724" height="403" fill="#84baa9"/>
<rect x="38" y="1797" width="190" height="403" fill="#087452"/>
<text x="58" y="1829" class="mono" font-size="16" font-weight="800" fill="#ffffff">G3</text>
<text x="58" y="1862" font-size="19" font-weight="800" fill="#ffffff"><tspan x="58" dy="0">허가결정</tspan></text>
<rect x="228" y="260" width="383.5" height="100" fill="#f7faf8"/>
<rect x="228" y="260" width="383.5" height="7" fill="#0f9f72"/>
<text x="248" y="299" font-size="20" font-weight="800" fill="#17231d">건축주·신청인</text>
<text x="248" y="329" font-size="13.5" font-weight="600" fill="#68776f"><tspan x="248" dy="0">건축주·신청인</tspan></text>
<rect x="611.5" y="260" width="383.5" height="100" fill="#f7faf8"/>
<rect x="611.5" y="260" width="383.5" height="7" fill="#3b82f6"/>
<text x="631.5" y="299" font-size="20" font-weight="800" fill="#17231d">현지 설계</text>
<text x="631.5" y="329" font-size="13.5" font-weight="600" fill="#68776f"><tspan x="631.5" dy="0">현지 설계·시공 전문가</tspan></text>
<rect x="995" y="260" width="383.5" height="100" fill="#f7faf8"/>
<rect x="995" y="260" width="383.5" height="7" fill="#c78116"/>
<text x="1015" y="299" font-size="20" font-weight="800" fill="#17231d">도시계획</text>
<text x="1015" y="329" font-size="13.5" font-weight="600" fill="#68776f"><tspan x="1015" dy="0">도시계획·건축 허가기관</tspan></text>
<rect x="1378.5" y="260" width="383.5" height="100" fill="#f7faf8"/>
<rect x="1378.5" y="260" width="383.5" height="7" fill="#0891b2"/>
<text x="1398.5" y="299" font-size="20" font-weight="800" fill="#17231d">환경</text>
<text x="1398.5" y="329" font-size="13.5" font-weight="600" fill="#68776f"><tspan x="1398.5" dy="0">환경·소방·검사기관</tspan></text>
<line x1="228" y1="260" x2="228" y2="2200" stroke="#d3dcd7" stroke-width="1.5"/>
<line x1="611.5" y1="260" x2="611.5" y2="2200" stroke="#d3dcd7" stroke-width="1.5"/>
<line x1="995" y1="260" x2="995" y2="2200" stroke="#d3dcd7" stroke-width="1.5"/>
<line x1="1378.5" y1="260" x2="1378.5" y2="2200" stroke="#d3dcd7" stroke-width="1.5"/>
<line x1="1762" y1="260" x2="1762" y2="2200" stroke="#d3dcd7" stroke-width="1.5"/>
<line x1="38" y1="360" x2="1762" y2="360" stroke="#b8c7bf" stroke-width="2"/>
<line x1="38" y1="360" x2="1762" y2="360" stroke="#c8d3cd" stroke-width="1.5"/>
<line x1="38" y1="763" x2="1762" y2="763" stroke="#c8d3cd" stroke-width="1.5"/>
<line x1="38" y1="1280" x2="1762" y2="1280" stroke="#c8d3cd" stroke-width="1.5"/>
<line x1="38" y1="1797" x2="1762" y2="1797" stroke="#c8d3cd" stroke-width="1.5"/>
<line x1="38" y1="2200" x2="1762" y2="2200" stroke="#b8c7bf" stroke-width="2"/>
<path d="M 938.3 561.5 H 1407.3 V 555 H 1427.3" fill="none" stroke="#ffffff" stroke-width="7.4"  stroke-linecap="round" stroke-linejoin="round" opacity="0.94"/>
<path d="M 938.3 561.5 H 1407.3 V 555 H 1427.3" fill="none" stroke="#53675d" stroke-width="3.4"  marker-end="url(#arrow-sequence)" stroke-linecap="round" stroke-linejoin="round" opacity="0.96"/>
<path d="M 1568.3 606.5 V 735 H 787.3 V 911.5" fill="none" stroke="#ffffff" stroke-width="7.4"  stroke-linecap="round" stroke-linejoin="round" opacity="0.94"/>
<path d="M 1568.3 606.5 V 735 H 787.3 V 911.5" fill="none" stroke="#53675d" stroke-width="3.4"  marker-end="url(#arrow-sequence)" stroke-linecap="round" stroke-linejoin="round" opacity="0.96"/>
<path d="M 938.3 973.5 H 1394.3 V 973.5 H 1427.3" fill="none" stroke="#ffffff" stroke-width="7.4"  stroke-linecap="round" stroke-linejoin="round" opacity="0.94"/>
<path d="M 938.3 973.5 H 1394.3 V 973.5 H 1427.3" fill="none" stroke="#53675d" stroke-width="3.4"  marker-end="url(#arrow-sequence)" stroke-linecap="round" stroke-linejoin="round" opacity="0.96"/>
<path d="M 1612.3 1009.5 V 1025.5 H 1592.3 V 1025.5" fill="none" stroke="#ffffff" stroke-width="7.4"  stroke-linecap="round" stroke-linejoin="round" opacity="0.94"/>
<path d="M 1612.3 1009.5 V 1025.5 H 1592.3 V 1025.5" fill="none" stroke="#53675d" stroke-width="3.4"  marker-end="url(#arrow-sequence)" stroke-linecap="round" stroke-linejoin="round" opacity="0.96"/>
<path d="M 1435.3 950 H 992.3 V 1090 H 946.3" fill="none" stroke="#ffffff" stroke-width="7.4" stroke-dasharray="11 8" stroke-linecap="round" stroke-linejoin="round" opacity="0.94"/>
<path d="M 1435.3 950 H 992.3 V 1090 H 946.3" fill="none" stroke="#0f8a65" stroke-width="3.4" stroke-dasharray="11 8" marker-end="url(#arrow-message)" stroke-linecap="round" stroke-linejoin="round" opacity="0.96"/>
<path d="M 938.3 1079.5 H 1368.3 V 965.5 H 1427.3" fill="none" stroke="#ffffff" stroke-width="8" stroke-dasharray="10 8" stroke-linecap="round" stroke-linejoin="round" opacity="0.94"/>
<path d="M 938.3 1079.5 H 1368.3 V 965.5 H 1427.3" fill="none" stroke="#3478db" stroke-width="4" stroke-dasharray="10 8" marker-end="url(#arrow-loop)" stroke-linecap="round" stroke-linejoin="round" opacity="0.96"/>
<path d="M 1560.3 1123.5 V 1268 H 417.8 V 1428.5" fill="none" stroke="#ffffff" stroke-width="7.4"  stroke-linecap="round" stroke-linejoin="round" opacity="0.94"/>
<path d="M 1560.3 1123.5 V 1268 H 417.8 V 1428.5" fill="none" stroke="#53675d" stroke-width="3.4"  marker-end="url(#arrow-sequence)" stroke-linecap="round" stroke-linejoin="round" opacity="0.96"/>
<path d="M 554.8 1475 H 1023.8 V 1545 H 1043.8" fill="none" stroke="#ffffff" stroke-width="7.4"  stroke-linecap="round" stroke-linejoin="round" opacity="0.94"/>
<path d="M 554.8 1475 H 1023.8 V 1545 H 1043.8" fill="none" stroke="#53675d" stroke-width="3.4"  marker-end="url(#arrow-sequence)" stroke-linecap="round" stroke-linejoin="round" opacity="0.96"/>
<path d="M 1192.8 1583.5 V 1737 H 1174.8 V 1945.5" fill="none" stroke="#ffffff" stroke-width="7.4"  stroke-linecap="round" stroke-linejoin="round" opacity="0.94"/>
<path d="M 1192.8 1583.5 V 1737 H 1174.8 V 1945.5" fill="none" stroke="#53675d" stroke-width="3.4"  marker-end="url(#arrow-sequence)" stroke-linecap="round" stroke-linejoin="round" opacity="0.96"/>
<path d="M 1051.8 1521.5 H 595.8 V 1604.5 H 562.8" fill="none" stroke="#ffffff" stroke-width="7.4" stroke-dasharray="11 8" stroke-linecap="round" stroke-linejoin="round" opacity="0.94"/>
<path d="M 1051.8 1521.5 H 595.8 V 1604.5 H 562.8" fill="none" stroke="#0f8a65" stroke-width="3.4" stroke-dasharray="11 8" marker-end="url(#arrow-message)" stroke-linecap="round" stroke-linejoin="round" opacity="0.96"/>
<path d="M 554.8 1594 H 997.8 V 1537 H 1043.8" fill="none" stroke="#ffffff" stroke-width="8" stroke-dasharray="10 8" stroke-linecap="round" stroke-linejoin="round" opacity="0.94"/>
<path d="M 554.8 1594 H 997.8 V 1537 H 1043.8" fill="none" stroke="#3478db" stroke-width="4" stroke-dasharray="10 8" marker-end="url(#arrow-loop)" stroke-linecap="round" stroke-linejoin="round" opacity="0.96"/>
<rect x="1116.6" y="526.3" width="140.4" height="30" rx="6" fill="#ffffff" stroke="#53675d" stroke-width="1.4"/>
<text x="1186.8" y="546.3" text-anchor="middle" font-size="14" font-weight="750" fill="#53675d">Project Report</text>
<rect x="1100" y="703" width="155.5" height="30" rx="6" fill="#ffffff" stroke="#53675d" stroke-width="1.4"/>
<text x="1177.8" y="723" text-anchor="middle" font-size="14" font-weight="750" fill="#53675d">EIA Study 요구 시</text>
<rect x="1135.2" y="941.5" width="103.1" height="30" rx="6" fill="#ffffff" stroke="#53675d" stroke-width="1.4"/>
<text x="1186.8" y="961.5" text-anchor="middle" font-size="14" font-weight="750" fill="#53675d">EIA 보고서</text>
<rect x="1637.3" y="862.5" width="96" height="30" rx="6" fill="#ffffff" stroke="#53675d" stroke-width="1.4"/>
<text x="1685.3" y="882.5" text-anchor="middle" font-size="14" font-weight="750" fill="#53675d">심사완료</text>
<rect x="1119.9" y="988" width="133.8" height="30" rx="6" fill="#ffffff" stroke="#0f8a65" stroke-width="1.4"/>
<text x="1186.8" y="1008" text-anchor="middle" font-size="14" font-weight="750" fill="#0f8a65">추가정보 요구 시</text>
<rect x="1115.3" y="1026.5" width="142.9" height="30" rx="6" fill="#ffffff" stroke="#3478db" stroke-width="1.4"/>
<text x="1186.8" y="1046.5" text-anchor="middle" font-size="14" font-weight="750" fill="#3478db">수정보고서 재심사</text>
<rect x="913.6" y="1236" width="150.9" height="30" rx="6" fill="#ffffff" stroke="#53675d" stroke-width="1.4"/>
<text x="989" y="1256" text-anchor="middle" font-size="14" font-weight="750" fill="#53675d">EIA licence 첨부</text>
<rect x="752.8" y="1478" width="100.9" height="30" rx="6" fill="#ffffff" stroke="#53675d" stroke-width="1.4"/>
<text x="803.3" y="1498" text-anchor="middle" font-size="14" font-weight="750" fill="#53675d">카운티 접수</text>
<rect x="1135.8" y="1705" width="96" height="30" rx="6" fill="#ffffff" stroke="#53675d" stroke-width="1.4"/>
<text x="1183.8" y="1725" text-anchor="middle" font-size="14" font-weight="750" fill="#53675d">기술보고서</text>
<rect x="742" y="1531" width="122.5" height="30" rx="6" fill="#ffffff" stroke="#0f8a65" stroke-width="1.4"/>
<text x="803.3" y="1551" text-anchor="middle" font-size="14" font-weight="750" fill="#0f8a65">Defer·보완 시</text>
<rect x="743.4" y="1569.5" width="119.8" height="30" rx="6" fill="#ffffff" stroke="#3478db" stroke-width="1.4"/>
<text x="803.3" y="1589.5" text-anchor="middle" font-size="14" font-weight="750" fill="#3478db">보완 후 재회람</text>

    <g filter="url(#card-shadow)">
      <rect x="664.3" y="512.5" width="278" height="98" rx="11" fill="none" stroke="#7c3aed" stroke-width="2.2" stroke-dasharray="7 5"/>
      <rect x="668.3" y="516.5" width="270" height="90" rx="8" fill="#087452" stroke="#087452" stroke-width="2.3"/>
      <rect x="668.3" y="516.5" width="6" height="90" rx="3" fill="#087452"/>
      <text x="683.3" y="536.5" class="mono" font-size="12.5" font-weight="750" fill="#d8f4e8">B08</text>
      <text x="735.3" y="536.5" font-size="11.5" font-weight="800" fill="#7c3aed">조문 · NEMA EIA process</text>
      <rect x="878.3" y="523.5" width="50" height="24" rx="5" fill="#ffffff" opacity="0.18"/>
      <text x="903.3" y="540.5" text-anchor="middle" font-size="12" font-weight="800" fill="#ffffff">핵심</text>
      <text x="683.3" y="563.5" font-size="15.5" font-weight="800" fill="#ffffff"><tspan x="683.3" dy="0">NEMA 등록전문가 Project</tspan><tspan x="683.3" dy="18">Report 작성</tspan></text>
      <text x="683.3" y="598.5" font-size="11" font-weight="650" fill="#d8f4e8">NEMA 등록 EIA 전문가가 사업·부지·예상영…</text>
    </g>
  

    <g filter="url(#card-shadow)">
      <rect x="1431.3" y="512.5" width="278" height="98" rx="11" fill="none" stroke="#7c3aed" stroke-width="2.2" stroke-dasharray="7 5"/>
      <rect x="1435.3" y="516.5" width="270" height="90" rx="8" fill="#fff8e8" stroke="#d9901a" stroke-width="2.3"/>
      <rect x="1435.3" y="516.5" width="6" height="90" rx="3" fill="#d9901a"/>
      <text x="1450.3" y="536.5" class="mono" font-size="12.5" font-weight="750" fill="#a96008">B09</text>
      <text x="1502.3" y="536.5" font-size="11.5" font-weight="800" fill="#7c3aed">조문 · NEMA EIA route</text>
      <rect x="1645.3" y="523.5" width="50" height="24" rx="5" fill="#d9901a" opacity="0.14"/>
      <text x="1670.3" y="540.5" text-anchor="middle" font-size="12" font-weight="800" fill="#7a4305">병목</text>
      <text x="1450.3" y="573.5" font-size="15.5" font-weight="800" fill="#7a4305"><tspan x="1450.3" dy="0">NEMA 환경평가 경로 결정</tspan></text>
      <text x="1450.3" y="598.5" font-size="11" font-weight="650" fill="#a96008">NEMA가 초기보고서를 검토해 보고서만으로…</text>
    </g>
  

    <g filter="url(#card-shadow)">
      <rect x="664.3" y="915.5" width="278" height="98" rx="11" fill="none" stroke="#7c3aed" stroke-width="2.2" stroke-dasharray="7 5"/>
      <rect x="668.3" y="919.5" width="270" height="90" rx="8" fill="#ffffff" stroke="#b9c7bf" stroke-width="2.3"/>
      <rect x="668.3" y="919.5" width="6" height="90" rx="3" fill="#b9c7bf"/>
      <text x="683.3" y="939.5" class="mono" font-size="12.5" font-weight="750" fill="#627169">B10</text>
      <text x="735.3" y="939.5" font-size="11.5" font-weight="800" fill="#7c3aed">조문 · NEMA EIA steps</text>
      <rect x="878.3" y="926.5" width="50" height="24" rx="5" fill="#b9c7bf" opacity="0.14"/>
      <text x="903.3" y="943.5" text-anchor="middle" font-size="12" font-weight="800" fill="#17231d">후속</text>
      <text x="683.3" y="966.5" font-size="15.5" font-weight="800" fill="#17231d"><tspan x="683.3" dy="0">Scoping·TOR 승인 및 EIA</tspan><tspan x="683.3" dy="18">Study 수행</tspan></text>
      <text x="683.3" y="1001.5" font-size="11" font-weight="650" fill="#627169">full EIA가 요구되면 등록전문가가 scopin…</text>
    </g>
  

    <g filter="url(#card-shadow)">
      <rect x="1431.3" y="915.5" width="278" height="98" rx="11" fill="none" stroke="#7c3aed" stroke-width="2.2" stroke-dasharray="7 5"/>
      <rect x="1435.3" y="919.5" width="270" height="90" rx="8" fill="#fff8e8" stroke="#d9901a" stroke-width="2.3"/>
      <rect x="1435.3" y="919.5" width="6" height="90" rx="3" fill="#d9901a"/>
      <text x="1450.3" y="939.5" class="mono" font-size="12.5" font-weight="750" fill="#a96008">B11</text>
      <text x="1502.3" y="939.5" font-size="11.5" font-weight="800" fill="#7c3aed">조문 · NEMA public participation and review</text>
      <rect x="1645.3" y="926.5" width="50" height="24" rx="5" fill="#d9901a" opacity="0.14"/>
      <text x="1670.3" y="943.5" text-anchor="middle" font-size="12" font-weight="800" fill="#7a4305">병목</text>
      <text x="1450.3" y="976.5" font-size="15.5" font-weight="800" fill="#7a4305"><tspan x="1450.3" dy="0">공중참여·Lead Agency 본심사</tspan></text>
      <text x="1450.3" y="1001.5" font-size="11" font-weight="650" fill="#a96008">사업시행자가 법정 공중참여를 실시하고 NEM…</text>
    </g>
  

    <g filter="url(#card-shadow)">
      <rect x="664.3" y="1029.5" width="278" height="98" rx="11" fill="none" stroke="#7c3aed" stroke-width="2.2" stroke-dasharray="7 5"/>
      <rect x="668.3" y="1033.5" width="270" height="90" rx="8" fill="#ffffff" stroke="#b9c7bf" stroke-width="2.3"/>
      <rect x="668.3" y="1033.5" width="6" height="90" rx="3" fill="#b9c7bf"/>
      <text x="683.3" y="1053.5" class="mono" font-size="12.5" font-weight="750" fill="#627169">B12</text>
      <text x="735.3" y="1053.5" font-size="11.5" font-weight="800" fill="#7c3aed">조문 · NEMA report review</text>
      <rect x="878.3" y="1040.5" width="50" height="24" rx="5" fill="#b9c7bf" opacity="0.14"/>
      <text x="903.3" y="1057.5" text-anchor="middle" font-size="12" font-weight="800" fill="#17231d">후속</text>
      <text x="683.3" y="1090.5" font-size="15.5" font-weight="800" fill="#17231d"><tspan x="683.3" dy="0">환경 추가정보·수정본 재제출</tspan></text>
      <text x="683.3" y="1115.5" font-size="11" font-weight="650" fill="#627169">NEMA·lead agency 검토의견을 반영해 추가…</text>
    </g>
  

    <g filter="url(#card-shadow)">
      <rect x="1431.3" y="1029.5" width="278" height="98" rx="11" fill="none" stroke="#7c3aed" stroke-width="2.2" stroke-dasharray="7 5"/>
      <rect x="1435.3" y="1033.5" width="270" height="90" rx="8" fill="#087452" stroke="#087452" stroke-width="2.3"/>
      <rect x="1435.3" y="1033.5" width="6" height="90" rx="3" fill="#087452"/>
      <text x="1450.3" y="1053.5" class="mono" font-size="12.5" font-weight="750" fill="#d8f4e8">B13</text>
      <text x="1502.3" y="1053.5" font-size="11.5" font-weight="800" fill="#7c3aed">조문 · NEMA EIA decision</text>
      <rect x="1645.3" y="1040.5" width="50" height="24" rx="5" fill="#ffffff" opacity="0.18"/>
      <text x="1670.3" y="1057.5" text-anchor="middle" font-size="12" font-weight="800" fill="#ffffff">핵심</text>
      <text x="1450.3" y="1090.5" font-size="15.5" font-weight="800" fill="#ffffff"><tspan x="1450.3" dy="0">EIA Licence 공식결정</tspan></text>
      <text x="1450.3" y="1115.5" font-size="11" font-weight="650" fill="#d8f4e8">NEMA가 EIA Study Report를 승인·조건부…</text>
    </g>
  

    <g filter="url(#card-shadow)">
      <rect x="280.8" y="1432.5" width="278" height="98" rx="11" fill="none" stroke="#7c3aed" stroke-width="2.2" stroke-dasharray="7 5"/>
      <rect x="284.8" y="1436.5" width="270" height="90" rx="8" fill="#087452" stroke="#087452" stroke-width="2.3"/>
      <rect x="284.8" y="1436.5" width="6" height="90" rx="3" fill="#087452"/>
      <text x="299.8" y="1456.5" class="mono" font-size="12.5" font-weight="750" fill="#d8f4e8">B14</text>
      <text x="351.8" y="1456.5" font-size="11.5" font-weight="800" fill="#7c3aed">조문 · PLUPA application</text>
      <rect x="494.8" y="1443.5" width="50" height="24" rx="5" fill="#ffffff" opacity="0.18"/>
      <text x="519.8" y="1460.5" text-anchor="middle" font-size="12" font-weight="800" fill="#ffffff">핵심</text>
      <text x="299.8" y="1493.5" font-size="15.5" font-weight="800" fill="#ffffff"><tspan x="299.8" dy="0">카운티 개발·건축허가 신청</tspan></text>
      <text x="299.8" y="1518.5" font-size="11" font-weight="650" fill="#d8f4e8">해당하는 NEMA EIA licence와 전문가 인…</text>
    </g>
  

    <g filter="url(#card-shadow)">
      <rect x="1047.8" y="1489.5" width="278" height="98" rx="11" fill="none" stroke="#7c3aed" stroke-width="2.2" stroke-dasharray="7 5"/>
      <rect x="1051.8" y="1493.5" width="270" height="90" rx="8" fill="#fff8e8" stroke="#d9901a" stroke-width="2.3"/>
      <rect x="1051.8" y="1493.5" width="6" height="90" rx="3" fill="#d9901a"/>
      <text x="1066.8" y="1513.5" class="mono" font-size="12.5" font-weight="750" fill="#a96008">B15</text>
      <text x="1118.8" y="1513.5" font-size="11.5" font-weight="800" fill="#7c3aed">조문 · PLUPA referral and review</text>
      <rect x="1261.8" y="1500.5" width="50" height="24" rx="5" fill="#d9901a" opacity="0.14"/>
      <text x="1286.8" y="1517.5" text-anchor="middle" font-size="12" font-weight="800" fill="#7a4305">병목</text>
      <text x="1066.8" y="1550.5" font-size="15.5" font-weight="800" fill="#7a4305"><tspan x="1066.8" dy="0">관계기관 회람·기술심사</tspan></text>
      <text x="1066.8" y="1575.5" font-size="11" font-weight="650" fill="#a96008">카운티가 신청을 환경·도로·보건·공공사업·유…</text>
    </g>
  

    <g filter="url(#card-shadow)">
      <rect x="280.8" y="1546.5" width="278" height="98" rx="11" fill="none" stroke="#7c3aed" stroke-width="2.2" stroke-dasharray="7 5"/>
      <rect x="284.8" y="1550.5" width="270" height="90" rx="8" fill="#ffffff" stroke="#b9c7bf" stroke-width="2.3"/>
      <rect x="284.8" y="1550.5" width="6" height="90" rx="3" fill="#b9c7bf"/>
      <text x="299.8" y="1570.5" class="mono" font-size="12.5" font-weight="750" fill="#627169">B16</text>
      <text x="351.8" y="1570.5" font-size="11.5" font-weight="800" fill="#7c3aed">조문 · deferred application</text>
      <rect x="494.8" y="1557.5" width="50" height="24" rx="5" fill="#b9c7bf" opacity="0.14"/>
      <text x="519.8" y="1574.5" text-anchor="middle" font-size="12" font-weight="800" fill="#17231d">후속</text>
      <text x="299.8" y="1607.5" font-size="15.5" font-weight="800" fill="#17231d"><tspan x="299.8" dy="0">Defer·건축도서 보완 재제출</tspan></text>
      <text x="299.8" y="1632.5" font-size="11" font-weight="650" fill="#627169">카운티의 defer·보완사유와 관계기관 의견을…</text>
    </g>
  

    <g filter="url(#card-shadow)">
      <rect x="1047.8" y="1949.5" width="278" height="98" rx="11" fill="none" stroke="#7c3aed" stroke-width="2.2" stroke-dasharray="7 5"/>
      <rect x="1051.8" y="1953.5" width="270" height="90" rx="8" fill="#087452" stroke="#087452" stroke-width="2.3"/>
      <rect x="1051.8" y="1953.5" width="6" height="90" rx="3" fill="#087452"/>
      <text x="1066.8" y="1973.5" class="mono" font-size="12.5" font-weight="750" fill="#d8f4e8">B17</text>
      <text x="1118.8" y="1973.5" font-size="11.5" font-weight="800" fill="#7c3aed">조문 · PLUPA decision</text>
      <rect x="1261.8" y="1960.5" width="50" height="24" rx="5" fill="#ffffff" opacity="0.18"/>
      <text x="1286.8" y="1977.5" text-anchor="middle" font-size="12" font-weight="800" fill="#ffffff">핵심</text>
      <text x="1066.8" y="2010.5" font-size="15.5" font-weight="800" fill="#ffffff"><tspan x="1066.8" dy="0">카운티 개발·건축허가 결정</tspan></text>
      <text x="1066.8" y="2035.5" font-size="11" font-weight="650" fill="#d8f4e8">County Executive Committee Member가…</text>
    </g>
  

    <text x="38" y="2245" font-size="16" font-weight="800" fill="#18251e">읽는 법</text>
    <rect x="118" y="2219" width="17" height="17" rx="4" fill="#35a77d"/><text x="144" y="2233" font-size="14.5" fill="#526159">선행</text>
<rect x="216" y="2219" width="17" height="17" rx="4" fill="#087452"/><text x="242" y="2233" font-size="14.5" fill="#526159">핵심</text>
<rect x="314" y="2219" width="17" height="17" rx="4" fill="#d9901a"/><text x="340" y="2233" font-size="14.5" fill="#526159">병목</text>
<rect x="412" y="2219" width="17" height="17" rx="4" fill="#3478db"/><text x="438" y="2233" font-size="14.5" fill="#526159">회귀</text>
    <rect x="500" y="2219" width="17" height="17" rx="4" fill="none" stroke="#7c3aed" stroke-width="2" stroke-dasharray="5 4"/>
    <text x="526" y="2233" font-size="14.5" fill="#526159">조문</text>
    <line x1="648" y1="2237" x2="700" y2="2237" stroke="#53675d" stroke-width="4" marker-end="url(#arrow-sequence)"/>
    <text x="720" y="2243" font-size="15" fill="#526159">절차 순서</text>
    <line x1="860" y1="2237" x2="912" y2="2237" stroke="#0f8a65" stroke-width="4" stroke-dasharray="10 8" marker-end="url(#arrow-message)"/>
    <text x="932" y="2243" font-size="15" fill="#526159">정보 전달</text>
    <line x1="1072" y1="2237" x2="1124" y2="2237" stroke="#3478db" stroke-width="4" stroke-dasharray="10 8" marker-end="url(#arrow-loop)"/>
    <text x="1144" y="2243" font-size="15" fill="#526159">보완 회귀</text>
    <text x="38" y="2291" font-size="15.5" font-weight="650" fill="#56655d">단계는 위→아래, 행위자 묶음은 좌→우로 읽습니다.</text>
    <text x="38" y="2321" font-size="14.5" fill="#68776f">원래 4개 행위자 레인을 4개 레이아웃 묶음으로 배치했으며, 10개 업무와 11개 연결 관계는 유지했습니다.</text>
    <text x="38" y="2361" font-size="13.5" fill="#7b8881">출처: 해당 제도의 법률·시행령·시행규칙 기반 모델 · 실제 사건의 진행 상태나 법률 자문을 의미하지 않습니다.</text>
    
  
</svg>