<svg xmlns="http://www.w3.org/2000/svg" width="1800" height="2400" viewBox="0 0 1800 2400">
<defs>
      <filter id="card-shadow" x="-20%" y="-25%" width="140%" height="160%">
        <feDropShadow dx="0" dy="3" stdDeviation="4" flood-color="#12271e" flood-opacity="0.10"/>
      </filter>
      <marker id="arrow-sequence" markerWidth="17" markerHeight="13" refX="15" refY="6.5" orient="auto" markerUnits="userSpaceOnUse">
    <path d="M1,1 L16,6.5 L1,12 Z" fill="#53675d" stroke="#ffffff" stroke-width="1.3" stroke-linejoin="round"/>
  </marker>
      <marker id="arrow-message" markerWidth="17" markerHeight="13" refX="15" refY="6.5" orient="auto" markerUnits="userSpaceOnUse">
    <path d="M1,1 L16,6.5 L1,12 Z" fill="#0f8a65" stroke="#ffffff" stroke-width="1.3" stroke-linejoin="round"/>
  </marker>
      <marker id="arrow-loop" markerWidth="17" markerHeight="13" refX="15" refY="6.5" orient="auto" markerUnits="userSpaceOnUse">
    <path d="M1,1 L16,6.5 L1,12 Z" fill="#3478db" stroke="#ffffff" stroke-width="1.3" stroke-linejoin="round"/>
  </marker>
      <style>
        text { font-family: -apple-system, "Segoe UI", "Helvetica Neue", Arial, "Apple SD Gothic Neo", "Noto Sans CJK KR", "Noto Sans KR", sans-serif; }
        .mono { font-family: "SFMono-Regular", "Menlo", monospace; }
      </style>
    </defs>
<rect width="1800" height="2400" fill="#ffffff"/>
<rect x="0" y="0" width="1800" height="240" fill="#07150f"/>
<rect x="0" y="0" width="1800" height="9" fill="#18a87b"/>

    <text x="1760" y="45" text-anchor="end" font-size="15" font-weight="700" fill="#8fa299">노드 11 · 레인 3 · 게이트 5</text>
    <text x="40" y="132" font-size="48" font-weight="850" fill="#ffffff">모잠비크 사전계획정보·건축프로젝트·건축허가</text>
    <text x="40" y="174" font-size="19" font-weight="520" fill="#b7c7bf">DUAT·지적경계와 관할 도시계획·토지이용계획으로 필지별 개발지표와 인입조건을 확정한다.</text>
    
  
<rect x="38" y="260" width="1724" height="1940" rx="10" fill="#ffffff" stroke="#b8c7bf" stroke-width="2"/>
<rect x="38" y="260" width="190" height="100" rx="10" fill="#eaf2ee"/>
<text x="58" y="299" font-size="17" font-weight="800" fill="#17231d">단계 ↓</text>
<text x="58" y="332" font-size="15" font-weight="650" fill="#68776f">행위자 묶음 →</text>
<rect x="38" y="360" width="1724" height="299.6" fill="#84baa9"/>
<rect x="38" y="360" width="190" height="299.6" fill="#087452"/>
<text x="58" y="392" class="mono" font-size="16" font-weight="800" fill="#ffffff">G0</text>
<text x="58" y="425" font-size="19" font-weight="800" fill="#ffffff"><tspan x="58" dy="0">사전정보 신청</tspan></text>
<rect x="38" y="659.6" width="1724" height="413.6" fill="#84baa9"/>
<rect x="38" y="659.6" width="190" height="413.6" fill="#087452"/>
<text x="58" y="691.6" class="mono" font-size="16" font-weight="800" fill="#ffffff">G1</text>
<text x="58" y="724.6" font-size="19" font-weight="800" fill="#ffffff"><tspan x="58" dy="0">현장·계획 회신</tspan></text>
<rect x="38" y="1073.2" width="1724" height="413.6" fill="#84baa9"/>
<rect x="38" y="1073.2" width="190" height="413.6" fill="#087452"/>
<text x="58" y="1105.2" class="mono" font-size="16" font-weight="800" fill="#ffffff">G2</text>
<text x="58" y="1138.2" font-size="19" font-weight="800" fill="#ffffff"><tspan x="58" dy="0">건축프로젝트</tspan><tspan x="58" dy="22">심사</tspan></text>
<rect x="38" y="1486.8" width="1724" height="413.6" fill="#84baa9"/>
<rect x="38" y="1486.8" width="190" height="413.6" fill="#087452"/>
<text x="58" y="1518.8" class="mono" font-size="16" font-weight="800" fill="#ffffff">G3</text>
<text x="58" y="1551.8" font-size="19" font-weight="800" fill="#ffffff"><tspan x="58" dy="0">보완설계 심사</tspan></text>
<rect x="38" y="1900.4" width="1724" height="299.6" fill="#84baa9"/>
<rect x="38" y="1900.4" width="190" height="299.6" fill="#087452"/>
<text x="58" y="1932.4" class="mono" font-size="16" font-weight="800" fill="#ffffff">G4</text>
<text x="58" y="1965.4" font-size="19" font-weight="800" fill="#ffffff"><tspan x="58" dy="0">건축허가 결정</tspan></text>
<rect x="228" y="260" width="511.3" height="100" fill="#f7faf8"/>
<rect x="228" y="260" width="511.3" height="7" fill="#0f9f72"/>
<text x="248" y="299" font-size="20" font-weight="800" fill="#17231d">건축주·신청인</text>
<text x="248" y="329" font-size="13.5" font-weight="600" fill="#68776f"><tspan x="248" dy="0">건축주·신청인</tspan></text>
<rect x="739.3" y="260" width="511.3" height="100" fill="#f7faf8"/>
<rect x="739.3" y="260" width="511.3" height="7" fill="#3b82f6"/>
<text x="759.3" y="299" font-size="20" font-weight="800" fill="#17231d">현지 설계</text>
<text x="759.3" y="329" font-size="13.5" font-weight="600" fill="#68776f"><tspan x="759.3" dy="0">현지 설계·시공 전문가</tspan></text>
<rect x="1250.7" y="260" width="511.3" height="100" fill="#f7faf8"/>
<rect x="1250.7" y="260" width="511.3" height="7" fill="#c78116"/>
<text x="1270.7" y="299" font-size="20" font-weight="800" fill="#17231d">도시계획</text>
<text x="1270.7" y="329" font-size="13.5" font-weight="600" fill="#68776f"><tspan x="1270.7" dy="0">도시계획·건축 허가기관</tspan></text>
<line x1="228" y1="260" x2="228" y2="2200" stroke="#d3dcd7" stroke-width="1.5"/>
<line x1="739.3" y1="260" x2="739.3" y2="2200" stroke="#d3dcd7" stroke-width="1.5"/>
<line x1="1250.7" y1="260" x2="1250.7" y2="2200" stroke="#d3dcd7" stroke-width="1.5"/>
<line x1="1762" y1="260" x2="1762" y2="2200" stroke="#d3dcd7" stroke-width="1.5"/>
<line x1="38" y1="360" x2="1762" y2="360" stroke="#b8c7bf" stroke-width="2"/>
<line x1="38" y1="360" x2="1762" y2="360" stroke="#c8d3cd" stroke-width="1.5"/>
<line x1="38" y1="659.6" x2="1762" y2="659.6" stroke="#c8d3cd" stroke-width="1.5"/>
<line x1="38" y1="1073.2" x2="1762" y2="1073.2" stroke="#c8d3cd" stroke-width="1.5"/>
<line x1="38" y1="1486.8" x2="1762" y2="1486.8" stroke="#c8d3cd" stroke-width="1.5"/>
<line x1="38" y1="1900.4" x2="1762" y2="1900.4" stroke="#c8d3cd" stroke-width="1.5"/>
<line x1="38" y1="2200" x2="1762" y2="2200" stroke="#b8c7bf" stroke-width="2"/>
<path d="M 618.7 509.8 H 1343.3 V 503.3 H 1363.3" fill="none" stroke="#ffffff" stroke-width="7.4"  stroke-linecap="round" stroke-linejoin="round" opacity="0.94"/>
<path d="M 618.7 509.8 H 1343.3 V 503.3 H 1363.3" fill="none" stroke="#53675d" stroke-width="3.4"  marker-end="url(#arrow-sequence)" stroke-linecap="round" stroke-linejoin="round" opacity="0.96"/>
<path d="M 1504.3 554.8 V 631.6 H 1490.3 V 756.4" fill="none" stroke="#ffffff" stroke-width="7.4"  stroke-linecap="round" stroke-linejoin="round" opacity="0.94"/>
<path d="M 1504.3 554.8 V 631.6 H 1490.3 V 756.4" fill="none" stroke="#53675d" stroke-width="3.4"  marker-end="url(#arrow-sequence)" stroke-linecap="round" stroke-linejoin="round" opacity="0.96"/>
<path d="M 1510.3 854.4 V 870.4" fill="none" stroke="#ffffff" stroke-width="7.4"  stroke-linecap="round" stroke-linejoin="round" opacity="0.94"/>
<path d="M 1510.3 854.4 V 870.4" fill="none" stroke="#53675d" stroke-width="3.4"  marker-end="url(#arrow-sequence)" stroke-linecap="round" stroke-linejoin="round" opacity="0.96"/>
<path d="M 1496.3 968.4 V 1061.2 H 985 V 1170" fill="none" stroke="#ffffff" stroke-width="7.4"  stroke-linecap="round" stroke-linejoin="round" opacity="0.94"/>
<path d="M 1496.3 968.4 V 1061.2 H 985 V 1170" fill="none" stroke="#53675d" stroke-width="3.4"  marker-end="url(#arrow-sequence)" stroke-linecap="round" stroke-linejoin="round" opacity="0.96"/>
<path d="M 1130 1229.5 H 1343.3 V 1289 H 1363.3" fill="none" stroke="#ffffff" stroke-width="7.4"  stroke-linecap="round" stroke-linejoin="round" opacity="0.94"/>
<path d="M 1130 1229.5 H 1343.3 V 1289 H 1363.3" fill="none" stroke="#53675d" stroke-width="3.4"  marker-end="url(#arrow-sequence)" stroke-linecap="round" stroke-linejoin="round" opacity="0.96"/>
<path d="M 1524.3 1325 V 1458.8 H 979 V 1583.6" fill="none" stroke="#ffffff" stroke-width="7.4"  stroke-linecap="round" stroke-linejoin="round" opacity="0.94"/>
<path d="M 1524.3 1325 V 1458.8 H 979 V 1583.6" fill="none" stroke="#53675d" stroke-width="3.4"  marker-end="url(#arrow-sequence)" stroke-linecap="round" stroke-linejoin="round" opacity="0.96"/>
<path d="M 1371.3 1265.5 H 1184 V 1348.5 H 1138" fill="none" stroke="#ffffff" stroke-width="7.4" stroke-dasharray="11 8" stroke-linecap="round" stroke-linejoin="round" opacity="0.94"/>
<path d="M 1371.3 1265.5 H 1184 V 1348.5 H 1138" fill="none" stroke="#0f8a65" stroke-width="3.4" stroke-dasharray="11 8" marker-end="url(#arrow-message)" stroke-linecap="round" stroke-linejoin="round" opacity="0.96"/>
<path d="M 1130 1338 H 1304.3 V 1281 H 1363.3" fill="none" stroke="#ffffff" stroke-width="8" stroke-dasharray="10 8" stroke-linecap="round" stroke-linejoin="round" opacity="0.94"/>
<path d="M 1130 1338 H 1304.3 V 1281 H 1363.3" fill="none" stroke="#3478db" stroke-width="4" stroke-dasharray="10 8" marker-end="url(#arrow-loop)" stroke-linecap="round" stroke-linejoin="round" opacity="0.96"/>
<path d="M 1130 1643.1 H 1343.3 V 1702.6 H 1363.3" fill="none" stroke="#ffffff" stroke-width="7.4"  stroke-linecap="round" stroke-linejoin="round" opacity="0.94"/>
<path d="M 1130 1643.1 H 1343.3 V 1702.6 H 1363.3" fill="none" stroke="#53675d" stroke-width="3.4"  marker-end="url(#arrow-sequence)" stroke-linecap="round" stroke-linejoin="round" opacity="0.96"/>
<path d="M 1512.3 1738.6 V 1840.4 H 1494.3 V 1997.2" fill="none" stroke="#ffffff" stroke-width="7.4"  stroke-linecap="round" stroke-linejoin="round" opacity="0.94"/>
<path d="M 1512.3 1738.6 V 1840.4 H 1494.3 V 1997.2" fill="none" stroke="#53675d" stroke-width="3.4"  marker-end="url(#arrow-sequence)" stroke-linecap="round" stroke-linejoin="round" opacity="0.96"/>
<path d="M 1371.3 1676.6 H 1171 V 1762.1 H 1138" fill="none" stroke="#ffffff" stroke-width="7.4" stroke-dasharray="11 8" stroke-linecap="round" stroke-linejoin="round" opacity="0.94"/>
<path d="M 1371.3 1676.6 H 1171 V 1762.1 H 1138" fill="none" stroke="#0f8a65" stroke-width="3.4" stroke-dasharray="11 8" marker-end="url(#arrow-message)" stroke-linecap="round" stroke-linejoin="round" opacity="0.96"/>
<path d="M 1130 1749.1 H 1317.3 V 1694.6 H 1363.3" fill="none" stroke="#ffffff" stroke-width="8" stroke-dasharray="10 8" stroke-linecap="round" stroke-linejoin="round" opacity="0.94"/>
<path d="M 1130 1749.1 H 1317.3 V 1694.6 H 1363.3" fill="none" stroke="#3478db" stroke-width="4" stroke-dasharray="10 8" marker-end="url(#arrow-loop)" stroke-linecap="round" stroke-linejoin="round" opacity="0.96"/>
<rect x="937.6" y="474.6" width="114.9" height="30" rx="6" fill="#ffffff" stroke="#53675d" stroke-width="1.4"/>
<text x="995" y="494.6" text-anchor="middle" font-size="14" font-weight="750" fill="#53675d">사전정보 접수</text>
<rect x="1439.9" y="599.6" width="114.9" height="30" rx="6" fill="#ffffff" stroke="#53675d" stroke-width="1.4"/>
<text x="1497.3" y="619.6" text-anchor="middle" font-size="14" font-weight="750" fill="#53675d">기술부서 회부</text>
<rect x="1632.8" y="707.4" width="117" height="30" rx="6" fill="#ffffff" stroke="#53675d" stroke-width="1.4"/>
<text x="1691.3" y="727.4" text-anchor="middle" font-size="14" font-weight="750" fill="#53675d">현장·계획의견</text>
<rect x="1192.7" y="1029.2" width="96" height="30" rx="6" fill="#ffffff" stroke="#53675d" stroke-width="1.4"/>
<text x="1240.7" y="1049.2" text-anchor="middle" font-size="14" font-weight="750" fill="#53675d">계획조건</text>
<rect x="1195.7" y="1227.3" width="110" height="30" rx="6" fill="#ffffff" stroke="#53675d" stroke-width="1.4"/>
<text x="1250.7" y="1247.3" text-anchor="middle" font-size="14" font-weight="750" fill="#53675d">건축프로젝트</text>
<rect x="1203.7" y="1426.8" width="96" height="30" rx="6" fill="#ffffff" stroke="#53675d" stroke-width="1.4"/>
<text x="1251.7" y="1446.8" text-anchor="middle" font-size="14" font-weight="750" fill="#53675d">건축 승인</text>
<rect x="1202.7" y="1275" width="96" height="30" rx="6" fill="#ffffff" stroke="#0f8a65" stroke-width="1.4"/>
<text x="1250.7" y="1295" text-anchor="middle" font-size="14" font-weight="750" fill="#0f8a65">설계보완</text>
<rect x="1200.2" y="1313.5" width="100.9" height="30" rx="6" fill="#ffffff" stroke="#3478db" stroke-width="1.4"/>
<text x="1250.7" y="1333.5" text-anchor="middle" font-size="14" font-weight="750" fill="#3478db">수정안 재심</text>
<rect x="1202.7" y="1640.9" width="96" height="30" rx="6" fill="#ffffff" stroke="#53675d" stroke-width="1.4"/>
<text x="1250.7" y="1660.9" text-anchor="middle" font-size="14" font-weight="750" fill="#53675d">보완설계</text>
<rect x="1452.9" y="1808.4" width="100.9" height="30" rx="6" fill="#ffffff" stroke="#53675d" stroke-width="1.4"/>
<text x="1503.3" y="1828.4" text-anchor="middle" font-size="14" font-weight="750" fill="#53675d">정합성 확인</text>
<rect x="1199.2" y="1687.4" width="103" height="30" rx="6" fill="#ffffff" stroke="#0f8a65" stroke-width="1.4"/>
<text x="1250.7" y="1707.4" text-anchor="middle" font-size="14" font-weight="750" fill="#0f8a65">불일치·누락</text>
<rect x="1193.2" y="1725.9" width="114.9" height="30" rx="6" fill="#ffffff" stroke="#3478db" stroke-width="1.4"/>
<text x="1250.7" y="1745.9" text-anchor="middle" font-size="14" font-weight="750" fill="#3478db">보완설계 재심</text>

    <g filter="url(#card-shadow)">
      <rect x="344.7" y="460.8" width="278" height="98" rx="11" fill="none" stroke="#7c3aed" stroke-width="2.2" stroke-dasharray="7 5"/>
      <rect x="348.7" y="464.8" width="270" height="90" rx="8" fill="#087452" stroke="#087452" stroke-width="2.3"/>
      <rect x="348.7" y="464.8" width="6" height="90" rx="3" fill="#087452"/>
      <text x="363.7" y="484.8" class="mono" font-size="12.5" font-weight="750" fill="#d8f4e8">B01</text>
      <text x="415.7" y="484.8" font-size="11.5" font-weight="800" fill="#7c3aed">조문 · 사전정보 신청자료</text>
      <rect x="558.7" y="471.8" width="50" height="24" rx="5" fill="#ffffff" opacity="0.18"/>
      <text x="583.7" y="488.8" text-anchor="middle" font-size="12" font-weight="800" fill="#ffffff">핵심</text>
      <text x="363.7" y="521.8" font-size="15.5" font-weight="800" fill="#ffffff"><tspan x="363.7" dy="0">Informação prévia 신청</tspan></text>
      <text x="363.7" y="546.8" font-size="11" font-weight="650" fill="#d8f4e8">신청서 2부, 신축 DUAT 또는 기존건축 권원,…</text>
    </g>
  

    <g filter="url(#card-shadow)">
      <rect x="1367.3" y="460.8" width="278" height="98" rx="11" fill="none" stroke="#7c3aed" stroke-width="2.2" stroke-dasharray="7 5"/>
      <rect x="1371.3" y="464.8" width="270" height="90" rx="8" fill="#ffffff" stroke="#b9c7bf" stroke-width="2.3"/>
      <rect x="1371.3" y="464.8" width="6" height="90" rx="3" fill="#b9c7bf"/>
      <text x="1386.3" y="484.8" class="mono" font-size="12.5" font-weight="750" fill="#627169">B02</text>
      <text x="1438.3" y="484.8" font-size="11.5" font-weight="800" fill="#7c3aed">조문 · 사전정보 내부처리</text>
      <rect x="1581.3" y="471.8" width="50" height="24" rx="5" fill="#b9c7bf" opacity="0.14"/>
      <text x="1606.3" y="488.8" text-anchor="middle" font-size="12" font-weight="800" fill="#17231d">후속</text>
      <text x="1386.3" y="521.8" font-size="15.5" font-weight="800" fill="#17231d"><tspan x="1386.3" dy="0">접수·도시화부서 회부</tspan></text>
      <text x="1386.3" y="546.8" font-size="11" font-weight="650" fill="#627169">municipal/district secretariat가 신청…</text>
    </g>
  

    <g filter="url(#card-shadow)">
      <rect x="1367.3" y="760.4" width="278" height="98" rx="11" fill="none" stroke="#7c3aed" stroke-width="2.2" stroke-dasharray="7 5"/>
      <rect x="1371.3" y="764.4" width="270" height="90" rx="8" fill="#fff8e8" stroke="#d9901a" stroke-width="2.3"/>
      <rect x="1371.3" y="764.4" width="6" height="90" rx="3" fill="#d9901a"/>
      <text x="1386.3" y="784.4" class="mono" font-size="12.5" font-weight="750" fill="#a96008">B03</text>
      <text x="1438.3" y="784.4" font-size="11.5" font-weight="800" fill="#7c3aed">조문 · 현장방문·의견작성</text>
      <rect x="1581.3" y="771.4" width="50" height="24" rx="5" fill="#d9901a" opacity="0.14"/>
      <text x="1606.3" y="788.4" text-anchor="middle" font-size="12" font-weight="800" fill="#7a4305">병목</text>
      <text x="1386.3" y="821.4" font-size="15.5" font-weight="800" fill="#7a4305"><tspan x="1386.3" dy="0">필지 현장방문·계획조건 검토</tspan></text>
      <text x="1386.3" y="846.4" font-size="11" font-weight="650" fill="#a96008">기술부서가 대상지를 방문해 위치·경계·현황…</text>
    </g>
  

    <g filter="url(#card-shadow)">
      <rect x="1367.3" y="874.4" width="278" height="98" rx="11" fill="none" stroke="#7c3aed" stroke-width="2.2" stroke-dasharray="7 5"/>
      <rect x="1371.3" y="878.4" width="270" height="90" rx="8" fill="#087452" stroke="#087452" stroke-width="2.3"/>
      <rect x="1371.3" y="878.4" width="6" height="90" rx="3" fill="#087452"/>
      <text x="1386.3" y="898.4" class="mono" font-size="12.5" font-weight="750" fill="#d8f4e8">B04</text>
      <text x="1438.3" y="898.4" font-size="11.5" font-weight="800" fill="#7c3aed">조문 · 사전정보 결정·통지</text>
      <rect x="1581.3" y="885.4" width="50" height="24" rx="5" fill="#ffffff" opacity="0.18"/>
      <text x="1606.3" y="902.4" text-anchor="middle" font-size="12" font-weight="800" fill="#ffffff">핵심</text>
      <text x="1386.3" y="935.4" font-size="15.5" font-weight="800" fill="#ffffff"><tspan x="1386.3" dy="0">사전계획정보 공식회신</tspan></text>
      <text x="1386.3" y="960.4" font-size="11" font-weight="650" fill="#d8f4e8">관할기관이 적용 계획도구와 건축 요구조건을…</text>
    </g>
  

    <g filter="url(#card-shadow)">
      <rect x="856" y="1174" width="278" height="98" rx="11" fill="none" stroke="#7c3aed" stroke-width="2.2" stroke-dasharray="7 5"/>
      <rect x="860" y="1178" width="270" height="90" rx="8" fill="#087452" stroke="#087452" stroke-width="2.3"/>
      <rect x="860" y="1178" width="6" height="90" rx="3" fill="#087452"/>
      <text x="875" y="1198" class="mono" font-size="12.5" font-weight="750" fill="#d8f4e8">B05</text>
      <text x="927" y="1198" font-size="11.5" font-weight="800" fill="#7c3aed">조문 · 건축프로젝트 신청자료</text>
      <rect x="1070" y="1185" width="50" height="24" rx="5" fill="#ffffff" opacity="0.18"/>
      <text x="1095" y="1202" text-anchor="middle" font-size="12" font-weight="800" fill="#ffffff">핵심</text>
      <text x="875" y="1235" font-size="15.5" font-weight="800" fill="#ffffff"><tspan x="875" dy="0">건축프로젝트·책임서 작성</tspan></text>
      <text x="875" y="1260" font-size="11" font-weight="650" fill="#d8f4e8">사전정보 조건에 맞춰 건축프로젝트, 설명서,…</text>
    </g>
  

    <g filter="url(#card-shadow)">
      <rect x="1367.3" y="1231" width="278" height="98" rx="11" fill="none" stroke="#7c3aed" stroke-width="2.2" stroke-dasharray="7 5"/>
      <rect x="1371.3" y="1235" width="270" height="90" rx="8" fill="#087452" stroke="#087452" stroke-width="2.3"/>
      <rect x="1371.3" y="1235" width="6" height="90" rx="3" fill="#087452"/>
      <text x="1386.3" y="1255" class="mono" font-size="12.5" font-weight="750" fill="#d8f4e8">B06</text>
      <text x="1438.3" y="1255" font-size="11.5" font-weight="800" fill="#7c3aed">조문 · 건축프로젝트 기술심사</text>
      <rect x="1581.3" y="1242" width="50" height="24" rx="5" fill="#ffffff" opacity="0.18"/>
      <text x="1606.3" y="1259" text-anchor="middle" font-size="12" font-weight="800" fill="#ffffff">핵심</text>
      <text x="1386.3" y="1292" font-size="15.5" font-weight="800" fill="#ffffff"><tspan x="1386.3" dy="0">건축프로젝트 기술심사·결정</tspan></text>
      <text x="1386.3" y="1317" font-size="11" font-weight="650" fill="#d8f4e8">건축사·물리계획가·기술자가 신청의 장애요소…</text>
    </g>
  

    <g filter="url(#card-shadow)">
      <rect x="856" y="1288" width="278" height="98" rx="11" fill="none" stroke="#7c3aed" stroke-width="2.2" stroke-dasharray="7 5"/>
      <rect x="860" y="1292" width="270" height="90" rx="8" fill="#ffffff" stroke="#b9c7bf" stroke-width="2.3"/>
      <rect x="860" y="1292" width="6" height="90" rx="3" fill="#b9c7bf"/>
      <text x="875" y="1312" class="mono" font-size="12.5" font-weight="750" fill="#627169">B07</text>
      <text x="927" y="1312" font-size="11.5" font-weight="800" fill="#7c3aed">조문 · 프로젝트 심사·보완</text>
      <rect x="1070" y="1299" width="50" height="24" rx="5" fill="#b9c7bf" opacity="0.14"/>
      <text x="1095" y="1316" text-anchor="middle" font-size="12" font-weight="800" fill="#17231d">후속</text>
      <text x="875" y="1349" font-size="15.5" font-weight="800" fill="#17231d"><tspan x="875" dy="0">건축프로젝트 보완·재심</tspan></text>
      <text x="875" y="1374" font-size="11" font-weight="650" fill="#627169">기술심사 지적에 따라 배치·건축·권원자료를…</text>
    </g>
  

    <g filter="url(#card-shadow)">
      <rect x="856" y="1587.6" width="278" height="98" rx="11" fill="none" stroke="#7c3aed" stroke-width="2.2" stroke-dasharray="7 5"/>
      <rect x="860" y="1591.6" width="270" height="90" rx="8" fill="#087452" stroke="#087452" stroke-width="2.3"/>
      <rect x="860" y="1591.6" width="6" height="90" rx="3" fill="#087452"/>
      <text x="875" y="1611.6" class="mono" font-size="12.5" font-weight="750" fill="#d8f4e8">B08</text>
      <text x="927" y="1611.6" font-size="11.5" font-weight="800" fill="#7c3aed">조문 · 보완설계 제출</text>
      <rect x="1070" y="1598.6" width="50" height="24" rx="5" fill="#ffffff" opacity="0.18"/>
      <text x="1095" y="1615.6" text-anchor="middle" font-size="12" font-weight="800" fill="#ffffff">핵심</text>
      <text x="875" y="1648.6" font-size="15.5" font-weight="800" fill="#ffffff"><tspan x="875" dy="0">구조·상하수·설비 보완설계 제출</tspan></text>
      <text x="875" y="1673.6" font-size="11" font-weight="650" fill="#d8f4e8">건축프로젝트 승인통지 후 구조안정, 민간 상…</text>
    </g>
  

    <g filter="url(#card-shadow)">
      <rect x="1367.3" y="1644.6" width="278" height="98" rx="11" fill="none" stroke="#7c3aed" stroke-width="2.2" stroke-dasharray="7 5"/>
      <rect x="1371.3" y="1648.6" width="270" height="90" rx="8" fill="#fff8e8" stroke="#d9901a" stroke-width="2.3"/>
      <rect x="1371.3" y="1648.6" width="6" height="90" rx="3" fill="#d9901a"/>
      <text x="1386.3" y="1668.6" class="mono" font-size="12.5" font-weight="750" fill="#a96008">B09</text>
      <text x="1438.3" y="1668.6" font-size="11.5" font-weight="800" fill="#7c3aed">조문 · 보완설계 일치심사</text>
      <rect x="1581.3" y="1655.6" width="50" height="24" rx="5" fill="#d9901a" opacity="0.14"/>
      <text x="1606.3" y="1672.6" text-anchor="middle" font-size="12" font-weight="800" fill="#7a4305">병목</text>
      <text x="1386.3" y="1705.6" font-size="15.5" font-weight="800" fill="#7a4305"><tspan x="1386.3" dy="0">보완설계 정합성 심사</tspan></text>
      <text x="1386.3" y="1730.6" font-size="11" font-weight="650" fill="#a96008">관할기관이 구조·상하수·설비 설계가 승인 건…</text>
    </g>
  

    <g filter="url(#card-shadow)">
      <rect x="856" y="1701.6" width="278" height="98" rx="11" fill="none" stroke="#7c3aed" stroke-width="2.2" stroke-dasharray="7 5"/>
      <rect x="860" y="1705.6" width="270" height="90" rx="8" fill="#ffffff" stroke="#b9c7bf" stroke-width="2.3"/>
      <rect x="860" y="1705.6" width="6" height="90" rx="3" fill="#b9c7bf"/>
      <text x="875" y="1725.6" class="mono" font-size="12.5" font-weight="750" fill="#627169">B10</text>
      <text x="927" y="1725.6" font-size="11.5" font-weight="800" fill="#7c3aed">조문 · 보완설계 적합화</text>
      <rect x="1070" y="1712.6" width="50" height="24" rx="5" fill="#b9c7bf" opacity="0.14"/>
      <text x="1095" y="1729.6" text-anchor="middle" font-size="12" font-weight="800" fill="#17231d">후속</text>
      <text x="875" y="1762.6" font-size="15.5" font-weight="800" fill="#17231d"><tspan x="875" dy="0">보완설계 수정·재제출</tspan></text>
      <text x="875" y="1787.6" font-size="11" font-weight="650" fill="#627169">구조·상하수·설비 설계의 불일치와 누락을 수…</text>
    </g>
  

    <g filter="url(#card-shadow)">
      <rect x="1367.3" y="2001.2" width="278" height="98" rx="11" fill="none" stroke="#7c3aed" stroke-width="2.2" stroke-dasharray="7 5"/>
      <rect x="1371.3" y="2005.2" width="270" height="90" rx="8" fill="#087452" stroke="#087452" stroke-width="2.3"/>
      <rect x="1371.3" y="2005.2" width="6" height="90" rx="3" fill="#087452"/>
      <text x="1386.3" y="2025.2" class="mono" font-size="12.5" font-weight="750" fill="#d8f4e8">B11</text>
      <text x="1438.3" y="2025.2" font-size="11.5" font-weight="800" fill="#7c3aed">조문 · 건축허가 발급</text>
      <rect x="1581.3" y="2012.2" width="50" height="24" rx="5" fill="#ffffff" opacity="0.18"/>
      <text x="1606.3" y="2029.2" text-anchor="middle" font-size="12" font-weight="800" fill="#ffffff">핵심</text>
      <text x="1386.3" y="2062.2" font-size="15.5" font-weight="800" fill="#ffffff"><tspan x="1386.3" dy="0">건축허가 발급결정·수수료</tspan></text>
      <text x="1386.3" y="2087.2" font-size="11" font-weight="650" fill="#d8f4e8">보완설계가 승인 건축프로젝트와 일치하면 관…</text>
    </g>
  

    <text x="38" y="2245" font-size="16" font-weight="800" fill="#18251e">읽는 법</text>
    <rect x="118" y="2219" width="17" height="17" rx="4" fill="#35a77d"/><text x="144" y="2233" font-size="14.5" fill="#526159">선행</text>
<rect x="216" y="2219" width="17" height="17" rx="4" fill="#087452"/><text x="242" y="2233" font-size="14.5" fill="#526159">핵심</text>
<rect x="314" y="2219" width="17" height="17" rx="4" fill="#d9901a"/><text x="340" y="2233" font-size="14.5" fill="#526159">병목</text>
<rect x="412" y="2219" width="17" height="17" rx="4" fill="#3478db"/><text x="438" y="2233" font-size="14.5" fill="#526159">회귀</text>
    <rect x="500" y="2219" width="17" height="17" rx="4" fill="none" stroke="#7c3aed" stroke-width="2" stroke-dasharray="5 4"/>
    <text x="526" y="2233" font-size="14.5" fill="#526159">조문</text>
    <line x1="648" y1="2237" x2="700" y2="2237" stroke="#53675d" stroke-width="4" marker-end="url(#arrow-sequence)"/>
    <text x="720" y="2243" font-size="15" fill="#526159">절차 순서</text>
    <line x1="860" y1="2237" x2="912" y2="2237" stroke="#0f8a65" stroke-width="4" stroke-dasharray="10 8" marker-end="url(#arrow-message)"/>
    <text x="932" y="2243" font-size="15" fill="#526159">정보 전달</text>
    <line x1="1072" y1="2237" x2="1124" y2="2237" stroke="#3478db" stroke-width="4" stroke-dasharray="10 8" marker-end="url(#arrow-loop)"/>
    <text x="1144" y="2243" font-size="15" fill="#526159">보완 회귀</text>
    <text x="38" y="2291" font-size="15.5" font-weight="650" fill="#56655d">단계는 위→아래, 행위자 묶음은 좌→우로 읽습니다.</text>
    <text x="38" y="2321" font-size="14.5" fill="#68776f">원래 3개 행위자 레인을 3개 레이아웃 묶음으로 배치했으며, 11개 업무와 12개 연결 관계는 유지했습니다.</text>
    <text x="38" y="2361" font-size="13.5" fill="#7b8881">출처: 해당 제도의 법률·시행령·시행규칙 기반 모델 · 실제 사건의 진행 상태나 법률 자문을 의미하지 않습니다.</text>
    
  
</svg>