<svg xmlns="http://www.w3.org/2000/svg" width="1800" height="2400" viewBox="0 0 1800 2400">
<defs>
      <filter id="card-shadow" x="-20%" y="-25%" width="140%" height="160%">
        <feDropShadow dx="0" dy="3" stdDeviation="4" flood-color="#12271e" flood-opacity="0.10"/>
      </filter>
      <marker id="arrow-sequence" markerWidth="17" markerHeight="13" refX="15" refY="6.5" orient="auto" markerUnits="userSpaceOnUse">
    <path d="M1,1 L16,6.5 L1,12 Z" fill="#53675d" stroke="#ffffff" stroke-width="1.3" stroke-linejoin="round"/>
  </marker>
      <marker id="arrow-message" markerWidth="17" markerHeight="13" refX="15" refY="6.5" orient="auto" markerUnits="userSpaceOnUse">
    <path d="M1,1 L16,6.5 L1,12 Z" fill="#0f8a65" stroke="#ffffff" stroke-width="1.3" stroke-linejoin="round"/>
  </marker>
      <marker id="arrow-loop" markerWidth="17" markerHeight="13" refX="15" refY="6.5" orient="auto" markerUnits="userSpaceOnUse">
    <path d="M1,1 L16,6.5 L1,12 Z" fill="#3478db" stroke="#ffffff" stroke-width="1.3" stroke-linejoin="round"/>
  </marker>
      <style>
        text { font-family: -apple-system, "Segoe UI", "Helvetica Neue", Arial, "Apple SD Gothic Neo", "Noto Sans CJK KR", "Noto Sans KR", sans-serif; }
        .mono { font-family: "SFMono-Regular", "Menlo", monospace; }
      </style>
    </defs>
<rect width="1800" height="2400" fill="#ffffff"/>
<rect x="0" y="0" width="1800" height="240" fill="#07150f"/>
<rect x="0" y="0" width="1800" height="9" fill="#18a87b"/>

    <text x="1760" y="45" text-anchor="end" font-size="15" font-weight="700" fill="#8fa299">노드 8 · 레인 3 · 게이트 4</text>
    <text x="40" y="132" font-size="39.8" font-weight="850" fill="#ffffff">미얀마 도시계획·부지규제 — 양곤 YCDC Development Permit</text>
    <text x="40" y="174" font-size="19" font-weight="520" fill="#b7c7bf">토지권리·지역 zoning과 planning/development permit 조건으로 필지 수치·재해·인프라 한계를 먼저 확정한다.</text>
    
  
<rect x="38" y="260" width="1724" height="1940" rx="10" fill="#ffffff" stroke="#b8c7bf" stroke-width="2"/>
<rect x="38" y="260" width="190" height="100" rx="10" fill="#eaf2ee"/>
<text x="58" y="299" font-size="17" font-weight="800" fill="#17231d">단계 ↓</text>
<text x="58" y="332" font-size="15" font-weight="650" fill="#68776f">행위자 묶음 →</text>
<rect x="38" y="360" width="1724" height="460" fill="#84baa9"/>
<rect x="38" y="360" width="190" height="460" fill="#087452"/>
<text x="58" y="392" class="mono" font-size="16" font-weight="800" fill="#ffffff">G0</text>
<text x="58" y="425" font-size="19" font-weight="800" fill="#ffffff"><tspan x="58" dy="0">적용·사전협의</tspan></text>
<rect x="38" y="820" width="1724" height="460" fill="#84baa9"/>
<rect x="38" y="820" width="190" height="460" fill="#087452"/>
<text x="58" y="852" class="mono" font-size="16" font-weight="800" fill="#ffffff">G1</text>
<text x="58" y="885" font-size="19" font-weight="800" fill="#ffffff"><tspan x="58" dy="0">신청·완비</tspan></text>
<rect x="38" y="1280" width="1724" height="460" fill="#fbfcfb"/>
<rect x="38" y="1280" width="190" height="460" fill="#eef3f0"/>
<text x="58" y="1312" class="mono" font-size="16" font-weight="800" fill="#53645b">G2</text>
<text x="58" y="1345" font-size="19" font-weight="800" fill="#53645b"><tspan x="58" dy="0">계획·공중심사</tspan></text>
<rect x="38" y="1740" width="1724" height="460" fill="#f5f8f6"/>
<rect x="38" y="1740" width="190" height="460" fill="#eef3f0"/>
<text x="58" y="1772" class="mono" font-size="16" font-weight="800" fill="#53645b">G3</text>
<text x="58" y="1805" font-size="19" font-weight="800" fill="#53645b"><tspan x="58" dy="0">개발허가 결정</tspan></text>
<rect x="228" y="260" width="511.3" height="100" fill="#f7faf8"/>
<rect x="228" y="260" width="511.3" height="7" fill="#0f9f72"/>
<text x="248" y="299" font-size="20" font-weight="800" fill="#17231d">건축주·신청인</text>
<text x="248" y="329" font-size="13.5" font-weight="600" fill="#68776f"><tspan x="248" dy="0">건축주·신청인</tspan></text>
<rect x="739.3" y="260" width="511.3" height="100" fill="#f7faf8"/>
<rect x="739.3" y="260" width="511.3" height="7" fill="#3b82f6"/>
<text x="759.3" y="299" font-size="20" font-weight="800" fill="#17231d">현지 설계</text>
<text x="759.3" y="329" font-size="13.5" font-weight="600" fill="#68776f"><tspan x="759.3" dy="0">현지 설계·시공 전문가</tspan></text>
<rect x="1250.7" y="260" width="511.3" height="100" fill="#f7faf8"/>
<rect x="1250.7" y="260" width="511.3" height="7" fill="#c78116"/>
<text x="1270.7" y="299" font-size="20" font-weight="800" fill="#17231d">도시계획</text>
<text x="1270.7" y="329" font-size="13.5" font-weight="600" fill="#68776f"><tspan x="1270.7" dy="0">도시계획·건축 허가기관</tspan></text>
<line x1="228" y1="260" x2="228" y2="2200" stroke="#d3dcd7" stroke-width="1.5"/>
<line x1="739.3" y1="260" x2="739.3" y2="2200" stroke="#d3dcd7" stroke-width="1.5"/>
<line x1="1250.7" y1="260" x2="1250.7" y2="2200" stroke="#d3dcd7" stroke-width="1.5"/>
<line x1="1762" y1="260" x2="1762" y2="2200" stroke="#d3dcd7" stroke-width="1.5"/>
<line x1="38" y1="360" x2="1762" y2="360" stroke="#b8c7bf" stroke-width="2"/>
<line x1="38" y1="360" x2="1762" y2="360" stroke="#c8d3cd" stroke-width="1.5"/>
<line x1="38" y1="820" x2="1762" y2="820" stroke="#c8d3cd" stroke-width="1.5"/>
<line x1="38" y1="1280" x2="1762" y2="1280" stroke="#c8d3cd" stroke-width="1.5"/>
<line x1="38" y1="1740" x2="1762" y2="1740" stroke="#c8d3cd" stroke-width="1.5"/>
<line x1="38" y1="2200" x2="1762" y2="2200" stroke="#b8c7bf" stroke-width="2"/>
<path d="M 1518.3 635 V 774 H 493.7 V 643" fill="none" stroke="#ffffff" stroke-width="7.4"  stroke-linecap="round" stroke-linejoin="round" opacity="0.94"/>
<path d="M 1518.3 635 V 774 H 493.7 V 643" fill="none" stroke="#53675d" stroke-width="3.4"  marker-end="url(#arrow-sequence)" stroke-linecap="round" stroke-linejoin="round" opacity="0.96"/>
<path d="M 618.7 583.5 H 832 V 583.5 H 852" fill="none" stroke="#ffffff" stroke-width="7.4"  stroke-linecap="round" stroke-linejoin="round" opacity="0.94"/>
<path d="M 618.7 583.5 H 832 V 583.5 H 852" fill="none" stroke="#53675d" stroke-width="3.4"  marker-end="url(#arrow-sequence)" stroke-linecap="round" stroke-linejoin="round" opacity="0.96"/>
<path d="M 993 635 V 792 H 471.7 V 997" fill="none" stroke="#ffffff" stroke-width="7.4"  stroke-linecap="round" stroke-linejoin="round" opacity="0.94"/>
<path d="M 993 635 V 792 H 471.7 V 997" fill="none" stroke="#53675d" stroke-width="3.4"  marker-end="url(#arrow-sequence)" stroke-linecap="round" stroke-linejoin="round" opacity="0.96"/>
<path d="M 618.7 1063 H 1330.3 V 1042 H 1363.3" fill="none" stroke="#ffffff" stroke-width="7.4"  stroke-linecap="round" stroke-linejoin="round" opacity="0.94"/>
<path d="M 618.7 1063 H 1330.3 V 1042 H 1363.3" fill="none" stroke="#53675d" stroke-width="3.4"  marker-end="url(#arrow-sequence)" stroke-linecap="round" stroke-linejoin="round" opacity="0.96"/>
<path d="M 1532.3 1095 V 1268 H 1512.3 V 1457" fill="none" stroke="#ffffff" stroke-width="7.4"  stroke-linecap="round" stroke-linejoin="round" opacity="0.94"/>
<path d="M 1532.3 1095 V 1268 H 1512.3 V 1457" fill="none" stroke="#53675d" stroke-width="3.4"  marker-end="url(#arrow-sequence)" stroke-linecap="round" stroke-linejoin="round" opacity="0.96"/>
<path d="M 1520.3 1555 V 1712 H 1500.3 V 1917" fill="none" stroke="#ffffff" stroke-width="7.4"  stroke-linecap="round" stroke-linejoin="round" opacity="0.94"/>
<path d="M 1520.3 1555 V 1712 H 1500.3 V 1917" fill="none" stroke="#53675d" stroke-width="3.4"  marker-end="url(#arrow-sequence)" stroke-linecap="round" stroke-linejoin="round" opacity="0.96"/>
<path d="M 1506.3 1095 V 1236 H 489.7 V 1457" fill="none" stroke="#ffffff" stroke-width="7.4" stroke-dasharray="11 8" stroke-linecap="round" stroke-linejoin="round" opacity="0.94"/>
<path d="M 1506.3 1095 V 1236 H 489.7 V 1457" fill="none" stroke="#0f8a65" stroke-width="3.4" stroke-dasharray="11 8" marker-end="url(#arrow-message)" stroke-linecap="round" stroke-linejoin="round" opacity="0.96"/>
<path d="M 1371.3 1499.5 H 646.7 V 1525.5 H 626.7" fill="none" stroke="#ffffff" stroke-width="7.4" stroke-dasharray="11 8" stroke-linecap="round" stroke-linejoin="round" opacity="0.94"/>
<path d="M 1371.3 1499.5 H 646.7 V 1525.5 H 626.7" fill="none" stroke="#0f8a65" stroke-width="3.4" stroke-dasharray="11 8" marker-end="url(#arrow-message)" stroke-linecap="round" stroke-linejoin="round" opacity="0.96"/>
<path d="M 348.7 1497 H 216 V 1260 H 463.7 V 1103" fill="none" stroke="#ffffff" stroke-width="8" stroke-dasharray="10 8" stroke-linecap="round" stroke-linejoin="round" opacity="0.94"/>
<path d="M 348.7 1497 H 216 V 1260 H 463.7 V 1103" fill="none" stroke="#3478db" stroke-width="4" stroke-dasharray="10 8" marker-end="url(#arrow-loop)" stroke-linecap="round" stroke-linejoin="round" opacity="0.96"/>
<rect x="948.6" y="742" width="114.9" height="30" rx="6" fill="#ffffff" stroke="#53675d" stroke-width="1.4"/>
<text x="1006" y="762" text-anchor="middle" font-size="14" font-weight="750" fill="#53675d">적용절차 확정</text>
<rect x="681.9" y="551.5" width="114.9" height="30" rx="6" fill="#ffffff" stroke="#53675d" stroke-width="1.4"/>
<text x="739.3" y="571.5" text-anchor="middle" font-size="14" font-weight="750" fill="#53675d">사전조건 전달</text>
<rect x="674.9" y="760" width="114.9" height="30" rx="6" fill="#ffffff" stroke="#53675d" stroke-width="1.4"/>
<text x="732.3" y="780" text-anchor="middle" font-size="14" font-weight="750" fill="#53675d">지원도서 완성</text>
<rect x="937.6" y="1020.5" width="114.9" height="30" rx="6" fill="#ffffff" stroke="#53675d" stroke-width="1.4"/>
<text x="995" y="1040.5" text-anchor="middle" font-size="14" font-weight="750" fill="#53675d">개발허가 접수</text>
<rect x="1474.3" y="1236" width="96" height="30" rx="6" fill="#ffffff" stroke="#53675d" stroke-width="1.4"/>
<text x="1522.3" y="1256" text-anchor="middle" font-size="14" font-weight="750" fill="#53675d">완비확인</text>
<rect x="1452.9" y="1680" width="114.9" height="30" rx="6" fill="#ffffff" stroke="#53675d" stroke-width="1.4"/>
<text x="1510.3" y="1700" text-anchor="middle" font-size="14" font-weight="750" fill="#53675d">개발기준 적합</text>
<rect x="937.1" y="1204" width="121.9" height="30" rx="6" fill="#ffffff" stroke="#0f8a65" stroke-width="1.4"/>
<text x="998" y="1224" text-anchor="middle" font-size="14" font-weight="750" fill="#0f8a65">완비·자료 보완</text>
<rect x="927.1" y="1480.5" width="135.9" height="30" rx="6" fill="#ffffff" stroke="#0f8a65" stroke-width="1.4"/>
<text x="995" y="1500.5" text-anchor="middle" font-size="14" font-weight="750" fill="#0f8a65">계획·공청회 보완</text>
<rect x="221.6" y="1370" width="128.9" height="30" rx="6" fill="#ffffff" stroke="#3478db" stroke-width="1.4"/>
<text x="286" y="1390" text-anchor="middle" font-size="14" font-weight="750" fill="#3478db">수정신청 재접수</text>

    <g filter="url(#card-shadow)">
      <rect x="1367.3" y="541" width="278" height="98" rx="11" fill="none" stroke="#7c3aed" stroke-width="2.2" stroke-dasharray="7 5"/>
      <rect x="1371.3" y="545" width="270" height="90" rx="8" fill="#087452" stroke="#087452" stroke-width="2.3"/>
      <rect x="1371.3" y="545" width="6" height="90" rx="3" fill="#087452"/>
      <text x="1386.3" y="565" class="mono" font-size="12.5" font-weight="750" fill="#d8f4e8">B01</text>
      <text x="1438.3" y="565" font-size="11.5" font-weight="800" fill="#7c3aed">조문 · YCDC Development Permit Rules 2022</text>
      <rect x="1581.3" y="552" width="50" height="24" rx="5" fill="#ffffff" opacity="0.18"/>
      <text x="1606.3" y="569" text-anchor="middle" font-size="12" font-weight="800" fill="#ffffff">핵심</text>
      <text x="1386.3" y="592" font-size="15.5" font-weight="800" fill="#ffffff"><tspan x="1386.3" dy="0">Development Permit</tspan><tspan x="1386.3" dy="18">대상·절차유형 분류</tspan></text>
      <text x="1386.3" y="627" font-size="11" font-weight="650" fill="#d8f4e8">YCDC가 개발행위 유형·규모와 Appendix 1…</text>
    </g>
  

    <g filter="url(#card-shadow)">
      <rect x="344.7" y="541" width="278" height="98" rx="11" fill="none" stroke="#7c3aed" stroke-width="2.2" stroke-dasharray="7 5"/>
      <rect x="348.7" y="545" width="270" height="90" rx="8" fill="#ffffff" stroke="#b9c7bf" stroke-width="2.3"/>
      <rect x="348.7" y="545" width="6" height="90" rx="3" fill="#b9c7bf"/>
      <text x="363.7" y="565" class="mono" font-size="12.5" font-weight="750" fill="#627169">B02</text>
      <text x="415.7" y="565" font-size="11.5" font-weight="800" fill="#7c3aed">조문 · YCDC Development Permit Rules 2022</text>
      <rect x="558.7" y="552" width="50" height="24" rx="5" fill="#b9c7bf" opacity="0.14"/>
      <text x="583.7" y="569" text-anchor="middle" font-size="12" font-weight="800" fill="#17231d">후속</text>
      <text x="363.7" y="602" font-size="15.5" font-weight="800" fill="#17231d"><tspan x="363.7" dy="0">YCDC 사전협의·계획조건 확인</tspan></text>
      <text x="363.7" y="627" font-size="11" font-weight="650" fill="#627169">신청인이 개발개념·필지자료를 가지고 YCDC…</text>
    </g>
  

    <g filter="url(#card-shadow)">
      <rect x="856" y="541" width="278" height="98" rx="11" fill="none" stroke="#7c3aed" stroke-width="2.2" stroke-dasharray="7 5"/>
      <rect x="860" y="545" width="270" height="90" rx="8" fill="#ffffff" stroke="#b9c7bf" stroke-width="2.3"/>
      <rect x="860" y="545" width="6" height="90" rx="3" fill="#b9c7bf"/>
      <text x="875" y="565" class="mono" font-size="12.5" font-weight="750" fill="#627169">B03</text>
      <text x="927" y="565" font-size="11.5" font-weight="800" fill="#7c3aed">조문 · YCDC Development Permit Rules 2022</text>
      <rect x="1070" y="552" width="50" height="24" rx="5" fill="#b9c7bf" opacity="0.14"/>
      <text x="1095" y="569" text-anchor="middle" font-size="12" font-weight="800" fill="#17231d">후속</text>
      <text x="875" y="592" font-size="15.5" font-weight="800" fill="#17231d"><tspan x="875" dy="0">등록전문가 개발계획·인프라 도서</tspan><tspan x="875" dy="18">작성</tspan></text>
      <text x="875" y="627" font-size="11" font-weight="650" fill="#627169">등록전문가가 필지·토지권리, 개발유형, 배치…</text>
    </g>
  

    <g filter="url(#card-shadow)">
      <rect x="344.7" y="1001" width="278" height="98" rx="11" fill="none" stroke="#7c3aed" stroke-width="2.2" stroke-dasharray="7 5"/>
      <rect x="348.7" y="1005" width="270" height="90" rx="8" fill="#087452" stroke="#087452" stroke-width="2.3"/>
      <rect x="348.7" y="1005" width="6" height="90" rx="3" fill="#087452"/>
      <text x="363.7" y="1025" class="mono" font-size="12.5" font-weight="750" fill="#d8f4e8">B04</text>
      <text x="415.7" y="1025" font-size="11.5" font-weight="800" fill="#7c3aed">조문 · YCDC Development Permit Rules 2022</text>
      <rect x="558.7" y="1012" width="50" height="24" rx="5" fill="#ffffff" opacity="0.18"/>
      <text x="583.7" y="1029" text-anchor="middle" font-size="12" font-weight="800" fill="#ffffff">핵심</text>
      <text x="363.7" y="1062" font-size="15.5" font-weight="800" fill="#ffffff"><tspan x="363.7" dy="0">신청수수료·개발허가 서면신청</tspan></text>
      <text x="363.7" y="1087" font-size="11" font-weight="650" fill="#d8f4e8">개발자가 신청수수료를 납부하고 개발자·토지…</text>
    </g>
  

    <g filter="url(#card-shadow)">
      <rect x="1367.3" y="1001" width="278" height="98" rx="11" fill="none" stroke="#7c3aed" stroke-width="2.2" stroke-dasharray="7 5"/>
      <rect x="1371.3" y="1005" width="270" height="90" rx="8" fill="#fff8e8" stroke="#d9901a" stroke-width="2.3"/>
      <rect x="1371.3" y="1005" width="6" height="90" rx="3" fill="#d9901a"/>
      <text x="1386.3" y="1025" class="mono" font-size="12.5" font-weight="750" fill="#a96008">B05</text>
      <text x="1438.3" y="1025" font-size="11.5" font-weight="800" fill="#7c3aed">조문 · YCDC Development Permit Rules 2022</text>
      <rect x="1581.3" y="1012" width="50" height="24" rx="5" fill="#d9901a" opacity="0.14"/>
      <text x="1606.3" y="1029" text-anchor="middle" font-size="12" font-weight="800" fill="#7a4305">병목</text>
      <text x="1386.3" y="1062" font-size="15.5" font-weight="800" fill="#7a4305"><tspan x="1386.3" dy="0">신규개발 예비검토·완비확인</tspan></text>
      <text x="1386.3" y="1087" font-size="11" font-weight="650" fill="#a96008">YCDC가 신규개발의 신청·도서 완비성과 계획…</text>
    </g>
  

    <g filter="url(#card-shadow)">
      <rect x="1367.3" y="1461" width="278" height="98" rx="11" fill="none" stroke="#7c3aed" stroke-width="2.2" stroke-dasharray="7 5"/>
      <rect x="1371.3" y="1465" width="270" height="90" rx="8" fill="#fff8e8" stroke="#d9901a" stroke-width="2.3"/>
      <rect x="1371.3" y="1465" width="6" height="90" rx="3" fill="#d9901a"/>
      <text x="1386.3" y="1485" class="mono" font-size="12.5" font-weight="750" fill="#a96008">B06</text>
      <text x="1438.3" y="1485" font-size="11.5" font-weight="800" fill="#7c3aed">조문 · YCDC Development Permit Rules 2022</text>
      <rect x="1581.3" y="1472" width="50" height="24" rx="5" fill="#d9901a" opacity="0.14"/>
      <text x="1606.3" y="1489" text-anchor="middle" font-size="12" font-weight="800" fill="#7a4305">병목</text>
      <text x="1386.3" y="1522" font-size="15.5" font-weight="800" fill="#7a4305"><tspan x="1386.3" dy="0">개발기준·인프라·공중심사</tspan></text>
      <text x="1386.3" y="1547" font-size="11" font-weight="650" fill="#a96008">YCDC가 도시계획·zoning·보전·도로·배수·…</text>
    </g>
  

    <g filter="url(#card-shadow)">
      <rect x="344.7" y="1461" width="278" height="98" rx="11" fill="none" stroke="#7c3aed" stroke-width="2.2" stroke-dasharray="7 5"/>
      <rect x="348.7" y="1465" width="270" height="90" rx="8" fill="#ffffff" stroke="#b9c7bf" stroke-width="2.3"/>
      <rect x="348.7" y="1465" width="6" height="90" rx="3" fill="#b9c7bf"/>
      <text x="363.7" y="1485" class="mono" font-size="12.5" font-weight="750" fill="#627169">B07</text>
      <text x="415.7" y="1485" font-size="11.5" font-weight="800" fill="#7c3aed">조문 · YCDC Development Permit Rules 2022</text>
      <rect x="558.7" y="1472" width="50" height="24" rx="5" fill="#b9c7bf" opacity="0.14"/>
      <text x="583.7" y="1489" text-anchor="middle" font-size="12" font-weight="800" fill="#17231d">후속</text>
      <text x="363.7" y="1522" font-size="15.5" font-weight="800" fill="#17231d"><tspan x="363.7" dy="0">누락·개발계획 보완·재신청</tspan></text>
      <text x="363.7" y="1547" font-size="11" font-weight="650" fill="#627169">예비·본심사에서 수정이 요구되면 개발자와…</text>
    </g>
  

    <g filter="url(#card-shadow)">
      <rect x="1367.3" y="1921" width="278" height="98" rx="11" fill="none" stroke="#7c3aed" stroke-width="2.2" stroke-dasharray="7 5"/>
      <rect x="1371.3" y="1925" width="270" height="90" rx="8" fill="#fff8e8" stroke="#d9901a" stroke-width="2.3"/>
      <rect x="1371.3" y="1925" width="6" height="90" rx="3" fill="#d9901a"/>
      <text x="1386.3" y="1945" class="mono" font-size="12.5" font-weight="750" fill="#a96008">B08</text>
      <text x="1438.3" y="1945" font-size="11.5" font-weight="800" fill="#7c3aed">조문 · YCDC Development Permit Rules 2022</text>
      <rect x="1581.3" y="1932" width="50" height="24" rx="5" fill="#d9901a" opacity="0.14"/>
      <text x="1606.3" y="1949" text-anchor="middle" font-size="12" font-weight="800" fill="#7a4305">병목</text>
      <text x="1386.3" y="1982" font-size="15.5" font-weight="800" fill="#7a4305"><tspan x="1386.3" dy="0">30일 내 개발허가·불허 서면결정</tspan></text>
      <text x="1386.3" y="2007" font-size="11" font-weight="650" fill="#a96008">YCDC가 신청을 받은 뒤 30일 이내 허가 또는…</text>
    </g>
  

    <text x="38" y="2245" font-size="16" font-weight="800" fill="#18251e">읽는 법</text>
    <rect x="118" y="2219" width="17" height="17" rx="4" fill="#35a77d"/><text x="144" y="2233" font-size="14.5" fill="#526159">선행</text>
<rect x="216" y="2219" width="17" height="17" rx="4" fill="#087452"/><text x="242" y="2233" font-size="14.5" fill="#526159">핵심</text>
<rect x="314" y="2219" width="17" height="17" rx="4" fill="#d9901a"/><text x="340" y="2233" font-size="14.5" fill="#526159">병목</text>
<rect x="412" y="2219" width="17" height="17" rx="4" fill="#3478db"/><text x="438" y="2233" font-size="14.5" fill="#526159">회귀</text>
    <rect x="500" y="2219" width="17" height="17" rx="4" fill="none" stroke="#7c3aed" stroke-width="2" stroke-dasharray="5 4"/>
    <text x="526" y="2233" font-size="14.5" fill="#526159">조문</text>
    <line x1="648" y1="2237" x2="700" y2="2237" stroke="#53675d" stroke-width="4" marker-end="url(#arrow-sequence)"/>
    <text x="720" y="2243" font-size="15" fill="#526159">절차 순서</text>
    <line x1="860" y1="2237" x2="912" y2="2237" stroke="#0f8a65" stroke-width="4" stroke-dasharray="10 8" marker-end="url(#arrow-message)"/>
    <text x="932" y="2243" font-size="15" fill="#526159">정보 전달</text>
    <line x1="1072" y1="2237" x2="1124" y2="2237" stroke="#3478db" stroke-width="4" stroke-dasharray="10 8" marker-end="url(#arrow-loop)"/>
    <text x="1144" y="2243" font-size="15" fill="#526159">보완 회귀</text>
    <text x="38" y="2291" font-size="15.5" font-weight="650" fill="#56655d">단계는 위→아래, 행위자 묶음은 좌→우로 읽습니다.</text>
    <text x="38" y="2321" font-size="14.5" fill="#68776f">원래 3개 행위자 레인을 3개 레이아웃 묶음으로 배치했으며, 8개 업무와 9개 연결 관계는 유지했습니다.</text>
    <text x="38" y="2361" font-size="13.5" fill="#7b8881">출처: 해당 제도의 법률·시행령·시행규칙 기반 모델 · 실제 사건의 진행 상태나 법률 자문을 의미하지 않습니다.</text>
    
  
</svg>