<svg xmlns="http://www.w3.org/2000/svg" width="1800" height="2400" viewBox="0 0 1800 2400">
<defs>
      <filter id="card-shadow" x="-20%" y="-25%" width="140%" height="160%">
        <feDropShadow dx="0" dy="3" stdDeviation="4" flood-color="#12271e" flood-opacity="0.10"/>
      </filter>
      <marker id="arrow-sequence" markerWidth="17" markerHeight="13" refX="15" refY="6.5" orient="auto" markerUnits="userSpaceOnUse">
    <path d="M1,1 L16,6.5 L1,12 Z" fill="#53675d" stroke="#ffffff" stroke-width="1.3" stroke-linejoin="round"/>
  </marker>
      <marker id="arrow-message" markerWidth="17" markerHeight="13" refX="15" refY="6.5" orient="auto" markerUnits="userSpaceOnUse">
    <path d="M1,1 L16,6.5 L1,12 Z" fill="#0f8a65" stroke="#ffffff" stroke-width="1.3" stroke-linejoin="round"/>
  </marker>
      <marker id="arrow-loop" markerWidth="17" markerHeight="13" refX="15" refY="6.5" orient="auto" markerUnits="userSpaceOnUse">
    <path d="M1,1 L16,6.5 L1,12 Z" fill="#3478db" stroke="#ffffff" stroke-width="1.3" stroke-linejoin="round"/>
  </marker>
      <style>
        text { font-family: -apple-system, "Segoe UI", "Helvetica Neue", Arial, "Apple SD Gothic Neo", "Noto Sans CJK KR", "Noto Sans KR", sans-serif; }
        .mono { font-family: "SFMono-Regular", "Menlo", monospace; }
      </style>
    </defs>
<rect width="1800" height="2400" fill="#ffffff"/>
<rect x="0" y="0" width="1800" height="240" fill="#07150f"/>
<rect x="0" y="0" width="1800" height="9" fill="#18a87b"/>

    <text x="1760" y="45" text-anchor="end" font-size="15" font-weight="700" fill="#8fa299">노드 14 · 레인 4 · 게이트 6</text>
    <text x="40" y="132" font-size="48" font-weight="850" fill="#ffffff">탄자니아 본토 NEMC EIA·LGA 건축허가</text>
    <text x="40" y="174" font-size="19" font-weight="520" fill="#b7c7bf">지방 계획기관의 개발동의·건축허가와 NEMC의 A·B1·B2·특별 범주 환경결정을 선행조건으로 묶는다.</text>
    
  
<rect x="38" y="260" width="1724" height="1940" rx="10" fill="#ffffff" stroke="#b8c7bf" stroke-width="2"/>
<rect x="38" y="260" width="190" height="100" rx="10" fill="#eaf2ee"/>
<text x="58" y="299" font-size="17" font-weight="800" fill="#17231d">단계 ↓</text>
<text x="58" y="332" font-size="15" font-weight="650" fill="#68776f">행위자 묶음 →</text>
<rect x="38" y="360" width="1724" height="249.7" fill="#84baa9"/>
<rect x="38" y="360" width="190" height="249.7" fill="#087452"/>
<text x="58" y="392" class="mono" font-size="16" font-weight="800" fill="#ffffff">S0</text>
<text x="58" y="425" font-size="19" font-weight="800" fill="#ffffff"><tspan x="58" dy="0">NEMC</tspan><tspan x="58" dy="22">등록·분류</tspan></text>
<rect x="38" y="609.7" width="1724" height="363.7" fill="#f5f8f6"/>
<rect x="38" y="609.7" width="190" height="363.7" fill="#eef3f0"/>
<text x="58" y="641.7" class="mono" font-size="16" font-weight="800" fill="#53645b">S1</text>
<text x="58" y="674.7" font-size="19" font-weight="800" fill="#53645b"><tspan x="58" dy="0">Brief·Scoping</tspan></text>
<rect x="38" y="973.3" width="1724" height="249.7" fill="#fbfcfb"/>
<rect x="38" y="973.3" width="190" height="249.7" fill="#eef3f0"/>
<text x="58" y="1005.3" class="mono" font-size="16" font-weight="800" fill="#53645b">S2</text>
<text x="58" y="1038.3" font-size="19" font-weight="800" fill="#53645b"><tspan x="58" dy="0">EIA 작성</tspan></text>
<rect x="38" y="1223" width="1724" height="363.7" fill="#84baa9"/>
<rect x="38" y="1223" width="190" height="363.7" fill="#087452"/>
<text x="58" y="1255" class="mono" font-size="16" font-weight="800" fill="#ffffff">S3</text>
<text x="58" y="1288" font-size="19" font-weight="800" fill="#ffffff"><tspan x="58" dy="0">환경심사·결정</tspan></text>
<rect x="38" y="1586.7" width="1724" height="363.7" fill="#84baa9"/>
<rect x="38" y="1586.7" width="190" height="363.7" fill="#087452"/>
<text x="58" y="1618.7" class="mono" font-size="16" font-weight="800" fill="#ffffff">S4</text>
<text x="58" y="1651.7" font-size="19" font-weight="800" fill="#ffffff"><tspan x="58" dy="0">건축허가 심사</tspan></text>
<rect x="38" y="1950.3" width="1724" height="249.7" fill="#84baa9"/>
<rect x="38" y="1950.3" width="190" height="249.7" fill="#087452"/>
<text x="58" y="1982.3" class="mono" font-size="16" font-weight="800" fill="#ffffff">S5</text>
<text x="58" y="2015.3" font-size="19" font-weight="800" fill="#ffffff"><tspan x="58" dy="0">Form 2 결정</tspan></text>
<rect x="228" y="260" width="383.5" height="100" fill="#f7faf8"/>
<rect x="228" y="260" width="383.5" height="7" fill="#0f9f72"/>
<text x="248" y="299" font-size="20" font-weight="800" fill="#17231d">건축주·신청인</text>
<text x="248" y="329" font-size="13.5" font-weight="600" fill="#68776f"><tspan x="248" dy="0">건축주·신청인</tspan></text>
<rect x="611.5" y="260" width="383.5" height="100" fill="#f7faf8"/>
<rect x="611.5" y="260" width="383.5" height="7" fill="#3b82f6"/>
<text x="631.5" y="299" font-size="20" font-weight="800" fill="#17231d">현지 설계</text>
<text x="631.5" y="329" font-size="13.5" font-weight="600" fill="#68776f"><tspan x="631.5" dy="0">현지 설계·시공 전문가</tspan></text>
<rect x="995" y="260" width="383.5" height="100" fill="#f7faf8"/>
<rect x="995" y="260" width="383.5" height="7" fill="#c78116"/>
<text x="1015" y="299" font-size="20" font-weight="800" fill="#17231d">도시계획</text>
<text x="1015" y="329" font-size="13.5" font-weight="600" fill="#68776f"><tspan x="1015" dy="0">도시계획·건축 허가기관</tspan></text>
<rect x="1378.5" y="260" width="383.5" height="100" fill="#f7faf8"/>
<rect x="1378.5" y="260" width="383.5" height="7" fill="#0891b2"/>
<text x="1398.5" y="299" font-size="20" font-weight="800" fill="#17231d">환경</text>
<text x="1398.5" y="329" font-size="13.5" font-weight="600" fill="#68776f"><tspan x="1398.5" dy="0">환경·소방·검사기관</tspan></text>
<line x1="228" y1="260" x2="228" y2="2200" stroke="#d3dcd7" stroke-width="1.5"/>
<line x1="611.5" y1="260" x2="611.5" y2="2200" stroke="#d3dcd7" stroke-width="1.5"/>
<line x1="995" y1="260" x2="995" y2="2200" stroke="#d3dcd7" stroke-width="1.5"/>
<line x1="1378.5" y1="260" x2="1378.5" y2="2200" stroke="#d3dcd7" stroke-width="1.5"/>
<line x1="1762" y1="260" x2="1762" y2="2200" stroke="#d3dcd7" stroke-width="1.5"/>
<line x1="38" y1="360" x2="1762" y2="360" stroke="#b8c7bf" stroke-width="2"/>
<line x1="38" y1="360" x2="1762" y2="360" stroke="#c8d3cd" stroke-width="1.5"/>
<line x1="38" y1="609.7" x2="1762" y2="609.7" stroke="#c8d3cd" stroke-width="1.5"/>
<line x1="38" y1="973.3" x2="1762" y2="973.3" stroke="#c8d3cd" stroke-width="1.5"/>
<line x1="38" y1="1223" x2="1762" y2="1223" stroke="#c8d3cd" stroke-width="1.5"/>
<line x1="38" y1="1586.7" x2="1762" y2="1586.7" stroke="#c8d3cd" stroke-width="1.5"/>
<line x1="38" y1="1950.3" x2="1762" y2="1950.3" stroke="#c8d3cd" stroke-width="1.5"/>
<line x1="38" y1="2200" x2="1762" y2="2200" stroke="#b8c7bf" stroke-width="2"/>
<path d="M 554.8 484.8 H 1407.3 V 471.8 H 1427.3" fill="none" stroke="#ffffff" stroke-width="7.4"  stroke-linecap="round" stroke-linejoin="round" opacity="0.94"/>
<path d="M 554.8 484.8 H 1407.3 V 471.8 H 1427.3" fill="none" stroke="#53675d" stroke-width="3.4"  marker-end="url(#arrow-sequence)" stroke-linecap="round" stroke-linejoin="round" opacity="0.96"/>
<path d="M 1558.3 529.8 V 581.7 H 807.3 V 681.5" fill="none" stroke="#ffffff" stroke-width="7.4" stroke-dasharray="11 8" stroke-linecap="round" stroke-linejoin="round" opacity="0.94"/>
<path d="M 1558.3 529.8 V 581.7 H 807.3 V 681.5" fill="none" stroke="#0f8a65" stroke-width="3.4" stroke-dasharray="11 8" marker-end="url(#arrow-message)" stroke-linecap="round" stroke-linejoin="round" opacity="0.96"/>
<path d="M 1602.3 529.8 V 565.7 H 964 V 857.5 H 946.3" fill="none" stroke="#ffffff" stroke-width="7.4" stroke-dasharray="11 8" stroke-linecap="round" stroke-linejoin="round" opacity="0.94"/>
<path d="M 1602.3 529.8 V 565.7 H 964 V 857.5 H 946.3" fill="none" stroke="#0f8a65" stroke-width="3.4" stroke-dasharray="11 8" marker-end="url(#arrow-message)" stroke-linecap="round" stroke-linejoin="round" opacity="0.96"/>
<path d="M 938.3 728 H 977 V 961.3 H 797.3 V 1045.2" fill="none" stroke="#ffffff" stroke-width="7.4"  stroke-linecap="round" stroke-linejoin="round" opacity="0.94"/>
<path d="M 938.3 728 H 977 V 961.3 H 797.3 V 1045.2" fill="none" stroke="#53675d" stroke-width="3.4"  marker-end="url(#arrow-sequence)" stroke-linecap="round" stroke-linejoin="round" opacity="0.96"/>
<path d="M 781.3 893.5 V 945.3 H 823.3 V 1045.2" fill="none" stroke="#ffffff" stroke-width="7.4"  stroke-linecap="round" stroke-linejoin="round" opacity="0.94"/>
<path d="M 781.3 893.5 V 945.3 H 823.3 V 1045.2" fill="none" stroke="#53675d" stroke-width="3.4"  marker-end="url(#arrow-sequence)" stroke-linecap="round" stroke-linejoin="round" opacity="0.96"/>
<path d="M 668.3 1085.2 H 582.8 V 1091.7 H 562.8" fill="none" stroke="#ffffff" stroke-width="7.4"  stroke-linecap="round" stroke-linejoin="round" opacity="0.94"/>
<path d="M 668.3 1085.2 H 582.8 V 1091.7 H 562.8" fill="none" stroke="#53675d" stroke-width="3.4"  marker-end="url(#arrow-sequence)" stroke-linecap="round" stroke-linejoin="round" opacity="0.96"/>
<path d="M 417.8 1143.2 V 1195 H 1534.3 V 1294.8" fill="none" stroke="#ffffff" stroke-width="7.4"  stroke-linecap="round" stroke-linejoin="round" opacity="0.94"/>
<path d="M 417.8 1143.2 V 1195 H 1534.3 V 1294.8" fill="none" stroke="#53675d" stroke-width="3.4"  marker-end="url(#arrow-sequence)" stroke-linecap="round" stroke-linejoin="round" opacity="0.96"/>
<path d="M 1588.3 1392.8 V 1408.8 H 1568.3 V 1408.8" fill="none" stroke="#ffffff" stroke-width="7.4"  stroke-linecap="round" stroke-linejoin="round" opacity="0.94"/>
<path d="M 1588.3 1392.8 V 1408.8 H 1568.3 V 1408.8" fill="none" stroke="#53675d" stroke-width="3.4"  marker-end="url(#arrow-sequence)" stroke-linecap="round" stroke-linejoin="round" opacity="0.96"/>
<path d="M 1435.3 1341.3 H 966.3 V 1413.8 H 946.3" fill="none" stroke="#ffffff" stroke-width="7.4" stroke-dasharray="11 8" stroke-linecap="round" stroke-linejoin="round" opacity="0.94"/>
<path d="M 1435.3 1341.3 H 966.3 V 1413.8 H 946.3" fill="none" stroke="#0f8a65" stroke-width="3.4" stroke-dasharray="11 8" marker-end="url(#arrow-message)" stroke-linecap="round" stroke-linejoin="round" opacity="0.96"/>
<path d="M 938.3 1400.8 H 1394.3 V 1359.3 H 1427.3" fill="none" stroke="#ffffff" stroke-width="8" stroke-dasharray="10 8" stroke-linecap="round" stroke-linejoin="round" opacity="0.94"/>
<path d="M 938.3 1400.8 H 1394.3 V 1359.3 H 1427.3" fill="none" stroke="#3478db" stroke-width="4" stroke-dasharray="10 8" marker-end="url(#arrow-loop)" stroke-linecap="round" stroke-linejoin="round" opacity="0.96"/>
<path d="M 1572.3 1506.8 V 1542.7 H 831.3 V 1658.5" fill="none" stroke="#ffffff" stroke-width="7.4"  stroke-linecap="round" stroke-linejoin="round" opacity="0.94"/>
<path d="M 1572.3 1506.8 V 1542.7 H 831.3 V 1658.5" fill="none" stroke="#53675d" stroke-width="3.4"  marker-end="url(#arrow-sequence)" stroke-linecap="round" stroke-linejoin="round" opacity="0.96"/>
<path d="M 668.3 1705 H 582.8 V 1762 H 562.8" fill="none" stroke="#ffffff" stroke-width="7.4"  stroke-linecap="round" stroke-linejoin="round" opacity="0.94"/>
<path d="M 668.3 1705 H 582.8 V 1762 H 562.8" fill="none" stroke="#53675d" stroke-width="3.4"  marker-end="url(#arrow-sequence)" stroke-linecap="round" stroke-linejoin="round" opacity="0.96"/>
<path d="M 417.8 1813.5 V 1920.3 H 1144.8 V 1821.5" fill="none" stroke="#ffffff" stroke-width="7.4"  stroke-linecap="round" stroke-linejoin="round" opacity="0.94"/>
<path d="M 417.8 1813.5 V 1920.3 H 1144.8 V 1821.5" fill="none" stroke="#53675d" stroke-width="3.4"  marker-end="url(#arrow-sequence)" stroke-linecap="round" stroke-linejoin="round" opacity="0.96"/>
<path d="M 1216.8 1813.5 V 1938.3 H 1186.8 V 2022.2" fill="none" stroke="#ffffff" stroke-width="7.4"  stroke-linecap="round" stroke-linejoin="round" opacity="0.94"/>
<path d="M 1216.8 1813.5 V 1938.3 H 1186.8 V 2022.2" fill="none" stroke="#53675d" stroke-width="3.4"  marker-end="url(#arrow-sequence)" stroke-linecap="round" stroke-linejoin="round" opacity="0.96"/>
<path d="M 1051.8 1767 H 992.3 V 1837 H 946.3" fill="none" stroke="#ffffff" stroke-width="7.4" stroke-dasharray="11 8" stroke-linecap="round" stroke-linejoin="round" opacity="0.94"/>
<path d="M 1051.8 1767 H 992.3 V 1837 H 946.3" fill="none" stroke="#0f8a65" stroke-width="3.4" stroke-dasharray="11 8" marker-end="url(#arrow-message)" stroke-linecap="round" stroke-linejoin="round" opacity="0.96"/>
<path d="M 938.3 1826.5 H 984.8 V 1782.5 H 1043.8" fill="none" stroke="#ffffff" stroke-width="8" stroke-dasharray="10 8" stroke-linecap="round" stroke-linejoin="round" opacity="0.94"/>
<path d="M 938.3 1826.5 H 984.8 V 1782.5 H 1043.8" fill="none" stroke="#3478db" stroke-width="4" stroke-dasharray="10 8" marker-end="url(#arrow-loop)" stroke-linecap="round" stroke-linejoin="round" opacity="0.96"/>
<rect x="947" y="446.3" width="96" height="30" rx="6" fill="#ffffff" stroke="#53675d" stroke-width="1.4"/>
<text x="995" y="466.3" text-anchor="middle" font-size="14" font-weight="750" fill="#53675d">환경분류</text>
<rect x="1134.8" y="549.7" width="96" height="30" rx="6" fill="#ffffff" stroke="#0f8a65" stroke-width="1.4"/>
<text x="1182.8" y="569.7" text-anchor="middle" font-size="14" font-weight="750" fill="#0f8a65">B2 Brief</text>
<rect x="1233.2" y="497.7" width="99.8" height="30" rx="6" fill="#ffffff" stroke="#0f8a65" stroke-width="1.4"/>
<text x="1283.1" y="517.7" text-anchor="middle" font-size="14" font-weight="750" fill="#0f8a65">A Scoping</text>
<rect x="747.3" y="929.3" width="96" height="30" rx="6" fill="#ffffff" stroke="#53675d" stroke-width="1.4"/>
<text x="795.3" y="949.3" text-anchor="middle" font-size="14" font-weight="750" fill="#53675d">B2 평가</text>
<rect x="754.3" y="985.3" width="96" height="30" rx="6" fill="#ffffff" stroke="#53675d" stroke-width="1.4"/>
<text x="802.3" y="1005.3" text-anchor="middle" font-size="14" font-weight="750" fill="#53675d">A EIA</text>
<rect x="561.1" y="984.4" width="100.9" height="30" rx="6" fill="#ffffff" stroke="#53675d" stroke-width="1.4"/>
<text x="611.5" y="1004.4" text-anchor="middle" font-size="14" font-weight="750" fill="#53675d">보고서 제출</text>
<rect x="928" y="1163" width="96" height="30" rx="6" fill="#ffffff" stroke="#53675d" stroke-width="1.4"/>
<text x="976" y="1183" text-anchor="middle" font-size="14" font-weight="750" fill="#53675d">환경심사</text>
<rect x="1637.3" y="1245.8" width="96" height="30" rx="6" fill="#ffffff" stroke="#53675d" stroke-width="1.4"/>
<text x="1685.3" y="1265.8" text-anchor="middle" font-size="14" font-weight="750" fill="#53675d">승인권고</text>
<rect x="1138.8" y="1345.6" width="96" height="30" rx="6" fill="#ffffff" stroke="#0f8a65" stroke-width="1.4"/>
<text x="1186.8" y="1365.6" text-anchor="middle" font-size="14" font-weight="750" fill="#0f8a65">환경보완</text>
<rect x="1138.8" y="1384.1" width="96" height="30" rx="6" fill="#ffffff" stroke="#3478db" stroke-width="1.4"/>
<text x="1186.8" y="1404.1" text-anchor="middle" font-size="14" font-weight="750" fill="#3478db">환경 재심</text>
<rect x="1153.8" y="1510.7" width="96" height="30" rx="6" fill="#ffffff" stroke="#53675d" stroke-width="1.4"/>
<text x="1201.8" y="1530.7" text-anchor="middle" font-size="14" font-weight="750" fill="#53675d">환경조건</text>
<rect x="563.5" y="1701.5" width="96" height="30" rx="6" fill="#ffffff" stroke="#53675d" stroke-width="1.4"/>
<text x="611.5" y="1721.5" text-anchor="middle" font-size="14" font-weight="750" fill="#53675d">허가접수</text>
<rect x="733.3" y="1888.3" width="96" height="30" rx="6" fill="#ffffff" stroke="#53675d" stroke-width="1.4"/>
<text x="781.3" y="1908.3" text-anchor="middle" font-size="14" font-weight="750" fill="#53675d">기술심사</text>
<rect x="1153.8" y="1906.3" width="96" height="30" rx="6" fill="#ffffff" stroke="#53675d" stroke-width="1.4"/>
<text x="1201.8" y="1926.3" text-anchor="middle" font-size="14" font-weight="750" fill="#53675d">적합</text>
<rect x="947" y="1770" width="96" height="30" rx="6" fill="#ffffff" stroke="#0f8a65" stroke-width="1.4"/>
<text x="995" y="1790" text-anchor="middle" font-size="14" font-weight="750" fill="#0f8a65">허가보완</text>
<rect x="947" y="1808.5" width="96" height="30" rx="6" fill="#ffffff" stroke="#3478db" stroke-width="1.4"/>
<text x="995" y="1828.5" text-anchor="middle" font-size="14" font-weight="750" fill="#3478db">허가 재심</text>

    <g filter="url(#card-shadow)">
      <rect x="280.8" y="435.8" width="278" height="98" rx="11" fill="none" stroke="#7c3aed" stroke-width="2.2" stroke-dasharray="7 5"/>
      <rect x="284.8" y="439.8" width="270" height="90" rx="8" fill="#087452" stroke="#087452" stroke-width="2.3"/>
      <rect x="284.8" y="439.8" width="6" height="90" rx="3" fill="#087452"/>
      <text x="299.8" y="459.8" class="mono" font-size="12.5" font-weight="750" fill="#d8f4e8">B09</text>
      <text x="351.8" y="459.8" font-size="11.5" font-weight="800" fill="#7c3aed">조문 · 2026 전자등록</text>
      <rect x="494.8" y="446.8" width="50" height="24" rx="5" fill="#ffffff" opacity="0.18"/>
      <text x="519.8" y="463.8" text-anchor="middle" font-size="12" font-weight="800" fill="#ffffff">핵심</text>
      <text x="299.8" y="496.8" font-size="15.5" font-weight="800" fill="#ffffff"><tspan x="299.8" dy="0">NEMC PMS 온라인 등록·수수료</tspan></text>
      <text x="299.8" y="521.8" font-size="11" font-weight="650" fill="#d8f4e8">사업자가 NEMC 전자시스템에 등록양식·사업…</text>
    </g>
  

    <g filter="url(#card-shadow)">
      <rect x="1431.3" y="435.8" width="278" height="98" rx="11" fill="none" stroke="#7c3aed" stroke-width="2.2" stroke-dasharray="7 5"/>
      <rect x="1435.3" y="439.8" width="270" height="90" rx="8" fill="#087452" stroke="#087452" stroke-width="2.3"/>
      <rect x="1435.3" y="439.8" width="6" height="90" rx="3" fill="#087452"/>
      <text x="1450.3" y="459.8" class="mono" font-size="12.5" font-weight="750" fill="#d8f4e8">B10</text>
      <text x="1502.3" y="459.8" font-size="11.5" font-weight="800" fill="#7c3aed">조문 · 4개 범주</text>
      <rect x="1645.3" y="446.8" width="50" height="24" rx="5" fill="#ffffff" opacity="0.18"/>
      <text x="1670.3" y="463.8" text-anchor="middle" font-size="12" font-weight="800" fill="#ffffff">핵심</text>
      <text x="1450.3" y="496.8" font-size="15.5" font-weight="800" fill="#ffffff"><tspan x="1450.3" dy="0">A·B1·B2·Special 공식분류</tspan></text>
      <text x="1450.3" y="521.8" font-size="11" font-weight="650" fill="#d8f4e8">NEMC가 사업특성·규모·입지와 screening…</text>
    </g>
  

    <g filter="url(#card-shadow)">
      <rect x="664.3" y="685.5" width="278" height="98" rx="11" fill="none" stroke="#7c3aed" stroke-width="2.2" stroke-dasharray="7 5"/>
      <rect x="668.3" y="689.5" width="270" height="90" rx="8" fill="#ffffff" stroke="#b9c7bf" stroke-width="2.3"/>
      <rect x="668.3" y="689.5" width="6" height="90" rx="3" fill="#b9c7bf"/>
      <text x="683.3" y="709.5" class="mono" font-size="12.5" font-weight="750" fill="#627169">B11</text>
      <text x="735.3" y="709.5" font-size="11.5" font-weight="800" fill="#7c3aed">조문 · B2 신청</text>
      <rect x="878.3" y="696.5" width="50" height="24" rx="5" fill="#b9c7bf" opacity="0.14"/>
      <text x="903.3" y="713.5" text-anchor="middle" font-size="12" font-weight="800" fill="#17231d">후속</text>
      <text x="683.3" y="746.5" font-size="15.5" font-weight="800" fill="#17231d"><tspan x="683.3" dy="0">B2 Project Brief 작성·제출</tspan></text>
      <text x="683.3" y="771.5" font-size="11" font-weight="650" fill="#627169">B2 사업이면 등록 환경전문가가 건설·운영·폐…</text>
    </g>
  

    <g filter="url(#card-shadow)">
      <rect x="664.3" y="799.5" width="278" height="98" rx="11" fill="none" stroke="#7c3aed" stroke-width="2.2" stroke-dasharray="7 5"/>
      <rect x="668.3" y="803.5" width="270" height="90" rx="8" fill="#ffffff" stroke="#b9c7bf" stroke-width="2.3"/>
      <rect x="668.3" y="803.5" width="6" height="90" rx="3" fill="#b9c7bf"/>
      <text x="683.3" y="823.5" class="mono" font-size="12.5" font-weight="750" fill="#627169">B12</text>
      <text x="735.3" y="823.5" font-size="11.5" font-weight="800" fill="#7c3aed">조문 · Scoping·TOR</text>
      <rect x="878.3" y="810.5" width="50" height="24" rx="5" fill="#b9c7bf" opacity="0.14"/>
      <text x="903.3" y="827.5" text-anchor="middle" font-size="12" font-weight="800" fill="#17231d">후속</text>
      <text x="683.3" y="850.5" font-size="15.5" font-weight="800" fill="#17231d"><tspan x="683.3" dy="0">A 사업 Scoping Report·TOR</tspan><tspan x="683.3" dy="18">승인</tspan></text>
      <text x="683.3" y="885.5" font-size="11" font-weight="650" fill="#627169">A 범주이면 등록 환경전문가가 scoping rep…</text>
    </g>
  

    <g filter="url(#card-shadow)">
      <rect x="664.3" y="1049.2" width="278" height="98" rx="11" fill="none" stroke="#7c3aed" stroke-width="2.2" stroke-dasharray="7 5"/>
      <rect x="668.3" y="1053.2" width="270" height="90" rx="8" fill="#fff8e8" stroke="#d9901a" stroke-width="2.3"/>
      <rect x="668.3" y="1053.2" width="6" height="90" rx="3" fill="#d9901a"/>
      <text x="683.3" y="1073.2" class="mono" font-size="12.5" font-weight="750" fill="#a96008">B13</text>
      <text x="735.3" y="1073.2" font-size="11.5" font-weight="800" fill="#7c3aed">조문 · EIA 수행</text>
      <rect x="878.3" y="1060.2" width="50" height="24" rx="5" fill="#d9901a" opacity="0.14"/>
      <text x="903.3" y="1077.2" text-anchor="middle" font-size="12" font-weight="800" fill="#7a4305">병목</text>
      <text x="683.3" y="1110.2" font-size="15.5" font-weight="800" fill="#7a4305"><tspan x="683.3" dy="0">등록 전문가 EIA·ESMP 작성</tspan></text>
      <text x="683.3" y="1135.2" font-size="11" font-weight="650" fill="#a96008">등록 환경전문가가 승인 TOR에 따라 대안·기…</text>
    </g>
  

    <g filter="url(#card-shadow)">
      <rect x="280.8" y="1049.2" width="278" height="98" rx="11" fill="none" stroke="#7c3aed" stroke-width="2.2" stroke-dasharray="7 5"/>
      <rect x="284.8" y="1053.2" width="270" height="90" rx="8" fill="#ffffff" stroke="#b9c7bf" stroke-width="2.3"/>
      <rect x="284.8" y="1053.2" width="6" height="90" rx="3" fill="#b9c7bf"/>
      <text x="299.8" y="1073.2" class="mono" font-size="12.5" font-weight="750" fill="#627169">B14</text>
      <text x="351.8" y="1073.2" font-size="11.5" font-weight="800" fill="#7c3aed">조문 · 전자 EIA 관리</text>
      <rect x="494.8" y="1060.2" width="50" height="24" rx="5" fill="#b9c7bf" opacity="0.14"/>
      <text x="519.8" y="1077.2" text-anchor="middle" font-size="12" font-weight="800" fill="#17231d">후속</text>
      <text x="299.8" y="1110.2" font-size="15.5" font-weight="800" fill="#17231d"><tspan x="299.8" dy="0">EIA 보고서 전자제출</tspan></text>
      <text x="299.8" y="1135.2" font-size="11" font-weight="650" fill="#627169">사업자가 완성된 EIA·ESMP와 요구 첨부자…</text>
    </g>
  

    <g filter="url(#card-shadow)">
      <rect x="1431.3" y="1298.8" width="278" height="98" rx="11" fill="none" stroke="#7c3aed" stroke-width="2.2" stroke-dasharray="7 5"/>
      <rect x="1435.3" y="1302.8" width="270" height="90" rx="8" fill="#fff8e8" stroke="#d9901a" stroke-width="2.3"/>
      <rect x="1435.3" y="1302.8" width="6" height="90" rx="3" fill="#d9901a"/>
      <text x="1450.3" y="1322.8" class="mono" font-size="12.5" font-weight="750" fill="#a96008">B15</text>
      <text x="1502.3" y="1322.8" font-size="11.5" font-weight="800" fill="#7c3aed">조문 · EIA 심사</text>
      <rect x="1645.3" y="1309.8" width="50" height="24" rx="5" fill="#d9901a" opacity="0.14"/>
      <text x="1670.3" y="1326.8" text-anchor="middle" font-size="12" font-weight="800" fill="#7a4305">병목</text>
      <text x="1450.3" y="1359.8" font-size="15.5" font-weight="800" fill="#7a4305"><tspan x="1450.3" dy="0">NEMC 기술심사·공개참여</tspan></text>
      <text x="1450.3" y="1384.8" font-size="11" font-weight="650" fill="#a96008">NEMC가 보고서의 기술적 적정성과 이해관계…</text>
    </g>
  

    <g filter="url(#card-shadow)">
      <rect x="664.3" y="1355.8" width="278" height="98" rx="11" fill="none" stroke="#7c3aed" stroke-width="2.2" stroke-dasharray="7 5"/>
      <rect x="668.3" y="1359.8" width="270" height="90" rx="8" fill="#ffffff" stroke="#b9c7bf" stroke-width="2.3"/>
      <rect x="668.3" y="1359.8" width="6" height="90" rx="3" fill="#b9c7bf"/>
      <text x="683.3" y="1379.8" class="mono" font-size="12.5" font-weight="750" fill="#627169">B16</text>
      <text x="735.3" y="1379.8" font-size="11.5" font-weight="800" fill="#7c3aed">조문 · 환경심사 보완</text>
      <rect x="878.3" y="1366.8" width="50" height="24" rx="5" fill="#b9c7bf" opacity="0.14"/>
      <text x="903.3" y="1383.8" text-anchor="middle" font-size="12" font-weight="800" fill="#17231d">후속</text>
      <text x="683.3" y="1416.8" font-size="15.5" font-weight="800" fill="#17231d"><tspan x="683.3" dy="0">환경보고서 보완·재심</tspan></text>
      <text x="683.3" y="1441.8" font-size="11" font-weight="650" fill="#627169">NEMC의 기술·공개참여 의견을 반영해 Brie…</text>
    </g>
  

    <g filter="url(#card-shadow)">
      <rect x="1431.3" y="1412.8" width="278" height="98" rx="11" fill="none" stroke="#7c3aed" stroke-width="2.2" stroke-dasharray="7 5"/>
      <rect x="1435.3" y="1416.8" width="270" height="90" rx="8" fill="#087452" stroke="#087452" stroke-width="2.3"/>
      <rect x="1435.3" y="1416.8" width="6" height="90" rx="3" fill="#087452"/>
      <text x="1450.3" y="1436.8" class="mono" font-size="12.5" font-weight="750" fill="#d8f4e8">B17</text>
      <text x="1502.3" y="1436.8" font-size="11.5" font-weight="800" fill="#7c3aed">조문 · EIA Certificate</text>
      <rect x="1645.3" y="1423.8" width="50" height="24" rx="5" fill="#ffffff" opacity="0.18"/>
      <text x="1670.3" y="1440.8" text-anchor="middle" font-size="12" font-weight="800" fill="#ffffff">핵심</text>
      <text x="1450.3" y="1473.8" font-size="15.5" font-weight="800" fill="#ffffff"><tspan x="1450.3" dy="0">EIA Certificate 공식결정</tspan></text>
      <text x="1450.3" y="1498.8" font-size="11" font-weight="650" fill="#d8f4e8">환경심사가 완료되면 관할 환경승인권자가 E…</text>
    </g>
  

    <g filter="url(#card-shadow)">
      <rect x="664.3" y="1662.5" width="278" height="98" rx="11" fill="none" stroke="#7c3aed" stroke-width="2.2" stroke-dasharray="7 5"/>
      <rect x="668.3" y="1666.5" width="270" height="90" rx="8" fill="#ffffff" stroke="#b9c7bf" stroke-width="2.3"/>
      <rect x="668.3" y="1666.5" width="6" height="90" rx="3" fill="#b9c7bf"/>
      <text x="683.3" y="1686.5" class="mono" font-size="12.5" font-weight="750" fill="#627169">B18</text>
      <text x="735.3" y="1686.5" font-size="11.5" font-weight="800" fill="#7c3aed">조문 · 건축허가 도서</text>
      <rect x="878.3" y="1673.5" width="50" height="24" rx="5" fill="#b9c7bf" opacity="0.14"/>
      <text x="903.3" y="1690.5" text-anchor="middle" font-size="12" font-weight="800" fill="#17231d">후속</text>
      <text x="683.3" y="1723.5" font-size="15.5" font-weight="800" fill="#17231d"><tspan x="683.3" dy="0">환경조건 반영 Form 1 도서</tspan></text>
      <text x="683.3" y="1748.5" font-size="11" font-weight="650" fill="#627169">등록 설계자가 EIA 조건을 평면·단면·입면·…</text>
    </g>
  

    <g filter="url(#card-shadow)">
      <rect x="280.8" y="1719.5" width="278" height="98" rx="11" fill="none" stroke="#7c3aed" stroke-width="2.2" stroke-dasharray="7 5"/>
      <rect x="284.8" y="1723.5" width="270" height="90" rx="8" fill="#087452" stroke="#087452" stroke-width="2.3"/>
      <rect x="284.8" y="1723.5" width="6" height="90" rx="3" fill="#087452"/>
      <text x="299.8" y="1743.5" class="mono" font-size="12.5" font-weight="750" fill="#d8f4e8">B19</text>
      <text x="351.8" y="1743.5" font-size="11.5" font-weight="800" fill="#7c3aed">조문 · Form 1 신청</text>
      <rect x="494.8" y="1730.5" width="50" height="24" rx="5" fill="#ffffff" opacity="0.18"/>
      <text x="519.8" y="1747.5" text-anchor="middle" font-size="12" font-weight="800" fill="#ffffff">핵심</text>
      <text x="299.8" y="1780.5" font-size="15.5" font-weight="800" fill="#ffffff"><tspan x="299.8" dy="0">Planning authority 허가접수</tspan></text>
      <text x="299.8" y="1805.5" font-size="11" font-weight="650" fill="#d8f4e8">신청인이 Form 1과 환경승인·전문가 서명도…</text>
    </g>
  

    <g filter="url(#card-shadow)">
      <rect x="1047.8" y="1719.5" width="278" height="98" rx="11" fill="none" stroke="#7c3aed" stroke-width="2.2" stroke-dasharray="7 5"/>
      <rect x="1051.8" y="1723.5" width="270" height="90" rx="8" fill="#fff8e8" stroke="#d9901a" stroke-width="2.3"/>
      <rect x="1051.8" y="1723.5" width="6" height="90" rx="3" fill="#d9901a"/>
      <text x="1066.8" y="1743.5" class="mono" font-size="12.5" font-weight="750" fill="#a96008">B20</text>
      <text x="1118.8" y="1743.5" font-size="11.5" font-weight="800" fill="#7c3aed">조문 · 계획·구조 심사</text>
      <rect x="1261.8" y="1730.5" width="50" height="24" rx="5" fill="#d9901a" opacity="0.14"/>
      <text x="1286.8" y="1747.5" text-anchor="middle" font-size="12" font-weight="800" fill="#7a4305">병목</text>
      <text x="1066.8" y="1780.5" font-size="15.5" font-weight="800" fill="#7a4305"><tspan x="1066.8" dy="0">토지이용·구조·위생 기술심사</tspan></text>
      <text x="1066.8" y="1805.5" font-size="11" font-weight="650" fill="#a96008">registered town planner와 structural…</text>
    </g>
  

    <g filter="url(#card-shadow)">
      <rect x="664.3" y="1776.5" width="278" height="98" rx="11" fill="none" stroke="#7c3aed" stroke-width="2.2" stroke-dasharray="7 5"/>
      <rect x="668.3" y="1780.5" width="270" height="90" rx="8" fill="#ffffff" stroke="#b9c7bf" stroke-width="2.3"/>
      <rect x="668.3" y="1780.5" width="6" height="90" rx="3" fill="#b9c7bf"/>
      <text x="683.3" y="1800.5" class="mono" font-size="12.5" font-weight="750" fill="#627169">B21</text>
      <text x="735.3" y="1800.5" font-size="11.5" font-weight="800" fill="#7c3aed">조문 · 불승인·유보</text>
      <rect x="878.3" y="1787.5" width="50" height="24" rx="5" fill="#b9c7bf" opacity="0.14"/>
      <text x="903.3" y="1804.5" text-anchor="middle" font-size="12" font-weight="800" fill="#17231d">후속</text>
      <text x="683.3" y="1837.5" font-size="15.5" font-weight="800" fill="#17231d"><tspan x="683.3" dy="0">허가도서 보완·재심</tspan></text>
      <text x="683.3" y="1862.5" font-size="11" font-weight="650" fill="#627169">planning authority의 불승인·유보 사유를…</text>
    </g>
  

    <g filter="url(#card-shadow)">
      <rect x="1047.8" y="2026.2" width="278" height="98" rx="11" fill="none" stroke="#7c3aed" stroke-width="2.2" stroke-dasharray="7 5"/>
      <rect x="1051.8" y="2030.2" width="270" height="90" rx="8" fill="#087452" stroke="#087452" stroke-width="2.3"/>
      <rect x="1051.8" y="2030.2" width="6" height="90" rx="3" fill="#087452"/>
      <text x="1066.8" y="2050.2" class="mono" font-size="12.5" font-weight="750" fill="#d8f4e8">B22</text>
      <text x="1118.8" y="2050.2" font-size="11.5" font-weight="800" fill="#7c3aed">조문 · Form 2</text>
      <rect x="1261.8" y="2037.2" width="50" height="24" rx="5" fill="#ffffff" opacity="0.18"/>
      <text x="1286.8" y="2054.2" text-anchor="middle" font-size="12" font-weight="800" fill="#ffffff">핵심</text>
      <text x="1066.8" y="2087.2" font-size="15.5" font-weight="800" fill="#ffffff"><tspan x="1066.8" dy="0">Form 2 Building Permit 결정</tspan></text>
      <text x="1066.8" y="2112.2" font-size="11" font-weight="650" fill="#d8f4e8">structural engineer와 registered town…</text>
    </g>
  

    <text x="38" y="2245" font-size="16" font-weight="800" fill="#18251e">읽는 법</text>
    <rect x="118" y="2219" width="17" height="17" rx="4" fill="#35a77d"/><text x="144" y="2233" font-size="14.5" fill="#526159">선행</text>
<rect x="216" y="2219" width="17" height="17" rx="4" fill="#087452"/><text x="242" y="2233" font-size="14.5" fill="#526159">핵심</text>
<rect x="314" y="2219" width="17" height="17" rx="4" fill="#d9901a"/><text x="340" y="2233" font-size="14.5" fill="#526159">병목</text>
<rect x="412" y="2219" width="17" height="17" rx="4" fill="#3478db"/><text x="438" y="2233" font-size="14.5" fill="#526159">회귀</text>
    <rect x="500" y="2219" width="17" height="17" rx="4" fill="none" stroke="#7c3aed" stroke-width="2" stroke-dasharray="5 4"/>
    <text x="526" y="2233" font-size="14.5" fill="#526159">조문</text>
    <line x1="648" y1="2237" x2="700" y2="2237" stroke="#53675d" stroke-width="4" marker-end="url(#arrow-sequence)"/>
    <text x="720" y="2243" font-size="15" fill="#526159">절차 순서</text>
    <line x1="860" y1="2237" x2="912" y2="2237" stroke="#0f8a65" stroke-width="4" stroke-dasharray="10 8" marker-end="url(#arrow-message)"/>
    <text x="932" y="2243" font-size="15" fill="#526159">정보 전달</text>
    <line x1="1072" y1="2237" x2="1124" y2="2237" stroke="#3478db" stroke-width="4" stroke-dasharray="10 8" marker-end="url(#arrow-loop)"/>
    <text x="1144" y="2243" font-size="15" fill="#526159">보완 회귀</text>
    <text x="38" y="2291" font-size="15.5" font-weight="650" fill="#56655d">단계는 위→아래, 행위자 묶음은 좌→우로 읽습니다.</text>
    <text x="38" y="2321" font-size="14.5" fill="#68776f">원래 4개 행위자 레인을 4개 레이아웃 묶음으로 배치했으며, 14개 업무와 16개 연결 관계는 유지했습니다.</text>
    <text x="38" y="2361" font-size="13.5" fill="#7b8881">출처: 해당 제도의 법률·시행령·시행규칙 기반 모델 · 실제 사건의 진행 상태나 법률 자문을 의미하지 않습니다.</text>
    
  
</svg>