<svg xmlns="http://www.w3.org/2000/svg" width="1800" height="2400" viewBox="0 0 1800 2400">
<defs>
      <filter id="card-shadow" x="-20%" y="-25%" width="140%" height="160%">
        <feDropShadow dx="0" dy="3" stdDeviation="4" flood-color="#12271e" flood-opacity="0.10"/>
      </filter>
      <marker id="arrow-sequence" markerWidth="17" markerHeight="13" refX="15" refY="6.5" orient="auto" markerUnits="userSpaceOnUse">
    <path d="M1,1 L16,6.5 L1,12 Z" fill="#53675d" stroke="#ffffff" stroke-width="1.3" stroke-linejoin="round"/>
  </marker>
      <marker id="arrow-message" markerWidth="17" markerHeight="13" refX="15" refY="6.5" orient="auto" markerUnits="userSpaceOnUse">
    <path d="M1,1 L16,6.5 L1,12 Z" fill="#0f8a65" stroke="#ffffff" stroke-width="1.3" stroke-linejoin="round"/>
  </marker>
      <marker id="arrow-loop" markerWidth="17" markerHeight="13" refX="15" refY="6.5" orient="auto" markerUnits="userSpaceOnUse">
    <path d="M1,1 L16,6.5 L1,12 Z" fill="#3478db" stroke="#ffffff" stroke-width="1.3" stroke-linejoin="round"/>
  </marker>
      <style>
        text { font-family: -apple-system, "Segoe UI", "Helvetica Neue", Arial, "Apple SD Gothic Neo", "Noto Sans CJK KR", "Noto Sans KR", sans-serif; }
        .mono { font-family: "SFMono-Regular", "Menlo", monospace; }
      </style>
    </defs>
<rect width="1800" height="2400" fill="#ffffff"/>
<rect x="0" y="0" width="1800" height="240" fill="#07150f"/>
<rect x="0" y="0" width="1800" height="9" fill="#18a87b"/>

    <text x="1760" y="45" text-anchor="end" font-size="15" font-weight="700" fill="#8fa299">노드 10 · 레인 3 · 게이트 4</text>
    <text x="40" y="132" font-size="36.5" font-weight="850" fill="#ffffff">베트남 기술검사·준공제도 — 시공검수·국가 acceptance inspection</text>
    <text x="40" y="174" font-size="19" font-weight="520" fill="#b7c7bf">자격 있는 설계·감리·시공자, 품질검사와 준공인수·사용조건을 계약 Hold Point로 관리한다.</text>
    
  
<rect x="38" y="260" width="1724" height="1940" rx="10" fill="#ffffff" stroke="#b8c7bf" stroke-width="2"/>
<rect x="38" y="260" width="190" height="100" rx="10" fill="#eaf2ee"/>
<text x="58" y="299" font-size="17" font-weight="800" fill="#17231d">단계 ↓</text>
<text x="58" y="332" font-size="15" font-weight="650" fill="#68776f">행위자 묶음 →</text>
<rect x="38" y="360" width="1724" height="374.5" fill="#84baa9"/>
<rect x="38" y="360" width="190" height="374.5" fill="#087452"/>
<text x="58" y="392" class="mono" font-size="16" font-weight="800" fill="#ffffff">G8</text>
<text x="58" y="425" font-size="19" font-weight="800" fill="#ffffff"><tspan x="58" dy="0">착공·품질관리</tspan></text>
<rect x="38" y="734.5" width="1724" height="602.5" fill="#f5f8f6"/>
<rect x="38" y="734.5" width="190" height="602.5" fill="#eef3f0"/>
<text x="58" y="766.5" class="mono" font-size="16" font-weight="800" fill="#53645b">G9</text>
<text x="58" y="799.5" font-size="19" font-weight="800" fill="#53645b"><tspan x="58" dy="0">공정·단계검수</tspan></text>
<rect x="38" y="1337" width="1724" height="488.5" fill="#84baa9"/>
<rect x="38" y="1337" width="190" height="488.5" fill="#087452"/>
<text x="58" y="1369" class="mono" font-size="16" font-weight="800" fill="#ffffff">G10</text>
<text x="58" y="1402" font-size="19" font-weight="800" fill="#ffffff"><tspan x="58" dy="0">완공·국가검사</tspan></text>
<rect x="38" y="1825.5" width="1724" height="374.5" fill="#f5f8f6"/>
<rect x="38" y="1825.5" width="190" height="374.5" fill="#eef3f0"/>
<text x="58" y="1857.5" class="mono" font-size="16" font-weight="800" fill="#53645b">G11</text>
<text x="58" y="1890.5" font-size="19" font-weight="800" fill="#53645b"><tspan x="58" dy="0">사용결정</tspan></text>
<rect x="228" y="260" width="511.3" height="100" fill="#f7faf8"/>
<rect x="228" y="260" width="511.3" height="7" fill="#0f9f72"/>
<text x="248" y="299" font-size="20" font-weight="800" fill="#17231d">건축주·신청인</text>
<text x="248" y="329" font-size="13.5" font-weight="600" fill="#68776f"><tspan x="248" dy="0">건축주·신청인</tspan></text>
<rect x="739.3" y="260" width="511.3" height="100" fill="#f7faf8"/>
<rect x="739.3" y="260" width="511.3" height="7" fill="#3b82f6"/>
<text x="759.3" y="299" font-size="20" font-weight="800" fill="#17231d">현지 설계</text>
<text x="759.3" y="329" font-size="13.5" font-weight="600" fill="#68776f"><tspan x="759.3" dy="0">현지 설계·시공 전문가</tspan></text>
<rect x="1250.7" y="260" width="511.3" height="100" fill="#f7faf8"/>
<rect x="1250.7" y="260" width="511.3" height="7" fill="#c78116"/>
<text x="1270.7" y="299" font-size="20" font-weight="800" fill="#17231d">환경</text>
<text x="1270.7" y="329" font-size="13.5" font-weight="600" fill="#68776f"><tspan x="1270.7" dy="0">환경·소방·검사기관</tspan></text>
<line x1="228" y1="260" x2="228" y2="2200" stroke="#d3dcd7" stroke-width="1.5"/>
<line x1="739.3" y1="260" x2="739.3" y2="2200" stroke="#d3dcd7" stroke-width="1.5"/>
<line x1="1250.7" y1="260" x2="1250.7" y2="2200" stroke="#d3dcd7" stroke-width="1.5"/>
<line x1="1762" y1="260" x2="1762" y2="2200" stroke="#d3dcd7" stroke-width="1.5"/>
<line x1="38" y1="360" x2="1762" y2="360" stroke="#b8c7bf" stroke-width="2"/>
<line x1="38" y1="360" x2="1762" y2="360" stroke="#c8d3cd" stroke-width="1.5"/>
<line x1="38" y1="734.5" x2="1762" y2="734.5" stroke="#c8d3cd" stroke-width="1.5"/>
<line x1="38" y1="1337" x2="1762" y2="1337" stroke="#c8d3cd" stroke-width="1.5"/>
<line x1="38" y1="1825.5" x2="1762" y2="1825.5" stroke="#c8d3cd" stroke-width="1.5"/>
<line x1="38" y1="2200" x2="1762" y2="2200" stroke="#b8c7bf" stroke-width="2"/>
<path d="M 618.7 547.3 H 832 V 540.8 H 852" fill="none" stroke="#ffffff" stroke-width="7.4"  stroke-linecap="round" stroke-linejoin="round" opacity="0.94"/>
<path d="M 618.7 547.3 H 832 V 540.8 H 852" fill="none" stroke="#53675d" stroke-width="3.4"  marker-end="url(#arrow-sequence)" stroke-linecap="round" stroke-linejoin="round" opacity="0.96"/>
<path d="M 993 592.3 V 706.5 H 959 V 868.8" fill="none" stroke="#ffffff" stroke-width="7.4"  stroke-linecap="round" stroke-linejoin="round" opacity="0.94"/>
<path d="M 993 592.3 V 706.5 H 959 V 868.8" fill="none" stroke="#53675d" stroke-width="3.4"  marker-end="url(#arrow-sequence)" stroke-linecap="round" stroke-linejoin="round" opacity="0.96"/>
<path d="M 999 966.8 V 982.8 H 1009 V 982.8" fill="none" stroke="#ffffff" stroke-width="7.4"  stroke-linecap="round" stroke-linejoin="round" opacity="0.94"/>
<path d="M 999 966.8 V 982.8 H 1009 V 982.8" fill="none" stroke="#53675d" stroke-width="3.4"  marker-end="url(#arrow-sequence)" stroke-linecap="round" stroke-linejoin="round" opacity="0.96"/>
<path d="M 860 1022.8 H 757.3 V 1325 H 487.7 V 1471.3" fill="none" stroke="#ffffff" stroke-width="7.4"  stroke-linecap="round" stroke-linejoin="round" opacity="0.94"/>
<path d="M 860 1022.8 H 757.3 V 1325 H 487.7 V 1471.3" fill="none" stroke="#53675d" stroke-width="3.4"  marker-end="url(#arrow-sequence)" stroke-linecap="round" stroke-linejoin="round" opacity="0.96"/>
<path d="M 1130 920.3 H 1171 V 1154.8 H 1138" fill="none" stroke="#ffffff" stroke-width="7.4" stroke-dasharray="11 8" stroke-linecap="round" stroke-linejoin="round" opacity="0.94"/>
<path d="M 1130 920.3 H 1171 V 1154.8 H 1138" fill="none" stroke="#0f8a65" stroke-width="3.4" stroke-dasharray="11 8" marker-end="url(#arrow-message)" stroke-linecap="round" stroke-linejoin="round" opacity="0.96"/>
<path d="M 1130 1043.3 H 1184 V 1170.3 H 1138" fill="none" stroke="#ffffff" stroke-width="7.4" stroke-dasharray="11 8" stroke-linecap="round" stroke-linejoin="round" opacity="0.94"/>
<path d="M 1130 1043.3 H 1184 V 1170.3 H 1138" fill="none" stroke="#0f8a65" stroke-width="3.4" stroke-dasharray="11 8" marker-end="url(#arrow-message)" stroke-linecap="round" stroke-linejoin="round" opacity="0.96"/>
<path d="M 860 1146.8 H 203 V 951.3 H 852" fill="none" stroke="#ffffff" stroke-width="8" stroke-dasharray="10 8" stroke-linecap="round" stroke-linejoin="round" opacity="0.94"/>
<path d="M 860 1146.8 H 203 V 951.3 H 852" fill="none" stroke="#3478db" stroke-width="4" stroke-dasharray="10 8" marker-end="url(#arrow-loop)" stroke-linecap="round" stroke-linejoin="round" opacity="0.96"/>
<path d="M 473.7 1569.3 V 1585.3" fill="none" stroke="#ffffff" stroke-width="7.4"  stroke-linecap="round" stroke-linejoin="round" opacity="0.94"/>
<path d="M 473.7 1569.3 V 1585.3" fill="none" stroke="#53675d" stroke-width="3.4"  marker-end="url(#arrow-sequence)" stroke-linecap="round" stroke-linejoin="round" opacity="0.96"/>
<path d="M 618.7 1647.3 H 1343.3 V 1566.8 H 1363.3" fill="none" stroke="#ffffff" stroke-width="7.4"  stroke-linecap="round" stroke-linejoin="round" opacity="0.94"/>
<path d="M 618.7 1647.3 H 1343.3 V 1566.8 H 1363.3" fill="none" stroke="#53675d" stroke-width="3.4"  marker-end="url(#arrow-sequence)" stroke-linecap="round" stroke-linejoin="round" opacity="0.96"/>
<path d="M 1524.3 1626.3 V 1765.5 H 1488.3 V 1959.8" fill="none" stroke="#ffffff" stroke-width="7.4"  stroke-linecap="round" stroke-linejoin="round" opacity="0.94"/>
<path d="M 1524.3 1626.3 V 1765.5 H 1488.3 V 1959.8" fill="none" stroke="#53675d" stroke-width="3.4"  marker-end="url(#arrow-sequence)" stroke-linecap="round" stroke-linejoin="round" opacity="0.96"/>
<path d="M 1496.3 1626.3 V 1797.5 H 487.7 V 1959.8" fill="none" stroke="#ffffff" stroke-width="7.4" stroke-dasharray="11 8" stroke-linecap="round" stroke-linejoin="round" opacity="0.94"/>
<path d="M 1496.3 1626.3 V 1797.5 H 487.7 V 1959.8" fill="none" stroke="#0f8a65" stroke-width="3.4" stroke-dasharray="11 8" marker-end="url(#arrow-message)" stroke-linecap="round" stroke-linejoin="round" opacity="0.96"/>
<path d="M 348.7 2006.3 H 203 V 1773.5 H 1510.3 V 1634.3" fill="none" stroke="#ffffff" stroke-width="8" stroke-dasharray="10 8" stroke-linecap="round" stroke-linejoin="round" opacity="0.94"/>
<path d="M 348.7 2006.3 H 203 V 1773.5 H 1510.3 V 1634.3" fill="none" stroke="#3478db" stroke-width="4" stroke-dasharray="10 8" marker-end="url(#arrow-loop)" stroke-linecap="round" stroke-linejoin="round" opacity="0.96"/>
<rect x="691.3" y="512" width="96" height="30" rx="6" fill="#ffffff" stroke="#53675d" stroke-width="1.4"/>
<text x="739.3" y="532" text-anchor="middle" font-size="14" font-weight="750" fill="#53675d">착공통지</text>
<rect x="928" y="674.5" width="96" height="30" rx="6" fill="#ffffff" stroke="#53675d" stroke-width="1.4"/>
<text x="976" y="694.5" text-anchor="middle" font-size="14" font-weight="750" fill="#53675d">작업검수</text>
<rect x="1202" y="963.8" width="96" height="30" rx="6" fill="#ffffff" stroke="#53675d" stroke-width="1.4"/>
<text x="1250" y="983.8" text-anchor="middle" font-size="14" font-weight="750" fill="#53675d">작업 적합</text>
<rect x="683.3" y="1293" width="96" height="30" rx="6" fill="#ffffff" stroke="#53675d" stroke-width="1.4"/>
<text x="731.3" y="1313" text-anchor="middle" font-size="14" font-weight="750" fill="#53675d">공사완료</text>
<rect x="1178.6" y="1022.5" width="100.9" height="30" rx="6" fill="#ffffff" stroke="#0f8a65" stroke-width="1.4"/>
<text x="1229" y="1042.5" text-anchor="middle" font-size="14" font-weight="750" fill="#0f8a65">작업 부적합</text>
<rect x="1191.6" y="1091.8" width="100.9" height="30" rx="6" fill="#ffffff" stroke="#0f8a65" stroke-width="1.4"/>
<text x="1242" y="1111.8" text-anchor="middle" font-size="14" font-weight="750" fill="#0f8a65">단계 부적합</text>
<rect x="191.6" y="1020.8" width="168.8" height="30" rx="6" fill="#ffffff" stroke="#3478db" stroke-width="1.4"/>
<text x="276" y="1040.8" text-anchor="middle" font-size="14" font-weight="750" fill="#3478db">시정·재시험 후 재검수</text>
<rect x="680.8" y="1566.3" width="115.7" height="30" rx="6" fill="#ffffff" stroke="#53675d" stroke-width="1.4"/>
<text x="738.7" y="1586.3" text-anchor="middle" font-size="14" font-weight="750" fill="#53675d">완공 dossier</text>
<rect x="937.6" y="1575" width="114.9" height="30" rx="6" fill="#ffffff" stroke="#53675d" stroke-width="1.4"/>
<text x="995" y="1595" text-anchor="middle" font-size="14" font-weight="750" fill="#53675d">국가검사 대상</text>
<rect x="1458.3" y="1733.5" width="96" height="30" rx="6" fill="#ffffff" stroke="#53675d" stroke-width="1.4"/>
<text x="1506.3" y="1753.5" text-anchor="middle" font-size="14" font-weight="750" fill="#53675d">검사 적합</text>
<rect x="934.6" y="1765.5" width="114.9" height="30" rx="6" fill="#ffffff" stroke="#0f8a65" stroke-width="1.4"/>
<text x="992" y="1785.5" text-anchor="middle" font-size="14" font-weight="750" fill="#0f8a65">국가 지적사항</text>
<rect x="283.1" y="1878.1" width="119.8" height="30" rx="6" fill="#ffffff" stroke="#3478db" stroke-width="1.4"/>
<text x="343" y="1898.1" text-anchor="middle" font-size="14" font-weight="750" fill="#3478db">시정 후 재검사</text>

    <g filter="url(#card-shadow)">
      <rect x="344.7" y="498.3" width="278" height="98" rx="11" fill="none" stroke="#7c3aed" stroke-width="2.2" stroke-dasharray="7 5"/>
      <rect x="348.7" y="502.3" width="270" height="90" rx="8" fill="#087452" stroke="#087452" stroke-width="2.3"/>
      <rect x="348.7" y="502.3" width="6" height="90" rx="3" fill="#087452"/>
      <text x="363.7" y="522.3" class="mono" font-size="12.5" font-weight="750" fill="#d8f4e8">B20</text>
      <text x="415.7" y="522.3" font-size="11.5" font-weight="800" fill="#7c3aed">조문 · 건설법 현행 통합본</text>
      <rect x="558.7" y="509.3" width="50" height="24" rx="5" fill="#ffffff" opacity="0.18"/>
      <text x="583.7" y="526.3" text-anchor="middle" font-size="12" font-weight="800" fill="#ffffff">핵심</text>
      <text x="363.7" y="559.3" font-size="15.5" font-weight="800" fill="#ffffff"><tspan x="363.7" dy="0">착공조건 확인·착공통지·허가공개</tspan></text>
      <text x="363.7" y="584.3" font-size="11" font-weight="650" fill="#d8f4e8">투자자가 토지·건축허가·승인설계·계약자·안…</text>
    </g>
  

    <g filter="url(#card-shadow)">
      <rect x="856" y="498.3" width="278" height="98" rx="11" fill="none" stroke="#7c3aed" stroke-width="2.2" stroke-dasharray="7 5"/>
      <rect x="860" y="502.3" width="270" height="90" rx="8" fill="#ffffff" stroke="#b9c7bf" stroke-width="2.3"/>
      <rect x="860" y="502.3" width="6" height="90" rx="3" fill="#b9c7bf"/>
      <text x="875" y="522.3" class="mono" font-size="12.5" font-weight="750" fill="#627169">B21</text>
      <text x="927" y="522.3" font-size="11.5" font-weight="800" fill="#7c3aed">조문 · Decree 06/2021</text>
      <rect x="1070" y="509.3" width="50" height="24" rx="5" fill="#b9c7bf" opacity="0.14"/>
      <text x="1095" y="526.3" text-anchor="middle" font-size="12" font-weight="800" fill="#17231d">후속</text>
      <text x="875" y="549.3" font-size="15.5" font-weight="800" fill="#17231d"><tspan x="875" dy="0">적격 시공·감리자의 승인설계</tspan><tspan x="875" dy="18">품질관리</tspan></text>
      <text x="875" y="584.3" font-size="11" font-weight="650" fill="#627169">투자자가 적격 시공·감리·시험기관을 선정하…</text>
    </g>
  

    <g filter="url(#card-shadow)">
      <rect x="856" y="872.8" width="278" height="98" rx="11" fill="none" stroke="#7c3aed" stroke-width="2.2" stroke-dasharray="7 5"/>
      <rect x="860" y="876.8" width="270" height="90" rx="8" fill="#fff8e8" stroke="#d9901a" stroke-width="2.3"/>
      <rect x="860" y="876.8" width="6" height="90" rx="3" fill="#d9901a"/>
      <text x="875" y="896.8" class="mono" font-size="12.5" font-weight="750" fill="#a96008">B22</text>
      <text x="927" y="896.8" font-size="11.5" font-weight="800" fill="#7c3aed">조문 · Decree 06/2021</text>
      <rect x="1070" y="883.8" width="50" height="24" rx="5" fill="#d9901a" opacity="0.14"/>
      <text x="1095" y="900.8" text-anchor="middle" font-size="12" font-weight="800" fill="#7a4305">병목</text>
      <text x="875" y="933.8" font-size="15.5" font-weight="800" fill="#7a4305"><tspan x="875" dy="0">건설작업별 검사·acceptance</tspan></text>
      <text x="875" y="958.8" font-size="11" font-weight="650" fill="#a96008">시공자가 자체검사 후 감리·투자자에게 검수…</text>
    </g>
  

    <g filter="url(#card-shadow)">
      <rect x="856" y="986.8" width="278" height="98" rx="11" fill="none" stroke="#7c3aed" stroke-width="2.2" stroke-dasharray="7 5"/>
      <rect x="860" y="990.8" width="270" height="90" rx="8" fill="#ffffff" stroke="#b9c7bf" stroke-width="2.3"/>
      <rect x="860" y="990.8" width="6" height="90" rx="3" fill="#b9c7bf"/>
      <text x="875" y="1010.8" class="mono" font-size="12.5" font-weight="750" fill="#627169">B23</text>
      <text x="927" y="1010.8" font-size="11.5" font-weight="800" fill="#7c3aed">조문 · Decree 06/2021</text>
      <rect x="1070" y="997.8" width="50" height="24" rx="5" fill="#b9c7bf" opacity="0.14"/>
      <text x="1095" y="1014.8" text-anchor="middle" font-size="12" font-weight="800" fill="#17231d">후속</text>
      <text x="875" y="1037.8" font-size="15.5" font-weight="800" fill="#17231d"><tspan x="875" dy="0">단계·부위별 acceptance·다음</tspan><tspan x="875" dy="18">공정 승인</tspan></text>
      <text x="875" y="1072.8" font-size="11" font-weight="650" fill="#627169">설계·시공계획상 중요한 단계와 부위가 완성…</text>
    </g>
  

    <g filter="url(#card-shadow)">
      <rect x="856" y="1100.8" width="278" height="98" rx="11" fill="none" stroke="#7c3aed" stroke-width="2.2" stroke-dasharray="7 5"/>
      <rect x="860" y="1104.8" width="270" height="90" rx="8" fill="#ffffff" stroke="#b9c7bf" stroke-width="2.3"/>
      <rect x="860" y="1104.8" width="6" height="90" rx="3" fill="#b9c7bf"/>
      <text x="875" y="1124.8" class="mono" font-size="12.5" font-weight="750" fill="#627169">B24</text>
      <text x="927" y="1124.8" font-size="11.5" font-weight="800" fill="#7c3aed">조문 · Decree 06/2021</text>
      <rect x="1070" y="1111.8" width="50" height="24" rx="5" fill="#b9c7bf" opacity="0.14"/>
      <text x="1095" y="1128.8" text-anchor="middle" font-size="12" font-weight="800" fill="#17231d">후속</text>
      <text x="875" y="1161.8" font-size="15.5" font-weight="800" fill="#17231d"><tspan x="875" dy="0">부적합공사 거부·시정·재시험</tspan></text>
      <text x="875" y="1186.8" font-size="11" font-weight="650" fill="#627169">승인설계·기술기준·시험요건에 미달하면 감리…</text>
    </g>
  

    <g filter="url(#card-shadow)">
      <rect x="344.7" y="1475.3" width="278" height="98" rx="11" fill="none" stroke="#7c3aed" stroke-width="2.2" stroke-dasharray="7 5"/>
      <rect x="348.7" y="1479.3" width="270" height="90" rx="8" fill="#087452" stroke="#087452" stroke-width="2.3"/>
      <rect x="348.7" y="1479.3" width="6" height="90" rx="3" fill="#087452"/>
      <text x="363.7" y="1499.3" class="mono" font-size="12.5" font-weight="750" fill="#d8f4e8">B25</text>
      <text x="415.7" y="1499.3" font-size="11.5" font-weight="800" fill="#7c3aed">조문 · Decree 06/2021</text>
      <rect x="558.7" y="1486.3" width="50" height="24" rx="5" fill="#ffffff" opacity="0.18"/>
      <text x="583.7" y="1503.3" text-anchor="middle" font-size="12" font-weight="800" fill="#ffffff">핵심</text>
      <text x="363.7" y="1536.3" font-size="15.5" font-weight="800" fill="#ffffff"><tspan x="363.7" dy="0">완공검수·준공 dossier 작성</tspan></text>
      <text x="363.7" y="1561.3" font-size="11" font-weight="650" fill="#d8f4e8">전 공정·시험·시운전과 법정 소방·환경요건을…</text>
    </g>
  

    <g filter="url(#card-shadow)">
      <rect x="344.7" y="1589.3" width="278" height="98" rx="11" fill="none" stroke="#7c3aed" stroke-width="2.2" stroke-dasharray="7 5"/>
      <rect x="348.7" y="1593.3" width="270" height="90" rx="8" fill="#ffffff" stroke="#b9c7bf" stroke-width="2.3"/>
      <rect x="348.7" y="1593.3" width="6" height="90" rx="3" fill="#b9c7bf"/>
      <text x="363.7" y="1613.3" class="mono" font-size="12.5" font-weight="750" fill="#627169">B26</text>
      <text x="415.7" y="1613.3" font-size="11.5" font-weight="800" fill="#7c3aed">조문 · Decree 06/2021</text>
      <rect x="558.7" y="1600.3" width="50" height="24" rx="5" fill="#b9c7bf" opacity="0.14"/>
      <text x="583.7" y="1617.3" text-anchor="middle" font-size="12" font-weight="800" fill="#17231d">후속</text>
      <text x="363.7" y="1650.3" font-size="15.5" font-weight="800" fill="#17231d"><tspan x="363.7" dy="0">대상공사 국가검사 신청·완공보고</tspan></text>
      <text x="363.7" y="1675.3" font-size="11" font-weight="650" fill="#627169">Article 24 대상공사는 투자자가 관할 건설…</text>
    </g>
  

    <g filter="url(#card-shadow)">
      <rect x="1367.3" y="1532.3" width="278" height="98" rx="11" fill="none" stroke="#7c3aed" stroke-width="2.2" stroke-dasharray="7 5"/>
      <rect x="1371.3" y="1536.3" width="270" height="90" rx="8" fill="#fff8e8" stroke="#d9901a" stroke-width="2.3"/>
      <rect x="1371.3" y="1536.3" width="6" height="90" rx="3" fill="#d9901a"/>
      <text x="1386.3" y="1556.3" class="mono" font-size="12.5" font-weight="750" fill="#a96008">B27</text>
      <text x="1438.3" y="1556.3" font-size="11.5" font-weight="800" fill="#7c3aed">조문 · Decree 06/2021</text>
      <rect x="1581.3" y="1543.3" width="50" height="24" rx="5" fill="#d9901a" opacity="0.14"/>
      <text x="1606.3" y="1560.3" text-anchor="middle" font-size="12" font-weight="800" fill="#7a4305">병목</text>
      <text x="1386.3" y="1583.3" font-size="15.5" font-weight="800" fill="#7a4305"><tspan x="1386.3" dy="0">건설전문기관 준공·acceptance</tspan><tspan x="1386.3" dy="18">현장검사</tspan></text>
      <text x="1386.3" y="1618.3" font-size="11" font-weight="650" fill="#a96008">권한 있는 건설전문기관이 품질관리·현장·준…</text>
    </g>
  

    <g filter="url(#card-shadow)">
      <rect x="344.7" y="1963.8" width="278" height="98" rx="11" fill="none" stroke="#7c3aed" stroke-width="2.2" stroke-dasharray="7 5"/>
      <rect x="348.7" y="1967.8" width="270" height="90" rx="8" fill="#ffffff" stroke="#b9c7bf" stroke-width="2.3"/>
      <rect x="348.7" y="1967.8" width="6" height="90" rx="3" fill="#b9c7bf"/>
      <text x="363.7" y="1987.8" class="mono" font-size="12.5" font-weight="750" fill="#627169">B28</text>
      <text x="415.7" y="1987.8" font-size="11.5" font-weight="800" fill="#7c3aed">조문 · Decree 06/2021</text>
      <rect x="558.7" y="1974.8" width="50" height="24" rx="5" fill="#b9c7bf" opacity="0.14"/>
      <text x="583.7" y="1991.8" text-anchor="middle" font-size="12" font-weight="800" fill="#17231d">후속</text>
      <text x="363.7" y="2014.8" font-size="15.5" font-weight="800" fill="#17231d"><tspan x="363.7" dy="0">국가지적·잔여품질사항</tspan><tspan x="363.7" dy="18">시정·재검사</tspan></text>
      <text x="363.7" y="2049.8" font-size="11" font-weight="650" fill="#627169">국가검사 또는 조건부 완공검수가 결함·자료…</text>
    </g>
  

    <g filter="url(#card-shadow)">
      <rect x="1367.3" y="1963.8" width="278" height="98" rx="11" fill="none" stroke="#7c3aed" stroke-width="2.2" stroke-dasharray="7 5"/>
      <rect x="1371.3" y="1967.8" width="270" height="90" rx="8" fill="#fff8e8" stroke="#d9901a" stroke-width="2.3"/>
      <rect x="1371.3" y="1967.8" width="6" height="90" rx="3" fill="#d9901a"/>
      <text x="1386.3" y="1987.8" class="mono" font-size="12.5" font-weight="750" fill="#a96008">B29</text>
      <text x="1438.3" y="1987.8" font-size="11.5" font-weight="800" fill="#7c3aed">조문 · Decree 06/2021</text>
      <rect x="1581.3" y="1974.8" width="50" height="24" rx="5" fill="#d9901a" opacity="0.14"/>
      <text x="1606.3" y="1991.8" text-anchor="middle" font-size="12" font-weight="800" fill="#7a4305">병목</text>
      <text x="1386.3" y="2014.8" font-size="15.5" font-weight="800" fill="#7a4305"><tspan x="1386.3" dy="0">acceptance 검사결과·사용투입</tspan><tspan x="1386.3" dy="18">공식확정</tspan></text>
      <text x="1386.3" y="2049.8" font-size="11" font-weight="650" fill="#a96008">대상공사는 건설전문기관이 acceptance ins…</text>
    </g>
  

    <text x="38" y="2245" font-size="16" font-weight="800" fill="#18251e">읽는 법</text>
    <rect x="118" y="2219" width="17" height="17" rx="4" fill="#35a77d"/><text x="144" y="2233" font-size="14.5" fill="#526159">선행</text>
<rect x="216" y="2219" width="17" height="17" rx="4" fill="#087452"/><text x="242" y="2233" font-size="14.5" fill="#526159">핵심</text>
<rect x="314" y="2219" width="17" height="17" rx="4" fill="#d9901a"/><text x="340" y="2233" font-size="14.5" fill="#526159">병목</text>
<rect x="412" y="2219" width="17" height="17" rx="4" fill="#3478db"/><text x="438" y="2233" font-size="14.5" fill="#526159">회귀</text>
    <rect x="500" y="2219" width="17" height="17" rx="4" fill="none" stroke="#7c3aed" stroke-width="2" stroke-dasharray="5 4"/>
    <text x="526" y="2233" font-size="14.5" fill="#526159">조문</text>
    <line x1="648" y1="2237" x2="700" y2="2237" stroke="#53675d" stroke-width="4" marker-end="url(#arrow-sequence)"/>
    <text x="720" y="2243" font-size="15" fill="#526159">절차 순서</text>
    <line x1="860" y1="2237" x2="912" y2="2237" stroke="#0f8a65" stroke-width="4" stroke-dasharray="10 8" marker-end="url(#arrow-message)"/>
    <text x="932" y="2243" font-size="15" fill="#526159">정보 전달</text>
    <line x1="1072" y1="2237" x2="1124" y2="2237" stroke="#3478db" stroke-width="4" stroke-dasharray="10 8" marker-end="url(#arrow-loop)"/>
    <text x="1144" y="2243" font-size="15" fill="#526159">보완 회귀</text>
    <text x="38" y="2291" font-size="15.5" font-weight="650" fill="#56655d">단계는 위→아래, 행위자 묶음은 좌→우로 읽습니다.</text>
    <text x="38" y="2321" font-size="14.5" fill="#68776f">원래 3개 행위자 레인을 3개 레이아웃 묶음으로 배치했으며, 10개 업무와 12개 연결 관계는 유지했습니다.</text>
    <text x="38" y="2361" font-size="13.5" fill="#7b8881">출처: 해당 제도의 법률·시행령·시행규칙 기반 모델 · 실제 사건의 진행 상태나 법률 자문을 의미하지 않습니다.</text>
    
  
</svg>