<svg xmlns="http://www.w3.org/2000/svg" width="1800" height="2400" viewBox="0 0 1800 2400">
<defs>
      <filter id="card-shadow" x="-20%" y="-25%" width="140%" height="160%">
        <feDropShadow dx="0" dy="3" stdDeviation="4" flood-color="#12271e" flood-opacity="0.10"/>
      </filter>
      <marker id="arrow-sequence" markerWidth="17" markerHeight="13" refX="15" refY="6.5" orient="auto" markerUnits="userSpaceOnUse">
    <path d="M1,1 L16,6.5 L1,12 Z" fill="#53675d" stroke="#ffffff" stroke-width="1.3" stroke-linejoin="round"/>
  </marker>
      <marker id="arrow-message" markerWidth="17" markerHeight="13" refX="15" refY="6.5" orient="auto" markerUnits="userSpaceOnUse">
    <path d="M1,1 L16,6.5 L1,12 Z" fill="#0f8a65" stroke="#ffffff" stroke-width="1.3" stroke-linejoin="round"/>
  </marker>
      <marker id="arrow-loop" markerWidth="17" markerHeight="13" refX="15" refY="6.5" orient="auto" markerUnits="userSpaceOnUse">
    <path d="M1,1 L16,6.5 L1,12 Z" fill="#3478db" stroke="#ffffff" stroke-width="1.3" stroke-linejoin="round"/>
  </marker>
      <style>
        text { font-family: -apple-system, "Segoe UI", "Helvetica Neue", Arial, "Apple SD Gothic Neo", "Noto Sans CJK KR", "Noto Sans KR", sans-serif; }
        .mono { font-family: "SFMono-Regular", "Menlo", monospace; }
      </style>
    </defs>
<rect width="1800" height="2400" fill="#ffffff"/>
<rect x="0" y="0" width="1800" height="240" fill="#07150f"/>
<rect x="0" y="0" width="1800" height="9" fill="#18a87b"/>

    <text x="1760" y="45" text-anchor="end" font-size="15" font-weight="700" fill="#8fa299">노드 7 · 레인 3 · 게이트 4</text>
    <text x="40" y="132" font-size="48" font-weight="850" fill="#ffffff">볼리비아 필지규제·사전적합 확인 — La Paz 사례</text>
    <text x="40" y="174" font-size="19" font-weight="520" fill="#b7c7bf">관할 GAM의 토지이용지도·지적증명과 필지별 cartilla로 용도·형태·높이·주차를 확정한다.</text>
    
  
<rect x="38" y="260" width="1724" height="1940" rx="10" fill="#ffffff" stroke="#b8c7bf" stroke-width="2"/>
<rect x="38" y="260" width="190" height="100" rx="10" fill="#eaf2ee"/>
<text x="58" y="299" font-size="17" font-weight="800" fill="#17231d">단계 ↓</text>
<text x="58" y="332" font-size="15" font-weight="650" fill="#68776f">행위자 묶음 →</text>
<rect x="38" y="360" width="1724" height="460" fill="#84baa9"/>
<rect x="38" y="360" width="190" height="460" fill="#087452"/>
<text x="58" y="392" class="mono" font-size="16" font-weight="800" fill="#ffffff">S1</text>
<text x="58" y="425" font-size="19" font-weight="800" fill="#ffffff"><tspan x="58" dy="0">지적·토지이용규</tspan><tspan x="58" dy="22">정</tspan></text>
<rect x="38" y="820" width="1724" height="460" fill="#f5f8f6"/>
<rect x="38" y="820" width="190" height="460" fill="#eef3f0"/>
<text x="58" y="852" class="mono" font-size="16" font-weight="800" fill="#53645b">S2</text>
<text x="58" y="885" font-size="19" font-weight="800" fill="#53645b"><tspan x="58" dy="0">사전도서·접수</tspan></text>
<rect x="38" y="1280" width="1724" height="460" fill="#fbfcfb"/>
<rect x="38" y="1280" width="190" height="460" fill="#eef3f0"/>
<text x="58" y="1312" class="mono" font-size="16" font-weight="800" fill="#53645b">S3</text>
<text x="58" y="1345" font-size="19" font-weight="800" fill="#53645b"><tspan x="58" dy="0">기술확인·보완</tspan></text>
<rect x="38" y="1740" width="1724" height="460" fill="#84baa9"/>
<rect x="38" y="1740" width="190" height="460" fill="#087452"/>
<text x="58" y="1772" class="mono" font-size="16" font-weight="800" fill="#ffffff">S4</text>
<text x="58" y="1805" font-size="19" font-weight="800" fill="#ffffff"><tspan x="58" dy="0">공식적합결정</tspan></text>
<rect x="228" y="260" width="511.3" height="100" fill="#f7faf8"/>
<rect x="228" y="260" width="511.3" height="7" fill="#0f9f72"/>
<text x="248" y="299" font-size="20" font-weight="800" fill="#17231d">건축주·신청인</text>
<text x="248" y="329" font-size="13.5" font-weight="600" fill="#68776f"><tspan x="248" dy="0">건축주·신청인</tspan></text>
<rect x="739.3" y="260" width="511.3" height="100" fill="#f7faf8"/>
<rect x="739.3" y="260" width="511.3" height="7" fill="#3b82f6"/>
<text x="759.3" y="299" font-size="20" font-weight="800" fill="#17231d">현지 설계</text>
<text x="759.3" y="329" font-size="13.5" font-weight="600" fill="#68776f"><tspan x="759.3" dy="0">현지 설계·시공 전문가</tspan></text>
<rect x="1250.7" y="260" width="511.3" height="100" fill="#f7faf8"/>
<rect x="1250.7" y="260" width="511.3" height="7" fill="#c78116"/>
<text x="1270.7" y="299" font-size="20" font-weight="800" fill="#17231d">도시계획</text>
<text x="1270.7" y="329" font-size="13.5" font-weight="600" fill="#68776f"><tspan x="1270.7" dy="0">도시계획·건축 허가기관</tspan></text>
<line x1="228" y1="260" x2="228" y2="2200" stroke="#d3dcd7" stroke-width="1.5"/>
<line x1="739.3" y1="260" x2="739.3" y2="2200" stroke="#d3dcd7" stroke-width="1.5"/>
<line x1="1250.7" y1="260" x2="1250.7" y2="2200" stroke="#d3dcd7" stroke-width="1.5"/>
<line x1="1762" y1="260" x2="1762" y2="2200" stroke="#d3dcd7" stroke-width="1.5"/>
<line x1="38" y1="360" x2="1762" y2="360" stroke="#b8c7bf" stroke-width="2"/>
<line x1="38" y1="360" x2="1762" y2="360" stroke="#c8d3cd" stroke-width="1.5"/>
<line x1="38" y1="820" x2="1762" y2="820" stroke="#c8d3cd" stroke-width="1.5"/>
<line x1="38" y1="1280" x2="1762" y2="1280" stroke="#c8d3cd" stroke-width="1.5"/>
<line x1="38" y1="1740" x2="1762" y2="1740" stroke="#c8d3cd" stroke-width="1.5"/>
<line x1="38" y1="2200" x2="1762" y2="2200" stroke="#b8c7bf" stroke-width="2"/>
<path d="M 618.7 590 H 1343.3 V 583.5 H 1363.3" fill="none" stroke="#ffffff" stroke-width="7.4"  stroke-linecap="round" stroke-linejoin="round" opacity="0.94"/>
<path d="M 618.7 590 H 1343.3 V 583.5 H 1363.3" fill="none" stroke="#53675d" stroke-width="3.4"  marker-end="url(#arrow-sequence)" stroke-linecap="round" stroke-linejoin="round" opacity="0.96"/>
<path d="M 1504.3 635 V 792 H 993 V 997" fill="none" stroke="#ffffff" stroke-width="7.4"  stroke-linecap="round" stroke-linejoin="round" opacity="0.94"/>
<path d="M 1504.3 635 V 792 H 993 V 997" fill="none" stroke="#53675d" stroke-width="3.4"  marker-end="url(#arrow-sequence)" stroke-linecap="round" stroke-linejoin="round" opacity="0.96"/>
<path d="M 860 1043.5 H 646.7 V 1043.5 H 626.7" fill="none" stroke="#ffffff" stroke-width="7.4"  stroke-linecap="round" stroke-linejoin="round" opacity="0.94"/>
<path d="M 860 1043.5 H 646.7 V 1043.5 H 626.7" fill="none" stroke="#53675d" stroke-width="3.4"  marker-end="url(#arrow-sequence)" stroke-linecap="round" stroke-linejoin="round" opacity="0.96"/>
<path d="M 481.7 1095 V 1252 H 1470.3 V 1457" fill="none" stroke="#ffffff" stroke-width="7.4"  stroke-linecap="round" stroke-linejoin="round" opacity="0.94"/>
<path d="M 481.7 1095 V 1252 H 1470.3 V 1457" fill="none" stroke="#53675d" stroke-width="3.4"  marker-end="url(#arrow-sequence)" stroke-linecap="round" stroke-linejoin="round" opacity="0.96"/>
<path d="M 1548.3 1555 V 1696 H 1512.3 V 1917" fill="none" stroke="#ffffff" stroke-width="7.4"  stroke-linecap="round" stroke-linejoin="round" opacity="0.94"/>
<path d="M 1548.3 1555 V 1696 H 1512.3 V 1917" fill="none" stroke="#53675d" stroke-width="3.4"  marker-end="url(#arrow-sequence)" stroke-linecap="round" stroke-linejoin="round" opacity="0.96"/>
<path d="M 1371.3 1503.5 H 646.7 V 1519 H 626.7" fill="none" stroke="#ffffff" stroke-width="7.4" stroke-dasharray="11 8" stroke-linecap="round" stroke-linejoin="round" opacity="0.94"/>
<path d="M 1371.3 1503.5 H 646.7 V 1519 H 626.7" fill="none" stroke="#0f8a65" stroke-width="3.4" stroke-dasharray="11 8" marker-end="url(#arrow-message)" stroke-linecap="round" stroke-linejoin="round" opacity="0.96"/>
<path d="M 618.7 1506 H 1330.3 V 1521.5 H 1363.3" fill="none" stroke="#ffffff" stroke-width="8" stroke-dasharray="10 8" stroke-linecap="round" stroke-linejoin="round" opacity="0.94"/>
<path d="M 618.7 1506 H 1330.3 V 1521.5 H 1363.3" fill="none" stroke="#3478db" stroke-width="4" stroke-dasharray="10 8" marker-end="url(#arrow-loop)" stroke-linecap="round" stroke-linejoin="round" opacity="0.96"/>
<rect x="947" y="554.8" width="96" height="30" rx="6" fill="#ffffff" stroke="#53675d" stroke-width="1.4"/>
<text x="995" y="574.8" text-anchor="middle" font-size="14" font-weight="750" fill="#53675d">지적·필지</text>
<rect x="1185.8" y="760" width="125.8" height="30" rx="6" fill="#ffffff" stroke="#53675d" stroke-width="1.4"/>
<text x="1248.7" y="780" text-anchor="middle" font-size="14" font-weight="750" fill="#53675d">Cartilla 조건</text>
<rect x="661.2" y="1011.5" width="156.3" height="30" rx="6" fill="#ffffff" stroke="#53675d" stroke-width="1.4"/>
<text x="739.3" y="1031.5" text-anchor="middle" font-size="14" font-weight="750" fill="#53675d">서명 anteproyecto</text>
<rect x="926.4" y="1220" width="99.2" height="30" rx="6" fill="#ffffff" stroke="#53675d" stroke-width="1.4"/>
<text x="976" y="1240" text-anchor="middle" font-size="14" font-weight="750" fill="#53675d">FUAT 접수</text>
<rect x="1482.3" y="1664" width="96" height="30" rx="6" fill="#ffffff" stroke="#53675d" stroke-width="1.4"/>
<text x="1530.3" y="1684" text-anchor="middle" font-size="14" font-weight="750" fill="#53675d">적합</text>
<rect x="935.1" y="1479.3" width="119.8" height="30" rx="6" fill="#ffffff" stroke="#0f8a65" stroke-width="1.4"/>
<text x="995" y="1499.3" text-anchor="middle" font-size="14" font-weight="750" fill="#0f8a65">보완 가능 관찰</text>
<rect x="930.6" y="1517.8" width="128.9" height="30" rx="6" fill="#ffffff" stroke="#3478db" stroke-width="1.4"/>
<text x="995" y="1537.8" text-anchor="middle" font-size="14" font-weight="750" fill="#3478db">수정도서 재검토</text>

    <g filter="url(#card-shadow)">
      <rect x="344.7" y="541" width="278" height="98" rx="11" fill="none" stroke="#7c3aed" stroke-width="2.2" stroke-dasharray="7 5"/>
      <rect x="348.7" y="545" width="270" height="90" rx="8" fill="#087452" stroke="#087452" stroke-width="2.3"/>
      <rect x="348.7" y="545" width="6" height="90" rx="3" fill="#087452"/>
      <text x="363.7" y="565" class="mono" font-size="12.5" font-weight="750" fill="#d8f4e8">B01</text>
      <text x="415.7" y="565" font-size="11.5" font-weight="800" fill="#7c3aed">조문 · GAMLP 건축허가 요구자료</text>
      <rect x="558.7" y="552" width="50" height="24" rx="5" fill="#ffffff" opacity="0.18"/>
      <text x="583.7" y="569" text-anchor="middle" font-size="12" font-weight="800" fill="#ffffff">핵심</text>
      <text x="363.7" y="602" font-size="15.5" font-weight="800" fill="#ffffff"><tspan x="363.7" dy="0">지적증명서·시 도로경계선 확보</tspan></text>
      <text x="363.7" y="627" font-size="11" font-weight="650" fill="#d8f4e8">소유자·대리인이 현행 Certificado de Reg…</text>
    </g>
  

    <g filter="url(#card-shadow)">
      <rect x="1367.3" y="541" width="278" height="98" rx="11" fill="none" stroke="#7c3aed" stroke-width="2.2" stroke-dasharray="7 5"/>
      <rect x="1371.3" y="545" width="270" height="90" rx="8" fill="#fff8e8" stroke="#d9901a" stroke-width="2.3"/>
      <rect x="1371.3" y="545" width="6" height="90" rx="3" fill="#d9901a"/>
      <text x="1386.3" y="565" class="mono" font-size="12.5" font-weight="750" fill="#a96008">B02</text>
      <text x="1438.3" y="565" font-size="11.5" font-weight="800" fill="#7c3aed">조문 · La Paz LUSU 공식지도</text>
      <rect x="1581.3" y="552" width="50" height="24" rx="5" fill="#d9901a" opacity="0.14"/>
      <text x="1606.3" y="569" text-anchor="middle" font-size="12" font-weight="800" fill="#7a4305">병목</text>
      <text x="1386.3" y="592" font-size="15.5" font-weight="800" fill="#7a4305"><tspan x="1386.3" dy="0">토지이용지도·정주유형(Patrón</tspan><tspan x="1386.3" dy="18">de…</tspan></text>
      <text x="1386.3" y="627" font-size="11" font-weight="650" fill="#a96008">GAMLP의 LUSU 지도에서 필지의 토지이용…</text>
    </g>
  

    <g filter="url(#card-shadow)">
      <rect x="856" y="1001" width="278" height="98" rx="11" fill="none" stroke="#7c3aed" stroke-width="2.2" stroke-dasharray="7 5"/>
      <rect x="860" y="1005" width="270" height="90" rx="8" fill="#ffffff" stroke="#b9c7bf" stroke-width="2.3"/>
      <rect x="860" y="1005" width="6" height="90" rx="3" fill="#b9c7bf"/>
      <text x="875" y="1025" class="mono" font-size="12.5" font-weight="750" fill="#627169">B03</text>
      <text x="927" y="1025" font-size="11.5" font-weight="800" fill="#7c3aed">조문 · GAMLP 온라인 허가 요구자료</text>
      <rect x="1070" y="1012" width="50" height="24" rx="5" fill="#b9c7bf" opacity="0.14"/>
      <text x="1095" y="1029" text-anchor="middle" font-size="12" font-weight="800" fill="#17231d">후속</text>
      <text x="875" y="1062" font-size="15.5" font-weight="800" fill="#17231d"><tspan x="875" dy="0">규정집 대조 기본설계 작성</tspan></text>
      <text x="875" y="1087" font-size="11" font-weight="650" fill="#627169">등록 건축사가 Cartilla와 지적경계에 맞춰…</text>
    </g>
  

    <g filter="url(#card-shadow)">
      <rect x="344.7" y="1001" width="278" height="98" rx="11" fill="none" stroke="#7c3aed" stroke-width="2.2" stroke-dasharray="7 5"/>
      <rect x="348.7" y="1005" width="270" height="90" rx="8" fill="#ffffff" stroke="#b9c7bf" stroke-width="2.3"/>
      <rect x="348.7" y="1005" width="6" height="90" rx="3" fill="#b9c7bf"/>
      <text x="363.7" y="1025" class="mono" font-size="12.5" font-weight="750" fill="#627169">B04</text>
      <text x="415.7" y="1025" font-size="11.5" font-weight="800" fill="#7c3aed">조문 · GAMLP 온라인 건축허가</text>
      <rect x="558.7" y="1012" width="50" height="24" rx="5" fill="#b9c7bf" opacity="0.14"/>
      <text x="583.7" y="1029" text-anchor="middle" font-size="12" font-weight="800" fill="#17231d">후속</text>
      <text x="363.7" y="1052" font-size="15.5" font-weight="800" fill="#17231d"><tspan x="363.7" dy="0">통합국토행정서식(FUAT) 온라인</tspan><tspan x="363.7" dy="18">사전접수</tspan></text>
      <text x="363.7" y="1087" font-size="11" font-weight="650" fill="#627169">신청인이 iGob 24/7에 자료를 입력·전송하고…</text>
    </g>
  

    <g filter="url(#card-shadow)">
      <rect x="1367.3" y="1461" width="278" height="98" rx="11" fill="none" stroke="#7c3aed" stroke-width="2.2" stroke-dasharray="7 5"/>
      <rect x="1371.3" y="1465" width="270" height="90" rx="8" fill="#ffffff" stroke="#b9c7bf" stroke-width="2.3"/>
      <rect x="1371.3" y="1465" width="6" height="90" rx="3" fill="#b9c7bf"/>
      <text x="1386.3" y="1485" class="mono" font-size="12.5" font-weight="750" fill="#627169">B05</text>
      <text x="1438.3" y="1485" font-size="11.5" font-weight="800" fill="#7c3aed">조문 · GAMLP 2025 절차</text>
      <rect x="1581.3" y="1472" width="50" height="24" rx="5" fill="#b9c7bf" opacity="0.14"/>
      <text x="1606.3" y="1489" text-anchor="middle" font-size="12" font-weight="800" fill="#17231d">후속</text>
      <text x="1386.3" y="1522" font-size="15.5" font-weight="800" fill="#17231d"><tspan x="1386.3" dy="0">요건·필지·기본설계 사전검증</tspan></text>
      <text x="1386.3" y="1547" font-size="11" font-weight="650" fill="#627169">GAMLP가 지적·권원·LUSU 대조표와 antep…</text>
    </g>
  

    <g filter="url(#card-shadow)">
      <rect x="344.7" y="1461" width="278" height="98" rx="11" fill="none" stroke="#7c3aed" stroke-width="2.2" stroke-dasharray="7 5"/>
      <rect x="348.7" y="1465" width="270" height="90" rx="8" fill="#ffffff" stroke="#b9c7bf" stroke-width="2.3"/>
      <rect x="348.7" y="1465" width="6" height="90" rx="3" fill="#b9c7bf"/>
      <text x="363.7" y="1485" class="mono" font-size="12.5" font-weight="750" fill="#627169">B06</text>
      <text x="415.7" y="1485" font-size="11.5" font-weight="800" fill="#7c3aed">조문 · GAMLP 2025 절차</text>
      <rect x="558.7" y="1472" width="50" height="24" rx="5" fill="#b9c7bf" opacity="0.14"/>
      <text x="583.7" y="1489" text-anchor="middle" font-size="12" font-weight="800" fill="#17231d">후속</text>
      <text x="363.7" y="1522" font-size="15.5" font-weight="800" fill="#17231d"><tspan x="363.7" dy="0">단일 관찰사항 보완·재검토</tspan></text>
      <text x="363.7" y="1547" font-size="11" font-weight="650" fill="#627169">보완 가능한 관찰사항이 한 번에 통지되면 건…</text>
    </g>
  

    <g filter="url(#card-shadow)">
      <rect x="1367.3" y="1921" width="278" height="98" rx="11" fill="none" stroke="#7c3aed" stroke-width="2.2" stroke-dasharray="7 5"/>
      <rect x="1371.3" y="1925" width="270" height="90" rx="8" fill="#087452" stroke="#087452" stroke-width="2.3"/>
      <rect x="1371.3" y="1925" width="6" height="90" rx="3" fill="#087452"/>
      <text x="1386.3" y="1945" class="mono" font-size="12.5" font-weight="750" fill="#d8f4e8">B07</text>
      <text x="1438.3" y="1945" font-size="11.5" font-weight="800" fill="#7c3aed">조문 · GAMLP 신속허가 공식안내</text>
      <rect x="1581.3" y="1932" width="50" height="24" rx="5" fill="#ffffff" opacity="0.18"/>
      <text x="1606.3" y="1949" text-anchor="middle" font-size="12" font-weight="800" fill="#ffffff">핵심</text>
      <text x="1386.3" y="1972" font-size="15.5" font-weight="800" fill="#ffffff"><tspan x="1386.3" dy="0">부지·기본설계</tspan><tspan x="1386.3" dy="18">적격확인(habilitación) 결정</tspan></text>
      <text x="1386.3" y="2007" font-size="11" font-weight="650" fill="#d8f4e8">GAMLP가 LUSU·지적·위험·anteproyecto…</text>
    </g>
  

    <text x="38" y="2245" font-size="16" font-weight="800" fill="#18251e">읽는 법</text>
    <rect x="118" y="2219" width="17" height="17" rx="4" fill="#35a77d"/><text x="144" y="2233" font-size="14.5" fill="#526159">선행</text>
<rect x="216" y="2219" width="17" height="17" rx="4" fill="#087452"/><text x="242" y="2233" font-size="14.5" fill="#526159">핵심</text>
<rect x="314" y="2219" width="17" height="17" rx="4" fill="#d9901a"/><text x="340" y="2233" font-size="14.5" fill="#526159">병목</text>
<rect x="412" y="2219" width="17" height="17" rx="4" fill="#3478db"/><text x="438" y="2233" font-size="14.5" fill="#526159">회귀</text>
    <rect x="500" y="2219" width="17" height="17" rx="4" fill="none" stroke="#7c3aed" stroke-width="2" stroke-dasharray="5 4"/>
    <text x="526" y="2233" font-size="14.5" fill="#526159">조문</text>
    <line x1="648" y1="2237" x2="700" y2="2237" stroke="#53675d" stroke-width="4" marker-end="url(#arrow-sequence)"/>
    <text x="720" y="2243" font-size="15" fill="#526159">절차 순서</text>
    <line x1="860" y1="2237" x2="912" y2="2237" stroke="#0f8a65" stroke-width="4" stroke-dasharray="10 8" marker-end="url(#arrow-message)"/>
    <text x="932" y="2243" font-size="15" fill="#526159">정보 전달</text>
    <line x1="1072" y1="2237" x2="1124" y2="2237" stroke="#3478db" stroke-width="4" stroke-dasharray="10 8" marker-end="url(#arrow-loop)"/>
    <text x="1144" y="2243" font-size="15" fill="#526159">보완 회귀</text>
    <text x="38" y="2291" font-size="15.5" font-weight="650" fill="#56655d">단계는 위→아래, 행위자 묶음은 좌→우로 읽습니다.</text>
    <text x="38" y="2321" font-size="14.5" fill="#68776f">원래 3개 행위자 레인을 3개 레이아웃 묶음으로 배치했으며, 7개 업무와 7개 연결 관계는 유지했습니다.</text>
    <text x="38" y="2361" font-size="13.5" fill="#7b8881">출처: 해당 제도의 법률·시행령·시행규칙 기반 모델 · 실제 사건의 진행 상태나 법률 자문을 의미하지 않습니다.</text>
    
  
</svg>