<svg xmlns="http://www.w3.org/2000/svg" width="1800" height="2400" viewBox="0 0 1800 2400">
<defs>
      <filter id="card-shadow" x="-20%" y="-25%" width="140%" height="160%">
        <feDropShadow dx="0" dy="3" stdDeviation="4" flood-color="#12271e" flood-opacity="0.10"/>
      </filter>
      <marker id="arrow-sequence" markerWidth="17" markerHeight="13" refX="15" refY="6.5" orient="auto" markerUnits="userSpaceOnUse">
    <path d="M1,1 L16,6.5 L1,12 Z" fill="#53675d" stroke="#ffffff" stroke-width="1.3" stroke-linejoin="round"/>
  </marker>
      <marker id="arrow-message" markerWidth="17" markerHeight="13" refX="15" refY="6.5" orient="auto" markerUnits="userSpaceOnUse">
    <path d="M1,1 L16,6.5 L1,12 Z" fill="#0f8a65" stroke="#ffffff" stroke-width="1.3" stroke-linejoin="round"/>
  </marker>
      <marker id="arrow-loop" markerWidth="17" markerHeight="13" refX="15" refY="6.5" orient="auto" markerUnits="userSpaceOnUse">
    <path d="M1,1 L16,6.5 L1,12 Z" fill="#3478db" stroke="#ffffff" stroke-width="1.3" stroke-linejoin="round"/>
  </marker>
      <style>
        text { font-family: -apple-system, "Segoe UI", "Helvetica Neue", Arial, "Apple SD Gothic Neo", "Noto Sans CJK KR", "Noto Sans KR", sans-serif; }
        .mono { font-family: "SFMono-Regular", "Menlo", monospace; }
      </style>
    </defs>
<rect width="1800" height="2400" fill="#ffffff"/>
<rect x="0" y="0" width="1800" height="240" fill="#07150f"/>
<rect x="0" y="0" width="1800" height="9" fill="#18a87b"/>

    <text x="1760" y="45" text-anchor="end" font-size="15" font-weight="700" fill="#8fa299">노드 8 · 레인 4 · 게이트 4</text>
    <text x="40" y="132" font-size="35" font-weight="850" fill="#ffffff">르완다 건축허가관리정보시스템(BPMIS) 필지·도시계획 적합성 심사절차</text>
    <text x="40" y="174" font-size="19" font-weight="520" fill="#b7c7bf">국가·지방 도시계획과 필지 zoning을 BPMIS·OSC에서 확인해 용도·밀도·높이·이격·주차를 확정한다.</text>
    
  
<rect x="38" y="260" width="1724" height="1940" rx="10" fill="#ffffff" stroke="#b8c7bf" stroke-width="2"/>
<rect x="38" y="260" width="190" height="100" rx="10" fill="#eaf2ee"/>
<text x="58" y="299" font-size="17" font-weight="800" fill="#17231d">단계 ↓</text>
<text x="58" y="332" font-size="15" font-weight="650" fill="#68776f">행위자 묶음 →</text>
<rect x="38" y="360" width="1724" height="460" fill="#84baa9"/>
<rect x="38" y="360" width="190" height="460" fill="#087452"/>
<text x="58" y="392" class="mono" font-size="16" font-weight="800" fill="#ffffff">G0</text>
<text x="58" y="425" font-size="19" font-weight="800" fill="#ffffff"><tspan x="58" dy="0">사전계획·도서</tspan></text>
<rect x="38" y="820" width="1724" height="460" fill="#84baa9"/>
<rect x="38" y="820" width="190" height="460" fill="#087452"/>
<text x="58" y="852" class="mono" font-size="16" font-weight="800" fill="#ffffff">G1</text>
<text x="58" y="885" font-size="19" font-weight="800" fill="#ffffff"><tspan x="58" dy="0">BPMIS</tspan><tspan x="58" dy="22">접수·완비</tspan></text>
<rect x="38" y="1280" width="1724" height="460" fill="#fbfcfb"/>
<rect x="38" y="1280" width="190" height="460" fill="#eef3f0"/>
<text x="58" y="1312" class="mono" font-size="16" font-weight="800" fill="#53645b">G2</text>
<text x="58" y="1345" font-size="19" font-weight="800" fill="#53645b"><tspan x="58" dy="0">계획기술심사·보</tspan><tspan x="58" dy="22">완</tspan></text>
<rect x="38" y="1740" width="1724" height="460" fill="#84baa9"/>
<rect x="38" y="1740" width="190" height="460" fill="#087452"/>
<text x="58" y="1772" class="mono" font-size="16" font-weight="800" fill="#ffffff">G3</text>
<text x="58" y="1805" font-size="19" font-weight="800" fill="#ffffff"><tspan x="58" dy="0">RHA</tspan><tspan x="58" dy="22">동의·허가결정</tspan></text>
<rect x="228" y="260" width="383.5" height="100" fill="#f7faf8"/>
<rect x="228" y="260" width="383.5" height="7" fill="#0f9f72"/>
<text x="248" y="299" font-size="20" font-weight="800" fill="#17231d">건축주·신청인</text>
<text x="248" y="329" font-size="13.5" font-weight="600" fill="#68776f"><tspan x="248" dy="0">건축주·신청인</tspan></text>
<rect x="611.5" y="260" width="383.5" height="100" fill="#f7faf8"/>
<rect x="611.5" y="260" width="383.5" height="7" fill="#3b82f6"/>
<text x="631.5" y="299" font-size="20" font-weight="800" fill="#17231d">현지 설계</text>
<text x="631.5" y="329" font-size="13.5" font-weight="600" fill="#68776f"><tspan x="631.5" dy="0">현지 설계·시공 전문가</tspan></text>
<rect x="995" y="260" width="383.5" height="100" fill="#f7faf8"/>
<rect x="995" y="260" width="383.5" height="7" fill="#c78116"/>
<text x="1015" y="299" font-size="20" font-weight="800" fill="#17231d">도시계획</text>
<text x="1015" y="329" font-size="13.5" font-weight="600" fill="#68776f"><tspan x="1015" dy="0">도시계획·건축 허가기관</tspan></text>
<rect x="1378.5" y="260" width="383.5" height="100" fill="#f7faf8"/>
<rect x="1378.5" y="260" width="383.5" height="7" fill="#0891b2"/>
<text x="1398.5" y="299" font-size="20" font-weight="800" fill="#17231d">환경</text>
<text x="1398.5" y="329" font-size="13.5" font-weight="600" fill="#68776f"><tspan x="1398.5" dy="0">환경·소방·검사기관</tspan></text>
<line x1="228" y1="260" x2="228" y2="2200" stroke="#d3dcd7" stroke-width="1.5"/>
<line x1="611.5" y1="260" x2="611.5" y2="2200" stroke="#d3dcd7" stroke-width="1.5"/>
<line x1="995" y1="260" x2="995" y2="2200" stroke="#d3dcd7" stroke-width="1.5"/>
<line x1="1378.5" y1="260" x2="1378.5" y2="2200" stroke="#d3dcd7" stroke-width="1.5"/>
<line x1="1762" y1="260" x2="1762" y2="2200" stroke="#d3dcd7" stroke-width="1.5"/>
<line x1="38" y1="360" x2="1762" y2="360" stroke="#b8c7bf" stroke-width="2"/>
<line x1="38" y1="360" x2="1762" y2="360" stroke="#c8d3cd" stroke-width="1.5"/>
<line x1="38" y1="820" x2="1762" y2="820" stroke="#c8d3cd" stroke-width="1.5"/>
<line x1="38" y1="1280" x2="1762" y2="1280" stroke="#c8d3cd" stroke-width="1.5"/>
<line x1="38" y1="1740" x2="1762" y2="1740" stroke="#c8d3cd" stroke-width="1.5"/>
<line x1="38" y1="2200" x2="1762" y2="2200" stroke="#b8c7bf" stroke-width="2"/>
<path d="M 554.8 590 H 640.3 V 583.5 H 660.3" fill="none" stroke="#ffffff" stroke-width="7.4"  stroke-linecap="round" stroke-linejoin="round" opacity="0.94"/>
<path d="M 554.8 590 H 640.3 V 583.5 H 660.3" fill="none" stroke="#53675d" stroke-width="3.4"  marker-end="url(#arrow-sequence)" stroke-linecap="round" stroke-linejoin="round" opacity="0.96"/>
<path d="M 801.3 635 V 792 H 403.8 V 997" fill="none" stroke="#ffffff" stroke-width="7.4"  stroke-linecap="round" stroke-linejoin="round" opacity="0.94"/>
<path d="M 801.3 635 V 792 H 403.8 V 997" fill="none" stroke="#53675d" stroke-width="3.4"  marker-end="url(#arrow-sequence)" stroke-linecap="round" stroke-linejoin="round" opacity="0.96"/>
<path d="M 554.8 1056.5 H 1023.8 V 1046 H 1043.8" fill="none" stroke="#ffffff" stroke-width="7.4"  stroke-linecap="round" stroke-linejoin="round" opacity="0.94"/>
<path d="M 554.8 1056.5 H 1023.8 V 1046 H 1043.8" fill="none" stroke="#53675d" stroke-width="3.4"  marker-end="url(#arrow-sequence)" stroke-linecap="round" stroke-linejoin="round" opacity="0.96"/>
<path d="M 1184.8 1095 V 1252 H 1186.8 V 1457" fill="none" stroke="#ffffff" stroke-width="7.4"  stroke-linecap="round" stroke-linejoin="round" opacity="0.94"/>
<path d="M 1184.8 1095 V 1252 H 1186.8 V 1457" fill="none" stroke="#53675d" stroke-width="3.4"  marker-end="url(#arrow-sequence)" stroke-linecap="round" stroke-linejoin="round" opacity="0.96"/>
<path d="M 1202.8 1555 V 1680 H 1542.3 V 1917" fill="none" stroke="#ffffff" stroke-width="7.4"  stroke-linecap="round" stroke-linejoin="round" opacity="0.94"/>
<path d="M 1202.8 1555 V 1680 H 1542.3 V 1917" fill="none" stroke="#53675d" stroke-width="3.4"  marker-end="url(#arrow-sequence)" stroke-linecap="round" stroke-linejoin="round" opacity="0.96"/>
<path d="M 1218.8 1555 V 1696 H 1182.8 V 1917" fill="none" stroke="#ffffff" stroke-width="7.4"  stroke-linecap="round" stroke-linejoin="round" opacity="0.94"/>
<path d="M 1218.8 1555 V 1696 H 1182.8 V 1917" fill="none" stroke="#53675d" stroke-width="3.4"  marker-end="url(#arrow-sequence)" stroke-linecap="round" stroke-linejoin="round" opacity="0.96"/>
<path d="M 1051.8 1484 H 966.3 V 1516.5 H 946.3" fill="none" stroke="#ffffff" stroke-width="7.4" stroke-dasharray="11 8" stroke-linecap="round" stroke-linejoin="round" opacity="0.94"/>
<path d="M 1051.8 1484 H 966.3 V 1516.5 H 946.3" fill="none" stroke="#0f8a65" stroke-width="3.4" stroke-dasharray="11 8" marker-end="url(#arrow-message)" stroke-linecap="round" stroke-linejoin="round" opacity="0.96"/>
<path d="M 938.3 1506 H 1010.8 V 1499.5 H 1043.8" fill="none" stroke="#ffffff" stroke-width="8" stroke-dasharray="10 8" stroke-linecap="round" stroke-linejoin="round" opacity="0.94"/>
<path d="M 938.3 1506 H 1010.8 V 1499.5 H 1043.8" fill="none" stroke="#3478db" stroke-width="4" stroke-dasharray="10 8" marker-end="url(#arrow-loop)" stroke-linecap="round" stroke-linejoin="round" opacity="0.96"/>
<path d="M 1435.3 1976.5 H 1349.8 V 1981.5 H 1329.8" fill="none" stroke="#ffffff" stroke-width="7.4"  stroke-linecap="round" stroke-linejoin="round" opacity="0.94"/>
<path d="M 1435.3 1976.5 H 1349.8 V 1981.5 H 1329.8" fill="none" stroke="#53675d" stroke-width="3.4"  marker-end="url(#arrow-sequence)" stroke-linecap="round" stroke-linejoin="round" opacity="0.96"/>
<rect x="554.1" y="482.8" width="114.9" height="30" rx="6" fill="#ffffff" stroke="#53675d" stroke-width="1.4"/>
<text x="611.5" y="502.8" text-anchor="middle" font-size="14" font-weight="750" fill="#53675d">사전의견 반영</text>
<rect x="554.5" y="760" width="96" height="30" rx="6" fill="#ffffff" stroke="#53675d" stroke-width="1.4"/>
<text x="602.5" y="780" text-anchor="middle" font-size="14" font-weight="750" fill="#53675d">전자도서</text>
<rect x="747.3" y="1019.3" width="111.8" height="30" rx="6" fill="#ffffff" stroke="#53675d" stroke-width="1.4"/>
<text x="803.3" y="1039.3" text-anchor="middle" font-size="14" font-weight="750" fill="#53675d">BPMIS 접수</text>
<rect x="1137.8" y="1220" width="96" height="30" rx="6" fill="#ffffff" stroke="#53675d" stroke-width="1.4"/>
<text x="1185.8" y="1240" text-anchor="middle" font-size="14" font-weight="750" fill="#53675d">완비승인</text>
<rect x="1305.5" y="1648" width="133.9" height="30" rx="6" fill="#ffffff" stroke="#53675d" stroke-width="1.4"/>
<text x="1372.5" y="1668" text-anchor="middle" font-size="14" font-weight="750" fill="#53675d">등급 4·5 해당 시</text>
<rect x="1152.8" y="1664" width="96" height="30" rx="6" fill="#ffffff" stroke="#53675d" stroke-width="1.4"/>
<text x="1200.8" y="1684" text-anchor="middle" font-size="14" font-weight="750" fill="#53675d">일반 등급</text>
<rect x="944.6" y="1396.3" width="100.9" height="30" rx="6" fill="#ffffff" stroke="#0f8a65" stroke-width="1.4"/>
<text x="995" y="1416.3" text-anchor="middle" font-size="14" font-weight="750" fill="#0f8a65">수정의견 시</text>
<rect x="937.6" y="1578.8" width="114.9" height="30" rx="6" fill="#ffffff" stroke="#3478db" stroke-width="1.4"/>
<text x="995" y="1598.8" text-anchor="middle" font-size="14" font-weight="750" fill="#3478db">수정안 재평가</text>
<rect x="1303.5" y="1875" width="150" height="30" rx="6" fill="#ffffff" stroke="#53675d" stroke-width="1.4"/>
<text x="1378.5" y="1895" text-anchor="middle" font-size="14" font-weight="750" fill="#53675d">RHA 이의없음 확인</text>

    <g filter="url(#card-shadow)">
      <rect x="280.8" y="541" width="278" height="98" rx="11" fill="none" stroke="#7c3aed" stroke-width="2.2" stroke-dasharray="7 5"/>
      <rect x="284.8" y="545" width="270" height="90" rx="8" fill="#ffffff" stroke="#b9c7bf" stroke-width="2.3"/>
      <rect x="284.8" y="545" width="6" height="90" rx="3" fill="#b9c7bf"/>
      <text x="299.8" y="565" class="mono" font-size="12.5" font-weight="750" fill="#627169">B01</text>
      <text x="351.8" y="565" font-size="11.5" font-weight="800" fill="#7c3aed">조문 · preliminary plans and enquiries</text>
      <rect x="494.8" y="552" width="50" height="24" rx="5" fill="#b9c7bf" opacity="0.14"/>
      <text x="519.8" y="569" text-anchor="middle" font-size="12" font-weight="800" fill="#17231d">후속</text>
      <text x="299.8" y="602" font-size="15.5" font-weight="800" fill="#17231d"><tspan x="299.8" dy="0">주요 공공건축 사전계획 의견요청</tspan></text>
      <text x="299.8" y="627" font-size="11" font-weight="650" fill="#627169">주요 공공건축이면 정식 신청 전에 OSC에 예…</text>
    </g>
  

    <g filter="url(#card-shadow)">
      <rect x="664.3" y="541" width="278" height="98" rx="11" fill="none" stroke="#7c3aed" stroke-width="2.2" stroke-dasharray="7 5"/>
      <rect x="668.3" y="545" width="270" height="90" rx="8" fill="#087452" stroke="#087452" stroke-width="2.3"/>
      <rect x="668.3" y="545" width="6" height="90" rx="3" fill="#087452"/>
      <text x="683.3" y="565" class="mono" font-size="12.5" font-weight="750" fill="#d8f4e8">B02</text>
      <text x="735.3" y="565" font-size="11.5" font-weight="800" fill="#7c3aed">조문 · zoning and plan submittals</text>
      <rect x="878.3" y="552" width="50" height="24" rx="5" fill="#ffffff" opacity="0.18"/>
      <text x="903.3" y="569" text-anchor="middle" font-size="12" font-weight="800" fill="#ffffff">핵심</text>
      <text x="683.3" y="592" font-size="15.5" font-weight="800" fill="#ffffff"><tspan x="683.3" dy="0">용도지역·부지·기반시설 신청도서</tspan><tspan x="683.3" dy="18">작성</tspan></text>
      <text x="683.3" y="627" font-size="11" font-weight="650" fill="#d8f4e8">등록전문가가 현행 용도지역과 필지 조건을 반…</text>
    </g>
  

    <g filter="url(#card-shadow)">
      <rect x="280.8" y="1001" width="278" height="98" rx="11" fill="none" stroke="#7c3aed" stroke-width="2.2" stroke-dasharray="7 5"/>
      <rect x="284.8" y="1005" width="270" height="90" rx="8" fill="#087452" stroke="#087452" stroke-width="2.3"/>
      <rect x="284.8" y="1005" width="6" height="90" rx="3" fill="#087452"/>
      <text x="299.8" y="1025" class="mono" font-size="12.5" font-weight="750" fill="#d8f4e8">B03</text>
      <text x="351.8" y="1025" font-size="11.5" font-weight="800" fill="#7c3aed">조문 · BPMIS proposal submission</text>
      <rect x="494.8" y="1012" width="50" height="24" rx="5" fill="#ffffff" opacity="0.18"/>
      <text x="519.8" y="1029" text-anchor="middle" font-size="12" font-weight="800" fill="#ffffff">핵심</text>
      <text x="299.8" y="1062" font-size="15.5" font-weight="800" fill="#ffffff"><tspan x="299.8" dy="0">BPMIS 건축허가 전자신청</tspan></text>
      <text x="299.8" y="1087" font-size="11" font-weight="650" fill="#d8f4e8">건축주 또는 권한 있는 등록전문가가 키갈리시…</text>
    </g>
  

    <g filter="url(#card-shadow)">
      <rect x="1047.8" y="1001" width="278" height="98" rx="11" fill="none" stroke="#7c3aed" stroke-width="2.2" stroke-dasharray="7 5"/>
      <rect x="1051.8" y="1005" width="270" height="90" rx="8" fill="#fff8e8" stroke="#d9901a" stroke-width="2.3"/>
      <rect x="1051.8" y="1005" width="6" height="90" rx="3" fill="#d9901a"/>
      <text x="1066.8" y="1025" class="mono" font-size="12.5" font-weight="750" fill="#a96008">B04</text>
      <text x="1118.8" y="1025" font-size="11.5" font-weight="800" fill="#7c3aed">조문 · completeness review</text>
      <rect x="1261.8" y="1012" width="50" height="24" rx="5" fill="#d9901a" opacity="0.14"/>
      <text x="1286.8" y="1029" text-anchor="middle" font-size="12" font-weight="800" fill="#7a4305">병목</text>
      <text x="1066.8" y="1062" font-size="15.5" font-weight="800" fill="#7a4305"><tspan x="1066.8" dy="0">OSC 신청완비 확인</tspan></text>
      <text x="1066.8" y="1087" font-size="11" font-weight="650" fill="#a96008">OSC 담당자가 신청인 또는 대리인과 확인해…</text>
    </g>
  

    <g filter="url(#card-shadow)">
      <rect x="1047.8" y="1461" width="278" height="98" rx="11" fill="none" stroke="#7c3aed" stroke-width="2.2" stroke-dasharray="7 5"/>
      <rect x="1051.8" y="1465" width="270" height="90" rx="8" fill="#fff8e8" stroke="#d9901a" stroke-width="2.3"/>
      <rect x="1051.8" y="1465" width="6" height="90" rx="3" fill="#d9901a"/>
      <text x="1066.8" y="1485" class="mono" font-size="12.5" font-weight="750" fill="#a96008">B05</text>
      <text x="1118.8" y="1485" font-size="11.5" font-weight="800" fill="#7c3aed">조문 · technical assessment</text>
      <rect x="1261.8" y="1472" width="50" height="24" rx="5" fill="#d9901a" opacity="0.14"/>
      <text x="1286.8" y="1489" text-anchor="middle" font-size="12" font-weight="800" fill="#7a4305">병목</text>
      <text x="1066.8" y="1522" font-size="15.5" font-weight="800" fill="#7a4305"><tspan x="1066.8" dy="0">종합계획·용도지역·부지 기술평가</tspan></text>
      <text x="1066.8" y="1547" font-size="11" font-weight="650" fill="#a96008">OSC 개발관리 담당자가 종합계획·용도지역,…</text>
    </g>
  

    <g filter="url(#card-shadow)">
      <rect x="664.3" y="1461" width="278" height="98" rx="11" fill="none" stroke="#7c3aed" stroke-width="2.2" stroke-dasharray="7 5"/>
      <rect x="668.3" y="1465" width="270" height="90" rx="8" fill="#ffffff" stroke="#b9c7bf" stroke-width="2.3"/>
      <rect x="668.3" y="1465" width="6" height="90" rx="3" fill="#b9c7bf"/>
      <text x="683.3" y="1485" class="mono" font-size="12.5" font-weight="750" fill="#627169">B06</text>
      <text x="735.3" y="1485" font-size="11.5" font-weight="800" fill="#7c3aed">조문 · BPMIS return for amendments</text>
      <rect x="878.3" y="1472" width="50" height="24" rx="5" fill="#b9c7bf" opacity="0.14"/>
      <text x="903.3" y="1489" text-anchor="middle" font-size="12" font-weight="800" fill="#17231d">후속</text>
      <text x="683.3" y="1522" font-size="15.5" font-weight="800" fill="#17231d"><tspan x="683.3" dy="0">OSC 의견반영·수정안 재제출</tspan></text>
      <text x="683.3" y="1547" font-size="11" font-weight="650" fill="#627169">OSC가 BPMIS에서 신청을 보완요청(amend…</text>
    </g>
  

    <g filter="url(#card-shadow)">
      <rect x="1431.3" y="1921" width="278" height="98" rx="11" fill="none" stroke="#7c3aed" stroke-width="2.2" stroke-dasharray="7 5"/>
      <rect x="1435.3" y="1925" width="270" height="90" rx="8" fill="#fff8e8" stroke="#d9901a" stroke-width="2.3"/>
      <rect x="1435.3" y="1925" width="6" height="90" rx="3" fill="#d9901a"/>
      <text x="1450.3" y="1945" class="mono" font-size="12.5" font-weight="750" fill="#a96008">B07</text>
      <text x="1502.3" y="1945" font-size="11.5" font-weight="800" fill="#7c3aed">조문 · RHA non-objection</text>
      <rect x="1645.3" y="1932" width="50" height="24" rx="5" fill="#d9901a" opacity="0.14"/>
      <text x="1670.3" y="1949" text-anchor="middle" font-size="12" font-weight="800" fill="#7a4305">병목</text>
      <text x="1450.3" y="1972" font-size="15.5" font-weight="800" fill="#7a4305"><tspan x="1450.3" dy="0">등급(Category) 4·5 RHA</tspan><tspan x="1450.3" dy="18">이의없음 확인(non-objection)</tspan></text>
      <text x="1450.3" y="2007" font-size="11" font-weight="650" fill="#a96008">등급 4·5 건축물이면 RHA가 계획·기술요건과…</text>
    </g>
  

    <g filter="url(#card-shadow)">
      <rect x="1047.8" y="1921" width="278" height="98" rx="11" fill="none" stroke="#7c3aed" stroke-width="2.2" stroke-dasharray="7 5"/>
      <rect x="1051.8" y="1925" width="270" height="90" rx="8" fill="#087452" stroke="#087452" stroke-width="2.3"/>
      <rect x="1051.8" y="1925" width="6" height="90" rx="3" fill="#087452"/>
      <text x="1066.8" y="1945" class="mono" font-size="12.5" font-weight="750" fill="#d8f4e8">B08</text>
      <text x="1118.8" y="1945" font-size="11.5" font-weight="800" fill="#7c3aed">조문 · permit assessment and timing</text>
      <rect x="1261.8" y="1932" width="50" height="24" rx="5" fill="#ffffff" opacity="0.18"/>
      <text x="1286.8" y="1949" text-anchor="middle" font-size="12" font-weight="800" fill="#ffffff">핵심</text>
      <text x="1066.8" y="1982" font-size="15.5" font-weight="800" fill="#ffffff"><tspan x="1066.8" dy="0">지구·시 건축허가 결정</tspan></text>
      <text x="1066.8" y="2007" font-size="11" font-weight="650" fill="#d8f4e8">완비일로부터 30일 안에 지구 또는 키갈리시…</text>
    </g>
  

    <text x="38" y="2245" font-size="16" font-weight="800" fill="#18251e">읽는 법</text>
    <rect x="118" y="2219" width="17" height="17" rx="4" fill="#35a77d"/><text x="144" y="2233" font-size="14.5" fill="#526159">선행</text>
<rect x="216" y="2219" width="17" height="17" rx="4" fill="#087452"/><text x="242" y="2233" font-size="14.5" fill="#526159">핵심</text>
<rect x="314" y="2219" width="17" height="17" rx="4" fill="#d9901a"/><text x="340" y="2233" font-size="14.5" fill="#526159">병목</text>
<rect x="412" y="2219" width="17" height="17" rx="4" fill="#3478db"/><text x="438" y="2233" font-size="14.5" fill="#526159">회귀</text>
    <rect x="500" y="2219" width="17" height="17" rx="4" fill="none" stroke="#7c3aed" stroke-width="2" stroke-dasharray="5 4"/>
    <text x="526" y="2233" font-size="14.5" fill="#526159">조문</text>
    <line x1="648" y1="2237" x2="700" y2="2237" stroke="#53675d" stroke-width="4" marker-end="url(#arrow-sequence)"/>
    <text x="720" y="2243" font-size="15" fill="#526159">절차 순서</text>
    <line x1="860" y1="2237" x2="912" y2="2237" stroke="#0f8a65" stroke-width="4" stroke-dasharray="10 8" marker-end="url(#arrow-message)"/>
    <text x="932" y="2243" font-size="15" fill="#526159">정보 전달</text>
    <line x1="1072" y1="2237" x2="1124" y2="2237" stroke="#3478db" stroke-width="4" stroke-dasharray="10 8" marker-end="url(#arrow-loop)"/>
    <text x="1144" y="2243" font-size="15" fill="#526159">보완 회귀</text>
    <text x="38" y="2291" font-size="15.5" font-weight="650" fill="#56655d">단계는 위→아래, 행위자 묶음은 좌→우로 읽습니다.</text>
    <text x="38" y="2321" font-size="14.5" fill="#68776f">원래 4개 행위자 레인을 4개 레이아웃 묶음으로 배치했으며, 8개 업무와 9개 연결 관계는 유지했습니다.</text>
    <text x="38" y="2361" font-size="13.5" fill="#7b8881">출처: 해당 제도의 법률·시행령·시행규칙 기반 모델 · 실제 사건의 진행 상태나 법률 자문을 의미하지 않습니다.</text>
    
  
</svg>