<svg xmlns="http://www.w3.org/2000/svg" width="1800" height="2400" viewBox="0 0 1800 2400">
<defs>
      <filter id="card-shadow" x="-20%" y="-25%" width="140%" height="160%">
        <feDropShadow dx="0" dy="3" stdDeviation="4" flood-color="#12271e" flood-opacity="0.10"/>
      </filter>
      <marker id="arrow-sequence" markerWidth="17" markerHeight="13" refX="15" refY="6.5" orient="auto" markerUnits="userSpaceOnUse">
    <path d="M1,1 L16,6.5 L1,12 Z" fill="#53675d" stroke="#ffffff" stroke-width="1.3" stroke-linejoin="round"/>
  </marker>
      <marker id="arrow-message" markerWidth="17" markerHeight="13" refX="15" refY="6.5" orient="auto" markerUnits="userSpaceOnUse">
    <path d="M1,1 L16,6.5 L1,12 Z" fill="#0f8a65" stroke="#ffffff" stroke-width="1.3" stroke-linejoin="round"/>
  </marker>
      <marker id="arrow-loop" markerWidth="17" markerHeight="13" refX="15" refY="6.5" orient="auto" markerUnits="userSpaceOnUse">
    <path d="M1,1 L16,6.5 L1,12 Z" fill="#3478db" stroke="#ffffff" stroke-width="1.3" stroke-linejoin="round"/>
  </marker>
      <style>
        text { font-family: -apple-system, "Segoe UI", "Helvetica Neue", Arial, "Apple SD Gothic Neo", "Noto Sans CJK KR", "Noto Sans KR", sans-serif; }
        .mono { font-family: "SFMono-Regular", "Menlo", monospace; }
      </style>
    </defs>
<rect width="1800" height="2400" fill="#ffffff"/>
<rect x="0" y="0" width="1800" height="240" fill="#07150f"/>
<rect x="0" y="0" width="1800" height="9" fill="#18a87b"/>

    <text x="1760" y="45" text-anchor="end" font-size="15" font-weight="700" fill="#8fa299">노드 10 · 레인 3 · 게이트 4</text>
    <text x="40" y="132" font-size="34" font-weight="850" fill="#ffffff">우간다 부지·개발허가(Development Permission)·건축허가(Building Permit)</text>
    <text x="40" y="174" font-size="19" font-weight="520" fill="#b7c7bf">토지권원과 지방 physical development plan·planning consent로 용도·밀도·이격·주차를 확정한다.</text>
    
  
<rect x="38" y="260" width="1724" height="1940" rx="10" fill="#ffffff" stroke="#b8c7bf" stroke-width="2"/>
<rect x="38" y="260" width="190" height="100" rx="10" fill="#eaf2ee"/>
<text x="58" y="299" font-size="17" font-weight="800" fill="#17231d">단계 ↓</text>
<text x="58" y="332" font-size="15" font-weight="650" fill="#68776f">행위자 묶음 →</text>
<rect x="38" y="360" width="1724" height="488.5" fill="#84baa9"/>
<rect x="38" y="360" width="190" height="488.5" fill="#087452"/>
<text x="58" y="392" class="mono" font-size="16" font-weight="800" fill="#ffffff">G0</text>
<text x="58" y="425" font-size="19" font-weight="800" fill="#ffffff"><tspan x="58" dy="0">예비조회·계획동</tspan><tspan x="58" dy="22">의</tspan></text>
<rect x="38" y="848.5" width="1724" height="374.5" fill="#84baa9"/>
<rect x="38" y="848.5" width="190" height="374.5" fill="#087452"/>
<text x="58" y="880.5" class="mono" font-size="16" font-weight="800" fill="#ffffff">G1</text>
<text x="58" y="913.5" font-size="19" font-weight="800" fill="#ffffff"><tspan x="58" dy="0">권원·전문도서</tspan></text>
<rect x="38" y="1223" width="1724" height="488.5" fill="#84baa9"/>
<rect x="38" y="1223" width="190" height="488.5" fill="#087452"/>
<text x="58" y="1255" class="mono" font-size="16" font-weight="800" fill="#ffffff">G2</text>
<text x="58" y="1288" font-size="19" font-weight="800" fill="#ffffff"><tspan x="58" dy="0">접수·완비검사</tspan></text>
<rect x="38" y="1711.5" width="1724" height="488.5" fill="#84baa9"/>
<rect x="38" y="1711.5" width="190" height="488.5" fill="#087452"/>
<text x="58" y="1743.5" class="mono" font-size="16" font-weight="800" fill="#ffffff">G3</text>
<text x="58" y="1776.5" font-size="19" font-weight="800" fill="#ffffff"><tspan x="58" dy="0">기술심사·위원회</tspan><tspan x="58" dy="22">결정</tspan></text>
<rect x="228" y="260" width="511.3" height="100" fill="#f7faf8"/>
<rect x="228" y="260" width="511.3" height="7" fill="#0f9f72"/>
<text x="248" y="299" font-size="20" font-weight="800" fill="#17231d">건축주·신청인</text>
<text x="248" y="329" font-size="13.5" font-weight="600" fill="#68776f"><tspan x="248" dy="0">건축주·신청인</tspan></text>
<rect x="739.3" y="260" width="511.3" height="100" fill="#f7faf8"/>
<rect x="739.3" y="260" width="511.3" height="7" fill="#3b82f6"/>
<text x="759.3" y="299" font-size="20" font-weight="800" fill="#17231d">현지 설계</text>
<text x="759.3" y="329" font-size="13.5" font-weight="600" fill="#68776f"><tspan x="759.3" dy="0">현지 설계·시공 전문가</tspan></text>
<rect x="1250.7" y="260" width="511.3" height="100" fill="#f7faf8"/>
<rect x="1250.7" y="260" width="511.3" height="7" fill="#c78116"/>
<text x="1270.7" y="299" font-size="20" font-weight="800" fill="#17231d">도시계획</text>
<text x="1270.7" y="329" font-size="13.5" font-weight="600" fill="#68776f"><tspan x="1270.7" dy="0">도시계획·건축 허가기관</tspan></text>
<line x1="228" y1="260" x2="228" y2="2200" stroke="#d3dcd7" stroke-width="1.5"/>
<line x1="739.3" y1="260" x2="739.3" y2="2200" stroke="#d3dcd7" stroke-width="1.5"/>
<line x1="1250.7" y1="260" x2="1250.7" y2="2200" stroke="#d3dcd7" stroke-width="1.5"/>
<line x1="1762" y1="260" x2="1762" y2="2200" stroke="#d3dcd7" stroke-width="1.5"/>
<line x1="38" y1="360" x2="1762" y2="360" stroke="#b8c7bf" stroke-width="2"/>
<line x1="38" y1="360" x2="1762" y2="360" stroke="#c8d3cd" stroke-width="1.5"/>
<line x1="38" y1="848.5" x2="1762" y2="848.5" stroke="#c8d3cd" stroke-width="1.5"/>
<line x1="38" y1="1223" x2="1762" y2="1223" stroke="#c8d3cd" stroke-width="1.5"/>
<line x1="38" y1="1711.5" x2="1762" y2="1711.5" stroke="#c8d3cd" stroke-width="1.5"/>
<line x1="38" y1="2200" x2="1762" y2="2200" stroke="#b8c7bf" stroke-width="2"/>
<path d="M 483.7 592.3 V 608.3 H 473.7 V 608.3" fill="none" stroke="#ffffff" stroke-width="7.4"  stroke-linecap="round" stroke-linejoin="round" opacity="0.94"/>
<path d="M 483.7 592.3 V 608.3 H 473.7 V 608.3" fill="none" stroke="#53675d" stroke-width="3.4"  marker-end="url(#arrow-sequence)" stroke-linecap="round" stroke-linejoin="round" opacity="0.96"/>
<path d="M 487.7 706.3 V 836.5 H 985 V 982.8" fill="none" stroke="#ffffff" stroke-width="7.4"  stroke-linecap="round" stroke-linejoin="round" opacity="0.94"/>
<path d="M 487.7 706.3 V 836.5 H 985 V 982.8" fill="none" stroke="#53675d" stroke-width="3.4"  marker-end="url(#arrow-sequence)" stroke-linecap="round" stroke-linejoin="round" opacity="0.96"/>
<path d="M 860 1044.8 H 659.7 V 1044.8 H 626.7" fill="none" stroke="#ffffff" stroke-width="7.4"  stroke-linecap="round" stroke-linejoin="round" opacity="0.94"/>
<path d="M 860 1044.8 H 659.7 V 1044.8 H 626.7" fill="none" stroke="#53675d" stroke-width="3.4"  marker-end="url(#arrow-sequence)" stroke-linecap="round" stroke-linejoin="round" opacity="0.96"/>
<path d="M 473.7 1080.8 V 1211 H 473.7 V 1357.3" fill="none" stroke="#ffffff" stroke-width="7.4"  stroke-linecap="round" stroke-linejoin="round" opacity="0.94"/>
<path d="M 473.7 1080.8 V 1211 H 473.7 V 1357.3" fill="none" stroke="#53675d" stroke-width="3.4"  marker-end="url(#arrow-sequence)" stroke-linecap="round" stroke-linejoin="round" opacity="0.96"/>
<path d="M 618.7 1416.8 H 1343.3 V 1476.3 H 1363.3" fill="none" stroke="#ffffff" stroke-width="7.4"  stroke-linecap="round" stroke-linejoin="round" opacity="0.94"/>
<path d="M 618.7 1416.8 H 1343.3 V 1476.3 H 1363.3" fill="none" stroke="#53675d" stroke-width="3.4"  marker-end="url(#arrow-sequence)" stroke-linecap="round" stroke-linejoin="round" opacity="0.96"/>
<path d="M 1512.3 1512.3 V 1651.5 H 1500.3 V 1845.8" fill="none" stroke="#ffffff" stroke-width="7.4"  stroke-linecap="round" stroke-linejoin="round" opacity="0.94"/>
<path d="M 1512.3 1512.3 V 1651.5 H 1500.3 V 1845.8" fill="none" stroke="#53675d" stroke-width="3.4"  marker-end="url(#arrow-sequence)" stroke-linecap="round" stroke-linejoin="round" opacity="0.96"/>
<path d="M 1371.3 1450.3 H 659.7 V 1535.8 H 626.7" fill="none" stroke="#ffffff" stroke-width="7.4" stroke-dasharray="11 8" stroke-linecap="round" stroke-linejoin="round" opacity="0.94"/>
<path d="M 1371.3 1450.3 H 659.7 V 1535.8 H 626.7" fill="none" stroke="#0f8a65" stroke-width="3.4" stroke-dasharray="11 8" marker-end="url(#arrow-message)" stroke-linecap="round" stroke-linejoin="round" opacity="0.96"/>
<path d="M 618.7 1522.8 H 1317.3 V 1468.3 H 1363.3" fill="none" stroke="#ffffff" stroke-width="8" stroke-dasharray="10 8" stroke-linecap="round" stroke-linejoin="round" opacity="0.94"/>
<path d="M 618.7 1522.8 H 1317.3 V 1468.3 H 1363.3" fill="none" stroke="#3478db" stroke-width="4" stroke-dasharray="10 8" marker-end="url(#arrow-loop)" stroke-linecap="round" stroke-linejoin="round" opacity="0.96"/>
<path d="M 1532.3 1943.8 V 1959.8 H 1504.3 V 1959.8" fill="none" stroke="#ffffff" stroke-width="7.4"  stroke-linecap="round" stroke-linejoin="round" opacity="0.94"/>
<path d="M 1532.3 1943.8 V 1959.8 H 1504.3 V 1959.8" fill="none" stroke="#53675d" stroke-width="3.4"  marker-end="url(#arrow-sequence)" stroke-linecap="round" stroke-linejoin="round" opacity="0.96"/>
<path d="M 1371.3 2006.3 H 646.7 V 1962.3 H 626.7" fill="none" stroke="#ffffff" stroke-width="7.4" stroke-dasharray="11 8" stroke-linecap="round" stroke-linejoin="round" opacity="0.94"/>
<path d="M 1371.3 2006.3 H 646.7 V 1962.3 H 626.7" fill="none" stroke="#0f8a65" stroke-width="3.4" stroke-dasharray="11 8" marker-end="url(#arrow-message)" stroke-linecap="round" stroke-linejoin="round" opacity="0.96"/>
<path d="M 618.7 1951.8 H 1330.3 V 1888.3 H 1363.3" fill="none" stroke="#ffffff" stroke-width="8" stroke-dasharray="10 8" stroke-linecap="round" stroke-linejoin="round" opacity="0.94"/>
<path d="M 618.7 1951.8 H 1330.3 V 1888.3 H 1363.3" fill="none" stroke="#3478db" stroke-width="4" stroke-dasharray="10 8" marker-end="url(#arrow-loop)" stroke-linecap="round" stroke-linejoin="round" opacity="0.96"/>
<rect x="690.7" y="589.3" width="96" height="30" rx="6" fill="#ffffff" stroke="#53675d" stroke-width="1.4"/>
<text x="738.7" y="609.3" text-anchor="middle" font-size="14" font-weight="750" fill="#53675d">예비의견</text>
<rect x="688.3" y="804.5" width="96" height="30" rx="6" fill="#ffffff" stroke="#53675d" stroke-width="1.4"/>
<text x="736.3" y="824.5" text-anchor="middle" font-size="14" font-weight="750" fill="#53675d">계획동의</text>
<rect x="691.3" y="1012.8" width="96" height="30" rx="6" fill="#ffffff" stroke="#53675d" stroke-width="1.4"/>
<text x="739.3" y="1032.8" text-anchor="middle" font-size="14" font-weight="750" fill="#53675d">전문도서</text>
<rect x="422.2" y="1179" width="103" height="30" rx="6" fill="#ffffff" stroke="#53675d" stroke-width="1.4"/>
<text x="473.7" y="1199" text-anchor="middle" font-size="14" font-weight="750" fill="#53675d">권원·소개서</text>
<rect x="947" y="1414.5" width="96" height="30" rx="6" fill="#ffffff" stroke="#53675d" stroke-width="1.4"/>
<text x="995" y="1434.5" text-anchor="middle" font-size="14" font-weight="750" fill="#53675d">신청접수</text>
<rect x="1458.3" y="1619.5" width="96" height="30" rx="6" fill="#ffffff" stroke="#53675d" stroke-width="1.4"/>
<text x="1506.3" y="1639.5" text-anchor="middle" font-size="14" font-weight="750" fill="#53675d">완비</text>
<rect x="944.6" y="1461" width="100.9" height="30" rx="6" fill="#ffffff" stroke="#0f8a65" stroke-width="1.4"/>
<text x="995" y="1481" text-anchor="middle" font-size="14" font-weight="750" fill="#0f8a65">불완전 반려</text>
<rect x="944.6" y="1499.5" width="100.9" height="30" rx="6" fill="#ffffff" stroke="#3478db" stroke-width="1.4"/>
<text x="995" y="1519.5" text-anchor="middle" font-size="14" font-weight="750" fill="#3478db">보완 재접수</text>
<rect x="1643.3" y="1796.8" width="96" height="30" rx="6" fill="#ffffff" stroke="#53675d" stroke-width="1.4"/>
<text x="1691.3" y="1816.8" text-anchor="middle" font-size="14" font-weight="750" fill="#53675d">기술권고</text>
<rect x="947" y="1952.3" width="96" height="30" rx="6" fill="#ffffff" stroke="#0f8a65" stroke-width="1.4"/>
<text x="995" y="1972.3" text-anchor="middle" font-size="14" font-weight="750" fill="#0f8a65">유예·거부</text>
<rect x="944.6" y="1888" width="100.9" height="30" rx="6" fill="#ffffff" stroke="#3478db" stroke-width="1.4"/>
<text x="995" y="1908" text-anchor="middle" font-size="14" font-weight="750" fill="#3478db">수정안 재심</text>

    <g filter="url(#card-shadow)">
      <rect x="344.7" y="498.3" width="278" height="98" rx="11" fill="none" stroke="#7c3aed" stroke-width="2.2" stroke-dasharray="7 5"/>
      <rect x="348.7" y="502.3" width="270" height="90" rx="8" fill="#ffffff" stroke="#b9c7bf" stroke-width="2.3"/>
      <rect x="348.7" y="502.3" width="6" height="90" rx="3" fill="#b9c7bf"/>
      <text x="363.7" y="522.3" class="mono" font-size="12.5" font-weight="750" fill="#627169">B01</text>
      <text x="415.7" y="522.3" font-size="11.5" font-weight="800" fill="#7c3aed">조문 · Preliminary building permit enquiries</text>
      <rect x="558.7" y="509.3" width="50" height="24" rx="5" fill="#b9c7bf" opacity="0.14"/>
      <text x="583.7" y="526.3" text-anchor="middle" font-size="12" font-weight="800" fill="#17231d">후속</text>
      <text x="363.7" y="559.3" font-size="15.5" font-weight="800" fill="#17231d"><tspan x="363.7" dy="0">복합·공공건축 예비조회</tspan></text>
      <text x="363.7" y="584.3" font-size="11" font-weight="650" fill="#627169">복합구조 또는 공공건축이면 신청 전에 건축통…</text>
    </g>
  

    <g filter="url(#card-shadow)">
      <rect x="344.7" y="612.3" width="278" height="98" rx="11" fill="none" stroke="#7c3aed" stroke-width="2.2" stroke-dasharray="7 5"/>
      <rect x="348.7" y="616.3" width="270" height="90" rx="8" fill="#087452" stroke="#087452" stroke-width="2.3"/>
      <rect x="348.7" y="616.3" width="6" height="90" rx="3" fill="#087452"/>
      <text x="363.7" y="636.3" class="mono" font-size="12.5" font-weight="750" fill="#d8f4e8">B02</text>
      <text x="415.7" y="636.3" font-size="11.5" font-weight="800" fill="#7c3aed">조문 · 건축허가 필수 planning approval</text>
      <rect x="558.7" y="623.3" width="50" height="24" rx="5" fill="#ffffff" opacity="0.18"/>
      <text x="583.7" y="640.3" text-anchor="middle" font-size="12" font-weight="800" fill="#ffffff">핵심</text>
      <text x="363.7" y="673.3" font-size="15.5" font-weight="800" fill="#ffffff"><tspan x="363.7" dy="0">개발허가 확보</tspan></text>
      <text x="363.7" y="698.3" font-size="11" font-weight="650" fill="#d8f4e8">관할 물리계획위원회에 대상지 토지이용·개발…</text>
    </g>
  

    <g filter="url(#card-shadow)">
      <rect x="856" y="986.8" width="278" height="98" rx="11" fill="none" stroke="#7c3aed" stroke-width="2.2" stroke-dasharray="7 5"/>
      <rect x="860" y="990.8" width="270" height="90" rx="8" fill="#087452" stroke="#087452" stroke-width="2.3"/>
      <rect x="860" y="990.8" width="6" height="90" rx="3" fill="#087452"/>
      <text x="875" y="1010.8" class="mono" font-size="12.5" font-weight="750" fill="#d8f4e8">B03</text>
      <text x="927" y="1010.8" font-size="11.5" font-weight="800" fill="#7c3aed">조문 · 전문도서·다층건물 요건</text>
      <rect x="1070" y="997.8" width="50" height="24" rx="5" fill="#ffffff" opacity="0.18"/>
      <text x="1095" y="1014.8" text-anchor="middle" font-size="12" font-weight="800" fill="#ffffff">핵심</text>
      <text x="875" y="1047.8" font-size="15.5" font-weight="800" fill="#ffffff"><tspan x="875" dy="0">등록전문가 건축·기술도서 작성</tspan></text>
      <text x="875" y="1072.8" font-size="11" font-weight="650" fill="#d8f4e8">등록 건축사·기술자가 건축·구조·전기·기계도…</text>
    </g>
  

    <g filter="url(#card-shadow)">
      <rect x="344.7" y="986.8" width="278" height="98" rx="11" fill="none" stroke="#7c3aed" stroke-width="2.2" stroke-dasharray="7 5"/>
      <rect x="348.7" y="990.8" width="270" height="90" rx="8" fill="#ffffff" stroke="#b9c7bf" stroke-width="2.3"/>
      <rect x="348.7" y="990.8" width="6" height="90" rx="3" fill="#b9c7bf"/>
      <text x="363.7" y="1010.8" class="mono" font-size="12.5" font-weight="750" fill="#627169">B04</text>
      <text x="415.7" y="1010.8" font-size="11.5" font-weight="800" fill="#7c3aed">조문 · 건축허가 신청요건</text>
      <rect x="558.7" y="997.8" width="50" height="24" rx="5" fill="#b9c7bf" opacity="0.14"/>
      <text x="583.7" y="1014.8" text-anchor="middle" font-size="12" font-weight="800" fill="#17231d">후속</text>
      <text x="363.7" y="1047.8" font-size="15.5" font-weight="800" fill="#17231d"><tspan x="363.7" dy="0">권원·마을협의회 서신 준비</tspan></text>
      <text x="363.7" y="1072.8" font-size="11" font-weight="650" fill="#627169">토지권리증서(land title) 또는 소유권 증빙…</text>
    </g>
  

    <g filter="url(#card-shadow)">
      <rect x="344.7" y="1361.3" width="278" height="98" rx="11" fill="none" stroke="#7c3aed" stroke-width="2.2" stroke-dasharray="7 5"/>
      <rect x="348.7" y="1365.3" width="270" height="90" rx="8" fill="#087452" stroke="#087452" stroke-width="2.3"/>
      <rect x="348.7" y="1365.3" width="6" height="90" rx="3" fill="#087452"/>
      <text x="363.7" y="1385.3" class="mono" font-size="12.5" font-weight="750" fill="#d8f4e8">B05</text>
      <text x="415.7" y="1385.3" font-size="11.5" font-weight="800" fill="#7c3aed">조문 · 주거·상업건축허가 신청</text>
      <rect x="558.7" y="1372.3" width="50" height="24" rx="5" fill="#ffffff" opacity="0.18"/>
      <text x="583.7" y="1389.3" text-anchor="middle" font-size="12" font-weight="800" fill="#ffffff">핵심</text>
      <text x="363.7" y="1422.3" font-size="15.5" font-weight="800" fill="#ffffff"><tspan x="363.7" dy="0">BIMS·건축위원회 신청</tspan></text>
      <text x="363.7" y="1447.3" font-size="11" font-weight="650" fill="#d8f4e8">대상지 관할 건축위원회에 서식 2(Form 2),…</text>
    </g>
  

    <g filter="url(#card-shadow)">
      <rect x="1367.3" y="1418.3" width="278" height="98" rx="11" fill="none" stroke="#7c3aed" stroke-width="2.2" stroke-dasharray="7 5"/>
      <rect x="1371.3" y="1422.3" width="270" height="90" rx="8" fill="#fff8e8" stroke="#d9901a" stroke-width="2.3"/>
      <rect x="1371.3" y="1422.3" width="6" height="90" rx="3" fill="#d9901a"/>
      <text x="1386.3" y="1442.3" class="mono" font-size="12.5" font-weight="750" fill="#a96008">B06</text>
      <text x="1438.3" y="1442.3" font-size="11.5" font-weight="800" fill="#7c3aed">조문 · Receipt and return of incomplete applications</text>
      <rect x="1581.3" y="1429.3" width="50" height="24" rx="5" fill="#d9901a" opacity="0.14"/>
      <text x="1606.3" y="1446.3" text-anchor="middle" font-size="12" font-weight="800" fill="#7a4305">병목</text>
      <text x="1386.3" y="1479.3" font-size="15.5" font-weight="800" fill="#7a4305"><tspan x="1386.3" dy="0">완비검사·불완전 신청 반려</tspan></text>
      <text x="1386.3" y="1504.3" font-size="11" font-weight="650" fill="#a96008">Building Committee가 법정 첨부서류와 수…</text>
    </g>
  

    <g filter="url(#card-shadow)">
      <rect x="344.7" y="1475.3" width="278" height="98" rx="11" fill="none" stroke="#7c3aed" stroke-width="2.2" stroke-dasharray="7 5"/>
      <rect x="348.7" y="1479.3" width="270" height="90" rx="8" fill="#ffffff" stroke="#b9c7bf" stroke-width="2.3"/>
      <rect x="348.7" y="1479.3" width="6" height="90" rx="3" fill="#b9c7bf"/>
      <text x="363.7" y="1499.3" class="mono" font-size="12.5" font-weight="750" fill="#627169">B07</text>
      <text x="415.7" y="1499.3" font-size="11.5" font-weight="800" fill="#7c3aed">조문 · 완비 후 재제출</text>
      <rect x="558.7" y="1486.3" width="50" height="24" rx="5" fill="#b9c7bf" opacity="0.14"/>
      <text x="583.7" y="1503.3" text-anchor="middle" font-size="12" font-weight="800" fill="#17231d">후속</text>
      <text x="363.7" y="1536.3" font-size="15.5" font-weight="800" fill="#17231d"><tspan x="363.7" dy="0">누락서류 보완·재제출</tspan></text>
      <text x="363.7" y="1561.3" font-size="11" font-weight="650" fill="#627169">반려된 신청의 누락요건을 충족하고 prescri…</text>
    </g>
  

    <g filter="url(#card-shadow)">
      <rect x="1367.3" y="1849.8" width="278" height="98" rx="11" fill="none" stroke="#7c3aed" stroke-width="2.2" stroke-dasharray="7 5"/>
      <rect x="1371.3" y="1853.8" width="270" height="90" rx="8" fill="#fff8e8" stroke="#d9901a" stroke-width="2.3"/>
      <rect x="1371.3" y="1853.8" width="6" height="90" rx="3" fill="#d9901a"/>
      <text x="1386.3" y="1873.8" class="mono" font-size="12.5" font-weight="750" fill="#a96008">B08</text>
      <text x="1438.3" y="1873.8" font-size="11.5" font-weight="800" fill="#7c3aed">조문 · Building Control Officer recommendation</text>
      <rect x="1581.3" y="1860.8" width="50" height="24" rx="5" fill="#d9901a" opacity="0.14"/>
      <text x="1606.3" y="1877.8" text-anchor="middle" font-size="12" font-weight="800" fill="#7a4305">병목</text>
      <text x="1386.3" y="1910.8" font-size="15.5" font-weight="800" fill="#7a4305"><tspan x="1386.3" dy="0">건축통제관 기술평가·권고</tspan></text>
      <text x="1386.3" y="1935.8" font-size="11" font-weight="650" fill="#a96008">건축통제관이 토지이용, 주변·환경·안전·위생…</text>
    </g>
  

    <g filter="url(#card-shadow)">
      <rect x="1367.3" y="1963.8" width="278" height="98" rx="11" fill="none" stroke="#7c3aed" stroke-width="2.2" stroke-dasharray="7 5"/>
      <rect x="1371.3" y="1967.8" width="270" height="90" rx="8" fill="#087452" stroke="#087452" stroke-width="2.3"/>
      <rect x="1371.3" y="1967.8" width="6" height="90" rx="3" fill="#087452"/>
      <text x="1386.3" y="1987.8" class="mono" font-size="12.5" font-weight="750" fill="#d8f4e8">B09</text>
      <text x="1438.3" y="1987.8" font-size="11.5" font-weight="800" fill="#7c3aed">조문 · 허가·거부·재심</text>
      <rect x="1581.3" y="1974.8" width="50" height="24" rx="5" fill="#ffffff" opacity="0.18"/>
      <text x="1606.3" y="1991.8" text-anchor="middle" font-size="12" font-weight="800" fill="#ffffff">핵심</text>
      <text x="1386.3" y="2024.8" font-size="15.5" font-weight="800" fill="#ffffff"><tspan x="1386.3" dy="0">건축허가 공식결정</tspan></text>
      <text x="1386.3" y="2049.8" font-size="11" font-weight="650" fill="#d8f4e8">건축위원회가 신청을 심의해 조건부 포함 허가…</text>
    </g>
  

    <g filter="url(#card-shadow)">
      <rect x="344.7" y="1906.8" width="278" height="98" rx="11" fill="none" stroke="#7c3aed" stroke-width="2.2" stroke-dasharray="7 5"/>
      <rect x="348.7" y="1910.8" width="270" height="90" rx="8" fill="#ffffff" stroke="#b9c7bf" stroke-width="2.3"/>
      <rect x="348.7" y="1910.8" width="6" height="90" rx="3" fill="#b9c7bf"/>
      <text x="363.7" y="1930.8" class="mono" font-size="12.5" font-weight="750" fill="#627169">B10</text>
      <text x="415.7" y="1930.8" font-size="11.5" font-weight="800" fill="#7c3aed">조문 · 수정 재제출·appeal</text>
      <rect x="558.7" y="1917.8" width="50" height="24" rx="5" fill="#b9c7bf" opacity="0.14"/>
      <text x="583.7" y="1934.8" text-anchor="middle" font-size="12" font-weight="800" fill="#17231d">후속</text>
      <text x="363.7" y="1967.8" font-size="15.5" font-weight="800" fill="#17231d"><tspan x="363.7" dy="0">거부·유예안 수정 재심신청</tspan></text>
      <text x="363.7" y="1992.8" font-size="11" font-weight="650" fill="#627169">위원회가 요구한 대로 신청·설계를 수정해 재…</text>
    </g>
  

    <text x="38" y="2245" font-size="16" font-weight="800" fill="#18251e">읽는 법</text>
    <rect x="118" y="2219" width="17" height="17" rx="4" fill="#35a77d"/><text x="144" y="2233" font-size="14.5" fill="#526159">선행</text>
<rect x="216" y="2219" width="17" height="17" rx="4" fill="#087452"/><text x="242" y="2233" font-size="14.5" fill="#526159">핵심</text>
<rect x="314" y="2219" width="17" height="17" rx="4" fill="#d9901a"/><text x="340" y="2233" font-size="14.5" fill="#526159">병목</text>
<rect x="412" y="2219" width="17" height="17" rx="4" fill="#3478db"/><text x="438" y="2233" font-size="14.5" fill="#526159">회귀</text>
    <rect x="500" y="2219" width="17" height="17" rx="4" fill="none" stroke="#7c3aed" stroke-width="2" stroke-dasharray="5 4"/>
    <text x="526" y="2233" font-size="14.5" fill="#526159">조문</text>
    <line x1="648" y1="2237" x2="700" y2="2237" stroke="#53675d" stroke-width="4" marker-end="url(#arrow-sequence)"/>
    <text x="720" y="2243" font-size="15" fill="#526159">절차 순서</text>
    <line x1="860" y1="2237" x2="912" y2="2237" stroke="#0f8a65" stroke-width="4" stroke-dasharray="10 8" marker-end="url(#arrow-message)"/>
    <text x="932" y="2243" font-size="15" fill="#526159">정보 전달</text>
    <line x1="1072" y1="2237" x2="1124" y2="2237" stroke="#3478db" stroke-width="4" stroke-dasharray="10 8" marker-end="url(#arrow-loop)"/>
    <text x="1144" y="2243" font-size="15" fill="#526159">보완 회귀</text>
    <text x="38" y="2291" font-size="15.5" font-weight="650" fill="#56655d">단계는 위→아래, 행위자 묶음은 좌→우로 읽습니다.</text>
    <text x="38" y="2321" font-size="14.5" fill="#68776f">원래 3개 행위자 레인을 3개 레이아웃 묶음으로 배치했으며, 10개 업무와 11개 연결 관계는 유지했습니다.</text>
    <text x="38" y="2361" font-size="13.5" fill="#7b8881">출처: 해당 제도의 법률·시행령·시행규칙 기반 모델 · 실제 사건의 진행 상태나 법률 자문을 의미하지 않습니다.</text>
    
  
</svg>